<?xml version="1.0" encoding="iso-8859-1"?>
<!-- Generator: Adobe Illustrator 19.0.0, SVG Export Plug-In . SVG Version: 6.00 Build 0)  -->
<svg version="1.1" id="Layer_1" xmlns="http://www.w3.org/2000/svg" xmlns:xlink="http://www.w3.org/1999/xlink" x="0px" y="0px"
	 viewBox="0 0 492.8 492.8" style="enable-background:new 0 0 492.8 492.8;" xml:space="preserve">
<ellipse style="fill:#BDE1E5;" cx="246.4" cy="105.6" rx="44.8" ry="49.6"/>
<path style="fill:#A3C8CE;" d="M276.8,75.2c0,2.4-2.4,4.8-4.8,4.8h-52c-2.4,0-4.8-2.4-4.8-4.8V58.4c0-2.4,2.4-4.8,4.8-4.8h52
	c2.4,0,4.8,2.4,4.8,4.8V75.2z"/>
<path style="fill:#758789;" d="M276.8,68c0,2.4-2.4,4.8-4.8,4.8h-52c-2.4,0-4.8-2.4-4.8-4.8V51.2c0-2.4,2.4-4.8,4.8-4.8h52
	c2.4,0,4.8,2.4,4.8,4.8V68z"/>
<path style="fill:#607475;" d="M272,46.4h-52c-2.4,0-4.8,2.4-4.8,4.8v9.6H276v-9.6C276.8,48.8,275.2,46.4,272,46.4z"/>
<circle style="fill:#BDE1E5;" cx="246.4" cy="284" r="208"/>
<path style="fill:#A3C8CE;" d="M246.4,88c-112.8,0-204.8,89.6-208,202.4c3.2,112,95.2,202.4,208,202.4s204.8-89.6,208-202.4
	C451.2,178.4,359.2,88,246.4,88z"/>
<path style="fill:#8AB6BA;" d="M246.4,110.4c-108.8,0-198.4,84-207.2,191.2C48,408,137.6,492,246.4,492s198.4-84,207.2-191.2
	C444.8,194.4,355.2,110.4,246.4,110.4z"/>
<circle style="fill:#0A7F50;" cx="246.4" cy="284" r="172"/>
<path style="fill:#79A3A5;" d="M246.4,140.8c-90.4,0-164.8,69.6-172,158.4c8,88,81.6,166.4,172,166.4s164-79.2,172-167.2
	C410.4,210.4,336.8,140.8,246.4,140.8z"/>
<path style="fill:#0D915E;" d="M246.4,140.8c-90.4,0-164.8,69.6-172,158.4c8,88,81.6,157.6,172,157.6s164-69.6,172-158.4
	C410.4,210.4,336.8,140.8,246.4,140.8z"/>
<path style="opacity:0.4;fill:#05603B;enable-background:new    ;" d="M408,327.2h5.6c0.8-2.4,0.8-4.8,1.6-7.2H408v-32.8h11.2
	c0-0.8,0-2.4,0-3.2c0-0.8,0-2.4,0-3.2H408V248h7.2c-0.8-2.4-0.8-4.8-1.6-7.2H408v-17.6c-3.2-8-6.4-15.2-10.4-22.4H368V168h6.4
	c-4-4.8-8.8-8.8-13.6-13.6v6.4H328v-29.6c-7.2-4-14.4-7.2-22.4-10.4H288v-5.6c-2.4-0.8-4.8-0.8-7.2-1.6v7.2H248v-11.2
	c-0.8,0-2.4,0-3.2,0s-2.4,0-3.2,0V120h-32.8v-7.2c-2.4,0.8-4.8,0.8-7.2,1.6v5.6H184c-8,3.2-15.2,6.4-22.4,10.4V160h-32.8v-6.4
	c-4.8,4-8.8,8.8-13.6,13.6h6.4V200H92c-4,7.2-7.2,14.4-10.4,22.4V240H76c-0.8,2.4-0.8,4.8-1.6,7.2h7.2V280H71.2c0,0.8,0,2.4,0,3.2
	c0,0.8,0,2.4,0,3.2h10.4v32.8h-7.2c0.8,2.4,0.8,4.8,1.6,7.2h5.6V344c3.2,8,6.4,15.2,10.4,22.4h29.6v32.8h-3.2
	c4,4.8,8.8,8.8,13.6,13.6v-6.4h32.8V436c7.2,4,14.4,7.2,22.4,10.4h17.6v5.6c2.4,0.8,4.8,0.8,7.2,1.6v-7.2h32.8v11.2
	c0.8,0,2.4,0,3.2,0s2.4,0,3.2,0v-11.2H284v7.2c2.4-0.8,4.8-0.8,7.2-1.6v-5.6h17.6c8-3.2,15.2-6.4,22.4-10.4v-29.6H364v6.4
	c4.8-4,8.8-8.8,13.6-13.6h-6.4v-32.8h29.6c4-7.2,7.2-14.4,10.4-22.4v-16.8H408z M124.8,360H92v-32.8h32.8V360z M124.8,320H92v-32.8
	h32.8V320z M124.8,280.8H92V248h32.8V280.8z M124.8,241.6H92v-32.8h32.8V241.6z M164,399.2h-32.8v-32.8H164V399.2z M164,360h-32.8
	v-32.8H164V360z M164,320h-32.8v-32.8H164V320z M164,280.8h-32.8V248H164V280.8z M164,241.6h-32.8v-32.8H164V241.6z M164,201.6
	h-32.8v-32.8H164V201.6z M203.2,438.4h-32.8v-32h32.8V438.4z M203.2,399.2h-32.8v-32.8h32.8V399.2z M203.2,360h-32.8v-32.8h32.8V360
	z M203.2,320h-32.8v-32.8h32.8V320z M203.2,280.8h-32.8V248h32.8V280.8z M203.2,241.6h-32.8v-32.8h32.8V241.6z M203.2,201.6h-32.8
	v-32.8h32.8V201.6z M203.2,162.4h-32.8v-32.8h32.8V162.4z M243.2,438.4h-32.8v-32h32.8V438.4z M243.2,399.2h-32.8v-32.8h32.8V399.2z
	 M243.2,360h-32.8v-32.8h32.8V360z M243.2,320h-32.8v-32.8h32.8V320z M243.2,280.8h-32.8V248h32.8V280.8z M243.2,241.6h-32.8v-32.8
	h32.8V241.6z M243.2,201.6h-32.8v-32.8h32.8V201.6z M243.2,162.4h-32.8v-32.8h32.8V162.4z M282.4,438.4h-32.8v-32h32.8V438.4z
	 M282.4,399.2h-32.8v-32.8h32.8V399.2z M282.4,360h-32.8v-32.8h32.8V360z M282.4,320h-32.8v-32.8h32.8V320z M282.4,280.8h-32.8V248
	h32.8V280.8z M282.4,241.6h-32.8v-32.8h32.8V241.6z M282.4,201.6h-32.8v-32.8h32.8V201.6z M282.4,162.4h-32.8v-32.8h32.8V162.4z
	 M321.6,438.4h-32.8v-32h32.8V438.4z M321.6,399.2h-32.8v-32.8h32.8V399.2z M321.6,360h-32.8v-32.8h32.8V360z M321.6,320h-32.8
	v-32.8h32.8V320z M321.6,280.8h-32.8V248h32.8V280.8z M321.6,241.6h-32.8v-32.8h32.8V241.6z M321.6,201.6h-32.8v-32.8h32.8V201.6z
	 M321.6,162.4h-32.8v-32.8h32.8V162.4z M361.6,399.2h-32.8v-32.8h32.8V399.2z M361.6,360h-32.8v-32.8h32.8V360z M361.6,320h-32.8
	v-32.8h32.8V320z M361.6,280.8h-32.8V248h32.8V280.8z M361.6,241.6h-32.8v-32.8h32.8V241.6z M361.6,201.6h-32.8v-32.8h32.8V201.6z
	 M400.8,360H368v-32.8h32.8V360z M400.8,320H368v-32.8h32.8V320z M400.8,280.8H368V248h32.8V280.8z M368,241.6v-32.8h32.8v32.8H368z
	"/>
<g>
	<path style="fill:#20E092;" d="M248.8,436c0,1.6-0.8,2.4-2.4,2.4l0,0c-1.6,0-2.4-0.8-2.4-2.4V291.2c0-1.6,0.8-2.4,2.4-2.4l0,0
		c1.6,0,2.4,0.8,2.4,2.4V436z"/>
	<path style="fill:#20E092;" d="M173.6,365.6c-1.6,0-2.4-0.8-2.4-2.4l0,0c0-1.6,0.8-2.4,2.4-2.4h145.6c1.6,0,2.4,0.8,2.4,2.4l0,0
		c0,1.6-0.8,2.4-2.4,2.4H173.6z"/>
</g>
<g>
	<circle style="opacity:0.3;fill:#FFC022;enable-background:new    ;" cx="206.4" cy="204.8" r="24.8"/>
	<circle style="fill:#FFC022;" cx="206.4" cy="204.8" r="16"/>
</g>
<path style="fill:#FFA81D;" d="M215.2,204.8c0,4.8-4,8-8,8c-4.8,0-8-4-8-8c0-4.8,4-8,8-8S215.2,200.8,215.2,204.8z"/>
<g>
	<circle style="opacity:0.3;fill:#FFC022;enable-background:new    ;" cx="362.4" cy="327.2" r="24.8"/>
	<circle style="fill:#FFC022;" cx="362.4" cy="327.2" r="16"/>
</g>
<circle style="fill:#FFA81D;" cx="362.4" cy="327.2" r="8"/>
<g>
	<circle style="opacity:0.3;fill:#FFC022;enable-background:new    ;" cx="166.4" cy="402.4" r="17.6"/>
	<circle style="fill:#FFC022;" cx="166.4" cy="402.4" r="12"/>
</g>
<path style="fill:#FFA81D;" d="M172,402.4c0,3.2-2.4,5.6-5.6,5.6c-3.2,0-5.6-2.4-5.6-5.6s2.4-5.6,5.6-5.6
	C169.6,396,172,399.2,172,402.4z"/>
<path style="opacity:0.4;fill:#05603B;enable-background:new    ;" d="M277.6,324l-26.4-52.8c-1.6-3.2-7.2-3.2-8.8,0L216,324
	c-0.8,1.6-0.8,3.2,0,4.8c0.8,1.6,2.4,2.4,4,2.4h53.6c1.6,0,3.2-0.8,4-2.4C278.4,328,278.4,325.6,277.6,324z"/>
<path style="fill:#F7576E;" d="M277.6,308l-26.4-52.8c-1.6-3.2-7.2-3.2-8.8,0L216,308c-0.8,1.6-0.8,3.2,0,4.8c0.8,1.6,2.4,2.4,4,2.4
	h53.6c1.6,0,3.2-0.8,4-2.4S278.4,309.6,277.6,308z"/>
<path style="fill:#E23B5B;" d="M234.4,270.4l-19.2,38.4c-0.8,1.6-0.8,3.2,0,4.8c0.8,1.6,2.4,2.4,4,2.4h37.6L234.4,270.4z"/>
<path style="fill:#A3C8CE;" d="M299.2,37.6c0,8.8-7.2,16-16,16h-74.4c-8.8,0-16-7.2-16-16V16c0-8.8,7.2-16,16-16h74.4
	c8.8,0,16,7.2,16,16V37.6z"/>
<path style="fill:#BDE1E5;" d="M209.6,0.8c-6.4,0-12,4-14.4,9.6c2.4,5.6,8,1.6,14.4,1.6H284c6.4,0,12,4,14.4-1.6
	c-2.4-5.6-8-9.6-14.4-9.6H209.6z"/>
<g>
	<path style="fill:#8B9D9E;" d="M223.2,66.4c0,0.8-0.8,1.6-1.6,1.6l0,0c-0.8,0-1.6-0.8-1.6-1.6v-7.2c0-0.8,0.8-1.6,1.6-1.6l0,0
		c0.8,0,1.6,0.8,1.6,1.6V66.4z"/>
	<path style="fill:#8B9D9E;" d="M229.6,66.4c0,0.8-0.8,1.6-1.6,1.6l0,0c-0.8,0-1.6-0.8-1.6-1.6v-7.2c0-0.8,0.8-1.6,1.6-1.6l0,0
		c0.8,0,1.6,0.8,1.6,1.6V66.4z"/>
	<path style="fill:#8B9D9E;" d="M235.2,66.4c0,0.8-0.8,1.6-1.6,1.6l0,0c-0.8,0-1.6-0.8-1.6-1.6v-7.2c0-0.8,0.8-1.6,1.6-1.6l0,0
		c0.8,0,1.6,0.8,1.6,1.6V66.4z"/>
	<path style="fill:#8B9D9E;" d="M241.6,66.4c0,0.8-0.8,1.6-1.6,1.6l0,0c-0.8,0-1.6-0.8-1.6-1.6v-7.2c0-0.8,0.8-1.6,1.6-1.6l0,0
		c0.8,0,1.6,0.8,1.6,1.6V66.4z"/>
	<path style="fill:#8B9D9E;" d="M248,66.4c0,0.8-0.8,1.6-1.6,1.6l0,0c-0.8,0-1.6-0.8-1.6-1.6v-7.2c0-0.8,0.8-1.6,1.6-1.6l0,0
		c0.8,0,1.6,0.8,1.6,1.6V66.4z"/>
	<path style="fill:#8B9D9E;" d="M253.6,66.4c0,0.8-0.8,1.6-1.6,1.6l0,0c-0.8,0-1.6-0.8-1.6-1.6v-7.2c0-0.8,0.8-1.6,1.6-1.6l0,0
		c0.8,0,1.6,0.8,1.6,1.6V66.4z"/>
	<path style="fill:#8B9D9E;" d="M260,66.4c0,0.8-0.8,1.6-1.6,1.6l0,0c-0.8,0-1.6-0.8-1.6-1.6v-7.2c0-0.8,0.8-1.6,1.6-1.6l0,0
		c0.8,0,1.6,0.8,1.6,1.6V66.4z"/>
	<path style="fill:#8B9D9E;" d="M266.4,66.4c0,0.8-0.8,1.6-1.6,1.6l0,0c-0.8,0-1.6-0.8-1.6-1.6v-7.2c0-0.8,0.8-1.6,1.6-1.6l0,0
		c0.8,0,1.6,0.8,1.6,1.6V66.4z"/>
	<path style="fill:#8B9D9E;" d="M272,66.4c0,0.8-0.8,1.6-1.6,1.6l0,0c-0.8,0-1.6-0.8-1.6-1.6v-7.2c0-0.8,0.8-1.6,1.6-1.6l0,0
		c0.8,0,1.6,0.8,1.6,1.6V66.4z"/>
</g>
<g>
</g>
<g>
</g>
<g>
</g>
<g>
</g>
<g>
</g>
<g>
</g>
<g>
</g>
<g>
</g>
<g>
</g>
<g>
</g>
<g>
</g>
<g>
</g>
<g>
</g>
<g>
</g>
<g>
</g>
</svg>
