<?xml version="1.0" encoding="iso-8859-1"?>
<!-- Generator: Adobe Illustrator 19.0.0, SVG Export Plug-In . SVG Version: 6.00 Build 0)  -->
<svg version="1.1" id="Layer_1" xmlns="http://www.w3.org/2000/svg" xmlns:xlink="http://www.w3.org/1999/xlink" x="0px" y="0px"
	 viewBox="0 0 476.8 476.8" style="enable-background:new 0 0 476.8 476.8;" xml:space="preserve">
<polygon style="fill:#CECCB3;" points="251.2,430.4 225.6,430.4 217.6,294.4 259.2,294.4 "/>
<polyline style="fill:#B5B299;" points="214.4,294.4 259.2,294.4 251.2,430.4 "/>
<g>
	<path style="fill:#CECCB3;" d="M30.4,206.4v64h160v-64H30.4z M86.4,254.4c-8.8,0-16-7.2-16-16c0-8.8,7.2-16,16-16s16,7.2,16,16
		C102.4,247.2,95.2,254.4,86.4,254.4z M136,254.4c-8.8,0-16-7.2-16-16c0-8.8,7.2-16,16-16s16,7.2,16,16
		C152,247.2,144.8,254.4,136,254.4z"/>
	<path style="fill:#CECCB3;" d="M286.4,206.4v64h152v-64H286.4z M374.4,238.4c0-8.8,7.2-16,16-16s16,7.2,16,16c0,8.8-7.2,16-16,16
		S374.4,247.2,374.4,238.4z M324.8,238.4c0-8.8,7.2-16,16-16s16,7.2,16,16c0,8.8-7.2,16-16,16S324.8,247.2,324.8,238.4z"/>
</g>
<path style="fill:#454949;" d="M238.4,0C106.4,0,0,106.4,0,238.4s106.4,238.4,238.4,238.4s238.4-106.4,238.4-238.4S370.4,0,238.4,0z
	 M238.4,424.8C135.2,424.8,52,341.6,52,238.4S135.2,52,238.4,52s186.4,83.2,186.4,186.4S341.6,424.8,238.4,424.8z"/>
<path style="fill:#1E2323;" d="M238.4,0v52c103.2,0,186.4,83.2,186.4,186.4s-83.2,186.4-186.4,186.4v52
	c132,0,238.4-106.4,238.4-238.4S370.4,0,238.4,0z"/>
<circle style="fill:#3B3F3F;" cx="238.4" cy="238.4" r="72.8"/>
<path style="fill:#1E2323;" d="M290.4,186.4c28.8,28.8,28.8,74.4,0,103.2c-28.8,28.8-74.4,28.8-103.2,0"/>
<circle style="fill:#F7F6ED;" cx="238.4" cy="238.4" r="38.4"/>
<path style="fill:#EAE9DA;" d="M265.6,211.2c15.2,15.2,15.2,39.2,0,53.6c-15.2,15.2-39.2,15.2-53.6,0"/>
<circle style="fill:#EF880C;" cx="238.4" cy="238.4" r="22.4"/>
<path style="fill:#D66203;" d="M253.6,223.2c8.8,8.8,8.8,22.4,0,31.2s-22.4,8.8-31.2,0"/>
<g>
</g>
<g>
</g>
<g>
</g>
<g>
</g>
<g>
</g>
<g>
</g>
<g>
</g>
<g>
</g>
<g>
</g>
<g>
</g>
<g>
</g>
<g>
</g>
<g>
</g>
<g>
</g>
<g>
</g>
</svg>
