<?xml version="1.0" encoding="iso-8859-1"?>
<!-- Generator: Adobe Illustrator 19.0.0, SVG Export Plug-In . SVG Version: 6.00 Build 0)  -->
<svg version="1.1" id="Layer_1" xmlns="http://www.w3.org/2000/svg" xmlns:xlink="http://www.w3.org/1999/xlink" x="0px" y="0px"
	 viewBox="0 0 496 496" style="enable-background:new 0 0 496 496;" xml:space="preserve">
<path style="fill:#BACBCC;" d="M496,377.114c0,11.2-111.2,63.2-248,63.2s-248-52.8-248-63.2c0-11.2,111.2-3.2,248-3.2
	C384.8,374.714,496,366.714,496,377.114z"/>
<g>
	<path style="fill:#99B5B5;" d="M496,377.114c0,11.2-111.2,63.2-248,63.2s-145.6-52-145.6-62.4c0-11.2,8-3.2,145.6-3.2
		C384.8,374.714,496,366.714,496,377.114z"/>
	<path style="fill:#99B5B5;" d="M66.4,380.314c0,0,16.8-114.4,76.8-157.6c59.2-42.4,5.6-134.4,138.4-159.2
		c128.8-24.8,161.6,15.2,164,38.4s-46.4-23.2-59.2,10.4c-12.8,34.4,23.2,72,16.8,152.8c-6.4,80.8,36,114.4,36,114.4l-320.8,10.4
		L66.4,380.314z"/>
</g>
<path style="fill:#BACBCC;" d="M169.6,221.914c59.2-42.4-8.8-133.6,123.2-158.4c25.6-4.8,48-7.2,68.8-7.2c-21.6-0.8-48,1.6-80.8,7.2
	c-132,24.8-78.4,116.8-138.4,159.2c-59.2,42.4-76.8,157.6-76.8,157.6l51.2,10.4h8C124.8,385.114,111.2,263.514,169.6,221.914z"/>
<g>
</g>
<g>
</g>
<g>
</g>
<g>
</g>
<g>
</g>
<g>
</g>
<g>
</g>
<g>
</g>
<g>
</g>
<g>
</g>
<g>
</g>
<g>
</g>
<g>
</g>
<g>
</g>
<g>
</g>
</svg>
