<?xml version="1.0" encoding="iso-8859-1"?>
<!-- Generator: Adobe Illustrator 19.0.0, SVG Export Plug-In . SVG Version: 6.00 Build 0)  -->
<svg version="1.1" id="Layer_1" xmlns="http://www.w3.org/2000/svg" xmlns:xlink="http://www.w3.org/1999/xlink" x="0px" y="0px"
	 viewBox="0 0 512 512" style="enable-background:new 0 0 512 512;" xml:space="preserve">
<pattern  x="-50" y="652" width="38.169" height="38.169" patternUnits="userSpaceOnUse" id="Unnamed_Pattern_51" viewBox="0 -38.169 38.169 38.169" style="overflow:visible;">
	<g>
		<polygon style="fill:none;" points="0,0 38.169,0 38.169,-38.169 0,-38.169 		"/>
		<polygon style="fill:none;" points="0,-38.169 38.169,-38.169 38.169,0 0,0 		"/>
		<polygon style="fill:#958C88;" points="38.169,-38.169 0,-38.169 0,0 38.169,0 		"/>
	</g>
</pattern>
<path style="fill:#A78966;" d="M498.226,215.738c-16.48,48.229-61.806,80.639-112.773,80.639H173.868
	c-38.622,0-75.58-15.73-102.355-43.565L3.588,182.2c-3.57-3.712-4.579-9.196-2.562-13.934s6.668-7.814,11.818-7.814h486.31
	c4.146,0,8.036,2.002,10.448,5.374s3.047,7.701,1.707,11.624L498.226,215.738z"/>
<path style="fill:#957856;" d="M509.603,165.824c-2.411-3.372-6.302-5.374-10.448-5.374H271.923v135.927h113.531
	c50.967,0,96.292-32.411,112.773-80.639l13.084-38.29C512.65,173.526,512.015,169.196,509.603,165.824z"/>
<g>
	<path style="fill:#5AAAE7;" d="M335.479,406.585H123.419c-9.222,0-16.698-7.476-16.698-16.698s7.476-16.698,16.698-16.698h212.061
		c9.222,0,16.698,7.476,16.698,16.698S344.701,406.585,335.479,406.585z"/>
	<path style="fill:#5AAAE7;" d="M439.004,473.377H257.521c-9.222,0-16.698-7.476-16.698-16.698s7.476-16.698,16.698-16.698h181.484
		c9.222,0,16.698,7.476,16.698,16.698S448.227,473.377,439.004,473.377z"/>
</g>
<g>
	<path style="fill:#3D9AE2;" d="M439.004,439.98h-90.742v33.397h90.742c9.222,0,16.698-7.476,16.698-16.698
		S448.227,439.98,439.004,439.98z"/>
	<path style="fill:#3D9AE2;" d="M335.479,373.188H229.448v33.397h106.031c9.222,0,16.698-7.476,16.698-16.698
		S344.701,373.188,335.479,373.188z"/>
</g>
<path style="fill:#5AAAE6;" d="M476.888,329.775H82.703c-9.222,0-16.698-7.476-16.698-16.698s7.476-16.698,16.698-16.698h394.184
	c9.222,0,16.698,7.476,16.698,16.698S486.11,329.775,476.888,329.775z"/>
<path style="fill:#3D9AE2;" d="M476.888,296.378H271.923v33.397h204.966c9.222,0,16.698-7.476,16.698-16.698
	S486.11,296.378,476.888,296.378z"/>
<g>
	<polygon style="fill:#806749;" points="495.13,223.744 43.701,223.744 14.263,193.135 505.95,193.135 	"/>
	<polygon style="fill:#806749;" points="351.946,160.451 304.717,160.451 272.032,193.135 319.262,193.135 	"/>
</g>
<polygon style="fill:#957856;" points="168.791,296.378 216.021,296.378 288.655,223.744 241.425,223.744 "/>
<pattern  id="SVGID_1_" xlink:href="#Unnamed_Pattern_51" patternTransform="matrix(1.1133 0 0 -1.1133 -729.8066 -21271.1445)">
</pattern>
<polygon style="fill:url(#SVGID_1_);" points="272.032,193.135 241.425,223.744 288.655,223.744 319.262,193.135 "/>
<polygon style="fill:#6A563D;" points="272.032,193.135 241.425,223.744 288.655,223.744 319.262,193.135 "/>
<path style="fill:#FFDAAA;" d="M125.304,405.149c-4.954,4.954-12.986,4.954-17.94,0l-61.168-61.168
	c-4.954-4.954-4.954-12.986,0-17.94l41.488-41.488c21.845-21.845,57.262-21.845,79.107,0c21.845,21.845,21.845,57.262,0,79.107
	L125.304,405.149z"/>
<path style="fill:#FFB655;" d="M110.729,357.316c-4.274,0-8.547-1.63-11.807-4.892c-6.521-6.521-6.521-17.094,0-23.615
	L384.218,43.514c6.52-6.521,17.094-6.521,23.615,0c6.521,6.521,6.521,17.094,0,23.615L122.537,352.424
	C119.276,355.686,115.003,357.316,110.729,357.316z"/>
<g>
</g>
<g>
</g>
<g>
</g>
<g>
</g>
<g>
</g>
<g>
</g>
<g>
</g>
<g>
</g>
<g>
</g>
<g>
</g>
<g>
</g>
<g>
</g>
<g>
</g>
<g>
</g>
<g>
</g>
</svg>
