<?xml version="1.0" encoding="iso-8859-1"?>
<!-- Generator: Adobe Illustrator 19.0.0, SVG Export Plug-In . SVG Version: 6.00 Build 0)  -->
<svg version="1.1" id="Layer_1" xmlns="http://www.w3.org/2000/svg" xmlns:xlink="http://www.w3.org/1999/xlink" x="0px" y="0px"
	 viewBox="0 0 496 496" style="enable-background:new 0 0 496 496;" xml:space="preserve">
<rect x="5.6" y="438.8" style="fill:#2EBFA6;" width="485.6" height="49.6"/>
<rect x="5.6" y="458.8" style="fill:#14AFA7;" width="485.6" height="28.8"/>
<g>
	<rect x="148.8" y="130" style="fill:#C18708;" width="224.8" height="21.6"/>
	<rect x="148.8" y="159.6" style="fill:#C18708;" width="224.8" height="4"/>
</g>
<rect x="148.8" y="142.8" style="fill:#936407;" width="224.8" height="9.6"/>
<path style="fill:#EDB435;" d="M244,271.6c5.6,5.6-72.8,93.6-78.4,99.2c-5.6,5.6-15.2,5.6-20.8,0c-5.6-5.6-5.6-15.2,0-20.8
	C150.4,343.6,238.4,266,244,271.6z"/>
<path style="fill:#DBA216;" d="M244,271.6c5.6,5.6-72.8,93.6-78.4,99.2c-5.6,5.6-15.2,5.6-20.8,0"/>
<circle style="fill:#936407;" cx="156.8" cy="360.4" r="12"/>
<circle style="fill:#C18708;" cx="156.8" cy="360.4" r="5.6"/>
<path style="fill:#936407;" d="M4.8,262c-2.4,0-4.8-2.4-4.8-4.8c0-2.4,2.4-4.8,4.8-4.8c25.6,0,49.6-76.8,49.6-105.6
	c0-2.4,2.4-4.8,4.8-4.8s4.8,2.4,4.8,4.8C63.2,175.6,39.2,262,4.8,262z"/>
<path style="fill:#C18708;" d="M90.4,363.6c0,4-3.2,7.2-7.2,7.2h-76c-4,0-7.2-3.2-7.2-7.2l0,0c0-4,3.2-7.2,7.2-7.2h75.2
	C87.2,356.4,90.4,359.6,90.4,363.6L90.4,363.6z"/>
<path style="fill:#936407;" d="M82.4,356.4c4,0,7.2,3.2,7.2,7.2l0,0c0,4-3.2,7.2-7.2,7.2H7.2c-4,0-7.2-3.2-7.2-7.2l0,0"/>
<polygon style="fill:#281B13;" points="92,97.2 66.4,42 40.8,97.2 "/>
<polygon style="fill:#422E20;" points="80.8,97.2 66.4,42 52,97.2 "/>
<path style="fill:#7F5B42;" d="M93.6,98C93.6,98.8,93.6,98.8,93.6,98l-54.4,0.8c0,0-0.8,0-0.8-0.8l0,0c0,0,0-0.8,0.8-0.8L93.6,98
	C93.6,97.2,93.6,98,93.6,98L93.6,98z"/>
<polygon style="fill:#281B13;" points="168.8,97.2 143.2,42 117.6,97.2 "/>
<polygon style="fill:#422E20;" points="156.8,97.2 143.2,42 128.8,97.2 "/>
<path style="fill:#7F5B42;" d="M170.4,98C170.4,98.8,170.4,98.8,170.4,98L116,98.8c0,0-0.8,0-0.8-0.8l0,0c0,0,0-0.8,0.8-0.8
	L170.4,98C170.4,97.2,170.4,98,170.4,98L170.4,98z"/>
<rect x="43.2" y="105.2" style="fill:#DBA216;" width="16.8" height="108"/>
<polyline style="fill:#C18708;" points="60,105.2 60,214 43.2,214 "/>
<rect x="149.6" y="105.2" style="fill:#EFBC4B;" width="16.8" height="108"/>
<g>
	<polyline style="fill:#DBA216;" points="149.6,105.2 149.6,214 166.4,214 	"/>
	<rect x="59.2" y="98.8" style="fill:#DBA216;" width="91.2" height="116"/>
</g>
<polyline style="fill:#EFBC4B;" points="59.2,215.6 59.2,98.8 70.4,98.8 "/>
<polyline style="fill:#C18708;" points="59.2,98.8 150.4,98.8 150.4,215.6 "/>
<rect x="39.2" y="98.8" style="fill:#E5BC5E;" width="130.4" height="8"/>
<polygon style="fill:#CCA352;" points="69.6,106.8 150.4,106.8 150.4,98.8 59.2,98.8 "/>
<rect x="80.8" y="182.8" style="fill:#635439;" width="10.4" height="21.6"/>
<path style="fill:#EDCB8E;" d="M92.8,206H80v-24h12.8V206z M82.4,203.6h8v-19.2h-8V203.6z"/>
<rect x="117.6" y="182.8" style="fill:#635439;" width="10.4" height="21.6"/>
<path style="fill:#EDCB8E;" d="M129.6,206h-12.8v-24h12.8V206z M119.2,203.6h8v-19.2h-8V203.6z"/>
<rect x="100.8" y="182.8" style="fill:#635439;" width="7.2" height="21.6"/>
<path style="fill:#EDCB8E;" d="M109.6,206H100v-24h9.6V206z M102.4,203.6h4.8v-19.2h-4.8V203.6z"/>
<g>
	<rect x="76.8" y="206" style="fill:#C18708;" width="18.4" height="2.4"/>
	<rect x="96" y="206" style="fill:#C18708;" width="18.4" height="2.4"/>
	<rect x="115.2" y="206" style="fill:#C18708;" width="18.4" height="2.4"/>
</g>
<rect x="59.2" y="214.8" style="fill:#DBA216;" width="91.2" height="62.4"/>
<polyline style="fill:#EFBC4B;" points="59.2,276.4 59.2,214.8 70.4,214.8 "/>
<polyline style="fill:#C18708;" points="59.2,214.8 150.4,214.8 150.4,276.4 "/>
<rect x="57.6" y="214" style="fill:#E5BC5E;" width="94.4" height="8"/>
<polygon style="fill:#CCA352;" points="69.6,222 150.4,222 150.4,214.8 59.2,214.8 "/>
<rect x="80.8" y="233.2" style="fill:#635439;" width="10.4" height="21.6"/>
<path style="fill:#EDCB8E;" d="M92.8,255.6H80v-24h12.8V255.6z M82.4,254h8v-19.2h-8V254z"/>
<rect x="117.6" y="233.2" style="fill:#635439;" width="10.4" height="21.6"/>
<path style="fill:#EDCB8E;" d="M129.6,255.6h-12.8v-24h12.8V255.6z M119.2,254h8v-19.2h-8V254z"/>
<rect x="100.8" y="233.2" style="fill:#635439;" width="7.2" height="21.6"/>
<path style="fill:#EDCB8E;" d="M109.6,255.6H100v-24h9.6V255.6z M102.4,254h4.8v-19.2h-4.8V254z"/>
<g>
	<rect x="76.8" y="256.4" style="fill:#C18708;" width="18.4" height="2.4"/>
	<rect x="96" y="256.4" style="fill:#C18708;" width="18.4" height="2.4"/>
	<rect x="115.2" y="256.4" style="fill:#C18708;" width="18.4" height="2.4"/>
</g>
<rect x="59.2" y="265.2" style="fill:#DBA216;" width="91.2" height="62.4"/>
<polyline style="fill:#EFBC4B;" points="59.2,327.6 59.2,265.2 70.4,265.2 "/>
<polyline style="fill:#C18708;" points="59.2,265.2 150.4,265.2 150.4,327.6 "/>
<rect x="57.6" y="265.2" style="fill:#E5BC5E;" width="94.4" height="8"/>
<polygon style="fill:#CCA352;" points="69.6,273.2 150.4,273.2 150.4,265.2 59.2,265.2 "/>
<rect x="80.8" y="283.6" style="fill:#635439;" width="10.4" height="21.6"/>
<path style="fill:#EDCB8E;" d="M92.8,306.8H80v-24h12.8V306.8z M82.4,304.4h8v-19.2h-8V304.4z"/>
<rect x="117.6" y="283.6" style="fill:#635439;" width="10.4" height="21.6"/>
<path style="fill:#EDCB8E;" d="M129.6,306.8h-12.8v-24h12.8V306.8z M119.2,304.4h8v-19.2h-8V304.4z"/>
<rect x="100.8" y="283.6" style="fill:#635439;" width="7.2" height="21.6"/>
<path style="fill:#EDCB8E;" d="M109.6,306.8H100v-24h9.6V306.8z M102.4,304.4h4.8v-19.2h-4.8V304.4z"/>
<g>
	<rect x="76.8" y="306.8" style="fill:#C18708;" width="18.4" height="2.4"/>
	<rect x="96" y="306.8" style="fill:#C18708;" width="18.4" height="2.4"/>
	<rect x="115.2" y="306.8" style="fill:#C18708;" width="18.4" height="2.4"/>
</g>
<rect x="59.2" y="316.4" style="fill:#DBA216;" width="91.2" height="62.4"/>
<polyline style="fill:#EFBC4B;" points="59.2,378 59.2,316.4 70.4,316.4 "/>
<polyline style="fill:#C18708;" points="59.2,316.4 150.4,316.4 150.4,378 "/>
<rect x="57.6" y="315.6" style="fill:#E5BC5E;" width="94.4" height="8"/>
<polygon style="fill:#CCA352;" points="69.6,323.6 150.4,323.6 150.4,316.4 59.2,316.4 "/>
<rect x="80.8" y="334.8" style="fill:#635439;" width="10.4" height="21.6"/>
<path style="fill:#EDCB8E;" d="M92.8,357.2H80v-24h12.8V357.2z M82.4,355.6h8v-20h-8V355.6z"/>
<rect x="117.6" y="334.8" style="fill:#635439;" width="10.4" height="21.6"/>
<path style="fill:#EDCB8E;" d="M129.6,357.2h-12.8v-24h12.8V357.2z M119.2,355.6h8v-20h-8V355.6z"/>
<rect x="100.8" y="334.8" style="fill:#635439;" width="7.2" height="21.6"/>
<path style="fill:#EDCB8E;" d="M109.6,357.2H100v-24h9.6V357.2z M102.4,355.6h4.8v-20h-4.8V355.6z"/>
<g>
	<rect x="76.8" y="358" style="fill:#C18708;" width="18.4" height="2.4"/>
	<rect x="96" y="358" style="fill:#C18708;" width="18.4" height="2.4"/>
	<rect x="115.2" y="358" style="fill:#C18708;" width="18.4" height="2.4"/>
</g>
<rect x="48.8" y="370" style="fill:#6B5C41;" width="111.2" height="69.6"/>
<polygon style="fill:#776849;" points="160,439.6 48.8,439.6 48.8,370 114.4,416.4 "/>
<g>
	<rect x="101.6" y="370" style="fill:#5E513A;" width="58.4" height="69.6"/>
	<path style="fill:#5E513A;" d="M165.6,439.6c0,1.6-0.8,2.4-2.4,2.4H45.6c-1.6,0-2.4-0.8-2.4-2.4l0,0c0-1.6,0.8-2.4,2.4-2.4h117.6
		C164.8,437.2,165.6,438,165.6,439.6L165.6,439.6z"/>
	<path style="fill:#5E513A;" d="M165.6,369.2c0,1.6-0.8,2.4-2.4,2.4H45.6c-1.6,0-2.4-0.8-2.4-2.4l0,0c0-1.6,0.8-2.4,2.4-2.4h117.6
		C164.8,367.6,165.6,368.4,165.6,369.2L165.6,369.2z"/>
</g>
<path style="fill:#C18708;" d="M128.8,138.8c0,12.8-10.4,32.8-24,32.8c-12.8,0-24-19.2-24-32.8s10.4-24,24-24
	C117.6,115.6,128.8,126,128.8,138.8z"/>
<path style="fill:#EDEADA;" d="M128.8,138.8c0,12.8-10.4,24-24,24c-12.8,0-24-10.4-24-24s10.4-24,24-24
	C117.6,115.6,128.8,126,128.8,138.8z"/>
<path style="fill:#DBD6C1;" d="M104.8,115.6c-7.2,0-14.4,3.2-18.4,8.8L120,158c5.6-4,8.8-11.2,8.8-18.4
	C128.8,126,117.6,115.6,104.8,115.6z"/>
<path style="fill:#F4C647;" d="M104.8,165.2c-14.4,0-25.6-11.2-25.6-25.6c0-14.4,11.2-25.6,25.6-25.6s25.6,11.2,25.6,25.6
	C130.4,153.2,119.2,165.2,104.8,165.2z M104.8,117.2c-12,0-21.6,9.6-21.6,21.6s9.6,21.6,21.6,21.6s21.6-9.6,21.6-21.6
	C126.4,126.8,116.8,117.2,104.8,117.2z"/>
<path style="fill:#AF8366;" d="M105.6,138c0,0.8-0.8,0.8-0.8,0.8l0,0c-0.8,0-0.8-0.8-0.8-0.8v-17.6c0-0.8,0.8-0.8,0.8-0.8l0,0
	c0.8,0,0.8,0.8,0.8,0.8V138z"/>
<path style="fill:#4F3E32;" d="M116.8,138.8c0,0.8-0.8,1.6-1.6,1.6H104c-0.8,0-1.6-0.8-1.6-1.6l0,0c0-0.8,0.8-1.6,1.6-1.6h11.2
	C116,137.2,116.8,138,116.8,138.8L116.8,138.8z"/>
<polygon style="fill:#604533;" points="147.2,100.4 104.8,7.6 61.6,100.4 "/>
<polygon style="fill:#422E20;" points="128,100.4 104.8,7.6 80.8,100.4 "/>
<path style="fill:#7F5B42;" d="M150.4,101.2c0,0.8-0.8,0.8-0.8,0.8H60c-0.8,0-0.8-0.8-0.8-0.8l0,0c0-0.8,0-0.8,0.8-0.8h89.6
	C150.4,100.4,150.4,100.4,150.4,101.2L150.4,101.2z"/>
<g>
	<path style="fill:#66D3C3;" d="M156.8,454c0,1.6-0.8,2.4-2.4,2.4H55.2c-1.6,0-2.4-0.8-2.4-2.4l0,0c0-1.6,0.8-2.4,2.4-2.4h98.4
		C155.2,451.6,156.8,452.4,156.8,454L156.8,454z"/>
	<path style="fill:#66D3C3;" d="M102.4,470c0,1.6-1.6,2.4-2.4,2.4H55.2c-1.6,0-2.4-0.8-2.4-2.4l0,0c0-1.6,0.8-2.4,2.4-2.4h44
		C100.8,467.6,102.4,468.4,102.4,470L102.4,470z"/>
	<path style="fill:#66D3C3;" d="M155.2,470c0,1.6-0.8,2.4-2.4,2.4h-8c-1.6,0-2.4-0.8-2.4-2.4l0,0c0-1.6,0.8-2.4,2.4-2.4h8
		C153.6,467.6,155.2,468.4,155.2,470L155.2,470z"/>
	<path style="fill:#66D3C3;" d="M132,470c0,1.6-0.8,2.4-2.4,2.4h-8c-1.6,0-2.4-0.8-2.4-2.4l0,0c0-1.6,0.8-2.4,2.4-2.4h8
		C131.2,467.6,132,468.4,132,470L132,470z"/>
</g>
<g>
	<path style="fill:#C18708;" d="M13.6,357.2c0,1.6-0.8,2.4-2.4,2.4l0,0c-1.6,0-2.4-0.8-2.4-2.4v-98.4c0-1.6,0.8-2.4,2.4-2.4l0,0
		c1.6,0,2.4,0.8,2.4,2.4V357.2z"/>
	<path style="fill:#C18708;" d="M30.4,357.2c0,1.6-0.8,2.4-2.4,2.4l0,0c-1.6,0-2.4-0.8-2.4-2.4v-116c0-1.6,0.8-2.4,2.4-2.4l0,0
		c1.6,0,2.4,0.8,2.4,2.4V357.2z"/>
	<path style="fill:#C18708;" d="M46.4,357.2c0,1.6-0.8,2.4-2.4,2.4l0,0c-1.6,0-2.4-0.8-2.4-2.4v-144c0-1.6,0.8-2.4,2.4-2.4l0,0
		c1.6,0,2.4,0.8,2.4,2.4V357.2z"/>
</g>
<path style="fill:#EDB435;" d="M228,305.2c-3.2,7.2,99.2,64,106.4,68c7.2,3.2,16,0.8,20-7.2c3.2-7.2,0.8-16-7.2-20
	C339.2,342.8,231.2,298,228,305.2z"/>
<path style="fill:#DBA216;" d="M228,305.2c-3.2,7.2,99.2,64,106.4,68c7.2,3.2,16,0.8,20-7.2"/>
<path style="fill:#936407;" d="M328.8,354.8c-3.2,6.4,0,13.6,5.6,16c6.4,3.2,13.6,0,16-5.6c3.2-6.4,0.8-13.6-5.6-16
	C338.4,346.8,331.2,349.2,328.8,354.8z"/>
<path style="fill:#C18708;" d="M334.4,358c-1.6,3.2,0,6.4,2.4,8c3.2,1.6,6.4,0,8-2.4c1.6-3.2,0-6.4-2.4-8
	C339.2,354,336,354.8,334.4,358z"/>
<path style="fill:#936407;" d="M491.2,262c2.4,0,4.8-2.4,4.8-4.8c0-2.4-2.4-4.8-4.8-4.8c-25.6,0-49.6-76.8-49.6-105.6
	c0-2.4-2.4-4.8-4.8-4.8s-4.8,2.4-4.8,4.8C432.8,175.6,456.8,262,491.2,262z"/>
<path style="fill:#C18708;" d="M405.6,363.6c0,4,3.2,7.2,7.2,7.2H488c4,0,7.2-3.2,7.2-7.2l0,0c0-4-3.2-7.2-7.2-7.2h-75.2
	C408.8,356.4,405.6,359.6,405.6,363.6L405.6,363.6z"/>
<path style="fill:#936407;" d="M413.6,356.4c-4,0-7.2,3.2-7.2,7.2l0,0c0,4,3.2,7.2,7.2,7.2h75.2c4,0,7.2-3.2,7.2-7.2l0,0"/>
<polygon style="fill:#281B13;" points="404,97.2 429.6,42 455.2,97.2 "/>
<polygon style="fill:#422E20;" points="415.2,97.2 429.6,42 444,97.2 "/>
<path style="fill:#7F5B42;" d="M402.4,98C402.4,98.8,402.4,98.8,402.4,98l54.4,0.8c0,0,0.8,0,0.8-0.8l0,0c0,0,0-0.8-0.8-0.8
	L402.4,98C402.4,97.2,402.4,98,402.4,98L402.4,98z"/>
<polygon style="fill:#281B13;" points="327.2,97.2 352.8,42 378.4,97.2 "/>
<polygon style="fill:#422E20;" points="339.2,97.2 352.8,42 367.2,97.2 "/>
<path style="fill:#7F5B42;" d="M325.6,98C325.6,98.8,325.6,98.8,325.6,98l54.4,0.8c0,0,0.8,0,0.8-0.8l0,0c0,0,0-0.8-0.8-0.8
	L325.6,98C325.6,97.2,325.6,98,325.6,98L325.6,98z"/>
<rect x="436" y="105.2" style="fill:#DBA216;" width="16.8" height="108"/>
<polyline style="fill:#C18708;" points="436,105.2 436,214 452.8,214 "/>
<rect x="329.6" y="105.2" style="fill:#EFBC4B;" width="16.8" height="108"/>
<g>
	<polyline style="fill:#DBA216;" points="346.4,105.2 346.4,214 329.6,214 	"/>
	<rect x="345.6" y="98.8" style="fill:#DBA216;" width="91.2" height="116"/>
</g>
<polyline style="fill:#EFBC4B;" points="436.8,215.6 436.8,98.8 425.6,98.8 "/>
<polyline style="fill:#C18708;" points="436.8,98.8 345.6,98.8 345.6,215.6 "/>
<rect x="326.4" y="98.8" style="fill:#E5BC5E;" width="130.4" height="8"/>
<polygon style="fill:#CCA352;" points="426.4,106.8 345.6,106.8 345.6,98.8 436.8,98.8 "/>
<rect x="404.8" y="182.8" style="fill:#635439;" width="10.4" height="21.6"/>
<path style="fill:#EDCB8E;" d="M403.2,182H416v24h-12.8V182z M413.6,184.4h-8v19.2h8V184.4z"/>
<rect x="368" y="182.8" style="fill:#635439;" width="10.4" height="21.6"/>
<path style="fill:#EDCB8E;" d="M366.4,182h12.8v24h-12.8V182z M376.8,184.4h-8v19.2h8V184.4z"/>
<rect x="388" y="182.8" style="fill:#635439;" width="7.2" height="21.6"/>
<path style="fill:#EDCB8E;" d="M386.4,182h9.6v24h-9.6V182z M393.6,184.4h-4.8v19.2h4.8V184.4z"/>
<g>
	<rect x="400.8" y="206" style="fill:#C18708;" width="18.4" height="2.4"/>
	<rect x="381.6" y="206" style="fill:#C18708;" width="18.4" height="2.4"/>
	<rect x="363.2" y="206" style="fill:#C18708;" width="18.4" height="2.4"/>
</g>
<rect x="345.6" y="214.8" style="fill:#DBA216;" width="91.2" height="62.4"/>
<polyline style="fill:#EFBC4B;" points="436.8,276.4 436.8,214.8 425.6,214.8 "/>
<polyline style="fill:#C18708;" points="436.8,214.8 345.6,214.8 345.6,276.4 "/>
<rect x="344" y="214" style="fill:#E5BC5E;" width="94.4" height="8"/>
<polygon style="fill:#CCA352;" points="426.4,222 345.6,222 345.6,214.8 436.8,214.8 "/>
<rect x="404.8" y="233.2" style="fill:#635439;" width="10.4" height="21.6"/>
<path style="fill:#EDCB8E;" d="M403.2,231.6H416v24h-12.8V231.6z M413.6,234h-8v19.2h8V234z"/>
<rect x="368" y="233.2" style="fill:#635439;" width="10.4" height="21.6"/>
<path style="fill:#EDCB8E;" d="M366.4,231.6h12.8v24h-12.8V231.6z M376.8,234h-8v19.2h8V234z"/>
<rect x="388" y="233.2" style="fill:#635439;" width="7.2" height="21.6"/>
<path style="fill:#EDCB8E;" d="M386.4,231.6h9.6v24h-9.6V231.6z M393.6,234h-4.8v19.2h4.8V234z"/>
<g>
	<rect x="400.8" y="256.4" style="fill:#C18708;" width="18.4" height="2.4"/>
	<rect x="381.6" y="256.4" style="fill:#C18708;" width="18.4" height="2.4"/>
	<rect x="363.2" y="256.4" style="fill:#C18708;" width="18.4" height="2.4"/>
</g>
<rect x="345.6" y="265.2" style="fill:#DBA216;" width="91.2" height="62.4"/>
<polyline style="fill:#EFBC4B;" points="436.8,327.6 436.8,265.2 425.6,265.2 "/>
<polyline style="fill:#C18708;" points="436.8,265.2 345.6,265.2 345.6,327.6 "/>
<rect x="344" y="265.2" style="fill:#E5BC5E;" width="94.4" height="8"/>
<polygon style="fill:#CCA352;" points="426.4,273.2 345.6,273.2 345.6,265.2 436.8,265.2 "/>
<rect x="404.8" y="283.6" style="fill:#635439;" width="10.4" height="21.6"/>
<path style="fill:#EDCB8E;" d="M403.2,282.8H416v24h-12.8V282.8z M413.6,285.2h-8v19.2h8V285.2z"/>
<rect x="368" y="283.6" style="fill:#635439;" width="10.4" height="21.6"/>
<path style="fill:#EDCB8E;" d="M366.4,282.8h12.8v24h-12.8V282.8z M376.8,285.2h-8v19.2h8V285.2z"/>
<rect x="388" y="283.6" style="fill:#635439;" width="7.2" height="21.6"/>
<path style="fill:#EDCB8E;" d="M386.4,282.8h9.6v24h-9.6V282.8z M393.6,285.2h-4.8v19.2h4.8V285.2z"/>
<g>
	<rect x="400.8" y="306.8" style="fill:#C18708;" width="18.4" height="2.4"/>
	<rect x="381.6" y="306.8" style="fill:#C18708;" width="18.4" height="2.4"/>
	<rect x="363.2" y="306.8" style="fill:#C18708;" width="18.4" height="2.4"/>
</g>
<rect x="345.6" y="316.4" style="fill:#DBA216;" width="91.2" height="62.4"/>
<polyline style="fill:#EFBC4B;" points="436.8,378 436.8,316.4 425.6,316.4 "/>
<polyline style="fill:#C18708;" points="436.8,316.4 345.6,316.4 345.6,378 "/>
<rect x="344" y="315.6" style="fill:#E5BC5E;" width="94.4" height="8"/>
<polygon style="fill:#CCA352;" points="426.4,323.6 345.6,323.6 345.6,316.4 436.8,316.4 "/>
<rect x="404.8" y="334.8" style="fill:#635439;" width="10.4" height="21.6"/>
<path style="fill:#EDCB8E;" d="M403.2,333.2H416v24h-12.8V333.2z M413.6,335.6h-8v19.2h8V335.6z"/>
<rect x="368" y="334.8" style="fill:#635439;" width="10.4" height="21.6"/>
<path style="fill:#EDCB8E;" d="M366.4,333.2h12.8v24h-12.8V333.2z M376.8,335.6h-8v19.2h8V335.6z"/>
<rect x="388" y="334.8" style="fill:#635439;" width="7.2" height="21.6"/>
<path style="fill:#EDCB8E;" d="M386.4,333.2h9.6v24h-9.6V333.2z M393.6,335.6h-4.8v19.2h4.8V335.6z"/>
<g>
	<rect x="400.8" y="358" style="fill:#C18708;" width="18.4" height="2.4"/>
	<rect x="381.6" y="358" style="fill:#C18708;" width="18.4" height="2.4"/>
	<rect x="363.2" y="358" style="fill:#C18708;" width="18.4" height="2.4"/>
</g>
<rect x="336" y="370" style="fill:#6B5C41;" width="111.2" height="69.6"/>
<polygon style="fill:#776849;" points="336,439.6 447.2,439.6 447.2,370 381.6,416.4 "/>
<g>
	<rect x="336" y="370" style="fill:#5E513A;" width="58.4" height="69.6"/>
	<path style="fill:#5E513A;" d="M330.4,439.6c0,1.6,0.8,2.4,2.4,2.4h117.6c1.6,0,2.4-0.8,2.4-2.4l0,0c0-1.6-0.8-2.4-2.4-2.4H332.8
		C331.2,437.2,330.4,438,330.4,439.6L330.4,439.6z"/>
	<path style="fill:#5E513A;" d="M330.4,369.2c0,1.6,0.8,2.4,2.4,2.4h117.6c1.6,0,2.4-0.8,2.4-2.4l0,0c0-1.6-0.8-2.4-2.4-2.4H332.8
		C331.2,367.6,330.4,368.4,330.4,369.2L330.4,369.2z"/>
</g>
<path style="fill:#C18708;" d="M367.2,138.8c0,12.8,10.4,32.8,24,32.8c12.8,0,24-19.2,24-32.8s-10.4-24-24-24
	C378.4,115.6,367.2,126,367.2,138.8z"/>
<path style="fill:#EDEADA;" d="M367.2,138.8c0,12.8,10.4,24,24,24c12.8,0,24-10.4,24-24s-10.4-24-24-24
	C378.4,115.6,367.2,126,367.2,138.8z"/>
<path style="fill:#DBD6C1;" d="M391.2,115.6c7.2,0,14.4,3.2,18.4,8.8L376,158c-5.6-4-8.8-11.2-8.8-18.4
	C367.2,126,378.4,115.6,391.2,115.6z"/>
<path style="fill:#F4C647;" d="M365.6,138.8c0-14.4,11.2-25.6,25.6-25.6s25.6,11.2,25.6,25.6s-11.2,25.6-25.6,25.6
	C376.8,165.2,365.6,153.2,365.6,138.8z M369.6,138.8c0,12,9.6,21.6,21.6,21.6s21.6-9.6,21.6-21.6s-9.6-21.6-21.6-21.6
	S369.6,126.8,369.6,138.8z"/>
<path style="fill:#AF8366;" d="M390.4,138c0,0.8,0.8,0.8,0.8,0.8l0,0c0.8,0,0.8-0.8,0.8-0.8v-17.6c0-0.8-0.8-0.8-0.8-0.8l0,0
	c-0.8,0-0.8,0.8-0.8,0.8V138z"/>
<path style="fill:#4F3E32;" d="M379.2,138.8c0,0.8,0.8,1.6,1.6,1.6H392c0.8,0,1.6-0.8,1.6-1.6l0,0c0-0.8-0.8-1.6-1.6-1.6h-11.2
	C380,137.2,379.2,138,379.2,138.8L379.2,138.8z"/>
<polygon style="fill:#604533;" points="348.8,100.4 391.2,7.6 434.4,100.4 "/>
<polygon style="fill:#422E20;" points="368,100.4 391.2,7.6 415.2,100.4 "/>
<path style="fill:#7F5B42;" d="M345.6,101.2c0,0.8,0.8,0.8,0.8,0.8H436c0.8,0,0.8-0.8,0.8-0.8l0,0c0-0.8-0.8-0.8-0.8-0.8h-89.6
	C345.6,100.4,345.6,100.4,345.6,101.2L345.6,101.2z"/>
<g>
	<path style="fill:#66D3C3;" d="M339.2,454c0,1.6,0.8,2.4,2.4,2.4H440c1.6,0,2.4-0.8,2.4-2.4l0,0c0-1.6-0.8-2.4-2.4-2.4h-97.6
		C340.8,451.6,339.2,452.4,339.2,454L339.2,454z"/>
	<path style="fill:#66D3C3;" d="M393.6,470c0,1.6,0.8,2.4,2.4,2.4h44c1.6,0,2.4-0.8,2.4-2.4l0,0c0-1.6-0.8-2.4-2.4-2.4h-44
		C395.2,467.6,393.6,468.4,393.6,470L393.6,470z"/>
	<path style="fill:#66D3C3;" d="M340.8,470c0,1.6,0.8,2.4,2.4,2.4h8c1.6,0,2.4-0.8,2.4-2.4l0,0c0-1.6-0.8-2.4-2.4-2.4h-8
		C342.4,467.6,340.8,468.4,340.8,470L340.8,470z"/>
	<path style="fill:#66D3C3;" d="M364,470c0,1.6,0.8,2.4,2.4,2.4h8c1.6,0,2.4-0.8,2.4-2.4l0,0c0-1.6-0.8-2.4-2.4-2.4h-8
		C364.8,467.6,364,468.4,364,470L364,470z"/>
</g>
<g>
	<path style="fill:#C18708;" d="M482.4,357.2c0,1.6,0.8,2.4,2.4,2.4l0,0c1.6,0,2.4-0.8,2.4-2.4v-98.4c0-1.6-0.8-2.4-2.4-2.4l0,0
		c-1.6,0-2.4,0.8-2.4,2.4V357.2z"/>
	<path style="fill:#C18708;" d="M465.6,357.2c0,1.6,0.8,2.4,2.4,2.4l0,0c1.6,0,2.4-0.8,2.4-2.4v-116c0-1.6-0.8-2.4-2.4-2.4l0,0
		c-1.6,0-2.4,0.8-2.4,2.4V357.2z"/>
	<path style="fill:#C18708;" d="M449.6,357.2c0,1.6,0.8,2.4,2.4,2.4l0,0c1.6,0,2.4-0.8,2.4-2.4v-144c0-1.6-0.8-2.4-2.4-2.4l0,0
		c-1.6,0-2.4,0.8-2.4,2.4V357.2z"/>
</g>
<path style="fill:#422E20;" d="M263.2,141.2c0,8-6.4,15.2-15.2,15.2l0,0c-8,0-15.2-6.4-15.2-15.2l0,0c0-8,6.4-15.2,15.2-15.2l0,0
	C256,126,263.2,133.2,263.2,141.2L263.2,141.2z"/>
<path style="fill:#604533;" d="M232.8,141.2L232.8,141.2c0-8,6.4-15.2,15.2-15.2l0,0c8,0,15.2,6.4,15.2,15.2l0,0"/>
<g>
</g>
<g>
</g>
<g>
</g>
<g>
</g>
<g>
</g>
<g>
</g>
<g>
</g>
<g>
</g>
<g>
</g>
<g>
</g>
<g>
</g>
<g>
</g>
<g>
</g>
<g>
</g>
<g>
</g>
</svg>
