<?xml version="1.0" encoding="iso-8859-1"?>
<!-- Generator: Adobe Illustrator 19.0.0, SVG Export Plug-In . SVG Version: 6.00 Build 0)  -->
<svg version="1.1" id="Capa_1" xmlns="http://www.w3.org/2000/svg" xmlns:xlink="http://www.w3.org/1999/xlink" x="0px" y="0px"
	 viewBox="0 0 511.999 511.999" style="enable-background:new 0 0 511.999 511.999;" xml:space="preserve">
<path style="fill:#738182;" d="M504.374,168.305c-54.703,23.282-94.305,6.852-104.814,1.488c-1.747-0.892-3.836-0.773-5.474,0.305
	c-38.021,25.017-62.952,10.149-62.952,10.149l-0.09-45.693c0-4.755-5.638-7.257-9.164-4.066l-34.029,30.794
	c0,0-1.283-0.321-4.091-0.842c-18.402-3.417-37.289-3.417-55.69,0c-2.807,0.521-4.09,0.842-4.09,0.842l0,0l-34.029-30.794
	c-3.526-3.191-9.164-0.689-9.164,4.066v45.741c-1.573,0.888-26.097,13.998-62.868-10.197c-1.638-1.078-3.728-1.197-5.474-0.305
	c-10.509,5.364-50.11,21.794-104.814-1.488c-5.171-2.201-9.891,3.956-6.454,8.402c16.738,21.653,39.535,58.218,46.518,103.483
	c0.519,3.361,3.889,5.468,7.123,4.416c18.571-6.044,75.488-19.105,125.955,26.153c1.595,40.134,34.618,72.183,75.142,72.183
	c40.476,0,73.459-31.976,75.127-72.04l0.201-0.154c50.464-45.244,107.373-32.186,125.943-26.142
	c3.234,1.053,6.605-1.055,7.123-4.416c6.984-45.264,29.781-81.83,46.518-103.483C514.265,172.262,509.545,166.105,504.374,168.305z"
	/>
<g>
	<path style="fill:#576666;" d="M482.588,222.344c-8.094,16.885-14.963,36.385-18.276,57.844c-0.519,3.361-3.889,5.469-7.124,4.417
		c-18.583-6.047-75.559-19.122-126.049,26.241V180.249c0,0,15.619,9.312,40.999,0.79V239.4
		C425.283,218.925,430.465,223.313,482.588,222.344z"/>
	<path style="fill:#576666;" d="M180.877,254.031v56.814c-50.49-45.362-107.467-32.288-126.049-26.241
		c-3.234,1.052-6.604-1.055-7.123-4.416c-6.987-45.268-29.793-81.837-46.532-103.49c-3.447-4.459,1.298-10.591,6.484-8.385
		c16.28,6.925,31.222,10.334,44.454,11.561c9.564,19.26,17.659,42.118,20.631,67.519
		C72.743,247.395,126.486,223.792,180.877,254.031z"/>
	<path style="fill:#576666;" d="M286.266,357.711c11.069,0.053,21.583-2.289,31.054-6.536
		c-13.623,19.227-36.042,31.764-61.399,31.764c-41.537,0-75.219-33.673-75.219-75.219c0-1.229,0.033-2.457,0.088-3.674V134.554
		c0-4.755,5.638-7.257,9.164-4.066l21.547,19.5v128.819c-0.098,2.186-0.126,4.336-0.023,6.639
		C213.263,325.412,246.263,357.521,286.266,357.711z"/>
</g>
<g>
	<path style="fill:#3A4747;" d="M238.406,201.48c-4.267,0-7.725,3.458-7.725,7.725v5.731c0,4.141-2.466,7.236-4.672,7.236
		s-4.672-3.095-4.672-7.236v-5.731c0-4.266-3.458-7.725-7.725-7.725s-7.725,3.458-7.725,7.725v5.731
		c0,12.509,9.026,22.685,20.121,22.685c11.095,0,20.121-10.177,20.121-22.685v-5.731C246.131,204.939,242.673,201.48,238.406,201.48
		z"/>
	<path style="fill:#3A4747;" d="M298.404,201.48c-4.267,0-7.725,3.458-7.725,7.725v5.731c0,4.141-2.466,7.236-4.672,7.236
		s-4.672-3.095-4.672-7.236v-5.731c0-4.266-3.458-7.725-7.725-7.725c-4.267,0-7.725,3.458-7.725,7.725v5.731
		c0,12.509,9.026,22.685,20.121,22.685s20.121-10.177,20.121-22.685v-5.731C306.128,204.939,302.67,201.48,298.404,201.48z"/>
</g>
<g>
</g>
<g>
</g>
<g>
</g>
<g>
</g>
<g>
</g>
<g>
</g>
<g>
</g>
<g>
</g>
<g>
</g>
<g>
</g>
<g>
</g>
<g>
</g>
<g>
</g>
<g>
</g>
<g>
</g>
</svg>
