<?xml version="1.0" encoding="iso-8859-1"?>
<!-- Generator: Adobe Illustrator 19.0.0, SVG Export Plug-In . SVG Version: 6.00 Build 0)  -->
<svg version="1.1" id="Capa_1" xmlns="http://www.w3.org/2000/svg" xmlns:xlink="http://www.w3.org/1999/xlink" x="0px" y="0px"
	 viewBox="0 0 512 512" style="enable-background:new 0 0 512 512;" xml:space="preserve">
<path style="fill:#57E5D0;" d="M98.711,250.732l-9.554,50.823c-2.78,14.792-0.674,30.087,6.003,43.576l71.118,143.678
	l109.204-53.863L207.186,289.68c-6.677-13.489-17.56-24.44-31.008-31.199l-46.206-23.223
	C116.998,228.739,101.393,236.463,98.711,250.732z"/>
<g>
	<path style="fill:#28C6AF;" d="M155.008,325.035l38.346-54.383c-5.028-4.877-10.789-9.006-17.13-12.192l-46.206-23.223
		c-12.973-6.52-28.577,1.204-31.26,15.473l-9.554,50.823c-1.634,8.69-1.567,17.549,0.108,26.118L155.008,325.035z"/>
	<path style="fill:#28C6AF;" d="M110.483,235.2c-5.859,2.9-10.43,8.398-11.771,15.533l-9.555,50.823
		c-2.78,14.792-0.674,30.087,6.003,43.576l71.118,143.678l56.052-27.647L110.483,235.2z"/>
</g>
<path style="fill:#12B59E;" d="M110.494,235.224c-5.835,2.906-10.387,8.391-11.724,15.506l-9.554,50.823
	c-1.634,8.69-1.567,17.549,0.108,26.118l65.637-2.613L110.494,235.224z"/>
<path style="fill:#FF5C5C;" d="M413.289,250.732l9.555,50.823c2.78,14.792,0.674,30.087-6.003,43.576l-71.118,143.678
	l-109.204-53.863l68.296-145.266c6.677-13.489,17.56-24.44,31.008-31.199l46.206-23.223
	C395.001,228.739,410.606,236.463,413.289,250.732z"/>
<g>
	<path style="fill:#FF3333;" d="M356.991,325.035l-38.346-54.383c5.028-4.877,10.789-9.006,17.13-12.192l46.206-23.223
		c12.973-6.52,28.577,1.204,31.26,15.473l9.555,50.823c1.634,8.69,1.567,17.549-0.108,26.118L356.991,325.035z"/>
	<path style="fill:#FF3333;" d="M401.517,235.2c5.859,2.9,10.43,8.398,11.771,15.533l9.555,50.823
		c2.78,14.792,0.674,30.087-6.003,43.576L345.722,488.81l-56.052-27.647L401.517,235.2z"/>
</g>
<path style="fill:#F21C1C;" d="M401.506,235.224c5.835,2.906,10.387,8.391,11.724,15.506l9.554,50.823
	c1.634,8.69,1.567,17.549-0.108,26.118l-65.637-2.613L401.506,235.224z"/>
<path style="fill:#FFE477;" d="M238.56,141.33l-31.108,41.31c-9.054,12.023-13.951,26.666-13.951,41.717v210.59h124.998v-210.59
	c0-15.051-4.896-29.694-13.951-41.717l-31.108-41.31C264.706,129.732,247.294,129.732,238.56,141.33z"/>
<g>
	<path style="fill:#FFDA44;" d="M256.053,232.896l58.492-31.729c-2.343-6.601-5.674-12.857-9.943-18.526l-31.108-41.31
		c-8.734-11.599-26.146-11.599-34.88,0l-31.108,41.31c-5.319,7.063-9.189,15.033-11.49,23.455L256.053,232.896z"/>
	<path style="fill:#FFDA44;" d="M256,132.631c-6.536,0-13.073,2.9-17.44,8.699l-31.108,41.31
		c-9.054,12.023-13.951,26.666-13.951,41.717v210.59H256V132.631z"/>
</g>
<path style="fill:#FFCD00;" d="M256,132.658c-6.519,0.015-13.032,2.912-17.386,8.696l-31.108,41.31
	c-5.319,7.063-9.189,15.033-11.49,23.455L256,232.895V132.658z"/>
<path style="fill:#CC7400;" d="M393.949,512c10.856,0,20.302-7.541,22.589-18.154c0.88-4.084,1.343-8.321,1.343-12.667
	c0-33.099-26.832-59.931-59.931-59.931c-2.33,0-4.625,0.147-6.887,0.406c-15.355-37.408-52.123-63.761-95.064-63.761
	s-79.709,26.353-95.064,63.761c-2.261-0.259-4.557-0.406-6.887-0.406c-33.099,0-59.931,26.832-59.931,59.931
	c0,4.346,0.464,8.585,1.343,12.668C97.748,504.46,107.194,512,118.05,512H393.949z"/>
<g>
	<path style="fill:#AA6100;" d="M195.582,456.535c10.526-3.112,19.769-9.583,25.952-18.652
		c12.799-18.771,40.786-47.153,93.011-47.153c6.208,0,12.28,0.568,18.184,1.623c-18.812-21.135-46.207-34.459-76.729-34.459
		c-42.941,0-79.709,26.353-95.064,63.761c-2.261-0.259-4.557-0.406-6.887-0.406c-33.099,0-59.931,26.832-59.931,59.931
		c0,4.403,0.476,8.694,1.377,12.826C97.8,504.552,107.255,512,118.05,512h34.665C153.585,485.7,171.391,463.686,195.582,456.535z"/>
	<path style="fill:#AA6100;" d="M298.662,442.851c-2.076,0.577-4.344,0.298-6.226-0.757c-1.885-1.065-3.292-2.865-3.871-4.951
		c-0.577-2.076-0.299-4.344,0.766-6.228c1.065-1.885,2.865-3.292,4.941-3.869c2.086-0.579,4.354-0.302,6.239,0.764
		c1.875,1.068,3.282,2.868,3.859,4.944c0.579,2.086,0.301,4.354-0.754,6.236C302.547,440.863,300.749,442.272,298.662,442.851z"/>
	<path style="fill:#AA6100;" d="M265.672,481.137c-2.076,0.577-4.344,0.298-6.226-0.757c-1.885-1.065-3.292-2.865-3.871-4.951
		c-0.577-2.076-0.299-4.344,0.766-6.228c1.065-1.885,2.865-3.292,4.941-3.869c2.086-0.579,4.354-0.302,6.239,0.764
		c1.875,1.068,3.282,2.868,3.859,4.944c0.579,2.086,0.301,4.354-0.754,6.236C269.558,479.15,267.759,480.557,265.672,481.137z"/>
	<path style="fill:#AA6100;" d="M334.923,481.137c-2.076,0.577-4.344,0.298-6.226-0.757c-1.885-1.065-3.292-2.865-3.871-4.951
		c-0.577-2.076-0.299-4.344,0.766-6.228c1.065-1.885,2.865-3.292,4.942-3.869c2.086-0.579,4.354-0.302,6.239,0.764
		c1.875,1.068,3.282,2.868,3.859,4.944c0.579,2.086,0.301,4.354-0.754,6.236C338.808,479.15,337.009,480.557,334.923,481.137z"/>
</g>
<path style="fill:#003F8A;" d="M263.571,4.245c-3.453-5.66-11.687-5.66-15.141,0c-7.546,12.368-11.9,26.894-11.9,42.443
	s4.354,30.075,11.9,42.443c3.453,5.66,11.687,5.66,15.141,0c7.546-12.368,11.9-26.894,11.9-42.443S271.117,16.613,263.571,4.245z"/>
<path style="fill:#003068;" d="M265.741,8.049c-0.693-1.287-1.411-2.559-2.171-3.803c-3.453-5.66-11.687-5.66-15.141,0
	c-7.546,12.368-11.9,26.894-11.9,42.443s4.354,30.075,11.9,42.443c3.453,5.66,11.687,5.66,15.141,0
	c0.759-1.244,1.477-2.517,2.171-3.803c-6.199-11.504-9.729-24.655-9.729-38.64S259.543,19.552,265.741,8.049z"/>
<g>
	<circle style="fill:#57E5D0;" cx="320.098" cy="98.815" r="23.631"/>
	<circle style="fill:#57E5D0;" cx="191.902" cy="98.815" r="23.631"/>
</g>
<g>
	<path style="fill:#28C6AF;" d="M191.9,98.82c0-8.745,4.754-16.376,11.816-20.462c-3.477-2.012-7.51-3.17-11.816-3.17
		c-13.051,0-23.631,10.58-23.631,23.631s10.58,23.631,23.631,23.631c4.306,0,8.339-1.157,11.816-3.17
		C196.654,115.195,191.9,107.566,191.9,98.82z"/>
	<path style="fill:#28C6AF;" d="M320.1,98.82c0-8.745,4.754-16.376,11.816-20.462c-3.477-2.012-7.51-3.17-11.816-3.17
		c-13.051,0-23.631,10.58-23.631,23.631s10.58,23.631,23.631,23.631c4.306,0,8.339-1.157,11.816-3.17
		C324.854,115.195,320.1,107.566,320.1,98.82z"/>
</g>
<g>
	<path style="fill:#FFE477;" d="M148.736,156.211c-2.076,0.577-4.344,0.298-6.226-0.757c-1.885-1.065-3.292-2.865-3.871-4.951
		c-0.577-2.076-0.299-4.344,0.766-6.228c1.065-1.885,2.865-3.292,4.941-3.869c2.086-0.579,4.354-0.302,6.239,0.764
		c1.875,1.068,3.282,2.868,3.859,4.944c0.579,2.086,0.301,4.354-0.754,6.236C152.622,154.224,150.823,155.632,148.736,156.211z"/>
	<path style="fill:#FFE477;" d="M367.651,156.211c-2.076,0.577-4.344,0.298-6.226-0.757c-1.885-1.065-3.292-2.865-3.871-4.951
		c-0.577-2.076-0.299-4.344,0.766-6.228c1.065-1.885,2.865-3.292,4.941-3.869c2.086-0.579,4.354-0.302,6.239,0.764
		c1.875,1.068,3.282,2.868,3.859,4.944c0.579,2.086,0.301,4.354-0.754,6.236C371.536,154.224,369.737,155.632,367.651,156.211z"/>
</g>
<g>
</g>
<g>
</g>
<g>
</g>
<g>
</g>
<g>
</g>
<g>
</g>
<g>
</g>
<g>
</g>
<g>
</g>
<g>
</g>
<g>
</g>
<g>
</g>
<g>
</g>
<g>
</g>
<g>
</g>
</svg>
