<?xml version="1.0" encoding="iso-8859-1"?>
<!-- Generator: Adobe Illustrator 19.0.0, SVG Export Plug-In . SVG Version: 6.00 Build 0)  -->
<svg version="1.1" id="Layer_1" xmlns="http://www.w3.org/2000/svg" xmlns:xlink="http://www.w3.org/1999/xlink" x="0px" y="0px"
	 viewBox="0 0 511.986 511.986" style="enable-background:new 0 0 511.986 511.986;" xml:space="preserve">
<path style="fill:#FFCE54;" d="M416.489,202.744c0,16.437-71.748,29.749-160.246,29.749c-88.497,0-160.245-13.312-160.245-29.749
	s71.748-29.749,160.245-29.749C344.741,172.995,416.489,186.307,416.489,202.744z"/>
<path style="fill:#656D78;" d="M255.977,137.574c-133.293,0-241.353,28.343-241.353,63.342c0,35.015,108.06,63.358,241.353,63.358
	c133.31,0,241.369-28.343,241.369-63.358C497.347,165.917,389.287,137.574,255.977,137.574z M256.477,230.931
	c-74.857,0-167.808-13.812-167.808-28.593c0-14.812,93.81-30.671,168.668-30.671c74.826,0,161.667,16.531,161.667,31.343
	C419.005,217.791,331.305,230.931,256.477,230.931z"/>
<g>
	<path style="fill:#F5F7FA;" d="M220.494,138.496l-26.999-63.998l-41.999-58.999l-20.999,73.998c0,0,0,70.498,0,76.998
		s11.999,54.999,11.999,54.999l90.998,7.5L220.494,138.496z"/>
	<polygon style="fill:#F5F7FA;" points="358.318,15.499 327.32,52.998 302.32,108.997 273.993,230.322 368.318,225.322 
		382.318,158.995 383.662,91.669 	"/>
</g>
<polygon style="fill:#434A54;" points="418.989,255.993 256.243,270.493 95.998,255.993 85.998,475.987 116.497,492.487 
	192.995,501.487 278.993,501.487 372.49,494.487 423.989,476.487 "/>
<path d="M511.986,202.651c0-26.406-47.014-49.608-117.98-62.874c0.094-44.311-9.875-86.638-20.812-133.527
	C372.21,2.031,369.835,0,366.413,0c-16.874,0-58.998,49.53-82.904,128.434c-9.046-0.281-18.218-0.438-27.515-0.438
	c-9.296,0-18.468,0.156-27.515,0.438C204.573,49.53,162.449,0,145.574,0c-3.422,0-5.797,2.031-6.781,6.25
	c-10.937,46.889-20.905,89.216-20.812,133.527C47.014,153.043,0,176.245,0,202.651c0,21.875,32.218,41.53,83.545,55.186
	l-8.875,222.15c0,17.672,81.186,31.999,181.323,31.999c100.139,0,181.323-14.327,181.323-31.999l-8.874-222.15
	C479.769,244.181,511.986,224.525,511.986,202.651z M388.256,195.541c9.109,2.516,15.75,4.984,20.406,7.109
	c-5.25,2.406-13.031,5.25-24.016,8.093c0.672-2.531,1.312-5.125,1.953-7.765C387.193,200.494,387.74,197.994,388.256,195.541z
	 M348.132,42.639c3.328-4.484,6.359-8.141,9.03-11.078c5.969,26.062,11.188,51.061,13.75,75.545
	c3.469,32.874,1.859,61.764-5.078,90.951c-1.484,6.219-3.094,12.141-4.781,17.734c-9.499,1.672-19.687,3.109-30.389,4.297
	c8.28-62.436,20.483-98.935,20.608-99.326v-0.016c0.359-1.062,0.578-2.218,0.578-3.406c0-5.906-4.781-10.688-10.672-10.688
	c-4.687,0-8.655,3.031-10.093,7.25l0,0c-0.031,0.047-0.047,0.125-0.094,0.25l0,0c-1.297,3.875-13.828,42.467-22.094,107.935
	c-6.781,0.5-13.688,0.906-20.703,1.203c0.719-12.406,2.031-24.765,3.938-37.03c4.656-29.796,12.688-58.53,23.859-85.42
	C327.711,72.67,339.929,53.655,348.132,42.639z M245.197,223.916c-0.797-14.671-2.344-28.828-4.516-42.421
	c5.078-0.109,10.187-0.156,15.312-0.156c5.126,0,10.234,0.047,15.312,0.156c-2.172,13.593-3.719,27.75-4.516,42.421
	c-3.577,0.047-7.187,0.078-10.797,0.078C252.384,223.994,248.774,223.963,245.197,223.916z M255.993,149.34
	c7.298,0,14.531,0.094,21.719,0.281c-0.844,3.484-1.656,7.031-2.438,10.625c-6.328-0.156-12.765-0.25-19.281-0.25
	s-12.952,0.094-19.28,0.25c-0.781-3.594-1.594-7.14-2.438-10.625C241.463,149.433,248.696,149.34,255.993,149.34z M141.074,107.106
	c2.562-24.484,7.781-49.483,13.75-75.545c2.672,2.938,5.703,6.594,9.031,11.078c8.203,11.015,20.421,30.03,32.14,58.201
	c11.172,26.89,19.202,55.624,23.858,85.42c1.906,12.265,3.219,24.624,3.938,37.03c-7.016-0.297-13.921-0.703-20.702-1.203
	c-8.266-65.467-20.797-104.06-22.094-107.935l0,0c-0.047-0.125-0.078-0.203-0.094-0.25l0,0c-1.438-4.219-5.406-7.25-10.093-7.25
	c-5.891,0-10.672,4.781-10.672,10.688c0,1.188,0.219,2.343,0.578,3.421l0,0c0.125,0.391,12.312,36.702,20.608,99.326
	c-10.702-1.188-20.89-2.625-30.39-4.297c-1.688-5.593-3.297-11.515-4.781-17.734C139.215,168.87,137.605,139.98,141.074,107.106z
	 M125.388,202.979c0.625,2.641,1.281,5.234,1.953,7.765c-11-2.843-18.766-5.687-24.016-8.093c4.656-2.125,11.297-4.594,20.406-7.109
	C124.247,197.994,124.794,200.494,125.388,202.979z M415.661,472.393c-5.968,2.625-19.687,7.188-48.343,11.312
	c-31.201,4.469-70.748,6.938-111.325,6.938s-80.123-2.469-111.325-6.938c-28.655-4.125-42.374-8.688-48.342-11.312l8.374-209.494
	c42.374,9.062,94.686,14.438,151.293,14.438c56.608,0,108.919-5.375,151.294-14.438L415.661,472.393z M479.754,214.15
	c-10.859,7.5-27.703,14.687-48.719,20.828c-22.42,6.547-48.654,11.688-78.013,15.296c-30.686,3.797-63.342,5.719-97.029,5.719
	s-66.342-1.922-97.028-5.719c-29.358-3.609-55.608-8.75-78.014-15.296c-21.015-6.141-37.874-13.328-48.718-20.828
	c-8.905-6.125-10.905-10.453-10.905-11.5c0-1.031,2-5.359,10.905-11.5c10.844-7.469,27.703-14.688,48.718-20.812
	c11.625-3.375,24.296-6.406,37.874-9.031c0.344,4.344,0.797,8.688,1.359,13.093c-28.327,7.531-45.515,17.422-45.515,28.25
	c0,23.578,81.186,42.687,181.323,42.687c100.139,0,181.323-19.109,181.323-42.687c0-10.828-17.187-20.718-45.514-28.25
	c0.562-4.406,1.016-8.75,1.359-13.093c13.578,2.625,26.249,5.656,37.873,9.031c21.016,6.125,37.859,13.343,48.719,20.812
	c8.905,6.14,10.905,10.468,10.905,11.5C490.659,203.698,488.659,208.026,479.754,214.15z"/>
<g>
</g>
<g>
</g>
<g>
</g>
<g>
</g>
<g>
</g>
<g>
</g>
<g>
</g>
<g>
</g>
<g>
</g>
<g>
</g>
<g>
</g>
<g>
</g>
<g>
</g>
<g>
</g>
<g>
</g>
</svg>
