<?xml version="1.0" encoding="iso-8859-1"?>
<!-- Generator: Adobe Illustrator 19.0.0, SVG Export Plug-In . SVG Version: 6.00 Build 0)  -->
<svg version="1.1" id="Layer_1" xmlns="http://www.w3.org/2000/svg" xmlns:xlink="http://www.w3.org/1999/xlink" x="0px" y="0px"
	 viewBox="0 0 512.001 512.001" style="enable-background:new 0 0 512.001 512.001;" xml:space="preserve">
<path style="fill:#FFD3AE;" d="M385.438,338.343c-1.997,41.857-23.841,78.507-56.309,100.737c-0.287,0.21-0.574,0.397-0.849,0.585
	c-12.257,8.252-26.003,14.464-40.743,18.126c-0.309-7.634-62.752-7.634-63.061,0c-14.739-3.663-28.497-9.874-40.743-18.126
	c-0.276-0.188-0.574-0.375-0.85-0.585c-32.468-22.23-54.313-58.88-56.309-100.737c-0.088-2.063-0.143-4.148-0.143-6.244v-32.943
	c22.043-10.337,34.333-84.563,34.333-84.563c63.458,3.332,127.038,3.332,190.486,0c0,0,12.279,74.226,34.333,84.563v32.943
	C385.581,334.195,385.526,336.28,385.438,338.343z"/>
<path style="fill:#DBA983;" d="M376.435,199.822c-64.121,9.723-128.257,11.627-192.379,5.729
	c4.198-28.411,17.611-53.821,37.109-73.083c17.16-16.958,39.035-29.148,63.48-34.449c-8.889-1.927-18.114-2.951-27.581-2.951
	c-35.502,0-67.662,14.276-91.062,37.4c-23.775,23.488-38.514,56.111-38.514,92.176v15.369h-1.059v1.721
	c0.353,0.025,0.706,0.045,1.059,0.071v3.15v15.942v39.154v32.943c0,2.096,0.055,4.181,0.143,6.255
	c1.997,41.846,23.841,78.496,56.309,100.737c0.276,0.199,0.574,0.397,0.85,0.585c20.642,13.89,45.509,22.01,72.273,22.01
	c9.468,0,18.691-1.035,27.58-2.963c-16.241-3.523-31.352-10.07-44.691-19.046c-0.276-0.188-0.574-0.386-0.85-0.585
	c-32.468-22.241-54.313-58.891-56.309-100.737c-0.088-2.074-0.143-4.159-0.143-6.255v-32.943v-39.154l0,0
	c0-8.759,7.146-15.83,15.903-15.728c33.016,0.384,109.504,0.952,152.694-1.315c11.452-0.596,22.892-1.302,34.333-2.118v-1.721
	l0.243-0.066C381.863,226.576,378.741,213.194,376.435,199.822z"/>
<path style="fill:#4D4D4D;" d="M224.475,457.791c0.309-7.634,3.376-15.181,9.212-21.017c6.167-6.167,14.243-9.245,22.319-9.245
	s16.151,3.078,22.319,9.245c5.836,5.836,8.903,13.382,9.212,21.017c0.022,0.43,0.033,0.872,0.033,1.302
	c0,8.076-3.078,16.151-9.245,22.319l-22.319,22.319l-22.319-22.319C227.189,474.913,224.122,466.297,224.475,457.791z"/>
<g>
	<path style="fill:#DBA983;" d="M385.581,259.991c16.891,4.998,29.225,20.653,29.225,39.154c0,18.568-12.4,34.234-29.368,39.198
		c0.088-2.063,0.143-4.148,0.143-6.244v-32.943V259.991z"/>
	<path style="fill:#DBA983;" d="M126.573,338.343h-0.011c-16.968-4.954-29.368-20.631-29.368-39.198
		c0-18.501,12.334-34.156,29.225-39.154h0.011v39.165v32.943C126.43,334.195,126.485,336.28,126.573,338.343z"/>
</g>
<path style="fill:#F95428;" d="M385.824,210.687l-0.243,0.066v1.721c-11.441,0.816-22.881,1.522-34.333,2.118
	c-59.487,3.122-119.084,3.321-178.582,0.585c-3.972-0.177-7.943-0.375-11.904-0.585c-11.452-0.596-22.892-1.302-34.333-2.118v-1.721
	h1.125c3.972-13.393,7.105-26.798,9.411-40.191c14.817,2.251,29.633,4.082,44.439,5.494c65.003,6.189,130.028,4.358,195.031-5.494
	C378.741,183.934,381.863,197.316,385.824,210.687z"/>
<path style="fill:#4D4D4D;" d="M385.581,259.991v39.165c-22.054-10.337-34.333-84.563-34.333-84.563
	c11.452-0.596,22.892-1.302,34.333-2.118V259.991z"/>
<path style="fill:#666666;" d="M376.435,170.562c-65.003,9.852-130.028,11.683-195.031,5.494
	c-14.805-1.412-29.622-3.244-44.439-5.494c8.705-50.595,5.56-101.178-9.411-151.773c15.401-2.515,30.814-4.589,46.215-6.2
	c70.696-7.425,141.38-5.362,212.076,6.2C370.875,69.384,367.731,119.968,376.435,170.562z"/>
<g>
	<path style="fill:#4D4D4D;" d="M285.517,349.85c7.943,0.739,15.743,3.508,22.572,8.274c7.645,5.34,16.604,8.054,25.617,8.054
		c6.829,0,13.691-1.567,20.024-4.733l2.67-1.324l-8.329,19.031c-11.716,26.787-44.913,36.319-69.063,19.836l-13.449-9.179
		c-5.98-4.082-9.554-10.856-9.554-18.093c0-10.757,7.767-20.123,18.413-21.624C278.103,349.574,281.821,349.486,285.517,349.85z"/>
	<path style="fill:#4D4D4D;" d="M226.494,349.85c3.685-0.364,7.414-0.276,11.099,0.243c10.635,1.5,18.413,10.867,18.413,21.624
		c0,7.237-3.574,14.011-9.554,18.093l-13.46,9.179c-24.15,16.482-57.335,6.95-69.052-19.836l-8.329-19.031l2.67,1.324
		c6.333,3.166,13.184,4.733,20.024,4.733c9.002,0,17.961-2.714,25.617-8.054C210.75,353.358,218.539,350.589,226.494,349.85z"/>
	<path style="fill:#4D4D4D;" d="M160.763,214.593c0,0-12.29,74.226-34.333,84.563v-39.165v-47.517
		C137.87,213.291,149.311,213.997,160.763,214.593z"/>
</g>
<path style="fill:#E54728;" d="M181.404,176.056c-1.898,13.592-4.733,26.798-8.738,39.121c-3.972-0.177-7.943-0.375-11.904-0.585
	c-11.452-0.596-22.892-1.302-34.333-2.118v-1.721h1.125c3.972-13.393,7.105-26.798,9.411-40.191
	C151.782,172.813,166.599,174.644,181.404,176.056z"/>
<path style="fill:#4D4D4D;" d="M181.404,176.056c-14.805-1.412-29.622-3.244-44.439-5.494c8.705-50.595,5.56-101.178-9.411-151.773
	c15.401-2.515,30.814-4.589,46.215-6.2C179.231,41.626,190.274,112.94,181.404,176.056z"/>
<g>
	<path style="fill:#333333;" d="M352.697,352.715l-2.668,1.334c-11.973,5.987-26.23,4.947-37.207-2.712
		c-5.822-4.062-12.278-6.925-19.035-8.517v-48.983c0-10.493,8.536-19.029,19.029-19.029s19.03,8.537,19.03,19.029
		c0,4.57,3.705,8.274,8.274,8.274c4.57,0,8.274-3.705,8.274-8.274c0-19.618-15.961-35.577-35.578-35.577
		c-19.618,0-35.577,15.961-35.577,35.577v47.656c-1.326,0.092-2.653,0.216-3.979,0.404c-6.777,0.959-12.778,4.253-17.256,9.006
		c-4.478-4.753-10.479-8.047-17.256-9.006c-1.327-0.188-2.654-0.312-3.982-0.404v-47.656c0-19.618-15.959-35.577-35.577-35.577
		s-35.578,15.961-35.578,35.577c0,4.57,3.705,8.274,8.274,8.274c4.57,0,8.274-3.705,8.274-8.274c0-10.493,8.537-19.029,19.03-19.029
		s19.029,8.537,19.029,19.029v48.983c-6.757,1.592-13.212,4.455-19.034,8.517c-10.978,7.66-25.234,8.698-37.207,2.712l-2.668-1.334
		c-3.116-1.558-6.873-0.997-9.4,1.402c-2.526,2.4-3.278,6.124-1.882,9.316l8.327,19.033c6.576,15.033,19.394,26.253,35.165,30.783
		c5.012,1.44,10.13,2.149,15.216,2.149c10.914,0,21.68-3.266,30.925-9.575l13.453-9.182c1.797-1.227,3.426-2.638,4.891-4.184
		c1.465,1.547,3.093,2.958,4.891,4.184l13.453,9.182c9.245,6.311,20.009,9.575,30.925,9.575c5.085,0,10.204-0.709,15.216-2.149
		c15.771-4.53,28.587-15.75,35.165-30.783l8.327-19.033c1.397-3.192,0.644-6.916-1.882-9.316
		C359.572,351.719,355.813,351.157,352.697,352.715z M241.782,382.973l-13.453,9.182c-9.47,6.464-21.224,8.356-32.242,5.19
		c-11.02-3.165-19.976-11.006-24.572-21.511l-0.843-1.927c13.136,1.91,26.741-1.156,37.98-8.997
		c8.112-5.66,17.973-8.014,27.776-6.627c6.442,0.911,11.301,6.687,11.301,13.432C247.728,376.223,245.506,380.432,241.782,382.973z
		 M340.489,375.834c-4.596,10.504-13.552,18.345-24.573,21.511c-11.019,3.166-22.772,1.274-32.242-5.19l-13.453-9.182
		c-3.723-2.541-5.945-6.75-5.945-11.257c0-6.746,4.858-12.521,11.3-13.432c1.837-0.26,3.675-0.388,5.504-0.388
		c7.93,0,15.68,2.416,22.272,7.016c11.239,7.841,24.842,10.908,37.979,8.997L340.489,375.834z"/>
	<path style="fill:#333333;" d="M475.276,203.861c-0.53-4.54-4.635-7.788-9.178-7.26c-24.505,2.859-49.071,5.203-73.677,7.056
		c-17.012-60.592-16.565-121.974,1.359-182.525c0.674-2.278,0.338-4.735-0.926-6.747c-1.263-2.012-3.33-3.384-5.674-3.768
		c-86.581-14.157-174.382-14.157-260.962,0c-2.344,0.383-4.411,1.755-5.674,3.768c-1.263,2.011-1.6,4.469-0.926,6.747
		c17.934,60.586,18.371,122.003,1.329,182.629c-25.062-1.869-50.086-4.25-75.046-7.161c-4.54-0.527-8.647,2.721-9.178,7.26
		c-0.528,4.539,2.721,8.648,7.26,9.177c24.667,2.877,49.397,5.238,74.165,7.107v34.1c-17.48,7.77-29.23,25.421-29.23,44.9
		c0,19.701,11.989,37.498,29.776,45.142c3.615,40.785,25.23,78.087,59.376,101.525c0.275,0.201,0.556,0.393,0.835,0.577l0.199,0.133
		c11.587,7.802,24.135,13.72,37.392,17.664c1.105,8.709,5.026,16.764,11.335,23.073l22.317,22.317
		c1.615,1.616,3.733,2.424,5.85,2.424c2.117,0,4.235-0.808,5.85-2.424l22.317-22.317c6.468-6.468,10.233-14.627,11.314-23.067
		c13.252-3.942,25.81-9.865,37.443-17.69l0.177-0.119c0.259-0.174,0.523-0.354,0.788-0.544
		c34.172-23.436,55.8-60.753,59.416-101.554c17.784-7.645,29.769-25.441,29.769-45.139c0-19.477-11.748-37.125-29.224-44.896
		v-34.103c24.768-1.868,49.496-4.23,74.163-7.107C472.555,212.51,475.805,208.4,475.276,203.861z M375.354,25.508
		c-12.292,45.822-15.069,92.057-8.357,138.065c-73.232,10.322-147.357,10.323-220.592,0.001c6.712-46.01,3.935-92.244-8.357-138.067
		C216.837,13.563,296.565,13.563,375.354,25.508z M143.625,179.897c37.537,5.312,75.304,7.971,113.071,7.971
		c37.771,0,75.541-2.659,113.081-7.972c1.625,8.331,3.563,16.652,5.813,24.96c-79.148,5.222-158.652,5.255-237.803,0.094
		C140.047,196.61,141.994,188.258,143.625,179.897z M150.875,222.327c-1.456,7.145-3.814,17.665-6.995,28.479
		c-3.245,11.027-6.365,19.088-9.18,24.998v-54.481C140.091,221.682,145.483,222.017,150.875,222.327z M105.47,299.146
		c0-10.228,4.898-19.677,12.682-25.732v51.467C110.366,318.828,105.47,309.384,105.47,299.146z M272.468,475.559l-16.466,16.466
		l-16.466-16.466c-9.079-9.08-9.079-23.853,0-32.933c4.399-4.399,10.246-6.82,16.466-6.82c6.22,0,12.067,2.423,16.466,6.82
		C281.548,451.707,281.548,466.479,272.468,475.559z M324.451,432.248c-0.071,0.049-0.14,0.098-0.209,0.148
		c-0.127,0.093-0.254,0.177-0.378,0.259l-0.206,0.139c-9.247,6.22-19.173,11.08-29.617,14.515
		c-1.847-5.998-5.132-11.646-9.871-16.384c-7.524-7.524-17.527-11.668-28.168-11.668c-10.641,0-20.644,4.144-28.168,11.668
		c-4.655,4.655-8.012,10.26-9.898,16.376c-10.441-3.435-20.352-8.288-29.556-14.486l-0.495-0.33
		c-0.108-0.083-0.218-0.162-0.331-0.239c-33.096-22.659-52.854-60.1-52.854-100.153v-28.417c9.503-7.415,17.752-23.324,25.1-48.35
		c3.73-12.705,6.337-24.768,7.783-32.124c29.449,1.421,58.933,2.144,88.418,2.144s58.969-0.722,88.418-2.144
		c1.446,7.356,4.053,19.418,7.783,32.123c7.348,25.027,15.598,40.935,25.1,48.351v28.417
		C377.303,372.148,357.546,409.588,324.451,432.248z M406.527,299.146c0,10.235-4.893,19.676-12.675,25.73v-51.457
		C401.632,279.474,406.527,288.921,406.527,299.146z M377.303,275.806c-2.815-5.911-5.935-13.971-9.18-24.999
		c-3.182-10.814-5.539-21.336-6.996-28.479c5.394-0.31,10.785-0.645,16.175-1.003v54.481H377.303z"/>
	<path style="fill:#333333;" d="M206.911,315.932v-15.894c0-4.57-3.705-8.274-8.274-8.274s-8.274,3.705-8.274,8.274v15.894
		c0,4.57,3.705,8.274,8.274,8.274S206.911,320.502,206.911,315.932z"/>
	<path style="fill:#333333;" d="M305.094,300.038v15.894c0,4.57,3.705,8.274,8.274,8.274c4.57,0,8.274-3.705,8.274-8.274v-15.894
		c0-4.57-3.705-8.274-8.274-8.274C308.799,291.763,305.094,295.468,305.094,300.038z"/>
</g>
<g>
</g>
<g>
</g>
<g>
</g>
<g>
</g>
<g>
</g>
<g>
</g>
<g>
</g>
<g>
</g>
<g>
</g>
<g>
</g>
<g>
</g>
<g>
</g>
<g>
</g>
<g>
</g>
<g>
</g>
</svg>
