<?xml version="1.0" encoding="iso-8859-1"?>
<!-- Generator: Adobe Illustrator 19.0.0, SVG Export Plug-In . SVG Version: 6.00 Build 0)  -->
<svg version="1.1" id="Layer_1" xmlns="http://www.w3.org/2000/svg" xmlns:xlink="http://www.w3.org/1999/xlink" x="0px" y="0px"
	 viewBox="0 0 512.002 512.002" style="enable-background:new 0 0 512.002 512.002;" xml:space="preserve">
<path style="fill:#806749;" d="M300.875,211.126l-54.033-16.788L4.892,436.289c-6.521,6.521-6.521,17.086,0,23.607l47.214,47.214
	c3.261,3.261,7.533,4.891,11.803,4.891c4.272,0,8.543-1.63,11.803-4.891l241.95-241.95L300.875,211.126z"/>
<path style="fill:#5F4D37;" d="M300.875,211.126L300.875,211.126L28.499,483.503l23.607,23.607
	c3.261,3.261,7.533,4.891,11.803,4.891c4.272,0,8.543-1.63,11.803-4.891l241.95-241.95L300.875,211.126z"/>
<path style="fill:#FFDA44;" d="M320.435,347.033c-0.869,0-1.74-0.066-2.609-0.207c-6.283-0.989-11.445-5.467-13.336-11.531
	l-30.292-97.494l-97.494-30.292c-6.065-1.891-10.543-7.054-11.531-13.336c-0.999-6.272,1.663-12.564,6.847-16.238l83.354-58.953
	L254.07,16.913c-0.076-6.358,3.456-12.206,9.119-15.096c5.663-2.88,12.466-2.304,17.564,1.5l81.81,61.051l96.678-32.78
	c5.989-2.021,12.662-0.489,17.162,4.011c4.5,4.489,6.043,11.152,4.01,17.162l-32.78,96.678l61.051,81.81
	c3.804,5.097,4.38,12.04,1.5,17.703c-2.858,5.597-8.608,9.258-14.879,9.258c-0.066,0-0.141,0-0.217,0l-102.069-1.444l-58.953,83.283
	C330.902,344.517,325.804,347.033,320.435,347.033z"/>
<path style="fill:#EEBF00;" d="M476.403,35.598L274.199,237.802l30.292,97.494c1.891,6.065,7.054,10.543,13.336,11.531
	c0.869,0.141,1.74,0.207,2.609,0.207c5.369,0,10.466-2.587,13.629-7.054l58.953-83.213l102.069,1.442c0.076,0,0.152,0,0.217,0
	c6.272,0,12.021-3.661,14.879-9.258c2.88-5.663,2.304-12.536-1.5-17.634l-61.051-81.844l32.781-96.696
	C482.447,46.766,480.903,40.086,476.403,35.598z"/>
<g>
</g>
<g>
</g>
<g>
</g>
<g>
</g>
<g>
</g>
<g>
</g>
<g>
</g>
<g>
</g>
<g>
</g>
<g>
</g>
<g>
</g>
<g>
</g>
<g>
</g>
<g>
</g>
<g>
</g>
</svg>
