<?xml version="1.0" encoding="iso-8859-1"?>
<!-- Generator: Adobe Illustrator 19.0.0, SVG Export Plug-In . SVG Version: 6.00 Build 0)  -->
<svg version="1.1" id="Layer_1" xmlns="http://www.w3.org/2000/svg" xmlns:xlink="http://www.w3.org/1999/xlink" x="0px" y="0px"
	 viewBox="0 0 511.995 511.995" style="enable-background:new 0 0 511.995 511.995;" xml:space="preserve">
<polygon style="fill:#CBB292;" points="150.151,398.71 120.161,428.524 107.547,440.961 93.522,454.809 80.909,467.246 
	66.443,481.624 29.044,444.577 43.686,430.023 56.299,417.586 70.324,403.738 82.849,391.213 112.663,361.664 "/>
<g>
	<polygon style="fill:#7F6E5D;" points="120.161,428.524 107.547,440.961 70.324,403.738 82.849,391.213 	"/>
	<polygon style="fill:#7F6E5D;" points="93.522,454.809 80.909,467.246 43.686,430.023 56.299,417.586 	"/>
</g>
<path style="fill:#95A5A5;" d="M502.974,0.02h-91.381c-6.183,0.018-11.943,3.131-15.348,8.291L367.049,44.74l-75.769,94.733
	l-35.282,44.103l-34.312,42.78l-0.97,1.235l-29.725,37.046l-61.744,77.621l42.603,42.162l48.866-39.34l35.282-28.314l32.019-25.668
	l3.264-2.646l29.725-23.816l66.154-52.924l80.532-64.479l35.282-28.667c5.336-3.264,8.662-9.006,8.821-15.26V8.84
	C511.795,3.971,507.843,0.02,502.974,0.02z"/>
<path style="fill:#464F5D;" d="M141.33,379.305c-4.842,0.529-9.2-2.964-9.729-7.806c-0.326-2.981,0.882-5.919,3.202-7.806
	L460.724,38.036c3.608-3.59,9.447-3.59,13.054,0c3.581,3.299,3.802,8.882,0.503,12.463c-0.159,0.176-0.326,0.344-0.503,0.503
	l-325.48,325.568C146.499,378.476,143.941,379.473,141.33,379.305z"/>
<g>
	<path style="fill:#B19046;" d="M183.669,416.704l-4.675,4.587c-5.628,5.539-14.66,5.539-20.287,0L91.67,354.96
		c-5.557-5.539-5.566-14.527-0.026-20.084c0.009-0.009,0.018-0.018,0.026-0.026l4.675-4.587c5.628-5.539,14.66-5.539,20.287,0
		l12.261,12.084l42.603,42.162l12.172,12.437C189.093,402.415,189.093,411.236,183.669,416.704z"/>
	<path style="fill:#B19046;" d="M4.346,466.1l42.074,41.721c5.628,5.539,14.66,5.539,20.287,0l4.763-5.028
		c5.557-5.469,5.619-14.404,0.15-19.961c-0.053-0.053-0.106-0.106-0.15-0.15l-42.162-41.633c-5.628-5.539-14.66-5.539-20.287,0
		l-4.675,4.675c-5.628,5.398-5.813,14.325-0.423,19.952C4.064,465.826,4.205,465.967,4.346,466.1z"/>
</g>
<polygon style="fill:#CBB292;" points="361.845,398.71 391.835,428.524 404.448,440.961 418.473,454.809 431.086,467.246 
	445.552,481.624 482.951,444.577 468.309,430.023 455.696,417.586 441.671,403.738 429.146,391.213 399.332,361.664 "/>
<g>
	<polygon style="fill:#7F6E5D;" points="391.835,428.524 404.448,440.961 441.671,403.738 429.146,391.213 	"/>
	<polygon style="fill:#7F6E5D;" points="418.473,454.809 431.086,467.246 468.309,430.023 455.696,417.586 	"/>
</g>
<path style="fill:#BDC3C7;" d="M0.201,8.84v94.469c0.159,6.254,3.484,11.996,8.821,15.26l35.282,28.667l80.532,64.479l66.154,52.924
	l29.725,23.904l3.264,2.646l32.019,25.58l35.282,28.314l49.219,39.428l42.603-42.162l-61.744-77.621l-30.078-37.135l-0.97-1.235
	l-34.312-42.78l-35.282-44.103L144.946,44.74L115.75,8.311c-3.405-5.16-9.165-8.274-15.348-8.291H9.021
	C4.143,0.02,0.201,3.971,0.201,8.84z"/>
<path style="fill:#5E5F62;" d="M370.665,379.305c4.842,0.529,9.2-2.964,9.729-7.806c0.326-2.981-0.882-5.919-3.202-7.806
	L51.272,38.036c-3.608-3.59-9.447-3.59-13.054,0c-3.581,3.308-3.81,8.891-0.503,12.463c0.159,0.176,0.326,0.344,0.503,0.503
	l325.48,325.568C365.496,378.476,368.046,379.473,370.665,379.305z"/>
<g>
	<path style="fill:#B19046;" d="M328.326,416.704l4.675,4.587c5.628,5.539,14.66,5.539,20.287,0l67.036-66.331
		c5.557-5.539,5.566-14.527,0.026-20.084c-0.009-0.009-0.018-0.018-0.026-0.026l-4.675-4.587c-5.628-5.539-14.66-5.539-20.287,0
		l-12.261,12.084l-42.603,42.162l-12.172,12.437C322.902,402.415,322.902,411.236,328.326,416.704z"/>
	<path style="fill:#B19046;" d="M507.649,466.1l-42.074,41.721c-5.628,5.539-14.66,5.539-20.287,0l-4.763-5.028
		c-5.557-5.469-5.619-14.404-0.15-19.961c0.053-0.053,0.106-0.106,0.15-0.15l42.162-41.633c5.628-5.539,14.66-5.539,20.287,0
		l4.675,4.675c5.628,5.398,5.813,14.325,0.423,19.952C507.931,465.826,507.79,465.967,507.649,466.1z"/>
</g>
<g>
</g>
<g>
</g>
<g>
</g>
<g>
</g>
<g>
</g>
<g>
</g>
<g>
</g>
<g>
</g>
<g>
</g>
<g>
</g>
<g>
</g>
<g>
</g>
<g>
</g>
<g>
</g>
<g>
</g>
</svg>
