<?xml version="1.0" encoding="iso-8859-1"?>
<!-- Generator: Adobe Illustrator 19.0.0, SVG Export Plug-In . SVG Version: 6.00 Build 0)  -->
<svg version="1.1" id="Capa_1" xmlns="http://www.w3.org/2000/svg" xmlns:xlink="http://www.w3.org/1999/xlink" x="0px" y="0px"
	 viewBox="0 0 511.999 511.999" style="enable-background:new 0 0 511.999 511.999;" xml:space="preserve">
<path style="fill:#D8D7DA;" d="M177.064,382.286l-47.345-47.344L437.553,27.113c6.907-6.907,15.393-12.028,24.724-14.92
	l37.942-11.76c6.977-2.162,13.522,4.381,11.36,11.36l-11.76,37.941c-2.892,9.33-8.013,17.816-14.92,24.723L177.064,382.286z"/>
<path style="fill:#C6C5CA;" d="M509.715,3.1c-2.223-2.514-5.785-3.825-9.483-2.68l-37.942,11.76
	c-9.33,2.892-17.817,8.013-24.724,14.92L129.718,334.942l24.073,24.073L509.715,3.1z"/>
<rect x="76.153" y="326.42" transform="matrix(-0.7071 -0.7071 0.7071 -0.7071 -114.3946 771.4575)" style="fill:#FFD422;" width="52.848" height="166.002"/>
<rect x="10.237" y="386.87" transform="matrix(-0.7071 0.7071 -0.7071 -0.7071 442.068 617.0542)" style="fill:#EEBF00;" width="166.002" height="26.425"/>
<path style="fill:#FFE477;" d="M140.312,371.692c-26.064-26.063-47.681-56.57-62.547-89.22C72.996,272,77.62,259.645,88.093,254.875
	c10.474-4.768,22.831-0.144,27.598,10.329c25.686,56.41,74.7,105.424,131.111,131.108c10.472,4.765,15.097,17.123,10.33,27.598
	c-4.769,10.473-17.125,15.096-27.598,10.328C196.883,419.371,166.375,397.755,140.312,371.692z"/>
<path style="fill:#FFDA44;" d="M242.613,421.16c-32.056-16.108-63.158-36.483-89.222-62.545s-47.06-56.86-62.547-89.22
	c-3.451-7.211-2.091-14.818-2.751-14.518c-10.473,4.769-15.097,17.125-10.329,27.598c14.867,32.65,36.484,63.156,62.547,89.22
	c26.064,26.063,56.571,47.68,89.222,62.545c10.473,4.769,22.829,0.144,27.598-10.328C257.431,423.251,249.818,424.78,242.613,421.16
	z"/>
<circle style="fill:#FFE477;" cx="33.579" cy="478.418" r="33.579"/>
<path style="fill:#FFDA44;" d="M33.579,478.423c8.787-8.786,21.231-11.676,32.432-8.688c-1.471-5.515-4.361-10.729-8.688-15.056
	c-13.113-13.113-34.375-13.113-47.488,0c-13.113,13.113-13.114,34.374,0,47.487c4.327,4.327,9.542,7.215,15.056,8.688
	C21.902,499.653,24.791,487.211,33.579,478.423z"/>
<g>
	<polygon style="fill:#EEBF00;" points="75.916,398.715 127.487,421.888 143.248,406.127 91.678,382.953 	"/>
	<polygon style="fill:#EEBF00;" points="43.279,431.351 94.849,454.525 110.611,438.764 59.041,415.59 	"/>
</g>
<g>
	<polygon style="fill:#DDB200;" points="91.678,382.953 75.916,398.715 101.702,410.301 117.463,394.541 	"/>
	<polygon style="fill:#DDB200;" points="59.041,415.59 43.279,431.351 69.064,442.939 84.826,427.178 	"/>
</g>
<circle style="fill:#00CCB3;" cx="153.393" cy="358.618" r="38.546"/>
<path style="fill:#00AA95;" d="M153.391,358.613c10.087-10.086,24.371-13.404,37.23-9.972c-1.689-6.33-5.007-12.317-9.973-17.283
	c-15.053-15.053-39.46-15.053-54.513,0s-15.053,39.459,0,54.512c4.967,4.967,10.953,8.284,17.283,9.972
	C139.987,382.984,143.303,368.701,153.391,358.613z"/>
<circle style="fill:#008877;" cx="153.393" cy="358.618" r="21.973"/>
<path style="fill:#00665A;" d="M172.708,348.156c-0.988-1.822-2.24-3.539-3.78-5.079c-8.581-8.58-22.493-8.58-31.074,0
	c-8.581,8.58-8.581,22.493,0,31.073c1.54,1.54,3.257,2.793,5.079,3.78c1.482-7.078,4.962-13.822,10.458-19.317
	C158.887,353.118,165.63,349.638,172.708,348.156z"/>
<g>
</g>
<g>
</g>
<g>
</g>
<g>
</g>
<g>
</g>
<g>
</g>
<g>
</g>
<g>
</g>
<g>
</g>
<g>
</g>
<g>
</g>
<g>
</g>
<g>
</g>
<g>
</g>
<g>
</g>
</svg>
