<?xml version="1.0" encoding="iso-8859-1"?>
<!-- Generator: Adobe Illustrator 19.0.0, SVG Export Plug-In . SVG Version: 6.00 Build 0)  -->
<svg version="1.1" id="Layer_1" xmlns="http://www.w3.org/2000/svg" xmlns:xlink="http://www.w3.org/1999/xlink" x="0px" y="0px"
	 viewBox="0 0 460.366 460.366" style="enable-background:new 0 0 460.366 460.366;" xml:space="preserve">
<g id="XMLID_337_">
	<polygon id="XMLID_40_" style="fill:#66DBBF;" points="336.433,124.3 30.369,430.364 23.291,367.622 304.613,106.622 	"/>
	<polygon id="XMLID_39_" style="fill:#5CAE96;" points="336.433,124.3 30.369,430.364 93.11,437.442 354.111,156.119 	"/>
	<polygon id="XMLID_38_" style="fill:#66DBBF;" points="30.369,430.364 8.296,438.294 0.366,460.366 99.361,460.366 
		364.717,166.726 354.111,141.977 86.039,430.371 	"/>
	<polygon id="XMLID_37_" style="fill:#A3E9D9;" points="30.369,430.364 0.366,460.366 0.366,361.371 294.006,96.015 
		318.755,106.622 30.362,374.693 	"/>
	<path id="XMLID_36_" style="fill:#51816D;" d="M307.416,26.037c-11.716-11.716-30.71-11.716-42.426,0l7.071,35.355l35.355,7.071
		C319.132,56.748,319.132,37.753,307.416,26.037z"/>
	<path id="XMLID_35_" style="fill:#624950;" d="M434.695,153.316c-11.716-11.716-30.71-11.716-42.426,0l7.071,35.355l35.355,7.071
		C446.411,184.027,446.411,165.032,434.695,153.316z"/>
	<path id="XMLID_34_" style="fill:#624950;" d="M342.808,117.192l34.505-48.647L449.75,10.25c13.667,13.667,13.667,35.831,0,49.497
		l-82.193,82.193L342.808,117.192z"/>
	<path id="XMLID_33_" style="fill:#51816D;" d="M449.75,10.25L342.808,117.192l-24.749-24.749l82.193-82.193
		C413.919-3.417,436.083-3.417,449.75,10.25z"/>
	<polygon id="XMLID_32_" style="fill:#51816D;" points="434.695,195.743 413.482,216.956 328.629,132.103 332.165,114.425 
		349.843,110.89 	"/>
	
		<rect id="XMLID_3_" x="281.807" y="19.072" transform="matrix(-0.7071 0.7071 -0.7071 -0.7071 562.5936 -74.8911)" style="fill:#5CAE96;" width="30" height="119.999"/>
</g>
<g>
</g>
<g>
</g>
<g>
</g>
<g>
</g>
<g>
</g>
<g>
</g>
<g>
</g>
<g>
</g>
<g>
</g>
<g>
</g>
<g>
</g>
<g>
</g>
<g>
</g>
<g>
</g>
<g>
</g>
</svg>
