<?xml version="1.0" encoding="iso-8859-1"?>
<!-- Generator: Adobe Illustrator 19.0.0, SVG Export Plug-In . SVG Version: 6.00 Build 0)  -->
<svg xmlns="http://www.w3.org/2000/svg" xmlns:xlink="http://www.w3.org/1999/xlink" version="1.1" id="Capa_1" x="0px" y="0px" viewBox="0 0 512 512" style="enable-background:new 0 0 512 512;" xml:space="preserve">
<rect x="213.783" y="44.937" transform="matrix(-0.7071 0.7071 -0.7071 -0.7071 620.3391 256.964)" style="fill:#D7DBDD;" width="86.335" height="424.042"/>
<rect x="220.106" y="60.202" transform="matrix(-0.7071 0.7071 -0.7071 -0.7071 605.0802 293.8141)" style="fill:#C6CBCC;" width="43.167" height="424.042"/>
<g>
	<path style="fill:#D7DBDD;" d="M409.511,338.584c-14.826,14.826-20.265,35.475-16.34,54.585   c-19.109-3.925-39.758,1.513-54.585,16.34c-23.446,23.445-23.445,61.459,0,84.904c23.445,23.445,61.459,23.445,84.904,0   c14.826-14.826,20.265-35.475,16.34-54.585c19.109,3.925,39.758-1.513,54.585-16.34c23.446-23.446,23.445-61.459,0-84.904   C470.97,315.139,432.956,315.139,409.511,338.584z"/>
	<path style="fill:#D7DBDD;" d="M88.511,17.584C73.684,32.411,68.246,53.06,72.171,72.169c-19.109-3.925-39.758,1.513-54.585,16.34   c-23.446,23.446-23.445,61.459,0,84.904s61.459,23.446,84.904,0c14.826-14.827,20.265-35.475,16.34-54.585   c19.109,3.925,39.758-1.513,54.585-16.34c23.446-23.446,23.445-61.459,0-84.904S111.956-5.861,88.511,17.584z"/>
</g>
<g>
	<path style="fill:#C6CBCC;" d="M115.909,152.937c-2.916,7.464-7.391,14.448-13.419,20.476c-23.449,23.449-61.455,23.449-84.905,0   c-23.442-23.442-23.449-61.455,0-84.905c6.028-6.028,13.011-10.504,20.476-13.419c-8.47,21.547-3.987,47.008,13.426,64.423   C68.909,156.931,94.362,161.406,115.909,152.937z"/>
	<path style="fill:#C6CBCC;" d="M436.911,473.937c-2.916,7.464-7.391,14.448-13.419,20.476c-23.449,23.449-61.455,23.449-84.905,0   c-23.442-23.442-23.449-61.455,0-84.905c6.028-6.028,13.011-10.504,20.476-13.419c-8.47,21.547-3.987,47.008,13.426,64.423   C389.909,477.932,415.364,482.408,436.911,473.937z"/>
</g>
<rect x="211.874" y="44.941" transform="matrix(-0.7071 -0.7071 0.7071 -0.7071 253.6828 619.0031)" style="fill:#D7DBDD;" width="86.335" height="424.042"/>
<rect x="218.195" y="29.678" transform="matrix(-0.7071 -0.7071 0.7071 -0.7071 238.4206 582.1544)" style="fill:#C6CBCC;" width="43.167" height="424.042"/>
<g>
	<path style="fill:#D7DBDD;" d="M173.416,409.511c-14.826-14.826-35.475-20.265-54.585-16.34   c3.925-19.109-1.513-39.758-16.34-54.585c-23.446-23.446-61.459-23.445-84.904,0c-23.445,23.445-23.446,61.459,0,84.904   c14.826,14.826,35.475,20.265,54.585,16.34c-3.925,19.109,1.513,39.758,16.34,54.585c23.446,23.446,61.459,23.445,84.904,0   S196.862,432.956,173.416,409.511z"/>
	<path style="fill:#D7DBDD;" d="M494.416,88.511c-14.826-14.826-35.475-20.265-54.585-16.34c3.925-19.109-1.513-39.758-16.34-54.585   c-23.446-23.446-61.459-23.445-84.904,0s-23.446,61.459,0,84.904c14.826,14.826,35.475,20.265,54.585,16.34   c-3.925,19.109,1.513,39.758,16.34,54.585c23.446,23.446,61.459,23.445,84.904,0C517.861,149.97,517.861,111.956,494.416,88.511z"/>
</g>
<g>
	<path style="fill:#C6CBCC;" d="M359.064,115.909c-7.464-2.916-14.448-7.391-20.476-13.419c-23.449-23.449-23.449-61.455,0-84.905   c23.442-23.442,61.455-23.449,84.905,0c6.028,6.028,10.504,13.011,13.419,20.476c-21.547-8.47-47.008-3.987-64.423,13.426   C355.069,68.909,350.593,94.362,359.064,115.909z"/>
	<path style="fill:#C6CBCC;" d="M38.063,436.911c-7.464-2.916-14.448-7.391-20.476-13.419c-23.449-23.449-23.449-61.455,0-84.905   c23.442-23.442,61.455-23.449,84.905,0c6.028,6.028,10.504,13.011,13.419,20.476c-21.547-8.47-47.008-3.987-64.423,13.426   C34.068,389.909,29.592,415.364,38.063,436.911z"/>
</g>
<g>
</g>
<g>
</g>
<g>
</g>
<g>
</g>
<g>
</g>
<g>
</g>
<g>
</g>
<g>
</g>
<g>
</g>
<g>
</g>
<g>
</g>
<g>
</g>
<g>
</g>
<g>
</g>
<g>
</g>
</svg>
