<?xml version="1.0" encoding="iso-8859-1"?>
<!-- Generator: Adobe Illustrator 19.0.0, SVG Export Plug-In . SVG Version: 6.00 Build 0)  -->
<svg xmlns="http://www.w3.org/2000/svg" xmlns:xlink="http://www.w3.org/1999/xlink" version="1.1" id="Capa_1" x="0px" y="0px" viewBox="0 0 512 512" style="enable-background:new 0 0 512 512;" xml:space="preserve">
<path style="fill:#738182;" d="M423.182,214.383H89.491c0,28.856,0-18.398,0,10.458c0,21.324,0,42.648,0,63.975  c-0.001,30.187-2.748,57.409,2.871,87.323c4.733,25.197,15.376,49.156,30.843,69.597C154.545,487.157,204.388,512,256.337,512  c50.058,0,98.268-23.046,129.757-61.952c37.596-46.453,37.088-98.401,37.088-155.156c0-21.449,0-42.897,0-64.346  C423.182,199.788,423.182,245.141,423.182,214.383z"/>
<path style="fill:#D7DBDD;" d="M195.45,214.383c0,0,17.471,150.832-61.479,242.34l-31.332,34.897  c-2.015,2.244-5.508,2.302-7.589,0.119c-22.857-23.975-133.444-152.707-3.887-277.355H195.45z"/>
<path style="fill:#C6CBCC;" d="M116.226,476.485l-13.583,15.131c-2.015,2.244-5.508,2.303-7.589,0.12  c-22.858-23.974-133.45-152.7-3.89-277.349h34.489C13.659,322.138,81.126,432.941,116.226,476.485z"/>
<path style="fill:#D7DBDD;" d="M316.55,214.383c0,0-17.471,150.832,61.479,242.34l31.332,34.897  c2.015,2.244,5.508,2.302,7.589,0.119c22.856-23.975,133.443-152.707,3.886-277.355L316.55,214.383z"/>
<path style="fill:#C6CBCC;" d="M395.774,476.485l13.583,15.131c2.015,2.244,5.508,2.303,7.589,0.12  c22.858-23.974,133.45-152.7,3.89-277.349h-34.489C498.341,322.138,430.874,432.941,395.774,476.485z"/>
<path style="fill:#738182;" d="M295.816,78.594c-12.655-2.734-39.813-4.181-39.813-4.181s-27.162,1.447-39.817,4.181L97.158,0.851  c-3.442-2.248-8.003,0.221-8.003,4.332v204.944c0,24.651,3.088,47.58,14.231,69.979c20.196,40.617,59.463,69.223,102.724,81.124  c31.208,8.615,68.386,8.636,99.788-0.002c43.255-11.899,82.521-40.505,102.717-81.122c11.143-22.399,14.231-45.329,14.231-69.979  V5.182c0-4.111-4.562-6.579-8.003-4.332L295.816,78.594z"/>
<path style="fill:#576666;" d="M287.168,365.257c-26.79,4.284-55.868,2.929-81.054-4.026c-43.264-11.9-82.534-40.511-102.732-81.126  c-11.145-22.403-14.229-45.323-14.229-69.981V5.183c0-4.111,4.562-6.579,8.003-4.332l54.373,35.513v173.759  c0,24.659,3.094,47.578,14.239,69.981c20.188,40.615,59.458,69.226,102.722,81.126C274.523,362.897,280.773,364.232,287.168,365.257  z"/>
<path style="fill:#EFDA45;" d="M327.363,155.424c-13.025-0.472-24.926,4.314-33.757,12.4c-9.745,8.922-22.507,13.822-35.72,13.822  h-3.774c-13.213,0-25.975-4.9-35.72-13.822c-8.831-8.086-20.732-12.872-33.757-12.4c-24.021,0.871-43.879,20.03-45.54,44.009  c-1.919,27.715,19.996,50.795,47.301,50.795c12.333,0,23.561-4.711,31.992-12.429c9.747-8.923,22.511-13.824,35.726-13.824h3.768  c13.215,0,25.979,4.901,35.726,13.824c8.431,7.718,19.659,12.429,31.992,12.429c27.305,0,49.22-23.08,47.3-50.795  C371.242,175.454,351.384,156.295,327.363,155.424z"/>
<path style="fill:#EDC148;" d="M201.975,247.603c-4.874,1.707-10.12,2.629-15.574,2.629c-27.307,0-49.224-23.086-47.299-50.797  c1.656-23.976,21.513-43.14,45.541-44.009c6.105-0.228,11.962,0.714,17.374,2.608c-17.446,6.115-30.422,22.217-31.747,41.401  C168.727,221.6,182.449,240.815,201.975,247.603z"/>
<path style="fill:#F48B2C;" d="M291.7,237.804l-34.035,47.778c-0.825,1.159-2.542,1.165-3.367,0.007  c-7.063-9.915-33.978-47.695-34.05-47.785c-0.662-0.942,8.216-6.436,8.764-6.736c8.547-4.647,17.715-6.84,26.955-6.757  c6.374,0.052,12.769,1.18,19.04,3.322C275.961,227.963,293.138,235.775,291.7,237.804z"/>
<path style="fill:#E07A27;" d="M256.001,224.31v61.201c0,0.75-0.958,1.063-1.393,0.453c-6.586-9.234-34.286-48.069-34.359-48.16  c-0.662-0.942,8.216-6.436,8.764-6.736c8.547-4.647,17.715-6.84,26.955-6.757H256.001z"/>
<circle cx="187.602" cy="202.81" r="11.254"/>
<circle cx="324.399" cy="202.81" r="11.254"/>
<g>
</g>
<g>
</g>
<g>
</g>
<g>
</g>
<g>
</g>
<g>
</g>
<g>
</g>
<g>
</g>
<g>
</g>
<g>
</g>
<g>
</g>
<g>
</g>
<g>
</g>
<g>
</g>
<g>
</g>
</svg>
