<?xml version="1.0" encoding="iso-8859-1"?>
<!-- Generator: Adobe Illustrator 19.0.0, SVG Export Plug-In . SVG Version: 6.00 Build 0)  -->
<svg xmlns="http://www.w3.org/2000/svg" xmlns:xlink="http://www.w3.org/1999/xlink" version="1.1" id="Capa_1" x="0px" y="0px" viewBox="0 0 512.001 512.001" style="enable-background:new 0 0 512.001 512.001;" xml:space="preserve">
<path style="fill:#9AD14B;" d="M409.128,287.313c-6.224-13.429-13.801-26.301-23.256-37.706  c-23.782-28.674-50.381-37.169-87.241-37.169h-85.263c-36.859,0-63.459,8.495-87.241,37.169  c-9.455,11.406-17.031,24.278-23.256,37.706c-13.945,30.088-20.964,63.976-16.752,97.625  c10.776,85.961,91.122,128.694,169.879,127.012h0.004c78.756,1.682,159.103-41.05,169.879-127.012  C430.092,351.287,423.073,317.401,409.128,287.313z"/>
<path style="fill:#90BC42;" d="M291.91,509.616c-10.363,1.59-20.902,2.385-31.43,2.385c-1.497,0-2.983-0.021-4.48-0.052  c-78.756,1.682-159.103-41.051-169.879-127.012c-4.212-33.65,2.808-67.537,16.752-97.625c6.224-13.429,13.801-26.301,23.256-37.706  c23.782-28.674,50.381-37.169,87.241-37.169h71.82c-36.859,0-63.459,8.495-87.241,37.169c-9.455,11.406-17.031,24.278-23.256,37.706  c-13.945,30.088-20.964,63.976-16.752,97.625C167.077,457.779,226.16,499.583,291.91,509.616z"/>
<path style="fill:#774615;" d="M169.807,24.634l-2.306-2.417c-8.312-8.711-21.468-10.688-31.974-4.805l0,0  c-8.738,4.894-13.977,14.316-13.465,24.318c3.884,75.817,83.193,133.69,83.193,133.69h56.054  C261.309,175.419,171.427,109.838,169.807,24.634z"/>
<path style="fill:#9AD14B;" d="M135.527,17.407l0.001-0.001c10.504-5.882,23.658-3.907,31.97,4.802l11.819,12.382l-0.579-5.4  C177.068,13.598,189.287,0,204.968,0h102.065c15.681,0,27.899,13.598,26.228,29.189l-0.579,5.4l11.819-12.382  c8.312-8.708,21.466-10.684,31.97-4.802l0.001,0.001c8.739,4.894,13.978,14.317,13.465,24.319  c-3.888,75.819-83.197,133.693-83.197,133.693h-42.901h-4.043h-7.594h-46.944c0,0-79.309-57.874-83.197-133.693  C121.55,31.724,126.788,22.301,135.527,17.407z"/>
<path style="fill:#90BC42;" d="M169.807,24.634l-2.306-2.417c-8.312-8.711-21.468-10.688-31.974-4.805l0,0  c-8.738,4.894-13.977,14.316-13.465,24.318c3.884,75.817,83.193,133.69,83.193,133.69h56.054  C261.309,175.419,171.427,109.838,169.807,24.634z"/>
<path style="fill:#F95428;" d="M322.665,213.772H189.336c-2.851,0-5.16-2.311-5.16-5.161v-27.734c0-2.851,2.311-5.16,5.16-5.16  h133.329c2.851,0,5.161,2.311,5.161,5.16v27.734C327.826,211.461,325.515,213.772,322.665,213.772z"/>
<path style="fill:#E54728;" d="M222.733,213.772h-33.397c-2.851,0-5.16-2.311-5.16-5.161v-27.734c0-2.851,2.311-5.16,5.16-5.16  h33.397V213.772z"/>
<g>
</g>
<g>
</g>
<g>
</g>
<g>
</g>
<g>
</g>
<g>
</g>
<g>
</g>
<g>
</g>
<g>
</g>
<g>
</g>
<g>
</g>
<g>
</g>
<g>
</g>
<g>
</g>
<g>
</g>
</svg>
