<?xml version="1.0" encoding="iso-8859-1"?>
<!-- Generator: Adobe Illustrator 19.0.0, SVG Export Plug-In . SVG Version: 6.00 Build 0)  -->
<svg xmlns="http://www.w3.org/2000/svg" xmlns:xlink="http://www.w3.org/1999/xlink" version="1.1" id="Capa_1" x="0px" y="0px" viewBox="0 0 512 512" style="enable-background:new 0 0 512 512;" xml:space="preserve">
<g>
	<path style="fill:#9AD14B;" d="M67.933,202.914c-0.026,0-0.053,0-0.079,0c-4.142-0.043-7.465-3.436-7.422-7.577   c0.014-1.396,0.538-34.612,16.533-73.136c14.86-35.787,46.404-82.889,112.292-104.047c3.942-1.266,8.167,0.904,9.434,4.848   c1.267,3.943-0.904,8.167-4.848,9.434c-48.513,15.579-83.176,47.716-103.024,95.519c-14.892,35.863-15.384,67.225-15.387,67.537   C75.388,199.607,72.039,202.914,67.933,202.914z"/>
	<path style="fill:#9AD14B;" d="M444.066,202.914c-4.104,0-7.452-3.303-7.498-7.415l0,0c-0.004-0.316-0.569-32.13-15.591-68.034   c-19.888-47.533-54.482-79.506-102.82-95.029c-3.944-1.267-6.114-5.49-4.848-9.434c1.266-3.944,5.492-6.117,9.434-4.848   c65.888,21.158,97.431,68.26,112.291,104.048c15.995,38.522,16.519,71.739,16.533,73.135c0.043,4.142-3.28,7.534-7.422,7.577   C444.12,202.914,444.092,202.914,444.066,202.914z"/>
	<path style="fill:#9AD14B;" d="M315.918,43.869H196.082c-2.993,0-5.419-2.426-5.419-5.419V5.419c0-2.993,2.426-5.419,5.419-5.419   h119.835c2.993,0,5.419,2.426,5.419,5.419v33.03C321.337,41.443,318.911,43.869,315.918,43.869z"/>
</g>
<path style="fill:#90BC42;" d="M231.21,43.869h-35.115c-3,0-5.431-2.432-5.431-5.431V5.431c0-3,2.432-5.431,5.431-5.431h35.115  V43.869z"/>
<path style="fill:#F48B2C;" d="M449.295,195.542H62.705c-2.856,0-5.171,2.315-5.171,5.171v58.466c0,2.856,2.315,5.171,5.171,5.171  h18.738l32.355,243.161c0.342,2.57,2.534,4.489,5.126,4.489h137.075h0.003h137.075c2.592,0,4.784-1.919,5.126-4.489l32.355-243.161  h18.738c2.856,0,5.171-2.315,5.171-5.171v-58.466C454.466,197.857,452.151,195.542,449.295,195.542z"/>
<path style="fill:#E07A27;" d="M81.452,264.353l32.362,243.158c0.342,2.569,2.534,4.489,5.126,4.489h51.09l-32.949-247.647  l0.517-0.003L81.452,264.353z"/>
<path style="fill:#E53B1A;" d="M258.352,376.851c-1.168-1.01-2.891-1.01-4.059,0c-6.006,5.194-22.745,21.034-14.083,29.449  c1.985,1.928,4.958,2.942,7.998,2.942h8.115h8.115c3.04,0,6.013-1.014,7.998-2.942C281.098,397.885,264.359,382.045,258.352,376.851  z"/>
<g>
	<path style="fill:#F95428;" d="M274.88,400.49c0.01,2.14-0.7,4.13-2.44,5.81c-1.99,1.93-4.96,2.94-8,2.94h-16.23   c-3.04,0-6.02-1.01-8-2.94c-8.66-8.41,8.08-24.26,14.08-29.45c1.17-1.01,2.89-1.01,4.06,0c0.32,0.27,0.66,0.57,1.03,0.9   c-5.49,6.6-9.81,14.61-4.47,19.79c1.98,1.93,4.96,2.95,8,2.95H274.88z"/>
	<path style="fill:#F95428;" d="M185.577,314.851l-28.488,40.483c-1.537,2.184-1.079,5.174,1.019,6.827   c4.268,3.365,13.403,7.855,31.558,7.468c18.156,0.386,27.29-4.104,31.558-7.468c2.098-1.654,2.556-4.643,1.019-6.827   l-28.488-40.483C191.764,312.021,187.569,312.021,185.577,314.851z"/>
</g>
<path style="fill:#E53B1A;" d="M199.73,323.344l-30.953,43.994c-5.21-1.523-8.611-3.538-10.754-5.248  c-2.054-1.639-2.445-4.609-0.932-6.758l28.487-40.48c1.992-2.83,6.187-2.83,8.178,0L199.73,323.344z"/>
<path style="fill:#F95428;" d="M320.368,314.851l-28.488,40.483c-1.537,2.184-1.079,5.174,1.019,6.827  c4.268,3.365,13.403,7.855,31.558,7.468c18.156,0.386,27.29-4.104,31.558-7.468c2.098-1.654,2.556-4.643,1.019-6.827l-28.488-40.483  C326.556,312.021,322.361,312.021,320.368,314.851z"/>
<path style="fill:#E53B1A;" d="M334.519,323.343l-30.953,43.994c-5.21-1.523-8.611-3.538-10.754-5.248  c-2.054-1.639-2.445-4.609-0.932-6.758l28.487-40.48c1.992-2.83,6.187-2.83,8.178,0L334.519,323.343z"/>
<path style="fill:#F95428;" d="M256.323,441.828c-43.554,0.371-74.953-13.588-90.224-22.269c-4.179-2.376-8.929,1.941-7.041,6.362  c17.627,41.264,92.028,45.963,97.003,46.232c0.175,0.009,0.348,0.009,0.524,0c4.975-0.269,79.376-4.967,97.003-46.232  c1.888-4.421-2.862-8.738-7.041-6.362C331.276,428.24,299.877,442.199,256.323,441.828z"/>
<path style="fill:#E53B1A;" d="M303.81,463.332c-31.036,9.98-64.533,9.918-95.528-0.176c-20.217-6.579-40.958-17.891-49.224-37.232  c-1.886-4.414,2.862-8.74,7.034-6.367c8.354,4.749,21.538,11.08,38.901,15.78c10.135,9.825,24.086,16.464,37.789,20.922  C262.536,462.691,283.313,465.049,303.81,463.332z"/>
<path style="fill:#F2A72F;" d="M430.557,264.35h18.738c2.856,0,5.171-2.315,5.171-5.171v-58.466c0-2.856-2.315-5.171-5.171-5.171  H62.705c-2.856,0-5.171,2.315-5.171,5.171v58.466c0,2.856,2.315,5.171,5.171,5.171h18.738H430.557z"/>
<path style="fill:#F48B2C;" d="M137.068,264.352l0.517-0.003V195.54h-74.88c-2.856,0-5.171,2.315-5.171,5.171v58.466  c0,2.856,2.315,5.171,5.171,5.171l18.735,0.003h55.628V264.352z"/>
<g>
</g>
<g>
</g>
<g>
</g>
<g>
</g>
<g>
</g>
<g>
</g>
<g>
</g>
<g>
</g>
<g>
</g>
<g>
</g>
<g>
</g>
<g>
</g>
<g>
</g>
<g>
</g>
<g>
</g>
</svg>
