<?xml version="1.0" encoding="iso-8859-1"?>
<!-- Generator: Adobe Illustrator 19.0.0, SVG Export Plug-In . SVG Version: 6.00 Build 0)  -->
<svg xmlns="http://www.w3.org/2000/svg" xmlns:xlink="http://www.w3.org/1999/xlink" version="1.1" id="Capa_1" x="0px" y="0px" viewBox="0 0 512.001 512.001" style="enable-background:new 0 0 512.001 512.001;" xml:space="preserve">
<ellipse style="fill:#738182;" cx="256" cy="453.37" rx="117.49" ry="35.397"/>
<path style="fill:#576666;" d="M278.678,488.109c-7.336,0.433-14.92,0.659-22.678,0.659c-64.892,0-117.492-15.847-117.492-35.393  c0-19.556,52.6-35.403,117.492-35.403c7.759,0,15.342,0.227,22.678,0.659c-54.022,3.184-94.793,17.527-94.793,34.744  C183.885,470.583,224.656,484.926,278.678,488.109z"/>
<path style="fill:#738182;" d="M255.998,445.609L255.998,445.609c-11.04,0-19.989-8.949-19.989-19.989V292.541h39.978V425.62  C275.987,436.659,267.038,445.609,255.998,445.609z"/>
<g>
	<path style="fill:#576666;" d="M256.964,445.609L256.964,445.609c-11.573,0-20.955-9.382-20.955-20.955V292.541h20.955V445.609z"/>
	<ellipse style="fill:#576666;" cx="256" cy="41.686" rx="138.36" ry="41.686"/>
</g>
<ellipse style="fill:#E54728;" cx="256" cy="67" rx="138.36" ry="41.686"/>
<path style="fill:#738182;" d="M256.493,306.276c-17.209,0.119-33.976-4.712-50.235-13.734  c-31.852-17.674-52.583-49.243-65.481-82.501c-12.654-32.629-18.819-67.64-21.638-102.414c-1.084-13.366-1.644-26.778-1.684-40.188  c-0.021-6.849,2.013-16.199,0.503-22.862c4.913,21.678,64.851,38.802,138.041,38.802S389.127,66.255,394.04,44.577  c0.322,8.443,0.37,9.281,0.437,13.202c0.125,7.306,0.077,14.615-0.119,21.919c-0.876,32.665-4.552,65.482-12.634,97.185  c-8.923,34.998-23.661,70.335-49.835,96.022c-13.115,12.871-28.942,22.728-46.409,28.493  C275.689,304.626,266.023,306.21,256.493,306.276z"/>
<g>
	<path style="fill:#576666;" d="M254.226,292.541c8.415,4.669,16.967,8.214,25.646,10.525c-7.876,2.111-15.669,3.152-23.381,3.207   c-17.204,0.119-33.979-4.714-50.233-13.732c-31.851-17.67-52.582-49.247-65.483-82.504   c-12.654-32.627-18.822-67.639-21.636-102.413c-1.087-13.367-1.645-26.779-1.681-40.182c-0.02-7.499,0.176-14.809,0.502-22.87   c2.586,11.43,20.466,21.59,47.511,28.643c0.165,11.485,0.704,22.961,1.636,34.409c2.814,34.774,8.981,69.786,21.636,102.413   C201.644,243.295,222.375,274.871,254.226,292.541z"/>
	<path style="fill:#576666;" d="M373.493,453.371v23.231c0,19.55-52.609,35.399-117.495,35.399s-117.495-15.849-117.495-35.399   v-23.231c0,19.55,52.609,35.399,117.495,35.399S373.493,472.92,373.493,453.371z"/>
</g>
<g>
</g>
<g>
</g>
<g>
</g>
<g>
</g>
<g>
</g>
<g>
</g>
<g>
</g>
<g>
</g>
<g>
</g>
<g>
</g>
<g>
</g>
<g>
</g>
<g>
</g>
<g>
</g>
<g>
</g>
</svg>
