<?xml version="1.0" encoding="iso-8859-1"?>
<!-- Generator: Adobe Illustrator 19.0.0, SVG Export Plug-In . SVG Version: 6.00 Build 0)  -->
<svg xmlns="http://www.w3.org/2000/svg" xmlns:xlink="http://www.w3.org/1999/xlink" version="1.1" id="Capa_1" x="0px" y="0px" viewBox="0 0 511.999 511.999" style="enable-background:new 0 0 511.999 511.999;" xml:space="preserve">
<rect x="229.001" y="295.715" style="fill:#EFDA45;" width="54.003" height="109.034"/>
<rect x="229.001" y="295.715" style="fill:#EDC148;" width="19.117" height="109.034"/>
<path style="fill:#9AD14B;" d="M329.273,123.947l-33.088,21.623v-18.108l19.231-34.288l23.631,8.598  c2.706,0.984,5.694-0.445,6.625-3.17l5.004-14.642c0.856-2.506-0.331-5.253-2.743-6.347l-32.516-14.745l3.877-16.718  c0.667-2.874-1.216-5.718-4.122-6.228l-43.68-7.657c-2.19-0.384-4.379,0.684-5.426,2.645l-27.283,51.153V19.574  C238.782,8.764,230.018,0,219.208,0l0,0c-10.81,0-19.574,8.764-19.574,19.574v75.683h-18.618c-11.718,0-21.216,9.498-21.216,21.216  v61.991c0,32.479,26.33,58.81,58.81,58.81l0,0v54.324c0,2.84,2.302,5.143,5.142,5.143h37.58h25.168c2.84,0,5.142-2.302,5.142-5.143  v-56.628c21.31,0,38.585-17.275,38.585-38.585l3.079-40.703l18.149,10.083c1.627,0.904,3.616,0.858,5.199-0.12l9.303-5.745  c2.945-1.819,3.289-5.967,0.685-8.246l-31.17-27.274C333.737,122.863,331.203,122.686,329.273,123.947z"/>
<path style="fill:#90BC42;" d="M254.305,296.747h-30.549c-2.849,0-5.142-2.304-5.142-5.142v-54.33  c-32.482,0-58.814-26.332-58.814-58.814v-61.983c0-11.726,9.504-21.22,21.219-21.22h11.448c-2.993,3.775-4.773,8.548-4.773,13.721  v64.564c0,32.131,24.737,40.292,56.206,41.032c2.801,0.066,5.047,2.337,5.047,5.139v71.675  C248.946,294.34,251.343,296.747,254.305,296.747z"/>
<path style="fill:#93511B;" d="M506.488,466.621c-0.476-6.394-3.184-12.246-7.124-17.531c-2.168-2.909-4.776-5.488-7.709-7.625  c-0.674-0.492-8.732-5.129-8.853-4.72c1.246-4.237,1.926-8.716,1.926-13.356c0-26.106-21.163-47.27-47.27-47.27  c-11.89,0-22.744,4.399-31.051,11.646c-9.237-20.218-29.62-34.276-53.301-34.276c-24.092,0-44.779,14.547-53.779,35.332  c-6.132-4.812-13.853-7.69-22.253-7.69c-9.541,0-18.212,3.709-24.665,9.758c-8.493-21.882-29.737-37.401-54.62-37.401  c-28.873,0-52.85,20.893-57.681,48.382c-8.268-16.138-25.53-26.905-45.18-25.652c-22.751,1.45-41.431,19.354-43.894,42.018  c-0.687,6.318-0.085,12.399,1.518,18.059c-3.476-1.114-7.179-1.722-11.025-1.722c-18.568,0-35.856,14.317-35.856,32.06H5.443v39.975  c0,2.843,2.305,5.148,5.148,5.148h110.045h280.76h99.99c2.843,0,5.148-2.305,5.148-5.148v-21.061c0-5.228-0.226-10.513,0-15.737  C506.582,468.734,506.566,467.67,506.488,466.621z"/>
<path style="fill:#774615;" d="M229.83,416.092c-9.312-11.265-23.731-18.145-39.725-17.064  c-23.307,1.576-42.167,20.389-43.851,43.689c-0.225,3.115-0.144,6.172,0.213,9.145c0.397,3.298-2.37,6.079-5.672,5.72  c-1.279-0.139-2.578-0.21-3.893-0.21c-18.576,0-35.856,14.318-35.856,32.061h-0.237v22.567H10.586c-2.843,0-5.148-2.305-5.148-5.148  v-39.976h0.237c0-17.743,17.291-32.061,35.856-32.061c3.847,0,7.55,0.607,11.026,1.718c-1.567-5.531-2.18-11.455-1.564-17.645  c2.255-22.655,20.724-40.716,43.429-42.395c19.865-1.468,37.342,9.337,45.688,25.612c4.824-27.484,28.8-48.374,57.683-48.374  c24.882,0,46.122,15.511,54.618,37.399c2.97-2.786-8.019,9.327-13.911,23.565C237.027,418.258,232.287,419.063,229.83,416.092z"/>
<g>
</g>
<g>
</g>
<g>
</g>
<g>
</g>
<g>
</g>
<g>
</g>
<g>
</g>
<g>
</g>
<g>
</g>
<g>
</g>
<g>
</g>
<g>
</g>
<g>
</g>
<g>
</g>
<g>
</g>
</svg>
