<?xml version="1.0" encoding="iso-8859-1"?>
<!-- Generator: Adobe Illustrator 19.0.0, SVG Export Plug-In . SVG Version: 6.00 Build 0)  -->
<svg xmlns="http://www.w3.org/2000/svg" xmlns:xlink="http://www.w3.org/1999/xlink" version="1.1" id="Capa_1" x="0px" y="0px" viewBox="0 0 511.999 511.999" style="enable-background:new 0 0 511.999 511.999;" xml:space="preserve">
<path style="fill:#F95428;" d="M391.994,106.239c-3.338-22.686-8.402-45.517-15.458-67.459l10.976-3.003  c3.367-0.921,4.151-5.341,1.306-7.364L349.951,0.777c-2.131-1.515-5.116-0.699-6.179,1.69l-19.385,43.572  c-1.419,3.19,1.506,6.595,4.873,5.674l12.735-3.484c34.595,112.236-3.29,135.062-33.611,137.425  c-16.134,1.257-29.904-11.542-29.904-27.725V49.724h7.717c3.491,0,5.413-4.056,3.203-6.758L259.202,6.053  c-1.656-2.024-4.75-2.024-6.406,0L222.6,42.967c-2.21,2.702-0.288,6.758,3.203,6.758h7.717V157.93  c0,16.183-13.769,28.982-29.904,27.725c-30.32-2.363-68.204-25.189-33.611-137.425l12.735,3.484  c3.367,0.921,6.292-2.484,4.873-5.674L168.227,2.466c-1.063-2.389-4.048-3.206-6.179-1.69l-38.867,27.637  c-2.845,2.023-2.061,6.443,1.306,7.364l10.976,3.003c-7.057,21.942-12.121,44.772-15.458,67.459  c-5.044,34.281-9.439,75.451,14.985,103.808c24.235,28.138,62.74,36.494,98.768,38.848v242.939c0,11.128,9.021,20.148,20.148,20.148  h4.187c11.128,0,20.148-9.021,20.148-20.148V249.085c31.271-2.007,63.714-9.376,87.683-28.447  c4.006-3.188,7.744-6.711,11.086-10.592C401.433,181.69,397.038,140.519,391.994,106.239z"/>
<path style="fill:#E53B1A;" d="M194.967,212.319c-6.17-10.729-8.98-21.272-11.845-32.052c-23.1-11.587-40.004-44.803-13.118-132.052  l12.733,3.487c3.367,0.922,6.293-2.483,4.874-5.673L168.233,2.457c-1.063-2.389-4.048-3.206-6.179-1.691l-38.872,27.637  c-2.845,2.023-2.061,6.443,1.306,7.364l10.975,3.003c-7.056,21.941-12.114,44.772-15.455,67.458  c-5.049,34.283-9.006,75.082,14.979,103.81c22.896,27.423,63.273,36.709,98.77,39.014v240.687c0,12.284,7.045,22.761,22.241,22.241  v-1.035V239.512c0-2.969-2.5-5.312-5.465-5.148C238.065,235.054,207.613,234.309,194.967,212.319z"/>
<g>
</g>
<g>
</g>
<g>
</g>
<g>
</g>
<g>
</g>
<g>
</g>
<g>
</g>
<g>
</g>
<g>
</g>
<g>
</g>
<g>
</g>
<g>
</g>
<g>
</g>
<g>
</g>
<g>
</g>
</svg>
