<?xml version="1.0" encoding="iso-8859-1"?>
<!-- Generator: Adobe Illustrator 19.0.0, SVG Export Plug-In . SVG Version: 6.00 Build 0)  -->
<svg xmlns="http://www.w3.org/2000/svg" xmlns:xlink="http://www.w3.org/1999/xlink" version="1.1" id="Capa_1" x="0px" y="0px" viewBox="0 0 512.001 512.001" style="enable-background:new 0 0 512.001 512.001;" xml:space="preserve">
<path style="fill:#D7DBDD;" d="M421.589,451.535h0.651c-7.977-20.643-8.247-43.353-8.065-65.483  c0.827-100.596,29.675-201.571-16.597-297.406c-14.177-29.362-35.503-55.228-64.472-70.904C311.506,6.053,287.398,0.303,263.251,0  h-6.381h-1.738h-6.381c-24.147,0.303-48.254,6.053-69.855,17.742c-28.968,15.676-50.295,41.542-64.472,70.904  C68.152,184.481,97,285.455,97.826,386.052c0.092,11.182,0.078,22.392-0.995,33.534c-0.664,6.894-1.492,14.508-3.591,21.044  c-2.555,7.956-5.053,16.687-5.053,25.094c0,25.558,20.719,46.277,46.277,46.277c18.011,0,33.607-10.296,41.254-25.317  c7.649,15.02,23.245,25.316,41.256,25.316c16.407,0,30.809-8.546,39.027-21.422c8.218,12.876,22.62,21.422,39.027,21.422  c18.011,0,33.607-10.296,41.254-25.317C343.93,501.704,359.526,512,377.537,512c25.558,0,46.277-20.719,46.277-46.277  C423.814,460.772,423.029,456.007,421.589,451.535z"/>
<path style="fill:#C6CBCC;" d="M188.634,88.644c-46.267,95.834-17.423,196.806-16.598,297.406  c0.092,11.196,0.081,22.42-0.996,33.575c-0.805,8.336-2.822,16.475-4.558,24.649c-1.532,7.212-4.081,13.943-4.081,21.445  c0,10.367,3.404,19.941,9.16,27.647c-8.428,11.306-21.901,18.63-37.096,18.63c-25.563,0-46.277-20.714-46.277-46.277  c0-13.407,6.153-25.74,7.96-38.982c1.839-13.474,1.786-27.117,1.675-40.688c-0.825-100.6-29.668-201.572,16.598-297.406  c14.184-29.359,35.507-55.231,64.474-70.901C200.497,6.056,224.605,0.299,248.754,0h14.494c10.027,0.124,20.033,1.186,29.864,3.229  c-13.865,2.868-27.368,7.675-40.005,14.514C224.141,33.413,202.808,59.285,188.634,88.644z"/>
<g>
	<path style="fill:#738182;" d="M250.574,285.753c-13.525,0-24.528-11.003-24.528-24.528v-12.866   c0-13.525,11.003-24.528,24.528-24.528c13.525,0,24.528,11.003,24.528,24.528v12.866   C275.102,274.75,264.099,285.753,250.574,285.753z M250.574,239.304c-4.993,0-9.055,4.062-9.055,9.055v12.866   c0,4.993,4.062,9.055,9.055,9.055s9.055-4.062,9.055-9.055v-12.866C259.629,243.366,255.567,239.304,250.574,239.304z"/>
	<path style="fill:#738182;" d="M202.711,217.819c-14.636,0-26.543-13.651-26.543-30.432v-8.694c0-4.273,3.464-7.737,7.737-7.737   s7.737,3.463,7.737,7.737v8.694c0,8.108,5.069,14.958,11.068,14.958c6,0,11.069-6.85,11.069-14.958v-8.694   c0-4.273,3.464-7.737,7.737-7.737s7.737,3.463,7.737,7.737v8.694C229.253,204.168,217.346,217.819,202.711,217.819z"/>
	<path style="fill:#738182;" d="M293.725,217.819c-14.636,0-26.542-13.651-26.542-30.432v-8.694c0-4.273,3.464-7.737,7.737-7.737   s7.737,3.463,7.737,7.737v8.694c0,8.108,5.069,14.958,11.068,14.958c6,0,11.068-6.85,11.068-14.958v-8.694   c0-4.273,3.464-7.737,7.737-7.737s7.737,3.463,7.737,7.737v8.694C320.268,204.168,308.361,217.819,293.725,217.819z"/>
</g>
<g>
</g>
<g>
</g>
<g>
</g>
<g>
</g>
<g>
</g>
<g>
</g>
<g>
</g>
<g>
</g>
<g>
</g>
<g>
</g>
<g>
</g>
<g>
</g>
<g>
</g>
<g>
</g>
<g>
</g>
</svg>
