<?xml version="1.0" encoding="iso-8859-1"?>
<!-- Generator: Adobe Illustrator 19.0.0, SVG Export Plug-In . SVG Version: 6.00 Build 0)  -->
<svg xmlns="http://www.w3.org/2000/svg" xmlns:xlink="http://www.w3.org/1999/xlink" version="1.1" id="Capa_1" x="0px" y="0px" viewBox="0 0 512 512" style="enable-background:new 0 0 512 512;" xml:space="preserve">
<circle style="fill:#D7DBDD;" cx="256" cy="256" r="256"/>
<path style="fill:#C6CBCC;" d="M404.744,464.375c-41.921,29.984-93.27,47.623-148.744,47.623  C114.617,511.997,0.003,397.383,0.003,256c0-116.948,78.426-215.582,185.546-246.18C120.626,56.266,78.306,132.286,78.306,218.195  c0,141.383,114.614,255.997,256.007,255.997C358.739,474.192,382.366,470.773,404.744,464.375z"/>
<circle style="fill:#F95428;" cx="256" cy="298.65" r="128"/>
<path style="fill:#E54728;" d="M344.417,391.2c-22.982,21.958-54.123,35.451-88.417,35.451  c-70.697,0-128.004-57.317-128.004-128.004c0-56.263,36.3-104.049,86.749-121.206c-24.385,23.31-39.566,56.15-39.566,92.543  c0,70.687,57.307,128.004,128.004,128.004C317.606,397.987,331.478,395.602,344.417,391.2z"/>
<g>
	<path style="fill:#F95428;" d="M352.223,139.752l-35.019-12.36c-1.265-0.446-2.627-0.546-3.945-0.286l-10.028,1.975l6.707-11.416   c0.31-0.527,0.554-1.091,0.727-1.678l11.237-38.109c1.172-3.973-1.099-8.144-5.072-9.314c-3.977-1.174-8.145,1.1-9.314,5.072   l-10.978,37.226l-35.765,60.879c-2.098,3.571-0.903,8.167,2.668,10.266c1.193,0.701,2.501,1.034,3.792,1.034   c2.572,0,5.076-1.324,6.474-3.702l19.369-32.969l21.071-4.149l33.085,11.678c0.825,0.292,1.668,0.43,2.496,0.43   c3.091,0,5.985-1.925,7.072-5.006C358.178,145.415,356.129,141.131,352.223,139.752z"/>
	<path style="fill:#F95428;" d="M135.768,242.435l-70.038-12.36c-2.042-0.358-4.144,0.142-5.803,1.386L35.208,250   c-3.313,2.485-3.985,7.187-1.5,10.5c1.474,1.965,3.726,3.001,6.006,3c1.566,0,3.145-0.488,4.494-1.5l22.118-16.588l66.835,11.794   c4.08,0.723,7.969-2.004,8.689-6.082C142.57,247.045,139.847,243.154,135.768,242.435z"/>
	<path style="fill:#F95428;" d="M195.619,445.357c-4.068-0.775-7.999,1.881-8.782,5.949l-4.451,23.143l-18.255,9.129   c-3.705,1.853-5.207,6.357-3.354,10.063c1.314,2.628,3.962,4.147,6.714,4.147c1.127,0,2.272-0.256,3.348-0.794l21.567-10.784   c2.088-1.044,3.57-3,4.011-5.292l5.15-26.779C202.35,450.071,199.687,446.14,195.619,445.357z"/>
	<path style="fill:#F95428;" d="M488.077,352.138l-31.776-17.242c-2.173-1.18-4.786-1.212-6.986-0.089l-24.11,12.304v-7.684   c0-3.441-2.342-6.441-5.681-7.276l-36.766-9.193c-4.018-0.999-8.09,1.439-9.096,5.457c-1.005,4.019,1.438,8.091,5.457,9.096   l31.085,7.772v14.076c0,0.033,0.007,0.065,0.007,0.098c0.004,0.303,0.026,0.606,0.067,0.909c0.004,0.032,0.002,0.064,0.007,0.095   l5.15,34.657c0.554,3.724,3.755,6.398,7.409,6.398c0.367,0,0.738-0.027,1.112-0.082c4.097-0.609,6.925-4.424,6.316-8.521   l-4.358-29.325l26.701-13.626l28.307,15.359c3.641,1.977,8.193,0.625,10.169-3.015S491.718,354.113,488.077,352.138z"/>
</g>
<circle cx="254.27" cy="309.82" r="48.911"/>
<g>
</g>
<g>
</g>
<g>
</g>
<g>
</g>
<g>
</g>
<g>
</g>
<g>
</g>
<g>
</g>
<g>
</g>
<g>
</g>
<g>
</g>
<g>
</g>
<g>
</g>
<g>
</g>
<g>
</g>
</svg>
