<?xml version="1.0" encoding="iso-8859-1"?>
<!-- Generator: Adobe Illustrator 19.0.0, SVG Export Plug-In . SVG Version: 6.00 Build 0)  -->
<svg xmlns="http://www.w3.org/2000/svg" xmlns:xlink="http://www.w3.org/1999/xlink" version="1.1" id="Capa_1" x="0px" y="0px" viewBox="0 0 512.001 512.001" style="enable-background:new 0 0 512.001 512.001;" xml:space="preserve">
<g>
	<path style="fill:#576666;" d="M105.247,183.076c-26.598-7.624-55.935-0.082-78.964,15.257c-8.407,5.6-16.133,12.351-21.972,20.647   c-16.016,22.757,16.83,14.279,29.452,9.467c-0.585,9.168-0.136,20.353,7.901,24.802c4.991,2.763,11.404,1.661,16.279-1.301   c4.875-2.963,8.541-7.512,12.102-11.969c1.948,13.674,5.537,29.615,18.208,35.112c10.649,4.62,22.784-0.473,33.247-5.5   c22.94-11.021,38.751-19.032,28.727-45.787C142.883,204.199,125.247,188.809,105.247,183.076z"/>
	<path style="fill:#576666;" d="M406.753,183.076c26.598-7.624,55.935-0.082,78.964,15.257c8.407,5.6,16.133,12.351,21.972,20.647   c16.016,22.757-16.83,14.279-29.452,9.467c0.585,9.168,0.136,20.353-7.901,24.802c-4.991,2.763-11.404,1.661-16.279-1.301   c-4.875-2.963-8.541-7.512-12.102-11.969c-1.948,13.674-5.537,29.615-18.208,35.112c-10.649,4.62-22.784-0.473-33.247-5.5   c-22.94-11.021-38.751-19.032-28.727-45.787C369.117,204.199,386.753,188.809,406.753,183.076z"/>
</g>
<ellipse style="fill:#738182;" cx="256" cy="256" rx="124.09" ry="104"/>
<path style="fill:#576666;" d="M278.683,358.267c-7.354,1.138-14.935,1.73-22.683,1.73c-68.535,0-124.092-46.557-124.092-103.997  S187.465,152.003,256,152.003c7.748,0,15.329,0.592,22.683,1.73C220.985,162.665,177.274,205.056,177.274,256  S220.985,349.335,278.683,358.267z"/>
<g>
	<path style="fill:#3A4747;" d="M210.638,275.748c-14.575,0-26.432-13.596-26.432-30.309v-8.667c0-4.246,3.442-7.687,7.687-7.687   s7.687,3.441,7.687,7.687v8.667c0,8.096,5.064,14.935,11.058,14.935s11.058-6.839,11.058-14.935v-8.667   c0-4.246,3.442-7.687,7.687-7.687s7.687,3.441,7.687,7.687v8.667C237.07,262.152,225.212,275.748,210.638,275.748z"/>
	<path style="fill:#3A4747;" d="M301.362,275.748c-14.575,0-26.432-13.596-26.432-30.309v-8.667c0-4.246,3.442-7.687,7.687-7.687   s7.687,3.441,7.687,7.687v8.667c0,8.096,5.064,14.935,11.058,14.935s11.058-6.839,11.058-14.935v-8.667   c0-4.246,3.442-7.687,7.687-7.687c4.245,0,7.687,3.441,7.687,7.687v8.667C327.795,262.152,315.937,275.748,301.362,275.748z"/>
</g>
<g>
</g>
<g>
</g>
<g>
</g>
<g>
</g>
<g>
</g>
<g>
</g>
<g>
</g>
<g>
</g>
<g>
</g>
<g>
</g>
<g>
</g>
<g>
</g>
<g>
</g>
<g>
</g>
<g>
</g>
</svg>
