<?xml version="1.0" encoding="iso-8859-1"?>
<!-- Generator: Adobe Illustrator 19.0.0, SVG Export Plug-In . SVG Version: 6.00 Build 0)  -->
<svg xmlns="http://www.w3.org/2000/svg" xmlns:xlink="http://www.w3.org/1999/xlink" version="1.1" id="Capa_1" x="0px" y="0px" viewBox="0 0 512 512" style="enable-background:new 0 0 512 512;" xml:space="preserve">
<path style="fill:#EFDA45;" d="M316.246,303.718h-0.3v-7.712H196.054v7.712h-0.3c0,0-101.476,74.05-98.911,169.113  c0.16,5.935,3.374,11.366,8.554,14.267l17.438,9.766c6.659,3.729,14.998,2.477,20.268-3.044l21.849-22.889l-2.418,22.565  C161.475,503.38,169.221,512,179.162,512h24.492c5.192,0,10.09-2.411,13.255-6.527l9.647-12.541l6.837,11.11  c3.044,4.946,8.435,7.958,14.242,7.958h16.73c5.807,0,11.199-3.013,14.242-7.958l6.837-11.11l9.647,12.541  c3.166,4.115,8.063,6.527,13.255,6.527h24.492c9.941,0,17.687-8.62,16.628-18.504l-2.418-22.565l21.849,22.889  c5.27,5.521,13.609,6.773,20.268,3.044l17.438-9.766c5.18-2.901,8.394-8.332,8.554-14.267  C417.722,377.768,316.246,303.718,316.246,303.718z"/>
<path style="fill:#EDC148;" d="M153.66,482.752l-10.554,11.06c-5.27,5.522-13.61,6.776-20.27,3.046l-17.438-9.766  c-5.18-2.901-8.394-8.332-8.554-14.266c-2.57-95.061,98.906-169.108,98.906-169.108h66.554  C262.304,303.719,155.583,381.584,153.66,482.752z"/>
<path style="fill:#F95428;" d="M310.804,303.749H201.196c-2.84,0-5.142-2.302-5.142-5.142v-28.311c0-2.84,2.302-5.142,5.142-5.142  h109.608c2.84,0,5.142,2.302,5.142,5.142v28.311C315.946,301.447,313.644,303.749,310.804,303.749z"/>
<path style="fill:#E54728;" d="M228.235,303.749h-27.039c-2.84,0-5.142-2.302-5.142-5.142v-28.311c0-2.84,2.302-5.142,5.142-5.142  h27.039V303.749z"/>
<path style="fill:#738182;" d="M256,0L256,0c-12.211,0-22.109,9.899-22.109,22.109v243.046h44.218V22.109  C278.109,9.899,268.211,0,256,0z"/>
<path style="fill:#576666;" d="M256,1.028V0c-12.211,0-22.109,9.899-22.109,22.109v243.046H256V1.028z"/>
<g>
</g>
<g>
</g>
<g>
</g>
<g>
</g>
<g>
</g>
<g>
</g>
<g>
</g>
<g>
</g>
<g>
</g>
<g>
</g>
<g>
</g>
<g>
</g>
<g>
</g>
<g>
</g>
<g>
</g>
</svg>
