<?xml version="1.0" encoding="iso-8859-1"?>
<!-- Generator: Adobe Illustrator 19.0.0, SVG Export Plug-In . SVG Version: 6.00 Build 0)  -->
<svg xmlns="http://www.w3.org/2000/svg" xmlns:xlink="http://www.w3.org/1999/xlink" version="1.1" id="Capa_1" x="0px" y="0px" viewBox="0 0 511.999 511.999" style="enable-background:new 0 0 511.999 511.999;" xml:space="preserve">
<path style="fill:#9AD14B;" d="M508.493,435.507c-14.083,37.755-71.748,51.549-110.561,57.552  c-18.883,2.919-38.022,4.43-57.151,5.386c-39.841,1.984-79.766,1.85-119.648,1.573c-12.469-0.082-24.927-0.236-37.374-0.627  c-24.331-0.761-48.661-2.436-72.642-6.25c-22.851-3.629-45.289-9.58-66.063-18.852c-15.892-7.093-31.629-17.156-38.947-32.071  c-5.366-10.947-6.784-23.652-5.828-35.484c1.408-17.547,6.198-34.631,12.983-51.292h485.285c6.435,15.789,11.102,31.968,12.88,48.62  C512.543,414.538,512.255,425.434,508.493,435.507z"/>
<path style="fill:#F95428;" d="M388.773,175.879H123.171c8.182-11.451,16.447-22.851,24.742-34.24  c13.065-17.937,25.729-36.142,39.029-53.955c6.116-8.193,12.356-16.293,18.842-24.259c8.563-10.516,17.012-21.103,25.523-31.65  c5.993-7.422,11.677-16.19,21.926-19.397c8.521-2.662,16.447,6.63,20.836,11.667c17.362,19.87,34.857,42.092,50.933,63.638  c13.301,17.814,25.976,36.018,39.029,53.955C372.326,153.028,380.601,164.428,388.773,175.879z"/>
<path style="fill:#EFDA45;" d="M498.543,355.443H13.258c14.041-34.456,36.634-67.122,55.61-98.309  c16.868-27.723,35.319-54.643,54.304-81.256h265.6c18.986,26.613,37.436,53.533,54.304,81.256  C462.155,288.486,484.532,321.019,498.543,355.443z"/>
<path style="fill:#90BC42;" d="M136.061,496.38c-1.038-0.103-2.076-0.216-3.115-0.329c-1.264-0.144-2.529-0.278-3.783-0.432  c-5.995-0.688-12.387-1.578-18.05-2.477c-22.851-3.629-45.289-9.58-66.063-18.852c-15.892-7.093-31.629-17.156-38.947-32.071  c-8.774-17.881-6.405-40.226-2.233-59.083c2.094-9.461,4.978-18.829,9.316-27.519c0.031-0.062,0.051-0.123,0.072-0.175h105.885  c-11.667,23.632-20.373,48.075-22.419,73.423c-0.997,12.479,0.493,25.904,6.168,37.467  C109.387,479.573,122.164,489.195,136.061,496.38z"/>
<path style="fill:#E54728;" d="M311.187,69.48c-5.931,7.391-11.687,14.884-17.32,22.45c-14.052,18.811-27.425,38.032-41.219,56.977  c-6.538,8.974-13.065,17.958-19.541,26.973H123.171c1.562-2.179,3.125-4.358,4.687-6.548c12.591-17.643,25.25-34.843,37.823-52.4  c20.974-29.29,43.054-57.201,65.625-85.154c5.993-7.422,11.677-16.19,21.933-19.399c11.451-3.57,19.163,10.964,25.694,17.774  c11.614,12.108,20.305,27.341,32.12,39.164C311.104,69.367,311.145,69.428,311.187,69.48z"/>
<path style="fill:#EDC148;" d="M233.107,175.879c-22.368,31.105-44.179,62.517-63.936,95  c-16.478,27.076-35.535,55.198-50.028,84.566H13.258c1.264-3.125,2.812-6.662,4.072-9.439c6.184-13.631,13.164-26.394,20.887-39.264  c5.612-9.353,11.352-18.622,17.144-27.868c6.499-10.374,12.78-20.653,19.203-30.97c7.573-12.163,15.44-24.142,23.487-35.997  c8.001-11.788,15.814-23.368,24.187-34.712c0.319-0.432,0.627-0.874,0.935-1.316L233.107,175.879L233.107,175.879z"/>
<g>
</g>
<g>
</g>
<g>
</g>
<g>
</g>
<g>
</g>
<g>
</g>
<g>
</g>
<g>
</g>
<g>
</g>
<g>
</g>
<g>
</g>
<g>
</g>
<g>
</g>
<g>
</g>
<g>
</g>
</svg>
