<?xml version="1.0" encoding="iso-8859-1"?>
<!-- Generator: Adobe Illustrator 19.0.0, SVG Export Plug-In . SVG Version: 6.00 Build 0)  -->
<svg xmlns="http://www.w3.org/2000/svg" xmlns:xlink="http://www.w3.org/1999/xlink" version="1.1" id="Capa_1" x="0px" y="0px" viewBox="0 0 512.001 512.001" style="enable-background:new 0 0 512.001 512.001;" xml:space="preserve">
<path style="fill:#93511B;" d="M257.397,91.639c-0.137,0-0.274-0.004-0.412-0.011c-4.146-0.225-7.326-3.767-7.101-7.912  c0.178-3.289,4.922-80.581,54.64-83.701c4.177-0.255,7.714,2.889,7.973,7.032c0.261,4.144-2.889,7.713-7.032,7.973  c-36.518,2.291-40.532,68.835-40.569,69.507C264.681,88.535,261.362,91.639,257.397,91.639z"/>
<path style="fill:#F4BE78;" d="M256.008,349.686h-0.017H56.774L81.27,491.369c2.062,11.923,12.405,20.632,24.505,20.632h150.217  h0.017h150.217c12.1,0,22.445-8.709,24.505-20.632l24.495-141.683H256.008z"/>
<path style="fill:#E8A862;" d="M132.271,512.001h-26.499c-12.1,0-22.445-8.709-24.505-20.632L56.77,349.688h47.437L132.271,512.001z  "/>
<path style="fill:#9F51BF;" d="M466.859,348.076c8.495-105.545-51.279-168.307-53.063-170.156  c-33.365-38.939-91.568-64.73-157.795-64.73c-66.209,0-124.398,25.776-157.768,64.698c-0.581,0.596-61.679,63.556-53.093,170.192  c-4.279,5.914-6.743,12.831-6.743,20.228c0,21.761,21.289,39.401,47.55,39.401c18.604,0,34.702-8.858,42.514-21.757  c7.812,12.899,23.91,21.757,42.514,21.757s34.702-8.858,42.514-21.757c7.812,12.899,23.91,21.757,42.514,21.757  c18.604,0,34.702-8.858,42.514-21.757c7.812,12.899,23.91,21.757,42.514,21.757s34.702-8.858,42.514-21.757  c7.812,12.899,23.91,21.757,42.514,21.757c26.261,0,47.55-17.641,47.55-39.401C473.605,360.911,471.139,353.991,466.859,348.076z"/>
<path style="fill:#8842A8;" d="M153.388,177.886c-0.589,0.597-61.685,63.557-53.098,170.199c-4.279,5.906-6.741,12.827-6.741,20.222  c0,13.237,7.873,24.95,19.96,32.104c-7.779,4.594-17.288,7.297-27.566,7.297c-26.254,0-47.545-17.635-47.545-39.4  c0-7.395,2.463-14.317,6.741-20.222c-8.587-106.642,52.508-169.601,53.098-170.199c33.367-38.919,91.552-64.698,157.764-64.698  c9.356,0,18.552,0.517,27.538,1.516C228.957,120.752,182.03,144.479,153.388,177.886z"/>
<circle style="fill:#F95428;" cx="255.998" cy="107.227" r="30.229"/>
<path style="fill:#E54728;" d="M283.78,119.162c-4.626,10.768-15.319,18.301-27.78,18.301c-16.696,0-30.225-13.536-30.225-30.232  c0-12.211,7.24-22.728,17.661-27.5c-1.576,3.653-2.445,7.689-2.445,11.923c0,16.696,13.536,30.232,30.232,30.232  C275.701,121.886,279.958,120.914,283.78,119.162z"/>
<g>
</g>
<g>
</g>
<g>
</g>
<g>
</g>
<g>
</g>
<g>
</g>
<g>
</g>
<g>
</g>
<g>
</g>
<g>
</g>
<g>
</g>
<g>
</g>
<g>
</g>
<g>
</g>
<g>
</g>
</svg>
