<?xml version="1.0" encoding="iso-8859-1"?>
<!-- Generator: Adobe Illustrator 19.0.0, SVG Export Plug-In . SVG Version: 6.00 Build 0)  -->
<svg xmlns="http://www.w3.org/2000/svg" xmlns:xlink="http://www.w3.org/1999/xlink" version="1.1" id="Capa_1" x="0px" y="0px" viewBox="0 0 512 512" style="enable-background:new 0 0 512 512;" xml:space="preserve">
<path style="fill:#738182;" d="M240.447,381.35c0.004-12.421-0.007-22.645-0.015-28.424c-0.004-2.842-2.309-5.136-5.151-5.136  H123.075c-2.798,0-5.085,2.229-5.149,5.027c-0.135,5.837-0.348,14.694-0.354,14.863c-1.057,31.448-10.856,71.825-45.48,82.119  c-13.263,3.943-34.5,0.79-40.794-13.393c-6.928-15.611,7.135-24.915,21.357-20.013c6.958,2.399,15.595,1.772,14.021-8.193  c-1.265-8.007-10.901-13.822-17.932-16.178c-6.32-2.117-13.513-2.56-19.922-0.563c-12.78,3.984-21.593,15.199-25.122,27.758  c-6.264,22.295,0.842,46.931,17.212,63.166c17.276,17.133,41.983,24.233,65.6,26.654c28.135,2.884,61.357,3.943,86.024-11.926  c8.964-5.767,19.852-16.301,19.901-27.939c-0.035,8.194-0.03,23.966-0.029,32.16C192.41,507.201,197.21,512,203.076,512h26.679  c5.867,0,10.667-4.8,10.667-10.667C240.423,501.333,240.448,381.366,240.447,381.35z"/>
<path style="fill:#576666;" d="M189.89,479.072c-3.751,7.523-11.027,13.966-17.357,18.046  c-24.664,15.867-57.889,14.809-86.017,11.921c-23.616-2.425-48.332-9.516-65.607-26.658C4.538,466.154-2.564,441.511,3.705,419.22  c3.134-11.15,10.431-21.252,20.975-26.154c-1.192,2.456-2.158,5.025-2.898,7.656c-6.259,22.29,0.843,46.934,17.214,63.161  c17.275,17.142,41.981,24.233,65.597,26.658C132.453,493.398,165.307,494.467,189.89,479.072z"/>
<path style="fill:#F95428;" d="M224.694,347.79h-85.666V5.151c0-2.845,2.306-5.151,5.151-5.151h75.364  c2.845,0,5.151,2.306,5.151,5.151V347.79z"/>
<path style="fill:#E54728;" d="M181.861,347.79h-42.833V5.151c0-2.845,2.306-5.151,5.151-5.151h37.682V347.79z"/>
<g>
	<rect x="139.03" y="164.74" style="fill:#EFDA45;" width="85.67" height="40.04"/>
	<rect x="139.03" y="253.81" style="fill:#EFDA45;" width="85.67" height="40.04"/>
</g>
<g>
	<rect x="139.03" y="164.74" style="fill:#EDC148;" width="42.833" height="40.04"/>
	<rect x="139.03" y="253.81" style="fill:#EDC148;" width="42.833" height="40.04"/>
</g>
<path id="SVGCleanerId_0" style="fill:#738182;" d="M271.553,381.35c-0.004-12.421,0.007-22.645,0.015-28.424  c0.004-2.842,2.309-5.136,5.151-5.136h112.206c2.798,0,5.085,2.229,5.149,5.027c0.135,5.837,0.348,14.694,0.354,14.863  c1.057,31.448,10.856,71.825,45.48,82.119c13.263,3.943,34.5,0.79,40.794-13.393c6.928-15.611-7.135-24.915-21.357-20.013  c-6.958,2.399-15.595,1.772-14.021-8.193c1.265-8.007,10.901-13.822,17.932-16.178c6.32-2.117,13.513-2.56,19.922-0.563  c12.78,3.984,21.593,15.199,25.122,27.758c6.264,22.295-0.842,46.931-17.212,63.166c-17.276,17.133-41.983,24.233-65.6,26.654  c-28.135,2.884-61.357,3.943-86.024-11.926c-8.964-5.767-19.852-16.301-19.901-27.939c0.035,8.194-0.02,23.966-0.022,32.16  C319.54,507.201,314.74,512,308.874,512h-26.679c-5.867,0-10.667-4.8-10.667-10.667C271.527,501.333,271.552,381.366,271.553,381.35  z"/>
<g>
	<path id="SVGCleanerId_0_1_" style="fill:#738182;" d="M271.553,381.35c-0.004-12.421,0.007-22.645,0.015-28.424   c0.004-2.842,2.309-5.136,5.151-5.136h112.206c2.798,0,5.085,2.229,5.149,5.027c0.135,5.837,0.348,14.694,0.354,14.863   c1.057,31.448,10.856,71.825,45.48,82.119c13.263,3.943,34.5,0.79,40.794-13.393c6.928-15.611-7.135-24.915-21.357-20.013   c-6.958,2.399-15.595,1.772-14.021-8.193c1.265-8.007,10.901-13.822,17.932-16.178c6.32-2.117,13.513-2.56,19.922-0.563   c12.78,3.984,21.593,15.199,25.122,27.758c6.264,22.295-0.842,46.931-17.212,63.166c-17.276,17.133-41.983,24.233-65.6,26.654   c-28.135,2.884-61.357,3.943-86.024-11.926c-8.964-5.767-19.852-16.301-19.901-27.939c0.035,8.194-0.02,23.966-0.022,32.16   C319.54,507.201,314.74,512,308.874,512h-26.679c-5.867,0-10.667-4.8-10.667-10.667   C271.527,501.333,271.552,381.366,271.553,381.35z"/>
</g>
<path style="fill:#576666;" d="M322.112,479.072c3.751,7.523,11.027,13.966,17.357,18.046  c24.664,15.867,57.889,14.809,86.017,11.921c23.616-2.425,48.332-9.516,65.607-26.658c16.371-16.227,23.472-40.871,17.203-63.161  c-3.134-11.15-10.431-21.252-20.975-26.154c1.192,2.456,2.158,5.025,2.898,7.656c6.259,22.29-0.843,46.934-17.214,63.161  c-17.275,17.142-41.981,24.233-65.597,26.658C379.549,493.398,346.694,494.467,322.112,479.072z"/>
<path style="fill:#F95428;" d="M287.306,347.79h85.666V5.151c0-2.845-2.306-5.151-5.151-5.151h-75.364  c-2.845,0-5.151,2.306-5.151,5.151L287.306,347.79L287.306,347.79z"/>
<path style="fill:#E54728;" d="M330.139,347.79h-42.833V5.151c0-2.845,2.306-5.151,5.151-5.151h37.682V347.79z"/>
<rect x="287.31" y="164.74" style="fill:#EFDA45;" width="85.67" height="40.04"/>
<g>
	<rect x="287.31" y="164.74" style="fill:#EDC148;" width="42.833" height="40.04"/>
	<rect x="287.31" y="253.81" style="fill:#EDC148;" width="42.833" height="40.04"/>
</g>
<rect x="287.31" y="253.81" style="fill:#EFDA45;" width="85.67" height="40.04"/>
<g>
</g>
<g>
</g>
<g>
</g>
<g>
</g>
<g>
</g>
<g>
</g>
<g>
</g>
<g>
</g>
<g>
</g>
<g>
</g>
<g>
</g>
<g>
</g>
<g>
</g>
<g>
</g>
<g>
</g>
</svg>
