<?xml version="1.0" encoding="iso-8859-1"?>
<!-- Generator: Adobe Illustrator 19.0.0, SVG Export Plug-In . SVG Version: 6.00 Build 0)  -->
<svg xmlns="http://www.w3.org/2000/svg" xmlns:xlink="http://www.w3.org/1999/xlink" version="1.1" id="Capa_1" x="0px" y="0px" viewBox="0 0 512 512" style="enable-background:new 0 0 512 512;" xml:space="preserve">
<path style="fill:#738182;" d="M256.003,512L256.003,512c-12.208,0-22.105-9.896-22.105-22.105V257.074h44.209v232.822  C278.108,502.104,268.211,512,256.003,512z"/>
<path style="fill:#576666;" d="M256.003,510.971V512c-12.208,0-22.105-9.896-22.105-22.105V257.028h22.105V510.971z"/>
<circle style="fill:#F95428;" cx="256" cy="136.022" r="136.022"/>
<path style="fill:#E54728;" d="M281.737,269.613c-8.331,1.598-16.939,2.432-25.734,2.432c-75.125,0-136.022-60.897-136.022-136.022  C119.981,60.897,180.878,0,256.003,0c8.796,0,17.404,0.834,25.734,2.432c-62.821,12.026-110.295,67.261-110.295,133.591  S218.916,257.587,281.737,269.613z"/>
<path style="fill:#C6301C;" d="M366.275,180.993c-15.307,23.373-38.803,39.371-66.143,45.067c-7.169,1.494-14.38,2.235-21.55,2.235  c-20.128,0-39.854-5.841-57.088-17.13c-19.036-12.475-32.077-31.613-36.723-53.895c-4.636-22.281-0.33-45.036,12.145-64.072  c10.208-15.576,25.865-26.237,44.088-30.038c18.223-3.801,36.846-0.268,52.422,9.93c12.804,8.395,21.57,21.261,24.702,36.249  c3.122,14.988,0.217,30.295-8.169,43.1c-14.318,21.859-43.759,27.987-65.618,13.669c-18.202-11.919-23.311-36.424-11.382-54.626  c10.002-15.276,30.573-19.562,45.84-9.559c12.938,8.477,16.564,25.886,8.097,38.814c-2.349,3.574-7.138,4.574-10.702,2.235  s-4.564-7.128-2.225-10.702c3.801-5.799,2.174-13.618-3.636-17.419c-8.138-5.336-19.109-3.049-24.444,5.099  c-7.262,11.074-4.151,25.979,6.922,33.241c14.731,9.642,34.57,5.511,44.222-9.219c6.129-9.353,8.251-20.53,5.964-31.48  c-2.277-10.94-8.684-20.344-18.037-26.474c-12.124-7.942-26.617-10.692-40.802-7.736c-14.184,2.956-26.371,11.269-34.313,23.383  c-10.208,15.586-13.741,34.22-9.94,52.453c3.801,18.243,14.473,33.911,30.059,44.119c15.029,9.847,31.954,14.545,48.703,14.545  c29.069,0,57.593-14.174,74.682-40.256c16.584-25.32,22.322-55.584,16.152-85.219c-5.717-27.411-20.993-51.247-43.295-67.801  c29.069,17.543,51.042,45.664,60.59,79.019C389.535,127.479,382.448,156.312,366.275,180.993z"/>
<g>
</g>
<g>
</g>
<g>
</g>
<g>
</g>
<g>
</g>
<g>
</g>
<g>
</g>
<g>
</g>
<g>
</g>
<g>
</g>
<g>
</g>
<g>
</g>
<g>
</g>
<g>
</g>
<g>
</g>
</svg>
