<?xml version="1.0" encoding="iso-8859-1"?>
<!-- Generator: Adobe Illustrator 19.0.0, SVG Export Plug-In . SVG Version: 6.00 Build 0)  -->
<svg xmlns="http://www.w3.org/2000/svg" xmlns:xlink="http://www.w3.org/1999/xlink" version="1.1" id="Capa_1" x="0px" y="0px" viewBox="0 0 511.999 511.999" style="enable-background:new 0 0 511.999 511.999;" xml:space="preserve">
<path style="fill:#738182;" d="M495.267,208.698l10.975,1.092c4.265,0.424,7.201-4.18,5.017-7.868l-63.394-107.05  c-1.798-3.036-6.025-3.457-8.386-0.834l-83.246,92.459c-2.868,3.185-0.896,8.278,3.368,8.703l10.101,1.005l-19.319,95.094h-36.259  l24.204-157.753h2.523c4.286,0,6.752-4.873,4.214-8.326L260.214,9.776c-2.09-2.843-6.337-2.843-8.427,0l-84.851,115.443  c-2.538,3.453-0.072,8.326,4.214,8.326h2.523l24.204,157.753h-36.26l-19.319-95.094l10.102-1.005  c4.265-0.424,6.236-5.517,3.368-8.703L72.521,94.037c-2.361-2.622-6.588-2.202-8.386,0.834L0.741,201.922  c-2.184,3.688,0.752,8.293,5.017,7.868l10.975-1.092l18.041,82.6l0.054,0.002l42.899,208.875c0.499,2.432,2.64,4.177,5.122,4.177  h163.625h19.049H429.15c2.483,0,4.623-1.745,5.122-4.177l42.9-208.875l0.054-0.002L495.267,208.698z"/>
<path style="fill:#576666;" d="M131.929,504.353H82.855c-2.483,0-4.623-1.745-5.122-4.177L34.832,291.3H34.78l-18.041-82.602  l-10.981,1.091c-4.265,0.424-7.2-4.181-5.016-7.868L64.14,94.869c1.798-3.036,6.025-3.456,8.386-0.834l27.41,30.449l-15.205,44.299  l-14.654,39.914L88.118,291.3h0.052L131.929,504.353z"/>
<path style="fill:#D7DBDD;" d="M256,135.128c0,0-38.745-0.807-37.13,62.153l4.843,65.382H256h32.287l4.843-65.382  C294.745,134.321,256,135.128,256,135.128z"/>
<path style="fill:#C6CBCC;" d="M239.266,197.28l4.842,65.377h-20.394l-4.842-65.377C217.251,134.319,256,135.125,256,135.125  s4.414-0.094,10.197,2.196C254.85,141.839,238.189,155.561,239.266,197.28z"/>
<path style="fill:#D7DBDD;" d="M307.336,349.368c-27.902-28.768-74.761-28.768-102.667-0.003  c-12.388,12.769-21.158,30.676-17.507,55.29l11.821,99.699h114.034l11.82-99.699C328.488,380.043,319.721,362.137,307.336,349.368z"/>
<path style="fill:#C6CBCC;" d="M231.161,349.359c-12.393,12.77-21.158,30.686-17.508,55.295l11.818,99.702H198.98l-11.818-99.702  c-3.65-24.609,5.125-42.525,17.508-55.295c17.267-17.79,41.782-24.578,64.582-20.342  C255.195,331.611,241.798,338.388,231.161,349.359z"/>
<g>
</g>
<g>
</g>
<g>
</g>
<g>
</g>
<g>
</g>
<g>
</g>
<g>
</g>
<g>
</g>
<g>
</g>
<g>
</g>
<g>
</g>
<g>
</g>
<g>
</g>
<g>
</g>
<g>
</g>
</svg>
