<?xml version="1.0" encoding="iso-8859-1"?>
<!-- Generator: Adobe Illustrator 19.0.0, SVG Export Plug-In . SVG Version: 6.00 Build 0)  -->
<svg xmlns="http://www.w3.org/2000/svg" xmlns:xlink="http://www.w3.org/1999/xlink" version="1.1" id="Capa_1" x="0px" y="0px" viewBox="0 0 512 512" style="enable-background:new 0 0 512 512;" xml:space="preserve">
<path style="fill:#93511B;" d="M453.059,160.594l-49.081,2.669c-2.1,0.114-3.937,1.449-4.695,3.41l-20.972,54.272  c-5.025,13.004-15.365,23.242-28.418,28.136l-9.937,3.726c-29.933,11.225-61.864-10.903-61.864-42.872l0,0  c0-6.319,1.332-16.485,2.959-22.59l20.71-77.687c2.319-8.699,8.767-15.701,17.246-18.727l30.846-11.011  c2.977-1.063,4.386-4.462,3.034-7.319l-11.531-24.367c-1.282-2.709-4.54-3.834-7.221-2.494l-27.237,13.618  c-2.601,1.301-5.765,0.283-7.119-2.291L271.247,2.855C270.322,1.099,268.501,0,266.517,0h-18.881c-4.12,0-6.691,4.465-4.622,8.028  l28.762,49.534c3.557,6.127,4.601,13.394,2.91,20.274l-26.678,108.592c-2.328,9.478-8.618,17.497-17.268,22.017l0,0  c-12.918,6.75-28.703,4.512-39.236-5.563l-81.628-78.079c-0.223-0.213-29.573-40.054-29.573-40.054  c-3.317-4.507-10.452-1.532-9.585,3.996l2.496,15.915c1.809,11.53,6.883,22.3,14.622,31.037l6.173,6.969  c2.368,2.673,1.405,6.883-1.89,8.261l-35.531,14.858c-2.696,1.127-3.986,4.21-2.898,6.922l2.86,7.123  c1.032,2.57,3.856,3.926,6.507,3.125l49.368-14.927c1.947-0.589,4.058,0.01,5.407,1.532l36.228,40.895  c14.894,16.813,25.951,36.667,32.402,58.182l5.535,18.461c11.25,37.523,13.241,77.214,5.801,115.675l-19.896,102.866  c-0.638,3.298,1.888,6.359,5.247,6.359h142.489c3.451,0,5.997-3.222,5.2-6.579l-12.219-51.459  c-5.53-23.289-8.323-47.144-8.323-71.08v-54.347c0-17.385,10.428-33.074,26.458-39.805l48.813-20.495  c9.471-3.976,16.661-11.988,19.595-21.832l14.196-47.637c0.527-1.768,1.928-3.139,3.706-3.627l27.668-7.599  c1.869-0.513,3.314-1.999,3.775-3.882l4.032-16.455C459.393,163.718,456.641,160.399,453.059,160.594z"/>
<path style="fill:#774615;" d="M248.626,231.022l-8.899,25.017c-4.904,13.786-6.761,28.471-5.444,43.044l6.869,76.018  c0.959,10.609,0.509,21.298-1.338,31.789L221.313,512h-38.164c-3.362,0-5.888-3.063-5.249-6.362l19.902-102.87  c7.435-38.463,5.445-78.153-5.806-115.677l-5.527-18.458c-6.455-21.51-17.509-41.371-32.41-58.179l-36.225-40.896  c-1.351-1.526-3.465-2.124-5.403-1.536l-49.373,14.931c-2.65,0.804-5.476-0.557-6.507-3.124l-2.856-7.125  c-1.093-2.712,0.196-5.795,2.898-6.919l35.524-14.859c3.3-1.371,4.259-5.589,1.897-8.26l-6.177-6.971  c-7.744-8.734-12.818-19.499-14.622-31.038L70.72,88.746c-0.866-5.527,6.27-8.507,9.58-3.991c0,0,29.358,39.834,29.574,40.051  l81.628,78.08c6.476,6.197,14.942,9.425,23.5,9.425c5.362,0,10.755-1.268,15.736-3.867c8.652-4.517,14.942-12.539,17.272-22.016  l26.676-108.593c1.691-6.878,0.65-14.148-2.908-20.273L243.019,8.024c-2.073-3.557,0.495-8.022,4.62-8.022h8.363l33.264,62.148  c2.475,4.624,3.054,10.029,1.615,15.072L261.581,189C257.863,203.186,253.541,217.206,248.626,231.022z"/>
<g>
</g>
<g>
</g>
<g>
</g>
<g>
</g>
<g>
</g>
<g>
</g>
<g>
</g>
<g>
</g>
<g>
</g>
<g>
</g>
<g>
</g>
<g>
</g>
<g>
</g>
<g>
</g>
<g>
</g>
</svg>
