<?xml version="1.0" encoding="iso-8859-1"?>
<!-- Generator: Adobe Illustrator 19.0.0, SVG Export Plug-In . SVG Version: 6.00 Build 0)  -->
<svg xmlns="http://www.w3.org/2000/svg" xmlns:xlink="http://www.w3.org/1999/xlink" version="1.1" id="Capa_1" x="0px" y="0px" viewBox="0 0 512 512" style="enable-background:new 0 0 512 512;" xml:space="preserve">
<path style="fill:#EFDA45;" d="M127.885,217.972v0.019c-5.419-7.088-45.664-57.442-97.275-60.114  c-7.342-0.38-14.266,3.449-17.858,9.864v0.001c-4.309,7.695-2.862,17.33,3.517,23.419l9.072,8.66l-3.959-0.424  C9.961,198.173,0,207.124,0,218.611v74.778c0,11.487,9.961,20.437,21.382,19.214l3.959-0.424l-9.072,8.66  c-6.379,6.089-7.826,15.725-3.517,23.419l0.001,0.001c3.592,6.415,10.516,10.244,17.858,9.864  c51.61-2.672,91.855-53.026,97.275-60.114v0.019h25.8v-76.056L127.885,217.972L127.885,217.972z"/>
<path style="fill:#EDC148;" d="M153.685,269.841v24.185h-25.8v-0.021c-5.419,7.095-45.667,57.441-97.277,60.114  c-7.342,0.38-14.263-3.445-17.851-9.861h-0.01c-3.887-6.941-3.085-15.455,1.8-21.533c3.836,4.792,9.8,7.537,16.062,7.208  c48.231-2.499,86.539-46.64,95.771-58.192c0.975-1.22,2.45-1.922,4.011-1.921L153.685,269.841z"/>
<path style="fill:#EFDA45;" d="M490.618,199.397l-3.959,0.424l9.072-8.66c6.379-6.089,7.826-15.725,3.517-23.419v-0.001  c-3.592-6.415-10.516-10.244-17.858-9.864c-51.564,2.67-91.783,52.934-97.26,60.094h-24.947v76.056h24.947  c5.477,7.16,45.696,57.425,97.26,60.094c7.343,0.38,14.266-3.449,17.858-9.864v-0.001c4.309-7.695,2.862-17.33-3.517-23.419  l-9.072-8.66l3.959,0.424c11.421,1.224,21.382-7.727,21.382-19.214v-74.778C512,207.124,502.039,198.173,490.618,199.397z"/>
<path style="fill:#EDC148;" d="M359.183,269.843v24.185h25.029v-0.021c5.419,7.095,45.667,57.441,97.277,60.114  c7.342,0.38,14.263-3.445,17.851-9.861h0.01c3.887-6.941,3.085-15.455-1.8-21.533c-3.836,4.792-9.8,7.537-16.062,7.208  c-48.231-2.499-86.539-46.64-95.771-58.192c-0.975-1.22-2.45-1.922-4.011-1.921L359.183,269.843z"/>
<path style="fill:#F95428;" d="M303.09,345.585h-94.179c-44.218,0-80.397-36.178-80.397-80.397v-18.376  c0-44.218,36.179-80.397,80.397-80.397h94.179c44.218,0,80.397,36.179,80.397,80.397v18.376  C383.486,309.406,347.308,345.585,303.09,345.585z"/>
<path style="fill:#E54728;" d="M359.477,322.362c-14.54,14.334-34.479,23.223-56.393,23.223h-94.179  c-44.218,0-80.397-36.178-80.397-80.397v-18.376c0-33.778,21.11-62.859,50.788-74.712c-14.781,14.609-23.981,34.858-23.981,57.151  v18.376c0,44.218,36.179,80.397,80.397,80.397h94.179C340.32,328.024,350.312,326.014,359.477,322.362z"/>
<g>
	<path style="fill:#EFDA45;" d="M279.345,166.415l-100.128,173.45c-18.307-7.327-33.353-21.225-42.174-38.74l77.767-134.71H279.345z   "/>
	<path style="fill:#EFDA45;" d="M369.952,202.307l-82.717,143.278h-64.536l101.759-176.264   C343.26,174.535,359.339,186.457,369.952,202.307z"/>
	<path style="fill:#EFDA45;" d="M193.136,315.746l-13.92,24.119c-2.286-0.907-4.525-1.93-6.707-3.055   c-0.54-0.275-1.091-0.562-1.619-0.85c-0.54-0.287-1.08-0.586-1.608-0.896c-1.367-0.769-2.71-1.585-4.02-2.446   c-0.367-0.23-0.724-0.471-1.08-0.723c-0.643-0.425-1.286-0.873-1.93-1.332c-0.379-0.264-0.747-0.54-1.114-0.815   c-1.126-0.827-2.217-1.688-3.296-2.584c-0.356-0.287-0.712-0.586-1.068-0.896c-0.287-0.241-0.563-0.482-0.85-0.735   c-0.448-0.402-0.896-0.804-1.344-1.206c-0.011-0.012-0.034-0.034-0.057-0.057c-0.436-0.39-0.861-0.792-1.275-1.206   c-0.436-0.414-0.873-0.839-1.298-1.275c-0.861-0.85-1.688-1.723-2.492-2.607c-1.838-2.033-3.583-4.146-5.203-6.351   c-0.287-0.379-0.563-0.758-0.827-1.137c-0.264-0.368-0.528-0.735-0.781-1.114c-0.345-0.505-0.689-1.011-1.022-1.516   c-0.31-0.471-0.609-0.942-0.907-1.413c-0.241-0.379-0.471-0.769-0.701-1.148c-0.287-0.459-0.551-0.919-0.815-1.378   c-0.218-0.379-0.436-0.758-0.643-1.149c-0.23-0.402-0.448-0.804-0.666-1.217c-0.299-0.54-0.574-1.08-0.85-1.631l20.363-35.283   C162.299,286.758,175.426,304.606,193.136,315.746z"/>
	<path style="fill:#EFDA45;" d="M297.376,328.024l-10.141,17.561h-64.536l10.164-17.618c0.942,0.046,1.895,0.057,2.848,0.057   H297.376z"/>
</g>
<g>
	<path style="fill:#EDC148;" d="M193.136,315.746l-13.92,24.119c-2.286-0.907-4.525-1.93-6.707-3.055   c-0.54-0.275-1.091-0.562-1.619-0.85c-8.192-4.358-15.138-9.818-21.432-16.78c-4.518-4.998-7.813-9.38-10.899-15.206   c-0.23-0.402-0.448-0.804-0.666-1.217c-0.299-0.54-0.574-1.08-0.85-1.631l20.363-35.283   C162.299,286.758,175.426,304.606,193.136,315.746z"/>
	<path style="fill:#EDC148;" d="M297.376,328.024l-10.141,17.561h-64.536l10.164-17.618c0.942,0.046,1.895,0.057,2.848,0.057   H297.376z"/>
</g>
<g>
</g>
<g>
</g>
<g>
</g>
<g>
</g>
<g>
</g>
<g>
</g>
<g>
</g>
<g>
</g>
<g>
</g>
<g>
</g>
<g>
</g>
<g>
</g>
<g>
</g>
<g>
</g>
<g>
</g>
</svg>
