<?xml version="1.0" encoding="iso-8859-1"?>
<!-- Generator: Adobe Illustrator 19.0.0, SVG Export Plug-In . SVG Version: 6.00 Build 0)  -->
<svg xmlns="http://www.w3.org/2000/svg" xmlns:xlink="http://www.w3.org/1999/xlink" version="1.1" id="Capa_1" x="0px" y="0px" viewBox="0 0 512 512" style="enable-background:new 0 0 512 512;" xml:space="preserve">
<ellipse style="fill:#576666;" cx="256.003" cy="420.44" rx="241.18" ry="91.56"/>
<path style="fill:#3B4C4B;" d="M314.11,509.319c-18.61,1.752-38.075,2.679-58.107,2.679c-133.205,0-241.185-40.991-241.185-91.565  c0-50.564,107.98-91.555,241.185-91.555c20.032,0,39.497,0.927,58.107,2.679c-105.136,9.861-172.634,45.92-172.634,88.879  C141.476,463.407,208.974,499.458,314.11,509.319z"/>
<path style="fill:#738182;" d="M87.4,382.023L254.295,9.712c4.832-10.779,19.12-13.089,27.102-4.381l94.072,102.624  c4.352,4.748,0.203,12.311-6.14,11.192l-50.816-8.969c-10.462-1.846-18.646,8.887-14.096,18.487l120.228,253.676  c1.125,2.374,0.292,5.211-1.945,6.589c-24.35,14.992-160.505,89.502-333-0.239C87.288,387.436,86.288,384.503,87.4,382.023z"/>
<path style="fill:#576666;" d="M310.287,36.852c-0.247,0.423-0.464,0.866-0.67,1.319L142.233,411.603  c-17.045-6.019-34.567-13.565-52.484-22.884c-2.43-1.264-3.467-4.192-2.347-6.691L254.293,9.71  c4.833-10.778,19.125-13.087,27.101-4.379L310.287,36.852z"/>
<polygon style="fill:#9F51BF;" points="382.541,293.842 127.085,293.842 170.961,195.95 336.141,195.95 "/>
<g>
	<path style="fill:#D7DBDD;" d="M297.409,298.546h-75.892c-4.143,0-7.5-3.358-7.5-7.5v-92.301c0-4.142,3.357-7.5,7.5-7.5h75.892   c4.143,0,7.5,3.358,7.5,7.5v92.301C304.909,295.188,301.552,298.546,297.409,298.546z M229.018,283.546h60.892v-77.301h-60.892   L229.018,283.546L229.018,283.546z"/>
	<path style="fill:#D7DBDD;" d="M326.125,252.396h-66.662c-4.143,0-7.5-3.358-7.5-7.5s3.357-7.5,7.5-7.5h66.662   c4.143,0,7.5,3.358,7.5,7.5S330.268,252.396,326.125,252.396z"/>
</g>
<g>
</g>
<g>
</g>
<g>
</g>
<g>
</g>
<g>
</g>
<g>
</g>
<g>
</g>
<g>
</g>
<g>
</g>
<g>
</g>
<g>
</g>
<g>
</g>
<g>
</g>
<g>
</g>
<g>
</g>
</svg>
