<?xml version="1.0" encoding="iso-8859-1"?>
<!-- Generator: Adobe Illustrator 19.0.0, SVG Export Plug-In . SVG Version: 6.00 Build 0)  -->
<svg xmlns="http://www.w3.org/2000/svg" xmlns:xlink="http://www.w3.org/1999/xlink" version="1.1" id="Capa_1" x="0px" y="0px" viewBox="0 0 512 512" style="enable-background:new 0 0 512 512;" xml:space="preserve">
<path style="fill:#D7DBDD;" d="M378.841,31.603c-11.585-5.147-23.444-9.54-35.369-13.158c-15.158-4.599-30.709-7.907-46.414-9.96  c-30.368-3.971-61.518-3.352-91.553,2.821c-20.16,4.143-40.509,8.165-59.833,15.417c-14.799,5.554-26.017,11.465-39.827,19.353  c-8.519,4.863-16.839,10.083-24.85,15.747C65.525,72.761,51.124,85.339,38.946,99.89c-25.11,30.002-38.41,67.174-38.928,106.242  c-0.553,41.626,11.64,82.224,30.655,118.959c17.386,33.588,40.141,63.861,67.528,89.938c32.443,30.892,69.556,58.762,111.029,76.48  c17.396,7.427,34.283,16.964,53.792,13.936c13.333-2.069,27.377-8.651,39.752-13.937c41.28-17.635,78.783-45.777,111.026-76.478  c27.386-26.077,50.141-56.349,67.527-89.938c19.015-36.735,31.207-77.332,30.655-118.958  C510.883,123.307,450.033,63.231,378.841,31.603z"/>
<path style="fill:#C6CBCC;" d="M292.816,491.504c1.647,0.705,3.295,1.43,4.943,2.166c-11.077,4.787-23.179,9.978-34.733,11.771  c-19.511,3.026-36.401-6.507-53.799-13.937c-41.468-17.719-78.584-45.582-111.027-76.481c-27.386-26.07-50.141-56.348-67.528-89.93  c-19.014-36.733-31.21-77.341-30.65-118.964c0.518-39.064,13.812-76.242,38.929-106.24c12.175-14.548,26.578-27.127,42.048-38.07  c8.01-5.658,16.33-10.88,24.848-15.74c13.812-7.896,25.024-13.802,39.821-19.356c19.325-7.253,39.675-11.274,59.84-15.418  c30.029-6.176,61.187-6.797,91.547-2.818c1.451,0.187,2.891,0.394,4.342,0.611c-4.124,0.632-8.217,1.368-12.299,2.207  c-20.164,4.145-40.515,8.165-59.84,15.418c-14.797,5.554-26.019,11.46-39.821,19.356c-8.528,4.86-16.848,10.082-24.858,15.74  c-15.47,10.942-29.863,23.521-42.048,38.069c-25.107,29.997-38.401,67.176-38.919,106.24c-0.56,41.623,11.636,82.232,30.65,118.964  c17.387,33.583,40.142,63.86,67.528,89.93C214.231,445.922,251.348,473.785,292.816,491.504z"/>
<ellipse transform="matrix(-0.6295 -0.777 0.777 -0.6295 385.1938 695.1591)" style="fill:#738182;" cx="358.334" cy="255.743" rx="61.49" ry="90.42"/>
<path style="fill:#576666;" d="M320.192,312.648c6.466,7.979,15.449,13.17,25.894,15.657c-23.718,4.756-45.54-0.259-58.016-15.657  c-21.376-26.381-7.253-73.258,31.552-104.696c27.055-21.915,58.959-30.547,83.05-24.817c-16.911,3.388-34.785,11.74-50.928,24.817  C312.938,239.39,298.815,286.267,320.192,312.648z"/>
<ellipse transform="matrix(-0.6295 0.777 -0.777 -0.6295 444.2584 299.6058)" style="fill:#738182;" cx="150.698" cy="255.722" rx="61.49" ry="90.42"/>
<path style="fill:#576666;" d="M199.715,326.989c-24.516,8.134-58.876-0.124-87.723-23.49  c-38.805-31.438-52.928-78.304-31.552-104.696c13.47-16.631,37.841-21.148,63.725-14.341c-8.466,2.808-15.76,7.574-21.242,14.341  c-21.376,26.392-7.253,73.258,31.552,104.696C168.816,315.125,184.524,323,199.715,326.989z"/>
<path style="fill:#738182;" d="M300.529,385.515c0.807-1.734-1.001-3.529-2.745-2.743c-7.351,3.316-22.529,8.813-41.786,8.45  c-19.243,0.362-34.415-5.127-41.77-8.444c-1.743-0.786-3.557,1.011-2.741,2.741c8.847,18.759,28.985,33.327,50.307,30.806  C278.905,414.301,293.428,400.776,300.529,385.515z"/>
<g>
</g>
<g>
</g>
<g>
</g>
<g>
</g>
<g>
</g>
<g>
</g>
<g>
</g>
<g>
</g>
<g>
</g>
<g>
</g>
<g>
</g>
<g>
</g>
<g>
</g>
<g>
</g>
<g>
</g>
</svg>
