<?xml version="1.0" encoding="iso-8859-1"?>
<!-- Generator: Adobe Illustrator 19.0.0, SVG Export Plug-In . SVG Version: 6.00 Build 0)  -->
<svg xmlns="http://www.w3.org/2000/svg" xmlns:xlink="http://www.w3.org/1999/xlink" version="1.1" id="Capa_1" x="0px" y="0px" viewBox="0 0 511.999 511.999" style="enable-background:new 0 0 511.999 511.999;" xml:space="preserve">
<path style="fill:#9F51BF;" d="M263.695,164.008L140.732,76.762c-10.867-7.711-12.269-23.309-2.951-32.834l36.587-37.401  c11.2-11.449,30.522-7.215,35.907,7.868L263.695,164.008z"/>
<path style="fill:#8842A8;" d="M263.692,164.003L140.734,76.768c-10.868-7.711-12.27-23.31-2.952-32.835l12.279-12.551  l88.764,62.975L263.692,164.003z"/>
<path style="fill:#9F51BF;" d="M248.304,164.008l122.963-87.246c10.867-7.711,12.27-23.309,2.951-32.834L337.631,6.526  c-11.2-11.449-30.522-7.215-35.907,7.868L248.304,164.008z"/>
<path style="fill:#8842A8;" d="M248.307,164.003l122.957-87.235c10.868-7.711,12.27-23.31,2.952-32.835L361.937,31.38  l-88.764,62.975L248.307,164.003z"/>
<path style="fill:#9F51BF;" d="M470.821,270.346H41.178c-2.964,0-5.367-2.403-5.367-5.367V144.351c0-2.964,2.403-5.367,5.367-5.367  h429.643c2.964,0,5.367,2.403,5.367,5.367v120.628C476.188,267.943,473.785,270.346,470.821,270.346z"/>
<path style="fill:#8842A8;" d="M121.941,270.346H41.178c-2.964,0-5.367-2.403-5.367-5.367V144.351c0-2.964,2.403-5.367,5.367-5.367  h80.763V270.346z"/>
<path style="fill:#9AD14B;" d="M462.761,511.999H49.238c-2.964,0-5.367-2.403-5.367-5.367V270.346h424.257v236.287  C468.128,509.596,465.725,511.999,462.761,511.999z"/>
<path style="fill:#90BC42;" d="M121.941,511.999H49.238c-2.964,0-5.367-2.403-5.367-5.367V270.346h78.07V511.999z"/>
<circle style="fill:#9F51BF;" cx="114.334" cy="334.972" r="33.281"/>
<path style="fill:#8842A8;" d="M146.009,345.222c-4.314,13.366-16.867,23.039-31.675,23.039c-18.38,0-33.283-14.904-33.283-33.283  c0-13.037,7.504-24.327,18.423-29.791c-1.046,3.225-1.608,6.674-1.608,10.253c0,18.38,14.904,33.283,33.283,33.283  C136.492,348.723,141.54,347.461,146.009,345.222z"/>
<circle style="fill:#9F51BF;" cx="120.364" cy="453.597" r="25.511"/>
<path style="fill:#8842A8;" d="M144.636,461.446c-3.306,10.244-12.928,17.659-24.279,17.659c-14.088,0-25.511-11.423-25.511-25.511  c0-9.992,5.751-18.647,14.121-22.834c-0.802,2.472-1.232,5.115-1.232,7.859c0,14.088,11.423,25.511,25.511,25.511  C137.34,464.13,141.21,463.162,144.636,461.446z"/>
<circle style="fill:#9F51BF;" cx="299.391" cy="447.197" r="30.041"/>
<path style="fill:#8842A8;" d="M327.977,456.439c-3.893,12.061-15.222,20.793-28.586,20.793c-16.587,0-30.038-13.451-30.038-30.038  c0-11.765,6.772-21.955,16.626-26.886c-0.944,2.91-1.451,6.023-1.451,9.253c0,16.587,13.451,30.038,30.038,30.038  C319.387,459.599,323.943,458.46,327.977,456.439z"/>
<circle style="fill:#9F51BF;" cx="410.776" cy="463.267" r="16.96"/>
<path style="fill:#8842A8;" d="M426.919,468.483c-2.198,6.81-8.594,11.739-16.141,11.739c-9.365,0-16.96-7.594-16.96-16.96  c0-6.643,3.824-12.396,9.387-15.181c-0.533,1.643-0.819,3.401-0.819,5.224c0,9.365,7.594,16.96,16.96,16.96  C422.069,470.267,424.642,469.624,426.919,468.483z"/>
<circle style="fill:#9F51BF;" cx="199.537" cy="414.085" r="16.96"/>
<path style="fill:#8842A8;" d="M215.672,419.31c-2.198,6.81-8.594,11.739-16.141,11.739c-9.365,0-16.96-7.594-16.96-16.96  c0-6.643,3.824-12.396,9.387-15.181c-0.533,1.643-0.819,3.401-0.819,5.224c0,9.365,7.594,16.96,16.96,16.96  C210.822,421.095,213.394,420.451,215.672,419.31z"/>
<circle style="fill:#9F51BF;" cx="255.74" cy="336.922" r="37.031"/>
<path style="fill:#8842A8;" d="M290.977,348.318c-4.799,14.871-18.766,25.633-35.242,25.633c-20.449,0-37.031-16.583-37.031-37.031  c0-14.505,8.349-27.066,20.497-33.145c-1.164,3.588-1.789,7.425-1.789,11.407c0,20.449,16.583,37.031,37.031,37.031  C280.388,352.214,286.005,350.809,290.977,348.318z"/>
<circle style="fill:#9F51BF;" cx="379.594" cy="358.173" r="31.181"/>
<path style="fill:#8842A8;" d="M409.271,367.773c-4.041,12.521-15.802,21.584-29.675,21.584c-17.219,0-31.181-13.963-31.181-31.181  c0-12.214,7.03-22.791,17.259-27.909c-0.98,3.021-1.506,6.252-1.506,9.605c0,17.219,13.963,31.181,31.181,31.181  C400.354,371.054,405.083,369.872,409.271,367.773z"/>
<g>
</g>
<g>
</g>
<g>
</g>
<g>
</g>
<g>
</g>
<g>
</g>
<g>
</g>
<g>
</g>
<g>
</g>
<g>
</g>
<g>
</g>
<g>
</g>
<g>
</g>
<g>
</g>
<g>
</g>
</svg>
