<?xml version="1.0" encoding="iso-8859-1"?>
<!-- Generator: Adobe Illustrator 19.0.0, SVG Export Plug-In . SVG Version: 6.00 Build 0)  -->
<svg xmlns="http://www.w3.org/2000/svg" xmlns:xlink="http://www.w3.org/1999/xlink" version="1.1" id="Capa_1" x="0px" y="0px" viewBox="0 0 512 512" style="enable-background:new 0 0 512 512;" xml:space="preserve">
<path style="fill:#738182;" d="M255.997,512L255.997,512c-17.43,0-31.56-14.13-31.56-31.56V116.132h63.12V480.44  C287.557,497.87,273.427,512,255.997,512z"/>
<path style="fill:#576666;" d="M255.997,512L255.997,512c-17.43,0-31.56-14.13-31.56-31.56V116.132h31.56V512z"/>
<path style="fill:#D7DBDD;" d="M312.933,116.132H199.067c-2.839,0-5.141-2.302-5.141-5.141V5.141c0-2.839,2.302-5.141,5.141-5.141  h113.866c2.839,0,5.141,2.302,5.141,5.141v105.85C318.074,113.83,315.772,116.132,312.933,116.132z"/>
<path style="fill:#C6CBCC;" d="M255.997,116.132h-56.93c-2.839,0-5.141-2.302-5.141-5.141V5.141c0-2.839,2.302-5.141,5.141-5.141  h56.93L255.997,116.132L255.997,116.132z"/>
<path style="fill:#D7DBDD;" d="M318.074,16.852c0,0,169.252-1.406,173.632,162.372c0.053,1.989-2.486,2.885-3.695,1.304  c-14.667-19.18-71.901-84.621-169.937-84.464L318.074,16.852L318.074,16.852z"/>
<path style="fill:#C6CBCC;" d="M487.056,179.296c-16.07-20.604-72.958-83.384-168.979-83.23v-40.14  C318.077,55.927,459.234,54.755,487.056,179.296z"/>
<path style="fill:#D7DBDD;" d="M193.926,16.852c0,0-169.252-1.406-173.632,162.372c-0.053,1.989,2.486,2.885,3.695,1.304  c14.667-19.18,71.901-84.621,169.937-84.464V16.852z"/>
<path style="fill:#C6CBCC;" d="M24.944,179.296c16.07-20.604,72.958-83.384,168.979-83.23v-40.14  C193.923,55.927,52.766,54.755,24.944,179.296z"/>
<g>
</g>
<g>
</g>
<g>
</g>
<g>
</g>
<g>
</g>
<g>
</g>
<g>
</g>
<g>
</g>
<g>
</g>
<g>
</g>
<g>
</g>
<g>
</g>
<g>
</g>
<g>
</g>
<g>
</g>
</svg>
