<?xml version="1.0" encoding="iso-8859-1"?>
<!-- Generator: Adobe Illustrator 19.0.0, SVG Export Plug-In . SVG Version: 6.00 Build 0)  -->
<svg xmlns="http://www.w3.org/2000/svg" xmlns:xlink="http://www.w3.org/1999/xlink" version="1.1" id="Capa_1" x="0px" y="0px" viewBox="0 0 512 512" style="enable-background:new 0 0 512 512;" xml:space="preserve">
<path style="fill:#738182;" d="M256.002,512L256.002,512c-12.208,0-22.104-9.896-22.104-22.104V167.925h44.209v321.971  C278.106,502.104,268.21,512,256.002,512z"/>
<path style="fill:#576666;" d="M256.002,510.972V512c-12.208,0-22.104-9.896-22.104-22.104V167.925h22.104V510.972z"/>
<path style="fill:#EFDA45;" d="M260.832,3.002l31.047,62.909l69.424,10.088c4.418,0.642,6.182,6.071,2.985,9.187l-50.236,48.968  l11.859,69.143c0.755,4.4-3.864,7.755-7.815,5.678l-62.095-32.645l-62.095,32.645c-3.951,2.077-8.57-1.278-7.815-5.678  l11.859-69.143l-50.236-48.968c-3.197-3.116-1.433-8.545,2.985-9.187l69.424-10.088L251.17,3.002  C253.147-1.001,258.856-1.001,260.832,3.002z"/>
<path style="fill:#EDC148;" d="M260.832,3.006l21.153,42.858l-16.919,34.262c-0.718,1.455-2.055,2.508-3.637,2.868l-47.821,10.857  c-3.65,0.829-5.363,5.037-3.329,8.179l30.34,46.874c0.735,1.135,1.016,2.505,0.787,3.837l-5.893,34.36l-41.606,21.874  c-3.951,2.077-8.57-1.278-7.815-5.678l11.858-69.143l-50.237-48.969c-3.197-3.116-1.433-8.545,2.985-9.187l69.432-10.087  l31.042-62.905C253.147-0.997,258.856-0.997,260.832,3.006z"/>
<g>
</g>
<g>
</g>
<g>
</g>
<g>
</g>
<g>
</g>
<g>
</g>
<g>
</g>
<g>
</g>
<g>
</g>
<g>
</g>
<g>
</g>
<g>
</g>
<g>
</g>
<g>
</g>
<g>
</g>
</svg>
