<?xml version="1.0" encoding="iso-8859-1"?>
<!-- Generator: Adobe Illustrator 19.0.0, SVG Export Plug-In . SVG Version: 6.00 Build 0)  -->
<svg xmlns="http://www.w3.org/2000/svg" xmlns:xlink="http://www.w3.org/1999/xlink" version="1.1" id="Capa_1" x="0px" y="0px" viewBox="0 0 512 512" style="enable-background:new 0 0 512 512;" xml:space="preserve">
<g>
	<path style="fill:#808080;" d="M117.302,483.598h-26.66c-12.622,0-24.674-5.451-33.067-14.956   c-8.501-9.627-12.462-22.484-10.868-35.273l35.029-280.949c2.779-22.283,21.667-39.086,43.935-39.086h20.94   c4.142,0,7.5,3.358,7.5,7.5c0,4.142-3.358,7.5-7.5,7.5h-20.94c-14.717,0-27.206,11.153-29.05,25.942L61.593,435.224   c-1.063,8.523,1.571,17.085,7.227,23.489c5.547,6.282,13.501,9.885,21.823,9.885h26.659c4.142,0,7.5,3.358,7.5,7.5   S121.444,483.598,117.302,483.598z"/>
	<path style="fill:#808080;" d="M421.358,483.598h-26.659c-4.142,0-7.5-3.358-7.5-7.5s3.358-7.5,7.5-7.5h26.659   c8.322,0,16.276-3.603,21.823-9.885c5.655-6.404,8.289-14.965,7.227-23.489l-35.029-280.949   c-1.844-14.789-14.333-25.942-29.05-25.942h-20.94c-4.142,0-7.5-3.358-7.5-7.5c0-4.142,3.358-7.5,7.5-7.5h20.94   c22.268,0,41.156,16.803,43.935,39.086l35.029,280.95c1.595,12.79-2.367,25.646-10.868,35.273   C446.032,478.147,433.98,483.598,421.358,483.598z"/>
</g>
<path style="fill:#BFDFE8;" d="M333.371,160.944H171.605c-16.944,0-31.163,12.775-32.97,29.623l-21.728,202.578  c-2.102,19.6,13.257,36.695,32.97,36.695H355.1c19.713,0,35.072-17.095,32.97-36.695l-21.728-202.578  C364.534,173.718,350.316,160.944,333.371,160.944z"/>
<path style="fill:#94D3DD;" d="M388.239,398.037c-0.677,17.468-15.095,31.803-33.136,31.803h-205.23  c-19.707,0-35.072-17.094-32.969-36.696l21.726-202.576c1.811-16.854,16.032-29.628,32.98-29.628h3.227l-21.497,200.41  c-2.103,19.592,13.263,36.686,32.969,36.686h201.93V398.037z"/>
<path style="fill:#808080;" d="M288.259,429.84h-71.542c-2.875,0-5.205-2.33-5.205-5.205v-26.187c0-2.875,2.33-5.205,5.205-5.205  h71.542c2.875,0,5.205,2.33,5.205,5.205v26.187C293.465,427.509,291.134,429.84,288.259,429.84z"/>
<path style="fill:#6B6B6B;" d="M238.087,429.84h-21.37c-2.875,0-5.205-2.33-5.205-5.205v-26.187c0-2.875,2.33-5.205,5.205-5.205  h21.37V429.84z"/>
<g>
	<path style="fill:#EFDA45;" d="M252.488,0c-23.288,0-42.162,18.884-42.162,42.162c0,23.288,18.874,42.162,42.162,42.162   s42.162-18.874,42.162-42.162C294.651,18.884,275.776,0,252.488,0z M252.488,56.559c-7.953,0-14.397-6.444-14.397-14.397   s6.444-14.397,14.397-14.397c7.953,0,14.397,6.444,14.397,14.397S260.441,56.559,252.488,56.559z"/>
	<path style="fill:#EFDA45;" d="M353.659,161.261H151.318c-5.749,0-10.41-4.661-10.41-10.41V89.512c0-5.749,4.661-10.41,10.41-10.41   h202.342c5.749,0,10.41,4.661,10.41,10.41v61.339C364.069,156.6,359.408,161.261,353.659,161.261z"/>
</g>
<path style="fill:#EDC148;" d="M178.7,161.261h-27.382c-5.749,0-10.41-4.661-10.41-10.41V89.512c0-5.749,4.661-10.41,10.41-10.41  H178.7V161.261z"/>
<path style="fill:#EFDA45;" d="M383.279,512H121.696c-5.749,0-10.41-4.661-10.41-10.41V440.25c0-5.749,4.661-10.41,10.41-10.41  h261.583c5.749,0,10.41,4.661,10.41,10.41v61.339C393.69,507.339,389.029,512,383.279,512z"/>
<path style="fill:#EDC148;" d="M178.7,512h-57.003c-5.749,0-10.41-4.661-10.41-10.41V440.25c0-5.749,4.661-10.41,10.41-10.41H178.7  V512z"/>
<path style="fill:#F95428;" d="M263.499,333.342l-8.738-6.953c-1.331-1.059-3.216-1.059-4.547,0l-8.738,6.953  c0,0-26.229,20.037-13.086,44.542c0,0,6.572,16.064,24.097,15.334c17.525,0.73,24.097-15.334,24.097-15.334  C289.729,353.378,263.499,333.342,263.499,333.342z"/>
<path style="fill:#E53B1A;" d="M262.477,391.626c-2.833,1.103-6.148,1.752-9.989,1.592c-17.525,0.73-24.097-15.334-24.097-15.334  c-13.144-24.506,13.085-44.542,13.085-44.542l8.739-6.954c1.33-1.059,3.215-1.059,4.546-0.001l7.716,6.137l-1.03,0.818  c0,0-26.229,20.037-13.085,44.542C248.362,377.884,252.371,387.683,262.477,391.626z"/>
<g>
</g>
<g>
</g>
<g>
</g>
<g>
</g>
<g>
</g>
<g>
</g>
<g>
</g>
<g>
</g>
<g>
</g>
<g>
</g>
<g>
</g>
<g>
</g>
<g>
</g>
<g>
</g>
<g>
</g>
</svg>
