<?xml version="1.0" encoding="iso-8859-1"?>
<!-- Generator: Adobe Illustrator 19.0.0, SVG Export Plug-In . SVG Version: 6.00 Build 0)  -->
<svg xmlns="http://www.w3.org/2000/svg" xmlns:xlink="http://www.w3.org/1999/xlink" version="1.1" id="Capa_1" x="0px" y="0px" viewBox="0 0 512 512" style="enable-background:new 0 0 512 512;" xml:space="preserve">
<path style="fill:#576666;" d="M360.953,0H151.047c-2.408,0-4.496,1.664-5.034,4.011l-38.376,167.401  c-0.139,0.607-0.167,1.235-0.083,1.853l45.639,334.269c0.349,2.559,2.535,4.466,5.117,4.466h195.38c2.582,0,4.768-1.907,5.117-4.466  l45.639-334.269c0.084-0.618,0.056-1.245-0.083-1.853L365.987,4.011C365.449,1.664,363.361,0,360.953,0z"/>
<path style="fill:#3B4C4B;" d="M210.612,511.997h-52.305c-2.582,0-4.768-1.907-5.117-4.466l-45.632-334.266  c-0.084-0.617-0.056-1.245,0.083-1.853l38.37-167.398c0.538-2.347,2.626-4.011,5.034-4.011h52.698l-39.5,172.328L210.612,511.997z"/>
<path style="fill:#859293;" d="M331.319,53.033H180.682c-2.424,0-4.523,1.686-5.044,4.054l-27.705,125.812  c-0.124,0.563-0.153,1.144-0.085,1.717l33.15,280.646c0.307,2.6,2.511,4.559,5.129,4.559h139.746c2.618,0,4.822-1.959,5.129-4.559  l33.15-280.646c0.068-0.573,0.039-1.153-0.085-1.717L336.363,57.087C335.841,54.719,333.743,53.033,331.319,53.033z"/>
<path style="fill:#728384;" d="M231.117,470.079h-44.991c-2.618,0-4.822-1.959-5.129-4.559l-33.148-280.641  c-0.068-0.573-0.039-1.153,0.085-1.717l27.708-125.815c0.521-2.368,2.62-4.054,5.044-4.054h45.431l-28.788,130.721L231.117,470.079z  "/>
<g>
	<path style="fill:#D7DBDD;" d="M267.394,312.891H244.6c-2.852,0-5.165-2.312-5.165-5.165V138.49c0-2.852,2.312-5.165,5.165-5.165   h22.795c2.852,0,5.165,2.312,5.165,5.165v169.237C272.559,310.579,270.246,312.891,267.394,312.891z"/>
	<path style="fill:#D7DBDD;" d="M190.721,199.597v-22.795c0-2.852,2.312-4.849,5.165-4.849h120.222c2.852,0,5.165,1.996,5.165,4.849   v22.795c0,2.852-2.312,5.165-5.165,5.165H195.886C193.034,204.762,190.721,202.449,190.721,199.597z"/>
</g>
<g>
</g>
<g>
</g>
<g>
</g>
<g>
</g>
<g>
</g>
<g>
</g>
<g>
</g>
<g>
</g>
<g>
</g>
<g>
</g>
<g>
</g>
<g>
</g>
<g>
</g>
<g>
</g>
<g>
</g>
</svg>
