<?xml version="1.0" encoding="iso-8859-1"?>
<!-- Generator: Adobe Illustrator 19.0.0, SVG Export Plug-In . SVG Version: 6.00 Build 0)  -->
<svg xmlns="http://www.w3.org/2000/svg" xmlns:xlink="http://www.w3.org/1999/xlink" version="1.1" id="Capa_1" x="0px" y="0px" viewBox="0 0 512.001 512.001" style="enable-background:new 0 0 512.001 512.001;" xml:space="preserve">
<path style="fill:#9AD14B;" d="M334.337,39.685h-1.7c-13.953,0-25.37,11.197-25.37,24.882v45.982  c-1.517-12.724-12.414-22.675-25.529-22.675l0,0c-14.144,0-25.716,11.572-25.716,25.716h-0.019  c0-14.144-11.572-25.716-25.716-25.716l0,0c-14.144,0-26.474,11.572-26.474,25.716V25.716C203.814,11.572,192.242,0,178.098,0  s-25.716,11.572-25.716,25.716v146.42h-0.083v61.269c0,34.662,19.191,65.281,48.001,82.789v44.135c0,2.843,2.305,5.147,5.147,5.147  h101.111c2.843,0,5.147-2.305,5.147-5.147v-44.135c28.81-17.508,48.001-48.127,48.001-82.789V201.45v-14.862v-1.31V64.567  C359.708,50.882,348.291,39.685,334.337,39.685z"/>
<g>
	<path style="fill:#90BC42;" d="M203.789,112.882v57.351h20.146v-57.351c0-6.924,2.869-13.211,7.507-17.772   c2.275-2.242,4.968-4.067,7.957-5.342c-3.088-1.319-6.496-2.055-10.068-2.055c-7.023,0-13.409,2.836-18.036,7.397   C206.668,99.671,203.789,105.957,203.789,112.882z"/>
	<path style="fill:#90BC42;" d="M256.12,112.882v57.351h20.146v-57.351c0-6.924,2.869-13.211,7.507-17.772   c2.275-2.242,4.968-4.067,7.957-5.342c-3.088-1.319-6.496-2.055-10.068-2.055c-7.023,0-13.409,2.836-18.036,7.397   C259,99.671,256.12,105.957,256.12,112.882z"/>
	<path style="fill:#90BC42;" d="M280.285,176.563c-2.334,12.914-12.435,41.699-56.129,50.283   c21.075-12.321,27.122-30.764,28.854-40.392c0.613-3.341-2.181-6.375-5.811-6.375h-94.9v-9.892h122.174   C278.104,170.188,280.898,173.222,280.285,176.563z"/>
	<path style="fill:#90BC42;" d="M229.47,322.611c0-1.813-0.945-3.506-2.512-4.418c-29.643-17.252-48.926-48.94-48.926-84.786   v-61.274h0.082V25.72c0-9.461,5.178-17.779,12.848-22.237c-4.265-2.492-9.301-3.784-14.651-3.419   c-13.575,0.925-23.934,12.577-23.934,26.183v145.885h-0.082v61.274c0,34.636,19.234,65.228,48.005,82.736v44.186   c0,2.843,2.305,5.147,5.147,5.147l24.022-0.012L229.47,322.611L229.47,322.611z"/>
</g>
<rect x="229.501" y="365.49" style="fill:#D7DBDD;" width="53.02" height="99.62"/>
<rect x="229.491" y="365.49" style="fill:#C6CBCC;" width="26.511" height="99.62"/>
<path style="fill:#D7DBDD;" d="M286.807,512c-12.877,0-24.206-6.605-30.8-16.608c-6.594,10.003-17.923,16.608-30.8,16.608  c-20.363,0-36.871-16.508-36.871-36.871s16.508-36.871,36.871-36.871c12.877,0,24.206,6.606,30.8,16.608  c6.594-10.003,17.923-16.608,30.8-16.608c20.363,0,36.871,16.508,36.871,36.871S307.17,512,286.807,512z"/>
<path style="fill:#C6CBCC;" d="M239.926,441.323c-4.508-1.975-9.484-3.064-14.719-3.064c-20.367,0-36.871,16.505-36.871,36.871  c0,20.36,16.505,36.871,36.871,36.871c5.236,0,10.212-1.089,14.719-3.064c-13.035-5.679-22.145-18.682-22.145-33.807  C217.781,459.999,226.891,447.002,239.926,441.323z"/>
<g>
</g>
<g>
</g>
<g>
</g>
<g>
</g>
<g>
</g>
<g>
</g>
<g>
</g>
<g>
</g>
<g>
</g>
<g>
</g>
<g>
</g>
<g>
</g>
<g>
</g>
<g>
</g>
<g>
</g>
</svg>
