<?xml version="1.0" encoding="iso-8859-1"?>
<!-- Generator: Adobe Illustrator 19.0.0, SVG Export Plug-In . SVG Version: 6.00 Build 0)  -->
<svg xmlns="http://www.w3.org/2000/svg" xmlns:xlink="http://www.w3.org/1999/xlink" version="1.1" id="Capa_1" x="0px" y="0px" viewBox="0 0 512 512" style="enable-background:new 0 0 512 512;" xml:space="preserve">
<path style="fill:#F4BE78;" d="M312.767,265.156l-54.814-2.276v-0.139l-1.675,0.07l-1.675-0.07v0.139c0,0-54.759,2.273-54.814,2.276  c-6.041,0.251-16.213,80.4-17.088,89.629c-3.129,32.966-2.108,67.931,10.761,98.182c10.852,25.51,32.428,45.665,56.504,51.215  c39.773,9.166,63.923-16.209,75.561-58.325c6.522-23.603,5.762-50.279,4.134-74.673C327.281,335.539,321.455,299.47,312.767,265.156  z"/>
<path style="fill:#E8A862;" d="M302.469,490.372c-13.001,13.29-30.324,18.923-52.503,13.812  c-24.079-5.556-45.658-25.701-56.503-51.214c-12.867-30.257-13.89-65.214-10.767-98.183c0.878-9.234,11.056-89.382,17.09-89.627  c0.056-0.011,38.08-2.278,38.08-2.278s-15.201,77.371-16.023,86.016c-2.934,30.846-1.978,63.581,10.067,91.894  c10.156,23.879,30.357,42.747,52.892,47.936C291.113,490.183,296.991,490.705,302.469,490.372z"/>
<path style="fill:#F95428;" d="M274.184,11.279c-11.083-7.107-25.284-7.107-36.366,0C166.503,57.012-84.698,225.197,29.194,255.234  c0,0,48.361,15.227,166.975,17.119h119.663c118.615-1.892,166.975-17.119,166.975-17.119  C596.699,225.197,345.498,57.012,274.184,11.279z"/>
<path style="fill:#E54728;" d="M511.77,230.559c-1.482,11.162-10.339,19.763-28.961,24.671c0,0-48.364,15.237-166.974,17.119  h-119.67C77.555,270.466,29.191,255.23,29.191,255.23C-84.697,225.199,166.505,57.01,237.821,11.28  c9.897-6.348,22.284-7.027,32.706-2.027C186.104,64.901-7.043,201.721,92.205,227.904c0,0,45.864,14.434,158.332,16.224h113.477  C445.927,242.822,492.501,234.818,511.77,230.559z"/>
<ellipse transform="matrix(0.6494 -0.7604 0.7604 0.6494 14.0306 370.7319)" style="fill:#FFFFFF;" cx="409.088" cy="170.149" rx="25.059" ry="40.463"/>
<path style="fill:#D7DBDD;" d="M443.902,185.072c-3.105-6.702-8.246-13.474-15.078-19.314c-16.993-14.509-38.058-17.744-47.046-7.22  c-2.631,3.071-3.933,6.987-4.037,11.36c-4.624-9.946-4.787-19.728,0.587-26.016c8.988-10.524,30.053-7.289,47.046,7.22  C437.389,161.367,444.161,174.531,443.902,185.072z"/>
<ellipse transform="matrix(-0.326 -0.9454 0.9454 -0.326 0.81 366.8399)" style="fill:#FFFFFF;" cx="131.175" cy="183.131" rx="38.546" ry="53.63"/>
<path style="fill:#D7DBDD;" d="M162.358,209.982c-5.396,3.898-11.668,7.19-18.614,9.58c-28.001,9.656-56.33,1.17-63.267-18.959  c-6.945-20.121,10.128-44.266,38.128-53.922c12.544-4.327,25.155-5.009,35.881-2.635c-5.725,0.261-11.71,1.372-17.679,3.435  c-24.524,8.452-39.484,29.6-33.397,47.229c6.078,17.629,30.888,25.063,55.412,16.61  C160.026,210.908,161.204,210.462,162.358,209.982z"/>
<ellipse transform="matrix(0.1189 -0.9929 0.9929 0.1189 140.8481 336.3091)" style="fill:#FFFFFF;" cx="259.917" cy="88.794" rx="32.638" ry="45.41"/>
<path style="fill:#D7DBDD;" d="M287.821,64.61c-2.438-0.597-4.969-1.06-7.562-1.368c-24.897-2.984-46.821,9.115-48.961,27.006  c-1.368,11.348,5.556,22.304,17.15,29.568c-20.946-5.154-35.535-20.401-33.611-36.42c2.14-17.901,24.064-29.99,48.961-27.006  C272.893,57.481,281.134,60.433,287.821,64.61z"/>
<ellipse transform="matrix(0.345 -0.9386 0.9386 0.345 6.3907 417.1569)" style="fill:#FFFFFF;" cx="302.085" cy="204" rx="22.83" ry="30.552"/>
<path style="fill:#D7DBDD;" d="M286.07,199.959c-3.261,8.868,1.152,19.136,10.247,26.162c-0.7-0.206-1.399-0.442-2.099-0.7  c-15.833-5.823-25.144-20.134-20.802-31.965c4.352-11.842,20.72-16.718,36.553-10.895c3.971,1.461,7.52,3.447,10.556,5.803  C305.37,183.683,290.226,188.632,286.07,199.959z"/>
<g>
</g>
<g>
</g>
<g>
</g>
<g>
</g>
<g>
</g>
<g>
</g>
<g>
</g>
<g>
</g>
<g>
</g>
<g>
</g>
<g>
</g>
<g>
</g>
<g>
</g>
<g>
</g>
<g>
</g>
</svg>
