<?xml version="1.0" encoding="iso-8859-1"?>
<!-- Generator: Adobe Illustrator 19.0.0, SVG Export Plug-In . SVG Version: 6.00 Build 0)  -->
<svg xmlns="http://www.w3.org/2000/svg" xmlns:xlink="http://www.w3.org/1999/xlink" version="1.1" id="Capa_1" x="0px" y="0px" viewBox="0 0 512 512" style="enable-background:new 0 0 512 512;" xml:space="preserve">
<path style="fill:#738182;" d="M256.001,150.77L256.001,150.77c-4.143,0-7.502-3.359-7.502-7.502v-46.78  c0-4.143,3.359-7.502,7.502-7.502l0,0c4.143,0,7.502,3.359,7.502,7.502v46.78C263.502,147.411,260.144,150.77,256.001,150.77z"/>
<path style="fill:#EFDA45;" d="M349.839,511.996H162.161c-6.089,0-11.072-4.982-11.072-11.072V151.823  c0-6.089,4.982-11.072,11.072-11.072h187.678c6.089,0,11.072,4.982,11.072,11.072v349.101  C360.912,507.013,355.929,511.996,349.839,511.996z"/>
<path style="fill:#F95428;" d="M271.718,11.059l-12.473-9.925c-1.899-1.511-4.591-1.511-6.491,0l-12.472,9.925  c0,0-37.441,28.601-18.678,63.581c0,0,9.381,22.932,34.396,21.889c25.016,1.042,34.396-21.889,34.396-21.889  C309.158,39.661,271.718,11.059,271.718,11.059z"/>
<path style="fill:#E53B1A;" d="M270.259,94.258c-4.044,1.574-8.776,2.502-14.259,2.273c-25.016,1.042-34.396-21.889-34.396-21.889  c-18.762-34.98,18.678-63.581,18.678-63.581l12.474-9.926c1.899-1.511,4.59-1.511,6.49-0.001l11.014,8.76l-1.469,1.167  c0,0-37.44,28.601-18.678,63.581C250.111,74.641,255.834,88.629,270.259,94.258z"/>
<path style="fill:#EDC148;" d="M203.552,140.751V512h-41.393c-6.088,0-11.066-4.987-11.066-11.076V151.827  c0-6.098,4.977-11.076,11.066-11.076H203.552z"/>
<path style="fill:#F7872B;" d="M360.907,151.827v38.934c-15.169,0.216-33.135-2.087-41.3,0.73  c-15.169,5.234-17.77,19.231-16.269,33.762c0.524,5.152,1.059,10.304,1.583,15.457c0.792,7.703,1.337,16.321-3.456,22.305  c-9.8,12.228-28.754,9.759-33.525-4.957c-3.949-12.145-0.504-25.401-3.815-37.567c-2.674-9.811-15.077-12.135-22.789-7.148  c-3.137,2.025-5.162,5.491-6.305,9.111c-1.768,5.574-1.624,11.58-1.46,17.441c0.288,10.521,0.576,21.041,0.864,31.562  c0.236,8.546,0.36,17.575-3.692,25.052c-5.337,9.872-17.822,14.779-28.425,11.693c-10.593-3.085-18.572-13.503-19.591-24.743  c-0.936-10.211,3.229-20.064,5.687-29.998c3.363-13.595,3.404-28.589-2.931-41.012c-6.346-12.423-20.054-21.411-33.556-19.169  l-0.833,0.072v-41.526c0-6.098,4.977-11.076,11.066-11.076h187.681C355.929,140.751,360.907,145.728,360.907,151.827z"/>
<path style="fill:#C6CBCC;" d="M234.229,284.685c-0.422,4.401-1.398,8.659-3.486,12.516c-5.337,9.872-17.822,14.778-28.425,11.693  c-10.593-3.085-18.572-13.503-19.591-24.743c-0.103-1.151-0.144-2.294-0.123-3.425c0.103-8.998,3.62-17.76,5.81-26.573  c1.46-5.892,2.294-12.043,2.242-18.13c-0.041-7.98-1.583-15.837-5.173-22.882c-6.346-12.423-20.054-21.411-33.556-19.17  l-0.833,0.072v-42.215c0-6.098,4.977-11.076,11.066-11.076h15.262c-2.201,2.726-5.131,4.946-7.004,7.919  c-2.9,4.628-2.87,11.076-0.401,15.848c4.412,8.525,12.515,8.505,19.313,13.842c4.258,3.342,7.764,7.631,10.222,12.443  c8.793,17.246,6.562,41.444,5.337,60.171c-0.596,9.039-2.551,23.057,3.877,30.564c6.366,7.425,16.979,7.374,25.391,3.178  C234.178,284.705,234.208,284.695,234.229,284.685z"/>
<path style="fill:#EA6C0F;" d="M234.157,284.715c-0.463,4.144-1.439,8.145-3.414,11.796c-5.337,9.872-17.822,14.779-28.425,11.693  c-10.593-3.085-18.572-13.503-19.591-24.743c-0.082-0.915-0.123-1.83-0.123-2.736c-0.082-9.245,3.569-18.223,5.81-27.263  c1.409-5.666,2.222-11.58,2.242-17.441c0.051-8.207-1.481-16.331-5.173-23.571c-6.346-12.423-20.054-21.411-33.556-19.169  l-0.833,0.072v-41.526c0-6.098,4.977-11.076,11.066-11.076h15.262c-2.201,2.726-5.131,4.946-7.004,7.919  c-2.9,4.628-2.87,11.076-0.401,15.848c4.412,8.525,12.515,8.505,19.313,13.842c4.258,3.342,7.764,7.631,10.222,12.443  c8.793,17.246,6.562,41.444,5.337,60.171c-0.596,9.039-2.551,23.057,3.877,30.564C215.132,288.963,225.745,288.911,234.157,284.715z  "/>
<g>
</g>
<g>
</g>
<g>
</g>
<g>
</g>
<g>
</g>
<g>
</g>
<g>
</g>
<g>
</g>
<g>
</g>
<g>
</g>
<g>
</g>
<g>
</g>
<g>
</g>
<g>
</g>
<g>
</g>
</svg>
