<?xml version="1.0" encoding="iso-8859-1"?>
<!-- Generator: Adobe Illustrator 19.0.0, SVG Export Plug-In . SVG Version: 6.00 Build 0)  -->
<svg xmlns="http://www.w3.org/2000/svg" xmlns:xlink="http://www.w3.org/1999/xlink" version="1.1" id="Capa_1" x="0px" y="0px" viewBox="0 0 511.996 511.996" style="enable-background:new 0 0 511.996 511.996;" xml:space="preserve">
<path style="fill:none;stroke:#000000;stroke-width:15;stroke-linecap:round;stroke-linejoin:round;stroke-miterlimit:10;" d="  M186.8,334.841c0,0-9.412,22.499,13.679,51.613c9.675,12.199,20.178,22.778,28.462,36.195c3.406,5.517,7.655,10.94,10.169,16.949  c4.428,10.584,5.476,22.41,2.238,33.474c-8.06,27.533-35.723,32.982-60.85,31.084c-15.066-1.137-34.969-6.066-40.254-22.328"/>
<path style="fill:#9F51BF;" d="M208.776,324.1c-3.475-12.497-21.975-29.186-21.975-29.186s-18.5,16.689-21.975,29.186  c-1.502,5.4,2.574,10.74,8.179,10.74H186.8h13.796C206.202,334.84,210.277,329.5,208.776,324.1z"/>
<path style="fill:#8842A8;" d="M187.712,334.843h-14.71c-5.604,0-9.681-5.337-8.181-10.745c3.474-12.496,21.98-29.181,21.98-29.181  s3.278,2.956,7.355,7.327c-5.561,5.982-9.244,12.662-11.261,19.891C181.395,327.542,182.107,334.843,187.712,334.843z"/>
<ellipse style="fill:#9F51BF;" cx="178.717" cy="150.388" rx="125.908" ry="150.388"/>
<path style="fill:#8842A8;" d="M243.421,279.431c-18.911,13.554-41.046,21.352-64.708,21.352  c-69.543,0-125.912-67.335-125.912-150.394c0-77.815,49.476-141.824,112.907-149.594c-36.667,26.289-61.205,74.247-61.205,129.043  c0,83.05,56.37,150.385,125.912,150.385C234.805,280.223,239.145,279.953,243.421,279.431z"/>
<path style="fill:none;stroke:#000000;stroke-width:15;stroke-linecap:round;stroke-linejoin:round;stroke-miterlimit:10;" d="  M355.002,354.471c-1.85,18.613-2.032,37.571-0.521,56.208c1.702,20.999,3.138,40.598,15.902,58.007  c11.649,15.888,37.123,25.669,54.959,12.821"/>
<path style="fill:#9AD14B;" d="M374.523,344.931c-3.087-11.101-19.522-25.927-19.522-25.927s-16.434,14.826-19.522,25.927  c-1.334,4.797,2.287,9.541,7.266,9.541h12.256h12.256C372.237,354.471,375.857,349.728,374.523,344.931z"/>
<path style="fill:#90BC42;" d="M355.811,354.473h-13.067c-4.978,0-8.599-4.742-7.268-9.546  c3.086-11.101,19.527-25.923,19.527-25.923s2.912,2.626,6.534,6.509c-4.941,5.314-8.211,11.248-10.004,17.67  C350.201,347.988,350.833,354.473,355.811,354.473z"/>
<ellipse style="fill:#9AD14B;" cx="347.852" cy="191.364" rx="111.343" ry="132.991"/>
<path style="fill:#90BC42;" d="M405.071,305.474c-16.722,11.986-36.296,18.881-57.22,18.881  c-61.496,0-111.343-59.543-111.343-132.992c0-68.81,43.751-125.413,99.842-132.283c-32.424,23.247-54.123,65.655-54.123,114.111  c0,73.44,49.847,132.983,111.343,132.983C397.451,306.174,401.29,305.935,405.071,305.474z"/>
<g>
</g>
<g>
</g>
<g>
</g>
<g>
</g>
<g>
</g>
<g>
</g>
<g>
</g>
<g>
</g>
<g>
</g>
<g>
</g>
<g>
</g>
<g>
</g>
<g>
</g>
<g>
</g>
<g>
</g>
</svg>
