<?xml version="1.0" encoding="iso-8859-1"?>
<!-- Generator: Adobe Illustrator 19.0.0, SVG Export Plug-In . SVG Version: 6.00 Build 0)  -->
<svg xmlns="http://www.w3.org/2000/svg" xmlns:xlink="http://www.w3.org/1999/xlink" version="1.1" id="Capa_1" x="0px" y="0px" viewBox="0 0 512 512" style="enable-background:new 0 0 512 512;" xml:space="preserve">
<path style="fill:#93511B;" d="M256,512L256,512c-11.061,0-20.027-8.966-20.027-20.027V270.609h40.054v221.364  C276.027,503.033,267.061,512,256,512z"/>
<path style="fill:#774615;" d="M266.014,509.313c-2.94,1.707-6.364,2.683-10.014,2.683c-11.062,0-20.028-8.965-20.028-20.028  V270.609H256v221.359C256,499.381,260.03,505.858,266.014,509.313z"/>
<circle style="fill:#EFDA45;" cx="255.997" cy="146.308" r="146.308"/>
<g>
	<path style="fill:#EDC148;" d="M363.138,245.935C336.417,274.65,298.306,292.611,256,292.611   c-80.798,0-146.298-65.51-146.298-146.308c0-43.745,19.205-83.008,49.636-109.822c-2.21,11.176-3.362,22.721-3.362,34.545   c0,97.967,79.431,177.398,177.398,177.398C343.512,248.423,353.464,247.569,363.138,245.935z"/>
	<path style="fill:#EDC148;" d="M388.417,198.311H123.583c-28.604,0-52.007-23.403-52.007-52.007l0,0   c0-28.604,23.403-52.007,52.007-52.007h264.835c28.604,0,52.007,23.403,52.007,52.007l0,0   C440.425,174.907,417.021,198.311,388.417,198.311z"/>
</g>
<path style="fill:#EAB049;" d="M437.975,162.023c-2.556,8.011-7.012,15.195-12.822,21.005c-9.429,9.429-22.433,15.281-36.737,15.281  H123.584c-28.608,0-52.006-23.4-52.006-52.006c0-14.304,5.853-27.308,15.27-36.726c9.429-9.428,22.433-15.281,36.737-15.281h0.687  c-1.589,4.961-2.448,10.245-2.448,15.721c0,28.597,23.41,52.006,52.006,52.006L437.975,162.023L437.975,162.023z"/>
<g>
</g>
<g>
</g>
<g>
</g>
<g>
</g>
<g>
</g>
<g>
</g>
<g>
</g>
<g>
</g>
<g>
</g>
<g>
</g>
<g>
</g>
<g>
</g>
<g>
</g>
<g>
</g>
<g>
</g>
</svg>
