<?xml version="1.0" encoding="iso-8859-1"?>
<!-- Generator: Adobe Illustrator 19.0.0, SVG Export Plug-In . SVG Version: 6.00 Build 0)  -->
<svg xmlns="http://www.w3.org/2000/svg" xmlns:xlink="http://www.w3.org/1999/xlink" version="1.1" id="Capa_1" x="0px" y="0px" viewBox="0 0 512 512" style="enable-background:new 0 0 512 512;" xml:space="preserve">
<path style="fill:#D7DBDD;" d="M406.32,511.942H105.681c-10.108,0-18.303-8.194-18.303-18.303V168.621  C87.379,75.494,162.873,0,256,0l0,0c93.127,0,168.621,75.494,168.621,168.621v325.018  C424.623,503.748,416.428,511.942,406.32,511.942z"/>
<g>
	<path style="fill:#738182;" d="M324.098,375.173H187.902c-4.268,0-7.725-3.459-7.725-7.725s3.459-7.725,7.725-7.725h136.196   c4.268,0,7.725,3.459,7.725,7.725S328.366,375.173,324.098,375.173z"/>
	<path style="fill:#738182;" d="M324.098,404.262H187.902c-4.268,0-7.725-3.459-7.725-7.725c0-4.266,3.459-7.725,7.725-7.725   h136.196c4.268,0,7.725,3.459,7.725,7.725C331.825,400.802,328.366,404.262,324.098,404.262z"/>
	<path style="fill:#738182;" d="M305.354,434.38h-98.706c-4.268,0-7.725-3.459-7.725-7.725c0-4.267,3.459-7.725,7.725-7.725h98.706   c4.268,0,7.725,3.459,7.725,7.725C313.079,430.921,309.62,434.38,305.354,434.38z"/>
	<path style="fill:#738182;" d="M208.464,217.572c9.075,0,15.972,2.107,20.692,6.316c4.718,4.212,7.079,10.057,7.079,17.534   c0,5.3-1.217,9.82-3.649,13.558c-2.434,3.741-6.008,6.517-10.727,8.331l15.028,26.9c0.218,0.436,0.327,0.836,0.327,1.198   c0,0.654-0.236,1.217-0.708,1.689c-0.473,0.473-1.034,0.708-1.688,0.708h-9.256c-1.454,0-2.524-0.344-3.213-1.035   c-0.691-0.689-1.181-1.324-1.471-1.906l-14.265-25.375h-14.486v25.375c0,0.8-0.291,1.489-0.871,2.069   c-0.581,0.582-1.271,0.871-2.069,0.871h-8.821c-0.8,0-1.489-0.289-2.069-0.871c-0.582-0.581-0.871-1.27-0.871-2.069v-70.353   c0-0.798,0.289-1.487,0.871-2.07c0.58-0.58,1.27-0.871,2.069-0.871L208.464,217.572L208.464,217.572z M192.128,251.876h15.792   c4.139,0,7.441-0.725,9.91-2.179c2.468-1.451,3.703-4.21,3.703-8.277c0-4.065-1.235-6.788-3.703-8.167   c-2.47-1.379-5.772-2.07-9.91-2.07h-15.792V251.876z"/>
	<path style="fill:#738182;" d="M253.333,293.806c-0.8,0-1.489-0.289-2.069-0.871c-0.582-0.581-0.871-1.27-0.871-2.069v-70.353   c0-0.798,0.289-1.487,0.871-2.07c0.58-0.58,1.27-0.871,2.069-0.871h8.821c0.799,0,1.488,0.291,2.069,0.871   c0.58,0.582,0.871,1.272,0.871,2.07v70.353c0,0.8-0.291,1.489-0.871,2.069c-0.581,0.582-1.271,0.871-2.069,0.871H253.333z"/>
	<path style="fill:#738182;" d="M314.21,217.572c8.784,0,15.609,2.069,20.475,6.207c4.862,4.139,7.296,10.202,7.296,18.187   c0,7.987-2.434,14.086-7.296,18.296c-4.865,4.211-11.691,6.316-20.475,6.316h-17.425v24.286c0,0.8-0.291,1.489-0.871,2.069   c-0.581,0.582-1.271,0.871-2.069,0.871h-8.821c-0.8,0-1.489-0.289-2.069-0.871c-0.582-0.581-0.871-1.27-0.871-2.069v-70.353   c0-0.798,0.289-1.487,0.871-2.07c0.58-0.58,1.27-0.871,2.069-0.871h29.186V217.572z M296.785,252.965h16.88   c4.14,0,7.442-0.817,9.911-2.451c2.467-1.633,3.703-4.481,3.703-8.549c0-4.066-1.236-6.878-3.703-8.44   c-2.47-1.561-5.772-2.342-9.911-2.342h-16.88V252.965z"/>
</g>
<path style="fill:#C6CBCC;" d="M287.062,6.132c-73.082,16.837-127.676,83.817-127.676,163.883V512h-54.241  c-9.812,0-17.767-8.162-17.767-18.232V171.656c0-92.679,72.485-169.112,162.8-169.6C262.861,1.988,275.201,3.402,287.062,6.132z"/>
<g>
	<path style="fill:#A3B1B5;" d="M282.215,3.414v67.747c0,4.264,3.461,7.725,7.725,7.725c4.264,0,7.725-3.461,7.725-7.725V5.195   c-5.026-1.277-10.136-2.328-15.327-3.142C282.256,2.497,282.215,2.95,282.215,3.414z"/>
	<path style="fill:#A3B1B5;" d="M322.46,17.164v79.675l-19.767,21.137c-1.329,1.432-2.081,3.317-2.081,5.284v40.996   c0,4.265,3.461,7.725,7.725,7.725c4.274,0,7.725-3.461,7.725-7.725v-37.948l19.767-21.137c1.339-1.432,2.081-3.317,2.081-5.284   V21.203c-4.769-2.658-9.683-5.088-14.73-7.282C322.717,14.908,322.46,16.001,322.46,17.164z"/>
	<path style="fill:#A3B1B5;" d="M197.658,58.84V13.435c0-1.01-0.196-1.978-0.556-2.864c-5.088,1.906-10.054,4.038-14.894,6.396   v45.075c0,2.05,0.814,4.007,2.256,5.459l16.275,16.275v19.963c0,4.265,3.461,7.725,7.725,7.725s7.725-3.461,7.725-7.725V80.575   c0-2.05-0.814-4.018-2.256-5.459L197.658,58.84z"/>
	<path style="fill:#A3B1B5;" d="M401.814,402.662v-26.349c0-1.834-0.649-3.606-1.834-4.995l-7.457-8.786   c-0.01-0.01-0.021-0.021-0.021-0.031l-14.153-16.666c-2.761-3.255-7.643-3.647-10.888-0.886c-3.255,2.761-3.657,7.633-0.896,10.888   l6.458,7.602l-18.242,5.479c-4.08,1.226-6.407,5.531-5.171,9.61c0.999,3.348,4.069,5.511,7.396,5.511   c0.731,0,1.483-0.103,2.215-0.33l24.721-7.406l2.421,2.843v27.039c0,2.246,0.968,4.367,2.668,5.84l30.53,26.462   c1.463,1.267,3.266,1.885,5.057,1.885v-17.944L401.814,402.662z"/>
	<path style="fill:#A3B1B5;" d="M146.824,333.051c-4.268,0-7.725,3.459-7.725,7.725v25.225l-3.102,7.991l-1.079-1.747   c-2.246-3.626-7.014-4.748-10.641-2.503c-3.626,2.246-4.748,7.004-2.503,10.641l16.409,26.524l-9.322,22.815   c-0.381,0.927-0.577,1.927-0.577,2.926v79.088c0,0.072,0,0.134,0.01,0.206h15.43c0.01-0.072,0.01-0.134,0.01-0.206v-77.573   l10.239-25.051c0.937-2.287,0.721-4.882-0.577-6.994l-7.216-11.664l7.845-20.209c0.347-0.892,0.524-1.84,0.524-2.796v-26.672   C154.549,336.51,151.091,333.051,146.824,333.051z"/>
	<path style="fill:#A3B1B5;" d="M187.893,458.016l-26.349,26.349c-1.453,1.453-2.266,3.42-2.266,5.469v21.898   c0,0.072,0,0.134,0.01,0.206h15.43c0.01-0.072,0.01-0.134,0.01-0.206v-18.706l24.083-24.082c3.018-3.018,3.018-7.911,0-10.929   C195.794,455.009,190.911,455.009,187.893,458.016z"/>
</g>
<g>
</g>
<g>
</g>
<g>
</g>
<g>
</g>
<g>
</g>
<g>
</g>
<g>
</g>
<g>
</g>
<g>
</g>
<g>
</g>
<g>
</g>
<g>
</g>
<g>
</g>
<g>
</g>
<g>
</g>
</svg>
