<?xml version="1.0" encoding="iso-8859-1"?>
<!-- Generator: Adobe Illustrator 19.0.0, SVG Export Plug-In . SVG Version: 6.00 Build 0)  -->
<svg xmlns="http://www.w3.org/2000/svg" xmlns:xlink="http://www.w3.org/1999/xlink" version="1.1" id="Capa_1" x="0px" y="0px" viewBox="0 0 310.977 310.977" style="enable-background:new 0 0 310.977 310.977;" xml:space="preserve">
<path style="fill:#9AD14B;" d="M56.321,74.03c0-17.48,14.171-31.651,31.651-31.651c4.993,0,9.713,1.16,13.912,3.219  c-2.059-4.2-3.219-8.92-3.219-13.912c0-17.48,14.171-31.651,31.651-31.651c9.357,0,17.763,4.064,23.558,10.519  c6.4-4.792,14.348-7.63,22.959-7.63c21.178,0,38.347,17.168,38.347,38.347c0,0.704-0.022,1.404-0.06,2.099  c2.52-0.646,5.161-0.99,7.883-0.99c17.48,0,31.651,14.17,31.651,31.651H56.321z"/>
<path style="fill:#90BC42;" d="M213.964,31.625c-6.202-4.318-13.74-6.85-21.872-6.85c-7.725,0-14.909,2.283-20.927,6.21  c-1.177,0.768-2.737,0.611-3.755-0.359c-5.682-5.414-13.369-8.742-21.832-8.742c-17.486,0-31.652,14.175-31.652,31.652  c0,2.755,0.352,5.424,1.014,7.969c0.588,2.264-1.476,4.329-3.74,3.741c-2.547-0.662-5.217-1.015-7.969-1.015  c-9.002,0-17.135,3.761-22.894,9.795H56.321c0-17.478,14.175-31.644,31.652-31.644c4.989,0,9.711,1.159,13.915,3.219  c-2.06-4.204-3.219-8.926-3.219-13.915c0-17.478,14.187-32.492,31.652-31.652c13.09,0.629,18.508,4.192,23.558,10.52  c6.4-4.791,14.342-7.629,22.955-7.629C194.678,2.926,209.684,15.117,213.964,31.625z"/>
<g>
	<path style="fill:#9F51BF;" d="M235.296,276.745c26.535-22.594,43.37-56.237,43.37-93.819c0-25.725-7.886-49.607-21.372-69.363   h15.284c1.702,0,3.081-1.38,3.081-3.081V77.116c0-1.702-1.38-3.081-3.081-3.081H38.4c-1.702,0-3.081,1.38-3.081,3.081v33.366   c0,1.702,1.38,3.081,3.081,3.081h14.946c-13.279,19.659-21.034,43.854-21.034,69.363c0,37.433,16.702,70.962,43.056,93.553   l-8.895,27.895c-0.842,2.64,0.554,5.483,3.119,6.351c0.507,0.171,1.02,0.252,1.526,0.252c2.055,0,3.967-1.345,4.643-3.464   l7.834-24.566c20.232,14.569,45.06,23.155,71.895,23.155c26.598,0,51.226-8.431,71.36-22.765l7.956,24.176   c0.697,2.119,2.671,3.464,4.792,3.464c0.522,0,1.051-0.081,1.574-0.253c2.647-0.867,4.087-3.71,3.219-6.351L235.296,276.745z"/>
</g>
<path style="fill:#AE67CE;" d="M257.24,113.563h15.284c1.702,0,3.081-1.38,3.081-3.081V77.116c0-1.702-1.38-3.081-3.081-3.081  H38.345c-1.702,0-3.081,1.38-3.081,3.081v33.366c0,1.702,1.38,3.081,3.081,3.081h14.946H257.24z"/>
<path style="fill:#8842A8;" d="M187.448,284.181c-68.026,0-108.752-55.148-108.752-123.175c0-16.678,3.313-32.803,9.322-47.451  V74.013L38.4,74.033c-1.702,0-3.081,1.38-3.081,3.081v33.366c0,1.702,1.38,3.081,3.081,3.081l14.951-0.006  c-13.283,19.665-21.037,43.861-21.037,69.372c0,68.026,55.148,123.175,123.175,123.175c32.82,0,62.651-12.837,84.729-33.769  C224.221,279.935,206.334,284.181,187.448,284.181z"/>
<path style="fill:#9F51BF;" d="M87.963,113.565V74.024l-49.618,0.02c-1.702,0-3.081,1.38-3.081,3.081v33.366  c0,1.702,1.38,3.081,3.081,3.081l14.951-0.006L87.963,113.565z"/>
<g>
</g>
<g>
</g>
<g>
</g>
<g>
</g>
<g>
</g>
<g>
</g>
<g>
</g>
<g>
</g>
<g>
</g>
<g>
</g>
<g>
</g>
<g>
</g>
<g>
</g>
<g>
</g>
<g>
</g>
</svg>
