<?xml version="1.0" encoding="iso-8859-1"?>
<!-- Generator: Adobe Illustrator 19.0.0, SVG Export Plug-In . SVG Version: 6.00 Build 0)  -->
<svg xmlns="http://www.w3.org/2000/svg" xmlns:xlink="http://www.w3.org/1999/xlink" version="1.1" id="Capa_1" x="0px" y="0px" viewBox="0 0 512 512" style="enable-background:new 0 0 512 512;" xml:space="preserve">
<path style="fill:#738182;" d="M50.638,367.608L320.65,94.852l140.671,139.255c1.691,1.674,2.025,4.286,0.803,6.328  c-14.555,24.309-106.182,170.04-268.121,270.787c-2.032,1.264-4.673,0.96-6.374-0.723L50.675,374.924  C48.644,372.914,48.628,369.639,50.638,367.608z"/>
<path style="fill:#576666;" d="M187.626,510.494L50.675,374.92c-2.028-2.007-2.049-5.277-0.041-7.315l202.855-204.904  C218.032,228.337,160.643,363.157,187.626,510.494z"/>
<path style="fill:#D7DBDD;" d="M462.127,240.432c-14.557,24.313-106.182,170.047-268.128,270.787  c-2.028,1.273-4.666,0.962-6.374-0.724l-13.419-13.284C336.422,367.017,413.086,264.043,443.4,216.367l17.919,17.743  C463.017,235.786,463.348,238.393,462.127,240.432z"/>
<path style="fill:#93511B;" d="M451.887,56.397l-84.182,85.038l-47.055-46.581l84.182-85.038  c12.863-12.994,33.824-13.1,46.818-0.237l0,0C464.644,22.442,464.75,43.403,451.887,56.397z"/>
<path style="fill:#774615;" d="M453.861,12.011c-7.181,1.8-13.957,5.535-19.544,11.173l-92.091,93.022l-21.572-21.354l84.175-85.034  C417.69-3.176,438.65-3.28,451.646,9.58C452.433,10.356,453.178,11.173,453.861,12.011z"/>
<circle style="fill:#D7DBDD;" cx="130.613" cy="371.618" r="20.369"/>
<path id="SVGCleanerId_0" style="fill:#F95428;" d="M350.08,383.619c0.006,0.007,0.004,0.005,0.01,0.012  c-41.236,42.83-93.394,88.583-156.092,127.59c-2.033,1.265-4.676,0.961-6.377-0.723l-62.124-61.501c0,0-0.745-33.397,52.02-30.293  C177.518,418.704,272.831,430.744,350.08,383.619z"/>
<g>
	<path id="SVGCleanerId_0_1_" style="fill:#F95428;" d="M350.08,383.619c0.006,0.007,0.004,0.005,0.01,0.012   c-41.236,42.83-93.394,88.583-156.092,127.59c-2.033,1.265-4.676,0.961-6.377-0.723l-62.124-61.501c0,0-0.745-33.397,52.02-30.293   C177.518,418.704,272.831,430.744,350.08,383.619z"/>
</g>
<path id="SVGCleanerId_1" style="fill:#E54728;" d="M187.626,510.494l-62.128-61.507c-0.01-0.797-0.104-33.345,52.02-30.283  c0,0,1.159,0.145,3.311,0.341C179.98,448.605,181.905,479.27,187.626,510.494z"/>
<g>
	<path id="SVGCleanerId_1_1_" style="fill:#E54728;" d="M187.626,510.494l-62.128-61.507c-0.01-0.797-0.104-33.345,52.02-30.283   c0,0,1.159,0.145,3.311,0.341C179.98,448.605,181.905,479.27,187.626,510.494z"/>
</g>
<g>
</g>
<g>
</g>
<g>
</g>
<g>
</g>
<g>
</g>
<g>
</g>
<g>
</g>
<g>
</g>
<g>
</g>
<g>
</g>
<g>
</g>
<g>
</g>
<g>
</g>
<g>
</g>
<g>
</g>
</svg>
