<?xml version="1.0" encoding="iso-8859-1"?>
<!-- Generator: Adobe Illustrator 19.0.0, SVG Export Plug-In . SVG Version: 6.00 Build 0)  -->
<svg xmlns="http://www.w3.org/2000/svg" xmlns:xlink="http://www.w3.org/1999/xlink" version="1.1" id="Capa_1" x="0px" y="0px" viewBox="0 0 512 512" style="enable-background:new 0 0 512 512;" xml:space="preserve">
<path style="fill:#BFDFE8;" d="M322.576,113.804v-60.47h12.136c2.575,0,4.662-2.088,4.662-4.662V4.662  c0-2.575-2.088-4.662-4.662-4.662H177.289c-2.575,0-4.662,2.088-4.662,4.662v44.01c0,2.575,2.088,4.662,4.662,4.662h12.136v60.47  C109.091,141.431,51.361,217.65,51.361,307.36c0,113.019,91.62,204.639,204.639,204.639s204.639-91.62,204.639-204.639  C460.639,217.65,402.909,141.431,322.576,113.804z"/>
<path style="fill:#94D3DD;" d="M128.783,307.358c0-94.073,28.706-170.553,111.667-194.207c1.147-0.257,1.963-1.275,1.963-2.451  V53.335h0.169V0H177.29c-2.575,0-4.662,2.088-4.662,4.662v44.01c0,2.575,2.088,4.662,4.662,4.662h12.136v60.463  C110.541,140.926,53.46,214.895,51.417,302.493c-2.664,114.217,87.606,207.995,201.845,209.487  c14.185,0.185,28.059-1.071,41.455-3.641C200.205,490.246,128.783,407.149,128.783,307.358z"/>
<path style="fill:#9AD14B;" d="M460.64,307.36C460.64,420.383,369.024,512,256,512c-107.295,0-195.295-82.554-203.939-187.623  c0,0,47.151-18.878,186.807-17.435c13.243,0.136,26.487,0.774,39.688,1.84c44.424,3.596,165.474,11.362,181.947-9.021  C460.598,302.279,460.64,304.82,460.64,307.36z"/>
<path style="fill:#8CB239;" d="M294.617,508.384c-6.353,2.126-15.534,2.42-22.311,2.968c-21.932,1.771-46.103-0.49-67.434-6.096  c-16.946-4.453-33.896-10.86-49.184-19.482c-11.362-6.407-22.055-13.86-31.943-22.243c-2.122-2.237-4.64-4.212-7.034-6.25  c-0.878-0.742-1.746-1.495-2.561-2.279c-6.083-5.811-11.728-12.042-17.111-18.501c-8.529-10.265-16.337-21.354-22.023-33.469  c-0.094-0.188-0.178-0.387-0.272-0.575c-5.31-11.341-10.15-22.222-14.038-33.772c-4.442-14.163-7.39-28.995-8.644-44.308  c-0.106-1.297,19.587-5.343,20.786-5.597c12.75-2.698,25.787-4.692,38.808-6.117c1.255-0.137,17.159-1.573,17.158-1.885  c0.035,14.979,2.15,30.117,5.651,44.663c9.151,38.006,29.407,72.979,57.675,99.964c14.014,13.378,29.92,24.762,47.116,33.69  C257.008,498.31,275.371,503.502,294.617,508.384z"/>
<g>
	<circle style="fill:#CBF777;" cx="322.581" cy="385.553" r="30.338"/>
	<circle style="fill:#CBF777;" cx="215.914" cy="405.881" r="20.178"/>
</g>
<g>
</g>
<g>
</g>
<g>
</g>
<g>
</g>
<g>
</g>
<g>
</g>
<g>
</g>
<g>
</g>
<g>
</g>
<g>
</g>
<g>
</g>
<g>
</g>
<g>
</g>
<g>
</g>
<g>
</g>
</svg>
