<?xml version="1.0" encoding="iso-8859-1"?>
<!-- Generator: Adobe Illustrator 19.0.0, SVG Export Plug-In . SVG Version: 6.00 Build 0)  -->
<svg version="1.1" id="Capa_1" xmlns="http://www.w3.org/2000/svg" xmlns:xlink="http://www.w3.org/1999/xlink" x="0px" y="0px"
	 viewBox="0 0 512 512" style="enable-background:new 0 0 512 512;" xml:space="preserve">
<path style="fill:#00DDC2;" d="M289.066,451.206c-0.846-3.364-1.299-6.882-1.299-10.507c0-17.56,10.534-32.652,25.626-39.319
	c5.685-2.512,10.508-6.73,13.304-12.28c8.663-17.193,26.463-28.988,47.03-28.988c16.21,0,30.704,7.328,40.359,18.85
	c4.38,5.226,10.501,8.613,17.243,9.631c13.687,2.068,35.274,10.312,36.954,41.151c0.426,7.829-2.15,15.177-5.881,21.463H289.066
	V451.206z"/>
<path style="fill:#00AA95;" d="M430.251,388.38c-6.312-1.204-12.02-4.475-16.165-9.419c-9.656-11.522-24.151-18.85-40.359-18.85
	c-20.567,0-38.367,11.797-47.03,28.988c-2.797,5.55-7.619,9.768-13.304,12.28c-15.092,6.667-25.626,21.758-25.626,39.319
	c0,3.625,0.454,7.144,1.299,10.507h151.195C442.32,425.374,438.016,404.768,430.251,388.38z"/>
<path style="fill:#898890;" d="M295.505,36.964h-22.176V13.839C273.329,6.196,267.134,0,259.49,0
	c-7.644,0-13.839,6.196-13.839,13.839v23.124h-22.176c-7.644,0-13.839,6.196-13.839,13.839s6.195,13.839,13.839,13.839h22.176V108.1
	c0,7.644,6.196,13.839,13.839,13.839c7.644,0,13.839-6.196,13.839-13.839V64.643h22.176c7.644,0,13.839-6.196,13.839-13.839
	S303.149,36.964,295.505,36.964z"/>
<path style="fill:#787680;" d="M259.491,121.938c7.644,0,13.839-6.196,13.839-13.839V83.538c-4.563-0.392-9.177-0.605-13.839-0.605
	c-4.663,0-9.276,0.212-13.839,0.605v24.561C245.651,115.744,251.847,121.938,259.491,121.938z"/>
<path style="fill:#C6C5CA;" d="M399.136,443.923V243.184c0-76.805-62.84-139.645-139.645-139.645l0,0
	c-76.804,0-139.645,62.84-139.645,139.645v200.74h279.29V443.923z"/>
<path style="fill:#ACABB1;" d="M301.906,110.173c-13.391-4.302-27.643-6.634-42.416-6.634l0,0
	c-76.804,0-139.645,62.84-139.645,139.645v200.74h84.831v-200.74C204.677,181.15,245.673,128.236,301.906,110.173z"/>
<path style="fill:#FF3F62;" d="M227.428,451.206c0.846-3.364,1.299-6.882,1.299-10.507c0-17.56-10.534-32.652-25.626-39.319
	c-5.685-2.512-10.508-6.73-13.304-12.28c-8.663-17.193-26.463-28.988-47.03-28.988c-16.21,0-30.704,7.328-40.359,18.85
	c-4.38,5.226-10.501,8.613-17.243,9.631c-13.687,2.068-35.274,10.312-36.954,41.151c-0.426,7.829,2.15,15.177,5.881,21.463h173.335
	V451.206z"/>
<path style="fill:#D80027;" d="M120.641,430.979c1.678-30.838,23.267-39.083,36.954-41.151c6.743-1.019,12.863-4.405,17.243-9.631
	c1.486-1.773,3.099-3.433,4.803-4.996c-9.495-9.329-22.506-15.09-36.872-15.09c-16.21,0-30.704,7.328-40.359,18.85
	c-4.38,5.226-10.501,8.613-17.243,9.631c-13.687,2.068-35.274,10.312-36.954,41.151c-0.426,7.829,2.149,15.177,5.881,21.463h71.719
	C122.471,445.201,120.242,438.301,120.641,430.979z"/>
<path style="fill:#E0E0E2;" d="M462.849,512H49.15c-18.721,0-34.038-15.318-34.038-34.038l0,0c0-18.721,15.318-34.038,34.038-34.038
	H462.85c18.721,0,34.038,15.318,34.038,34.038l0,0C496.888,496.682,481.57,512,462.849,512z"/>
<path style="fill:#C6C5CA;" d="M141.572,477.962L141.572,477.962c0-18.721,15.317-34.038,34.038-34.038H49.15
	c-18.721,0-34.038,15.318-34.038,34.038l0,0C15.112,496.683,30.429,512,49.15,512h126.46
	C156.889,512,141.572,496.682,141.572,477.962z"/>
<g>
	<path style="fill:#787680;" d="M308.367,298.314c-4.268,0-7.726-3.458-7.726-7.726v-84.248c0-3.786,2.743-7.015,6.48-7.624
		c1.078-0.178,26.543-4.158,42.12,9.081c7.678,6.524,11.57,15.751,11.57,27.424c0,11.643-3.873,20.983-11.513,27.761
		c-10.025,8.895-24.188,10.824-33.204,11.047v16.559C316.093,294.855,312.635,298.314,308.367,298.314z M316.093,213.482v45.103
		c7.098-0.23,16.929-1.796,22.982-7.193c4.228-3.769,6.283-9.059,6.283-16.173c0-7.028-2.003-12.148-6.123-15.649
		C332.858,214.154,322.697,213.338,316.093,213.482z"/>
	<path style="fill:#787680;" d="M205.4,264.159c0.481-0.383,12.941-8.159,12.941-28.939c0-11.673-3.892-20.9-11.57-27.424
		c-15.577-13.24-41.042-9.259-42.12-9.081c-3.736,0.611-6.48,3.839-6.48,7.624v84.248c0,4.268,3.458,7.726,7.726,7.726
		s7.726-3.458,7.726-7.726v-16.559c4.928-0.122,11.395-0.763,17.883-2.764l7.557,21.849c2.491,6.878,8.992,5.065,9.828,4.776
		c4.032-1.395,6.171-5.795,4.776-9.828L205.4,264.159z M173.624,213.482c6.608-0.145,16.764,0.671,23.141,6.087
		c4.121,3.502,6.123,8.622,6.123,15.649c0,7.113-2.055,12.403-6.283,16.173c-6.053,5.397-15.884,6.964-22.982,7.193v-45.102H173.624
		z"/>
	<path style="fill:#787680;" d="M259.491,298.314c-4.268,0-7.726-3.458-7.726-7.726v-84.854c0-4.268,3.458-7.726,7.726-7.726
		c4.268,0,7.726,3.458,7.726,7.726v84.854C267.217,294.855,263.758,298.314,259.491,298.314z"/>
</g>
<g>
</g>
<g>
</g>
<g>
</g>
<g>
</g>
<g>
</g>
<g>
</g>
<g>
</g>
<g>
</g>
<g>
</g>
<g>
</g>
<g>
</g>
<g>
</g>
<g>
</g>
<g>
</g>
<g>
</g>
</svg>
