<?xml version="1.0" standalone="no"?>
<!DOCTYPE svg PUBLIC "-//W3C//DTD SVG 20010904//EN"
 "http://www.w3.org/TR/2001/REC-SVG-20010904/DTD/svg10.dtd">
<svg version="1.0" xmlns="http://www.w3.org/2000/svg"
 width="600.000000pt" height="600.000000pt" viewBox="0 0 600.000000 600.000000"
 preserveAspectRatio="xMidYMid meet">
<metadata>
Created by potrace 1.11, written by Peter Selinger 2001-2013
</metadata>
<g transform="translate(0.000000,600.000000) scale(0.100000,-0.100000)"
fill="#000000" stroke="none">
<path d="M337 5348 c-40 -30 -38 62 -40 -2553 -2 -1609 1 -1925 17 -2035 9
-62 19 -101 28 -106 19 -12 148 28 177 55 36 33 54 96 48 165 -2 28 0 65 5 81
12 37 18 266 7 259 -9 -5 -5 3810 5 3846 13 54 14 126 1 155 -24 52 -96 122
-140 134 -52 14 -87 14 -108 -1z m54 -1345 c1 -54 3 -183 4 -288 1 -104 6
-255 11 -335 17 -313 6 -746 -21 -828 -20 -58 -25 120 -9 288 11 117 11 155
-2 251 -8 60 -10 146 -6 239 7 184 8 552 1 649 -6 79 -2 121 12 121 5 0 10
-44 10 -97z m-15 -1683 c-5 -45 -16 -49 -16 -7 0 21 4 37 10 37 5 0 8 -14 6
-30z m62 -1204 c0 -39 -7 -87 -14 -106 -12 -32 -13 -27 -9 65 2 55 4 109 5
120 0 16 2 17 9 6 5 -8 9 -46 9 -85z"/>
<path d="M2147 5224 c-3 -3 -149 -17 -179 -18 -16 -1 -28 -4 -28 -7 0 -4 -21
-10 -47 -15 -65 -11 -67 -11 -75 -14 -5 -1 -12 -4 -18 -5 -5 -1 -11 -3 -12 -4
-2 -2 -14 -5 -28 -8 -31 -6 -41 -8 -60 -16 -36 -13 -372 -117 -443 -137 -42
-11 -82 -18 -87 -15 -6 3 -10 2 -10 -3 0 -5 -6 -9 -12 -10 -29 -2 -79 -12
-117 -22 -78 -21 -170 -27 -263 -17 -51 6 -61 4 -85 -17 l-28 -24 -1 -709 c-1
-698 -6 -998 -21 -1263 -9 -157 -11 -606 -2 -614 3 -3 19 -2 37 3 17 5 66 12
109 15 93 7 192 17 213 21 192 39 477 146 760 285 140 69 347 157 354 149 2
-2 6 -24 9 -49 3 -25 11 -79 17 -120 5 -41 13 -93 15 -115 3 -22 8 -51 10 -65
3 -14 7 -50 10 -80 14 -148 24 -177 67 -216 80 -73 223 -100 373 -69 165 34
309 100 535 245 151 97 428 256 496 285 212 91 493 176 689 210 157 27 500 37
720 22 103 -7 232 -35 283 -61 36 -19 42 -13 42 37 0 32 -10 53 -53 111 -30
39 -101 143 -159 231 -102 156 -150 216 -273 341 -89 90 -128 116 -342 229
-117 62 -114 53 -31 125 109 93 108 92 178 138 102 67 260 144 440 215 197 77
204 80 210 82 3 1 41 13 85 27 44 14 116 31 160 38 96 14 125 24 125 45 0 8
-3 15 -7 15 -5 0 -19 17 -33 37 -50 74 -361 252 -561 321 -85 30 -274 75 -359
86 -134 18 -193 21 -385 21 -366 0 -457 -16 -856 -149 -222 -74 -364 -114
-457 -131 -15 -2 -51 -9 -80 -15 -29 -5 -91 -13 -137 -16 -97 -7 -97 -8 -95
103 1 38 0 86 -2 108 -2 22 1 43 6 48 8 5 8 9 1 15 -12 8 -13 27 -2 38 4 4 7
12 7 18 0 6 -5 4 -10 -4 -8 -13 -10 -13 -10 2 0 9 6 19 13 21 10 4 10 6 0 6
-7 1 -13 8 -13 17 0 9 5 12 13 8 9 -6 9 -4 -1 8 -7 9 -12 29 -11 44 1 16 -2
38 -6 48 -6 15 -5 17 5 11 9 -6 11 -4 5 4 -4 7 -9 28 -11 46 -4 50 -31 83 -70
91 -20 4 -31 11 -27 17 3 6 1 7 -6 3 -6 -4 -37 -2 -69 5 -44 9 -396 21 -405
13z"/>
</g>
</svg>
