<?xml version="1.0" encoding="iso-8859-1"?>
<!-- Generator: Adobe Illustrator 19.0.0, SVG Export Plug-In . SVG Version: 6.00 Build 0)  -->
<svg version="1.1" id="Layer_1" xmlns="http://www.w3.org/2000/svg" xmlns:xlink="http://www.w3.org/1999/xlink" x="0px" y="0px"
	 viewBox="0 0 512 512" style="enable-background:new 0 0 512 512;" xml:space="preserve">
<polyline style="fill:#CEBE9B;" points="434.625,512 434.625,353.186 255.999,256.001 77.373,353.186 77.373,512 "/>
<polygon style="fill:#CC9758;" points="434.611,353.183 434.611,511.999 77.371,511.999 77.371,353.183 144.856,359.677 
	170.987,379.195 193.585,396.072 255.991,374.521 318.397,396.072 367.126,359.677 "/>
<g>
	<polygon style="fill:#B5A483;" points="367.129,359.679 318.41,396.068 255.999,374.517 255.999,256 	"/>
	<polygon style="fill:#B5A483;" points="255.999,256 144.871,359.679 77.377,353.183 	"/>
</g>
<polygon style="fill:#C18C52;" points="170.984,379.191 170.984,512 77.369,512 77.369,353.183 144.861,359.679 "/>
<polyline style="fill:#B5A483;" points="434.631,0.001 434.631,158.815 256.004,256 77.379,158.815 77.379,0.001 "/>
<polygon style="fill:#CC9758;" points="434.623,0 434.623,158.817 367.126,152.323 318.409,115.928 255.991,137.479 
	193.585,115.928 170.987,132.805 144.868,152.323 77.371,158.817 77.371,0 "/>
<g>
	<polygon style="fill:#CEBE9B;" points="367.134,152.323 318.415,115.934 256.005,137.484 256.005,256.001 	"/>
	<polygon style="fill:#CEBE9B;" points="256.005,256.001 144.875,152.323 77.382,158.819 	"/>
</g>
<polygon style="fill:#C18C52;" points="170.99,132.81 170.99,0.002 77.374,0.002 77.374,158.819 144.867,152.324 "/>
<g>
	<path style="fill:#B78349;" d="M383.043,454.055c-4.926,0-8.92-3.994-8.92-8.92v-26.745c0-4.926,3.994-8.92,8.92-8.92
		c4.926,0,8.92,3.994,8.92,8.92v26.745C391.963,450.061,387.97,454.055,383.043,454.055z"/>
	<path style="fill:#B78349;" d="M391.96,476.973V512h-17.841v-35.027c0-4.924,3.996-8.92,8.92-8.92
		C387.975,468.053,391.96,472.049,391.96,476.973z"/>
	<path style="fill:#B78349;" d="M391.96,0v93.615c0,4.924-3.984,8.92-8.92,8.92c-4.924,0-8.92-3.996-8.92-8.92V0H391.96z"/>
	<path style="fill:#B78349;" d="M179.907,0v15.926c0,4.924-3.996,8.92-8.92,8.92s-8.92-3.996-8.92-8.92V0H179.907z"/>
	<path style="fill:#B78349;" d="M170.984,102.533c-4.926,0-8.92-3.994-8.92-8.92v-45.85c0-4.926,3.994-8.92,8.92-8.92
		c4.926,0,8.92,3.994,8.92,8.92v45.85C179.905,98.539,175.911,102.533,170.984,102.533z"/>
	<path style="fill:#B78349;" d="M290.709,0v55.401c0,4.936-3.996,8.92-8.92,8.92s-8.92-3.984-8.92-8.92V0H290.709z"/>
	<path style="fill:#B78349;" d="M145.51,418.385V512H127.67v-93.615c0-4.924,3.996-8.92,8.92-8.92
		C141.526,409.464,145.51,413.461,145.51,418.385z"/>
	<path style="fill:#B78349;" d="M346.11,456.599V512h-17.841v-55.401c0-4.924,3.996-8.92,8.92-8.92S346.11,451.675,346.11,456.599z"
		/>
</g>
<g>
</g>
<g>
</g>
<g>
</g>
<g>
</g>
<g>
</g>
<g>
</g>
<g>
</g>
<g>
</g>
<g>
</g>
<g>
</g>
<g>
</g>
<g>
</g>
<g>
</g>
<g>
</g>
<g>
</g>
</svg>
