<?xml version="1.0" encoding="iso-8859-1"?>
<!-- Generator: Adobe Illustrator 19.0.0, SVG Export Plug-In . SVG Version: 6.00 Build 0)  -->
<svg version="1.1" id="Layer_1" xmlns="http://www.w3.org/2000/svg" xmlns:xlink="http://www.w3.org/1999/xlink" x="0px" y="0px"
	 viewBox="0 0 512.001 512.001" style="enable-background:new 0 0 512.001 512.001;" xml:space="preserve">
<path style="fill:#72C5D5;" d="M388.906,252.038c0,55.499-16.05,105.539-41.779,140.813H164.884
	c-25.729-35.273-41.79-85.314-41.79-140.813c0-42.961,9.623-82.657,25.92-114.757c5.414-10.692,11.581-20.552,18.391-29.41
	c23.501-30.636,54.553-49.252,88.6-49.252s65.1,18.616,88.6,49.252c6.798,8.858,12.966,18.717,18.38,29.41
	C379.283,169.38,388.906,209.077,388.906,252.038z"/>
<path style="fill:#FED159;" d="M344.603,107.876H167.4c23.514-30.63,54.556-49.255,88.601-49.255c0.636,0,1.261,0.011,1.896,0.024
	c0.436,0,0.86,0.011,1.284,0.035c3.169,0.106,6.314,0.377,9.436,0.801c0.518,0.071,1.037,0.142,1.555,0.224
	c0.931,0.142,1.849,0.306,2.78,0.472c2.215,0.412,4.429,0.907,6.609,1.472C304.29,68.092,326.638,84.48,344.603,107.876z"/>
<path style="fill:#5CB1BC;" d="M221.565,137.281h141.42c-5.414-10.692-11.582-20.552-18.38-29.41H214.531
	c17.959-23.388,40.308-39.782,65.033-46.219c-7.647-1.991-15.521-3.031-23.561-3.031c-34.038,0-65.08,18.629-88.593,49.25h-0.003
	c-0.012,0.016-0.023,0.033-0.035,0.048c-27.173,35.415-44.278,86.856-44.278,144.114c0,55.498,16.057,105.541,41.786,140.813H212
	c-25.729-35.271-41.786-85.315-41.786-140.813c0-32.265,5.431-62.683,15.032-89.429C190.728,147.344,205.35,137.281,221.565,137.281
	z"/>
<path style="fill:#EAB94E;" d="M279.563,61.649c-24.727,6.444-47.087,22.831-65.04,46.227h-47.122
	c23.514-30.63,54.556-49.255,88.601-49.255c0.636,0,1.261,0.011,1.896,0.024c0.436,0,0.86,0.011,1.284,0.035
	c3.169,0.106,6.314,0.377,9.436,0.801c0.518,0.071,1.037,0.142,1.555,0.224c0.931,0.142,1.849,0.306,2.78,0.472
	C275.169,60.588,277.384,61.083,279.563,61.649z"/>
<path style="fill:#FED159;" d="M386.765,116.317H125.237c-4.663,0-8.441-3.779-8.441-8.441c0-4.662,3.778-8.441,8.441-8.441h261.528
	c4.663,0,8.441,3.779,8.441,8.441C395.206,112.537,391.428,116.317,386.765,116.317z"/>
<g>
	<path style="fill:#EAB94E;" d="M165.193,107.876c0-4.662,3.778-8.441,8.441-8.441h-48.397c-4.663,0-8.441,3.779-8.441,8.441
		c0,4.662,3.778,8.441,8.441,8.441h48.397C168.972,116.317,165.193,112.537,165.193,107.876z"/>
	<path style="fill:#EAB94E;" d="M256.002,67.062c-18.49,0-33.531-15.042-33.531-33.531S237.512,0,256.002,0
		c18.49,0,33.531,15.042,33.531,33.531S274.491,67.062,256.002,67.062z M256.002,16.883c-9.18,0-16.649,7.469-16.649,16.649
		s7.469,16.649,16.649,16.649c9.18,0,16.649-7.469,16.649-16.649S265.182,16.883,256.002,16.883z"/>
</g>
<path style="fill:#4D4D4D;" d="M256.002,312.86L256.002,312.86c-4.972,0-9.004,4.032-9.004,9.004v31.514h18.008v-31.514
	C265.006,316.891,260.975,312.86,256.002,312.86z"/>
<path style="fill:#EE4948;" d="M242.711,144.15c0,84.426-59.753,70.138-58.457,127.3c0.585,25.358,17.49,42.2,39.479,49.979
	c6.292,2.224,11.999-4.5,8.911-10.397c-9.076-17.325-15.075-45.504,20.464-69.465c1.602,32.501,28.574,37.662,28.574,61.05
	c0,2.961-0.19,5.619-0.509,8.008c-0.788,5.771,5.199,10.092,10.448,7.601c18.507-8.783,32.743-24.697,35.527-48.073
	C336.238,193.493,242.711,144.15,242.711,144.15z"/>
<path style="fill:#5E93CC;" d="M287.288,342.361h-62.573c-9.397,0-17.014,7.617-17.014,17.014v46.902h96.6v-46.902
	C304.302,349.978,296.685,342.361,287.288,342.361z"/>
<path style="fill:#568EBF;" d="M253.979,342.361h-29.263c-9.397,0-17.014,7.617-17.014,17.014v46.902h29.263v-46.902
	C236.965,349.978,244.583,342.361,253.979,342.361z"/>
<path style="fill:#FED159;" d="M387.974,457.81h-4.743v-19.495c0-26.969-21.863-48.832-48.832-48.832H177.604
	c-26.969,0-48.832,21.863-48.832,48.832v19.495h-4.743c-14.297,0-25.887,11.589-25.887,25.887v2.416
	c0,14.296,11.589,25.887,25.887,25.887h263.944c14.297,0,25.887-11.59,25.887-25.887v-2.416
	C413.861,469.399,402.271,457.81,387.974,457.81z"/>
<path style="fill:#EAB94E;" d="M232.897,389.483h-53.013c-28.229,0-51.112,22.884-51.112,51.112v17.216h-3.534
	c-14.965,0-27.096,12.131-27.096,27.096c0,14.964,12.131,27.096,27.096,27.096h70.683c-14.965,0-27.096-12.131-27.096-27.096
	c0-14.965,12.131-27.096,27.096-27.096h-14.136v-17.216C181.784,412.366,204.668,389.483,232.897,389.483z"/>
<ellipse transform="matrix(-0.2553 -0.9669 0.9669 -0.2553 235.2005 572.7781)" style="fill:#9CE6EF;" cx="338.186" cy="195.81" rx="29.264" ry="16.883"/>
<g>
</g>
<g>
</g>
<g>
</g>
<g>
</g>
<g>
</g>
<g>
</g>
<g>
</g>
<g>
</g>
<g>
</g>
<g>
</g>
<g>
</g>
<g>
</g>
<g>
</g>
<g>
</g>
<g>
</g>
</svg>
