<?xml version="1.0" encoding="iso-8859-1"?>
<!-- Generator: Adobe Illustrator 19.0.0, SVG Export Plug-In . SVG Version: 6.00 Build 0)  -->
<svg version="1.1" id="Layer_1" xmlns="http://www.w3.org/2000/svg" xmlns:xlink="http://www.w3.org/1999/xlink" x="0px" y="0px"
	 viewBox="0 0 512.001 512.001" style="enable-background:new 0 0 512.001 512.001;" xml:space="preserve">
<path style="fill:#5E93CC;" d="M495.574,189.372v38.353l-19.944,8.668c-28.276,12.286-46.086,40.112-46.086,70.258
	c0,3.592,0.249,7.222,0.774,10.864c4.627,32.341-11.762,64.059-40.823,79.001l-44.14,22.7V288.455l12.249-5.438
	c5.251-2.332,9.878-5.749,13.62-9.94c3.741-4.191,6.61-9.155,8.344-14.643c10.515-33.314,39.127-57.711,73.701-62.812
	L495.574,189.372z"/>
<path style="fill:#4E84AD;" d="M453.267,195.62c0,0-66.206,30.084-62.35,95.616c4.991,84.816-45.563,78.578-45.563,78.578v-81.359
	l12.249-5.438c5.251-2.332,9.878-5.749,13.62-9.94c3.741-4.191,6.61-9.155,8.344-14.643
	C390.081,225.118,418.693,200.721,453.267,195.62z"/>
<circle style="fill:#CEBE9B;" cx="194.465" cy="120.936" r="16.97"/>
<path style="fill:#5E93CC;" d="M357.475,211.562H31.466v231.211c0,38.234,30.994,69.229,69.229,69.229h187.552
	c38.234,0,69.229-30.994,69.229-69.229V211.562H357.475z"/>
<path style="fill:#4E84AD;" d="M78.862,439.582v-228.02H31.466v228.02c0,39.996,32.424,72.419,72.419,72.419h47.395
	C111.285,512,78.862,479.578,78.862,439.582z"/>
<path style="fill:#5E93CC;" d="M344.69,211.562H44.25l3.896-6.038c29.325-45.442,85.406-73.682,146.323-73.682l0,0
	c60.917,0,116.999,28.24,146.323,73.682L344.69,211.562z"/>
<path style="fill:#4E84AD;" d="M221.286,133.698c-8.785-1.216-17.745-1.856-26.816-1.856l0,0
	c-60.917,0-116.999,28.24-146.323,73.682l-3.896,6.037h53.632l3.896-6.037C126.736,166.849,171.079,140.648,221.286,133.698z"/>
<g>
	<path style="fill:#CCCCCC;" d="M31.466,220.645c-5.021,0-9.09-4.071-9.09-9.09V92.05c0-42.11,34.26-76.37,76.37-76.37h9.429
		c5.021,0,9.09,4.071,9.09,9.09s-4.071,9.09-9.09,9.09h-9.429c-32.085,0-58.189,26.103-58.189,58.189v119.505
		C40.556,216.574,36.486,220.645,31.466,220.645z"/>
	<path style="fill:#CCCCCC;" d="M357.475,220.645c-5.021,0-9.09-4.071-9.09-9.09V92.05c0-32.085-26.104-58.189-58.189-58.189h-1.438
		c-5.021,0-9.09-4.071-9.09-9.09s4.069-9.09,9.09-9.09h1.438c42.111,0,76.371,34.26,76.371,76.37v119.505
		C366.565,216.574,362.496,220.645,357.475,220.645z"/>
</g>
<path style="fill:#4E84AD;" d="M361.717,220.652H25.518c-5.021,0-9.09-4.071-9.09-9.09c0-5.021,4.071-9.09,9.09-9.09h336.199
	c5.021,0,9.09,4.071,9.09,9.09S366.738,220.652,361.717,220.652z"/>
<path style="fill:#5E93CC;" d="M270.277,49.54H126.654c-10.206,0-18.481-8.275-18.481-18.481V18.481
	C108.173,8.275,116.448,0,126.654,0h143.622c10.206,0,18.481,8.275,18.481,18.481V31.06C288.756,41.267,280.483,49.54,270.277,49.54
	z"/>
<path style="fill:#4E84AD;" d="M131.203,30.753V18.787C131.203,8.411,139.614,0,149.99,0H126.96
	c-10.375,0-18.787,8.411-18.787,18.787v11.967c0,10.375,8.412,18.787,18.787,18.787h23.029
	C139.614,49.54,131.203,41.13,131.203,30.753z"/>
<g>
</g>
<g>
</g>
<g>
</g>
<g>
</g>
<g>
</g>
<g>
</g>
<g>
</g>
<g>
</g>
<g>
</g>
<g>
</g>
<g>
</g>
<g>
</g>
<g>
</g>
<g>
</g>
<g>
</g>
</svg>
