<?xml version="1.0" encoding="iso-8859-1"?>
<!-- Generator: Adobe Illustrator 19.0.0, SVG Export Plug-In . SVG Version: 6.00 Build 0)  -->
<svg version="1.1" id="Layer_1" xmlns="http://www.w3.org/2000/svg" xmlns:xlink="http://www.w3.org/1999/xlink" x="0px" y="0px"
	 viewBox="0 0 512 512" style="enable-background:new 0 0 512 512;" xml:space="preserve">
<g>
	<polygon style="fill:#CCCCCC;" points="512,31.95 295.78,203.727 276.533,179.518 492.752,7.739 	"/>
	
		<rect x="459.173" y="8.662" transform="matrix(-0.6223 -0.7828 0.7828 -0.6223 753.6057 397.5875)" style="fill:#CCCCCC;" width="27.103" height="16.634"/>
	<path style="fill:#CCCCCC;" d="M164.853,354.169c-8.037,0-13.791-1.444-14.382-1.599l-8.046-2.104l4.207-16.092l8.047,2.104
		c1.043,0.262,26.521,6.413,40.53-13.728c3.115-4.481,5.642-10.937-2.532-21.154l-5.196-6.494l12.988-10.391l5.196,6.494
		c10.947,13.684,12.084,28.259,3.2,41.04C196.157,350.52,177.626,354.169,164.853,354.169z"/>
</g>
<path style="fill:#CC9758;" d="M5.172,473.139l33.011,32.634c7.823,7.733,20.766,6.368,26.804-2.827l53.2-81.025
	c8.837-13.458,23.157-22.335,39.141-24.264l0,0c0,0-40.935-35.451,30.672-92.381s127.589-101.438,127.589-101.438l-26.913-33.85
	L173.687,261.41c-15.17,12.06-27.603,27.209-36.473,44.439l-23.566,45.776c-3.471,6.742-10.128,11.261-17.675,11.998l-12.719,1.243
	c-5.572,0.544-10.711,3.249-14.314,7.535L4.085,449.544C-1.754,456.491-1.282,466.758,5.172,473.139z"/>
<path style="fill:#B78349;" d="M242.812,261.699c-14.419-18.136-41.752-21.496-41.752-21.496l-35.625,28.323
	c0,0,27.334,3.361,41.752,21.496L242.812,261.699z"/>
<g>
</g>
<g>
</g>
<g>
</g>
<g>
</g>
<g>
</g>
<g>
</g>
<g>
</g>
<g>
</g>
<g>
</g>
<g>
</g>
<g>
</g>
<g>
</g>
<g>
</g>
<g>
</g>
<g>
</g>
</svg>
