<?xml version="1.0" encoding="iso-8859-1"?>
<!-- Generator: Adobe Illustrator 19.0.0, SVG Export Plug-In . SVG Version: 6.00 Build 0)  -->
<svg version="1.1" id="Layer_1" xmlns="http://www.w3.org/2000/svg" xmlns:xlink="http://www.w3.org/1999/xlink" x="0px" y="0px"
	 viewBox="0 0 512 512" style="enable-background:new 0 0 512 512;" xml:space="preserve">
<path style="fill:#72C5D5;" d="M497.054,27.754H227.569c-36.929,0-66.867,29.937-66.867,66.867l0,0
	c0,36.929,29.937,66.867,66.867,66.867h86.616h48.383c15.813,0,28.633,12.82,28.633,28.633l0,0c0,15.813-12.82,28.633-28.633,28.633
	h-48.383H66.867C29.937,218.753,0,248.69,0,285.619l0,0c0,36.929,29.937,66.867,66.867,66.867h86.616h137.046
	c15.813,0,28.633,12.82,28.633,28.633l0,0c0,15.813-12.82,28.633-28.633,28.633H0v38.234h345.386
	c36.929,0,66.867-29.937,66.867-66.867l0,0c0-36.929-29.937-66.867-66.867-66.867H166.057c-15.813,0-28.633-12.82-28.633-28.633l0,0
	c0-15.813,12.82-28.633,28.633-28.633h148.129h130.948c36.929,0,66.867-29.937,66.867-66.867l0,0
	c0-36.929-29.937-66.867-66.867-66.867H314.185h-31.758c-15.813,0-28.633-12.82-28.633-28.633l0,0
	c0-15.813,12.82-28.633,28.633-28.633h214.626"/>
<rect x="322.646" y="279.777" style="fill:#CEBE9B;" width="21.623" height="24.515"/>
<polygon style="fill:#82B236;" points="376.807,284.778 346.723,251.897 371.694,251.897 343.627,221.223 366.846,221.223 
	337.505,189.156 356.605,189.156 333.462,163.86 310.317,189.156 329.418,189.156 300.078,221.223 323.296,221.223 295.229,251.897 
	320.2,251.897 290.115,284.778 "/>
<rect x="414.479" y="456.639" style="fill:#CEBE9B;" width="25.94" height="29.405"/>
<polygon style="fill:#82B236;" points="479.454,462.643 443.362,423.198 473.32,423.198 439.65,386.398 467.503,386.398 
	432.305,347.928 455.219,347.928 427.454,317.583 399.689,347.928 422.604,347.928 387.405,386.398 415.258,386.398 
	381.588,423.198 411.546,423.198 375.454,462.643 "/>
<rect x="158.087" y="174.412" style="fill:#CEBE9B;" width="20.714" height="23.485"/>
<polygon style="fill:#82B236;" points="209.967,179.202 181.148,147.704 205.068,147.704 178.183,118.32 200.425,118.32 
	172.317,87.601 190.615,87.601 168.445,63.37 146.274,87.601 164.571,87.601 136.465,118.32 158.706,118.32 131.82,147.704 
	155.742,147.704 126.922,179.202 "/>
<rect x="65.777" y="128.54" style="fill:#CEBE9B;" width="19.137" height="21.693"/>
<polygon style="fill:#82B236;" points="113.709,132.968 87.084,103.869 109.183,103.869 84.345,76.722 104.893,76.722 
	78.926,48.343 95.831,48.343 75.348,25.956 54.865,48.343 71.77,48.343 45.804,76.722 66.351,76.722 41.512,103.869 63.612,103.869 
	36.987,132.968 "/>
<rect x="47.058" y="358.732" style="fill:#CEBE9B;" width="23.341" height="26.458"/>
<polygon style="fill:#82B236;" points="105.513,364.133 73.039,328.641 99.993,328.641 69.697,295.529 94.76,295.529 
	63.088,260.914 83.707,260.914 58.724,233.609 33.741,260.914 54.36,260.914 22.688,295.529 47.75,295.529 17.454,328.641 
	44.409,328.641 11.934,364.133 "/>
<g>
</g>
<g>
</g>
<g>
</g>
<g>
</g>
<g>
</g>
<g>
</g>
<g>
</g>
<g>
</g>
<g>
</g>
<g>
</g>
<g>
</g>
<g>
</g>
<g>
</g>
<g>
</g>
<g>
</g>
</svg>
