<?xml version="1.0" encoding="iso-8859-1"?>
<!-- Generator: Adobe Illustrator 19.0.0, SVG Export Plug-In . SVG Version: 6.00 Build 0)  -->
<svg version="1.1" id="Layer_1" xmlns="http://www.w3.org/2000/svg" xmlns:xlink="http://www.w3.org/1999/xlink" x="0px" y="0px"
	 viewBox="0 0 511.999 511.999" style="enable-background:new 0 0 511.999 511.999;" xml:space="preserve">
<path style="fill:#B78349;" d="M127.795,105.586c-2.819-10.131-7.428-20.378-13.851-30.123
	c-24.446-37.113-65.91-52.934-92.635-35.323c-26.712,17.597-28.565,61.945-4.119,99.046c10.942,16.607,25.296,28.964,40.215,35.942"
	/>
<path style="fill:#CC9758;" d="M454.603,175.126c14.92-6.99,29.26-19.335,40.202-35.942c24.446-37.1,22.605-81.448-4.119-99.046
	c-26.71-17.61-68.188-1.789-92.634,35.325c-6.424,9.745-11.032,19.992-13.838,30.123"/>
<g>
	<path style="fill:#89592E;" d="M411.015,125.578v-0.013c1.274-2.537,2.728-5.033,4.338-7.466
		c12.423-18.872,29.299-27.458,39.726-27.458c2.691,0,4.84,0.541,6.539,1.673c5.163,3.399,6.076,12.075,6.218,15.654
		c0.476,11.572-3.759,25.077-11.637,37.036c-3.874,5.909-8.213,10.801-12.642,14.74"/>
	<path style="fill:#89592E;" d="M68.451,159.743c-4.428-3.939-8.766-8.831-12.642-14.74c-7.878-11.959-12.114-25.463-11.637-37.036
		c0.141-3.579,1.055-12.255,6.218-15.654c1.699-1.133,3.85-1.673,6.539-1.673c10.428,0,27.304,8.586,39.726,27.458
		c1.609,2.433,3.064,4.931,4.338,7.466v0.013"/>
</g>
<path style="fill:#CC9758;" d="M18.334,305.729c0,131.26,106.407,173.329,237.667,173.329s237.667-42.069,237.667-173.329
	S387.262,68.06,256.001,68.06S18.334,174.468,18.334,305.729z"/>
<g>
	<path style="fill:#B78349;" d="M80.747,305.729c0-120.681,89.95-220.345,206.461-235.627c-10.213-1.339-20.628-2.041-31.206-2.041
		c-131.26,0-237.667,106.407-237.667,237.667s106.407,173.329,237.667,173.329c10.578,0,20.993-0.278,31.206-0.849
		C170.697,471.692,80.747,426.409,80.747,305.729z"/>
	<path style="fill:#B78349;" d="M333.901,297.958c-17.214,0-33.055-11.246-38.711-27.492c-5.476-15.73-0.734-33.742,11.934-44.629
		c13.527-11.626,33.493-13.068,48.595-3.639c13.943,8.706,21.419,25.574,18.583,41.758
		C370.904,283.334,353.615,297.958,333.901,297.958z"/>
	<path style="fill:#B78349;" d="M178.064,297.958c-17.214,0-33.055-11.246-38.711-27.492c-5.476-15.73-0.734-33.742,11.934-44.629
		c13.527-11.626,33.493-13.068,48.595-3.639c13.943,8.706,21.419,25.574,18.583,41.758
		C215.068,283.334,197.778,297.958,178.064,297.958z"/>
</g>
<path style="fill:#CEBE9B;" d="M351.813,342.835c0,25.048-20.314,45.349-45.361,45.349c-1.99,0-3.933-0.141-5.853-0.389
	c-3.898,21.103-22.374,37.083-44.596,37.083c-2.567,0-5.087-0.212-7.537-0.636c-18.759-3.132-33.609-17.782-37.059-36.447
	c-1.908,0.247-3.863,0.389-5.853,0.389c-25.048,0-45.361-20.302-45.361-45.349c0-10.257,3.403-19.725,9.15-27.32
	c16.086-21.291,28.792-44.89,36.718-70.197c0.972-3.105-0.115-6.227-2.069-9.05c-4.992-7.213-2.422-17.217,5.681-20.574
	c8.476-3.512,17.258-6.016,26.17-7.518c6.677-1.131,13.413-1.696,20.161-1.696c14.832,0,29.67,2.721,43.727,8.168
	c7.605,2.946,11.032,11.796,7.255,19.024c-1.792,3.43-2.32,7.551-1.04,11.645c7.925,25.307,20.632,48.906,36.718,70.197
	C348.41,323.11,351.813,332.578,351.813,342.835z"/>
<g>
	<path style="fill:#B5A483;" d="M223.488,300.805c-20.514,32.631-24.294,62.366-4.911,83.233l-7.172,3.757
		c-1.908,0.247-3.863,0.389-5.853,0.389c-25.048,0-45.361-20.302-45.361-45.349c0-10.257,3.403-19.725,9.15-27.32
		c16.086-21.291,28.792-44.89,36.718-70.197c1.017-3.251-0.223-6.52-2.35-9.446c-5.013-6.893-2.348-16.697,5.512-19.99
		c8.615-3.611,17.55-6.178,26.62-7.705C238.962,226.275,243.413,269.116,223.488,300.805z"/>
	<path style="fill:#B5A483;" d="M300.597,387.794c-4.607-0.247-8.911-1.072-13.153-2.016c-4.229-0.969-8.323-2.194-12.36-3.529
		c-8.045-2.724-15.74-6.119-23.181-9.997h8.196c-7.432,3.897-15.126,7.289-23.169,10.019c-4.037,1.337-8.13,2.561-12.361,3.527
		c-4.244,0.94-8.551,1.759-13.163,1.996c2.82-3.656,5.947-6.731,9.135-9.686c3.202-2.93,6.54-5.598,9.937-8.156
		c6.822-5.059,13.992-9.453,21.426-13.345l0.019-0.011c2.643-1.384,5.715-1.265,8.177,0.011c7.425,3.91,14.595,8.303,21.415,13.367
		c3.396,2.558,6.734,5.227,9.938,8.153C294.643,381.079,297.771,384.149,300.597,387.794z"/>
</g>
<path style="fill:#4D4D4D;" d="M338.083,275.806c-6.471,0-12.37-4.228-14.47-10.332c-2.003-5.823-0.246-12.565,4.465-16.57
	c5.205-4.425,12.792-4.919,18.495-1.136c5.099,3.382,7.73,9.72,6.518,15.719C351.667,270.54,345.306,275.806,338.083,275.806z"/>
<path style="fill:#333333;" d="M333.819,265.473c-2.003-5.823-0.246-12.565,4.465-16.57c1.484-1.261,3.163-2.191,4.934-2.805
	c-5.092-1.792-10.905-0.796-15.14,2.805c-4.713,4.006-6.47,10.747-4.465,16.57c2.101,6.105,7.998,10.332,14.47,10.332
	c1.775,0,3.496-0.322,5.107-0.906C338.886,273.349,335.346,269.912,333.819,265.473z"/>
<path style="fill:#4D4D4D;" d="M173.925,275.806c-6.424,0-12.335-4.197-14.446-10.259c-2.043-5.87-0.273-12.591,4.454-16.654
	c5.048-4.338,12.498-4.876,18.134-1.358c5.203,3.249,7.994,9.543,6.935,15.582C187.734,270.349,181.281,275.806,173.925,275.806z"/>
<path style="fill:#333333;" d="M169.663,265.473c-2.003-5.823-0.246-12.565,4.465-16.57c1.484-1.261,3.163-2.191,4.934-2.805
	c-5.092-1.792-10.905-0.796-15.14,2.805c-4.713,4.006-6.47,10.747-4.465,16.57c2.101,6.105,7.998,10.332,14.47,10.332
	c1.775,0,3.496-0.322,5.107-0.906C174.73,273.349,171.191,269.912,169.663,265.473z"/>
<path style="fill:#4D4D4D;" d="M266.741,316.911h-21.481c-13.749,0-23.377,13.579-18.827,26.554l0,0
	c4.403,12.558,16.259,20.965,29.567,20.965l0,0c13.308,0,25.164-8.407,29.567-20.965l0,0
	C290.119,330.491,280.49,316.911,266.741,316.911z"/>
<path style="fill:#333333;" d="M240.565,343.465L240.565,343.465c-4.549-12.974,5.079-26.554,18.828-26.554h-14.131
	c-13.749,0-23.377,13.579-18.827,26.554l0,0c4.403,12.558,16.259,20.965,29.567,20.965l0,0c2.415,0,4.781-0.285,7.066-0.814
	C252.768,361.234,244.169,353.743,240.565,343.465z"/>
<path style="fill:#B5A483;" d="M248.467,424.242c-18.759-3.132-33.609-17.782-37.059-36.447l17.122-9.009
	c0,0,15.697-21.986,8.396,3.486C229.637,407.744,248.467,424.242,248.467,424.242z"/>
<g>
</g>
<g>
</g>
<g>
</g>
<g>
</g>
<g>
</g>
<g>
</g>
<g>
</g>
<g>
</g>
<g>
</g>
<g>
</g>
<g>
</g>
<g>
</g>
<g>
</g>
<g>
</g>
<g>
</g>
</svg>
