<?xml version="1.0" encoding="iso-8859-1"?>
<!-- Generator: Adobe Illustrator 19.0.0, SVG Export Plug-In . SVG Version: 6.00 Build 0)  -->
<svg version="1.1" id="Layer_1" xmlns="http://www.w3.org/2000/svg" xmlns:xlink="http://www.w3.org/1999/xlink" x="0px" y="0px"
	 viewBox="0 0 512 512" style="enable-background:new 0 0 512 512;" xml:space="preserve">
<path style="fill:#CEBE9B;" d="M255.843,512c-0.32-0.229-0.64-0.469-0.949-0.698C40.623,352.927,99.161,161.257,99.161,161.257
	l27.015-71.588c23.23-61.557,79.331-91.42,134.448-89.59c51.938,1.727,103.018,31.59,124.898,89.59l27.015,71.588
	C412.538,161.257,471.247,353.499,255.843,512z"/>
<polygon style="fill:#FED159;" points="298.322,171.516 298.322,242.601 255.843,285.068 213.376,242.601 218.363,171.516 "/>
<path style="fill:#F2F2F2;" d="M379.051,108.895c20.155,14.131,33.34,37.555,33.34,64.06c0,43.176-34.989,78.19-78.19,78.19
	s-78.19-35.016-78.19-78.19"/>
<polygon style="fill:#EAB94E;" points="255.843,171.516 255.843,285.068 213.376,242.601 218.363,171.516 "/>
<path style="fill:#B5A483;" d="M130.271,262.445c10.134,105.912,70.695,191.91,124.623,248.858
	C40.623,352.927,99.161,161.257,99.161,161.257l27.015-71.588c23.23-61.557,79.331-91.42,134.448-89.59l0.023,0.011
	C260.647,0.091,111.399,65.159,130.271,262.445z"/>
<circle style="fill:#4D4D4D;" cx="334.204" cy="172.947" r="21.239"/>
<path style="fill:#F2F2F2;" d="M132.941,108.895c-20.155,14.131-33.34,37.555-33.34,64.06c0,43.176,35.016,78.19,78.19,78.19
	c43.202,0,78.218-35.016,78.218-78.19"/>
<g>
	<path style="fill:#B5A483;" d="M334.2,257.436c-46.583,0-84.48-37.898-84.48-84.481c0-3.475,2.817-6.291,6.291-6.291
		c3.474,0,6.291,2.816,6.291,6.291c0,39.646,32.254,71.9,71.899,71.9c39.646,0,71.9-32.254,71.9-71.9
		c0-23.427-11.462-45.449-30.661-58.909c-2.845-1.995-3.534-5.917-1.541-8.762c1.995-2.846,5.918-3.535,8.762-1.539
		c22.555,15.812,36.019,41.685,36.019,69.211C418.681,219.538,380.784,257.436,334.2,257.436z"/>
	<path style="fill:#B5A483;" d="M177.791,257.436c-46.584,0-84.481-37.898-84.481-84.481c0-27.524,13.465-53.398,36.02-69.211
		c2.847-1.994,6.769-1.305,8.762,1.539s1.305,6.768-1.541,8.762c-19.199,13.461-30.662,35.483-30.662,58.909
		c0,39.646,32.254,71.9,71.9,71.9c39.662,0,71.928-32.254,71.928-71.9c0-3.475,2.817-6.291,6.291-6.291
		c3.474,0,6.291,2.816,6.291,6.291C262.301,219.538,224.39,257.436,177.791,257.436z"/>
</g>
<path style="fill:#CC9758;" d="M415.101,272.967c-11.186,67.31-48.644,155.196-154.51,235.053
	c-3.488-14.514-5.341-29.658-5.341-45.235C255.25,367.59,324.321,288.511,415.101,272.967z"/>
<circle style="fill:#4D4D4D;" cx="177.499" cy="172.947" r="21.239"/>
<g>
	<path style="fill:#CC9758;" d="M255.249,462.785c0,14.995-1.716,29.589-4.952,43.6c-0.103,0.423-0.194,0.835-0.297,1.247
		c-0.034,0.126-0.057,0.263-0.092,0.389c-105.866-79.857-143.324-167.743-154.51-235.053c0.206,0.034,0.412,0.069,0.618,0.114
		c12.799,2.23,25.174,5.73,36.966,10.362C204.569,311.535,255.249,381.246,255.249,462.785z"/>
	<path style="fill:#CC9758;" d="M256,172.943v-13.054c0-44.729-31.542-83.253-75.392-92.079l0,0
		c-42.748-8.604-82-29.643-112.834-60.476l0,0l0,0C81.46,62.075,118.92,107.821,169.887,132.033L256,172.943z"/>
	<path style="fill:#CC9758;" d="M256,172.943v-13.054c0-44.729,31.542-83.253,75.392-92.079l0,0
		c42.748-8.604,82-29.643,112.834-60.476l0,0l0,0C430.54,62.075,393.08,107.821,342.113,132.033L256,172.943z"/>
</g>
<path style="fill:#B78349;" d="M254.894,511.304c-1.647-1.224-3.283-2.436-4.895-3.671
	c-105.42-79.708-142.786-167.365-153.984-234.549c12.799,2.23,25.174,5.73,36.966,10.362
	c15.029,93.365,68.225,169.939,117.315,222.94C251.829,508.043,253.362,509.69,254.894,511.304z"/>
<g>
	<circle style="fill:#F2F2F2;" cx="196.531" cy="165.421" r="11.438"/>
	<circle style="fill:#F2F2F2;" cx="351.681" cy="165.421" r="11.438"/>
</g>
<g>
</g>
<g>
</g>
<g>
</g>
<g>
</g>
<g>
</g>
<g>
</g>
<g>
</g>
<g>
</g>
<g>
</g>
<g>
</g>
<g>
</g>
<g>
</g>
<g>
</g>
<g>
</g>
<g>
</g>
</svg>
