<?xml version="1.0" encoding="iso-8859-1"?>
<!-- Generator: Adobe Illustrator 19.0.0, SVG Export Plug-In . SVG Version: 6.00 Build 0)  -->
<svg version="1.1" id="Layer_1" xmlns="http://www.w3.org/2000/svg" xmlns:xlink="http://www.w3.org/1999/xlink" x="0px" y="0px"
	 viewBox="0 0 512.001 512.001" style="enable-background:new 0 0 512.001 512.001;" xml:space="preserve">
<circle style="fill:#999999;" cx="108.108" cy="250.829" r="30.366"/>
<path style="fill:#808080;" d="M108.108,225.611c13.906,0,25.219,11.313,25.219,25.219c0,13.906-11.313,25.219-25.219,25.219
	S82.89,264.736,82.89,250.83C82.89,236.924,94.202,225.611,108.108,225.611 M108.108,215.252c-19.65,0-35.578,15.928-35.578,35.578
	s15.928,35.578,35.578,35.578s35.578-15.928,35.578-35.578S127.757,215.252,108.108,215.252L108.108,215.252z"/>
<g>
	<path style="fill:#E6E6E6;" d="M108.108,259.464c-7.941,0-11.613-10.308-5.436-15.332c6.148-5.001,15.537,0.675,13.883,8.476
		C115.719,256.546,112.141,259.464,108.108,259.464z"/>
	<polygon style="fill:#E6E6E6;" points="293.003,212.386 293.003,300.051 138.472,300.051 138.472,174.032 259.138,174.032 	"/>
</g>
<path style="fill:#FED159;" d="M353.739,281.196H77.742v201.878c0,15.976,12.951,28.926,28.926,28.926h218.145
	c15.976,0,28.926-12.951,28.926-28.926V281.196H353.739z"/>
<path style="fill:#EAB94E;" d="M117.453,483.074V281.196H77.742v201.878c0,15.976,12.951,28.926,28.926,28.926h39.709
	C130.403,512,117.453,499.05,117.453,483.074z"/>
<polygon style="fill:#CCCCCC;" points="293.003,181.875 293.003,278.445 200.826,174.032 259.138,174.032 "/>
<g>
	<path style="fill:#666666;" d="M177.71,254.75c-4.769,0-8.633-3.865-8.633-8.633V209.86c0-4.768,3.864-8.633,8.633-8.633
		s8.633,3.865,8.633,8.633v36.256C186.343,250.884,182.479,254.75,177.71,254.75z"/>
	<path style="fill:#666666;" d="M253.771,254.75c-4.769,0-8.633-3.865-8.633-8.633V209.86c0-4.768,3.864-8.633,8.633-8.633
		c4.769,0,8.633,3.865,8.633,8.633v36.256C262.404,250.884,258.54,254.75,253.771,254.75z"/>
	<path style="fill:#666666;" d="M215.741,254.75c-4.769,0-8.633-3.865-8.633-8.633V209.86c0-4.768,3.864-8.633,8.633-8.633
		s8.633,3.865,8.633,8.633v36.256C224.374,250.884,220.51,254.75,215.741,254.75z"/>
</g>
<path style="fill:#FED159;" d="M171.087,74.286l182.652,206.911l75.948-67.044c11.977-10.573,13.115-28.851,2.543-40.828
	L287.863,9.784c-10.573-11.977-28.851-13.115-40.828-2.543L171.087,74.286z"/>
<g>
	<path style="fill:#EAB94E;" d="M274.395,33.139c8.304-7.33,19.635-9.025,29.328-5.388L287.863,9.784
		c-10.573-11.977-28.851-13.115-40.828-2.543l-75.948,67.044l24.832,28.13L274.395,33.139z"/>
	<circle style="fill:#EAB94E;" cx="353.734" cy="281.194" r="16.677"/>
</g>
<circle style="fill:#FED159;" cx="353.734" cy="281.194" r="7.283"/>
<g>
</g>
<g>
</g>
<g>
</g>
<g>
</g>
<g>
</g>
<g>
</g>
<g>
</g>
<g>
</g>
<g>
</g>
<g>
</g>
<g>
</g>
<g>
</g>
<g>
</g>
<g>
</g>
<g>
</g>
</svg>
