<?xml version="1.0" encoding="iso-8859-1"?>
<!-- Generator: Adobe Illustrator 19.0.0, SVG Export Plug-In . SVG Version: 6.00 Build 0)  -->
<svg version="1.1" id="Layer_1" xmlns="http://www.w3.org/2000/svg" xmlns:xlink="http://www.w3.org/1999/xlink" x="0px" y="0px"
	 viewBox="0 0 512 512" style="enable-background:new 0 0 512 512;" xml:space="preserve">
<path style="fill:#CEBE9B;" d="M202.603,401.169c0,28.761-23.357,53.455-53.601,53.455c-34.412,0-59.915-31.974-52.219-65.532
	c2.685-11.751,4.719-23.638,6.078-35.614c1.168-10.471,1.831-20.986,1.977-31.547c0.022-1.517,0.034-3.022,0.034-4.539v-25.008
	h88.271v25.008c0,1.517,0.011,3.022,0.034,4.539c0.315,22.615,3.011,45.118,8.055,67.161
	C202.153,393.17,202.603,397.202,202.603,401.169z"/>
<g>
	<path style="fill:#B5A483;" d="M124.054,389.094c2.69-11.759,4.719-23.646,6.076-35.621c1.345-11.963,2.017-24.001,2.017-36.077
		v-24.394v-0.621h-27.273v0.621v24.394c0,12.076-0.672,24.115-2.017,36.077c-1.357,11.975-3.387,23.861-6.076,35.621
		c-7.687,33.552,17.81,65.533,52.226,65.533c4.749,0,9.328-0.611,13.674-1.749C135.497,445.796,117.423,418.04,124.054,389.094z"/>
	<path style="fill:#B5A483;" d="M193.177,321.93h-88.338c0.022-1.517,0.034-3.022,0.034-4.539v-25.008l39.91-20.352l48.362,20.352
		v25.008C193.143,318.908,193.154,320.414,193.177,321.93z"/>
</g>
<path style="fill:#EE4948;" d="M297.945,277.31c0.799,8.081-5.62,15.07-13.725,15.07h-91.081h-88.265h-63.3H13.793
	c-8.118,0-14.524-6.989-13.725-15.07c1.712-17.176,6.343-33.515,13.383-48.483c21.984-46.809,67.499-80.387,121.31-85.461
	c4.694-0.444,9.438-0.672,14.246-0.672C226.59,142.694,290.385,201.719,297.945,277.31z"/>
<path style="fill:#CEBE9B;" d="M392.098,408.864c0,36.142-29.356,67.172-67.352,67.172c-43.253,0-75.295-40.186-65.633-82.35
	c3.37-14.785,5.921-29.716,7.628-44.77c1.696-15.032,2.539-30.154,2.539-45.332v-79.508H380.2v79.508
	c0,30.334,3.415,60.544,10.179,90.102C391.536,398.799,392.098,403.877,392.098,408.864z"/>
<g>
	<path style="fill:#B5A483;" d="M293.384,393.684c3.379-14.778,5.931-29.716,7.636-44.765c1.69-15.033,2.535-30.162,2.535-45.339
		v-78.724v-0.781h-34.275v0.781v78.724c0,15.177-0.845,30.306-2.535,45.339c-1.705,15.049-4.257,29.986-7.636,44.765
		c-9.661,42.166,22.383,82.356,65.633,82.356c5.969,0,11.723-0.767,17.185-2.199C307.765,464.943,285.049,430.061,293.384,393.684z"
		/>
	<polygon style="fill:#B5A483;" points="380.2,224.077 380.2,264.522 269.28,264.522 269.28,224.077 332.401,207.993 	"/>
</g>
<path style="fill:#CE3838;" d="M56.728,277.31c1.712-17.176,6.343-33.515,13.383-48.483c20.043-42.675,59.647-74.342,107.262-83.449
	c-9.185-1.762-18.669-2.684-28.368-2.684c-4.807,0-9.552,0.228-14.246,0.672c-53.812,5.074-99.327,38.652-121.31,85.461
	C6.41,243.796,1.78,260.135,0.067,277.31c-0.799,8.081,5.607,15.07,13.725,15.07h27.781h28.88
	C62.336,292.38,55.93,285.391,56.728,277.31z"/>
<path style="fill:#FED159;" d="M511.916,205.136c1.004,10.155-7.062,18.939-17.249,18.939H380.204H269.281h-79.55h-34.913
	c-10.203,0-18.253-8.784-17.249-18.939c2.153-21.585,7.971-42.119,16.818-60.93c27.627-58.826,84.826-101.023,152.452-107.4
	c5.898-0.558,11.86-0.845,17.902-0.845C422.243,35.961,502.415,110.138,511.916,205.136z"/>
<path style="fill:#EAB94E;" d="M208.775,205.136c2.153-21.585,7.971-42.119,16.818-60.93
	c25.187-53.631,74.96-93.426,134.798-104.872c-11.544-2.214-23.461-3.374-35.65-3.374c-6.042,0-12.004,0.286-17.902,0.845
	c-67.626,6.377-124.825,48.575-152.452,107.4c-8.847,18.811-14.667,39.345-16.818,60.93c-1.004,10.155,7.046,18.939,17.249,18.939
	h34.913h36.295C215.821,224.075,207.771,215.291,208.775,205.136z"/>
<g>
</g>
<g>
</g>
<g>
</g>
<g>
</g>
<g>
</g>
<g>
</g>
<g>
</g>
<g>
</g>
<g>
</g>
<g>
</g>
<g>
</g>
<g>
</g>
<g>
</g>
<g>
</g>
<g>
</g>
</svg>
