<?xml version="1.0" encoding="iso-8859-1"?>
<!-- Generator: Adobe Illustrator 19.0.0, SVG Export Plug-In . SVG Version: 6.00 Build 0)  -->
<svg version="1.1" id="Layer_1" xmlns="http://www.w3.org/2000/svg" xmlns:xlink="http://www.w3.org/1999/xlink" x="0px" y="0px"
	 viewBox="0 0 512 512" style="enable-background:new 0 0 512 512;" xml:space="preserve">
<polygon style="fill:#CC9758;" points="420.847,264.443 420.847,470.253 377.131,470.253 377.131,265.276 "/>
<g>
	<path style="fill:#B78349;" d="M420.847,220.576v75.96c-4.715,3.106-10.364,4.917-16.429,4.917c-8.901,0-16.89-3.893-22.359-10.082
		c-1.384,1.924-3.049,3.646-4.929,5.086v-75.345L420.847,220.576z"/>
	<polyline style="fill:#B78349;" points="398.342,264.443 398.342,470.253 377.131,470.253 377.131,265.276 	"/>
</g>
<polygon style="fill:#CC9758;" points="295.943,264.443 295.943,470.253 252.227,470.253 252.227,265.276 "/>
<g>
	<path style="fill:#B78349;" d="M295.943,264.443v32.092c-4.715,3.106-10.364,4.917-16.429,4.917
		c-8.901,0-16.89-3.893-22.359-10.082c-1.384,1.924-3.049,3.646-4.929,5.086V184.568L295.943,264.443z"/>
	<polyline style="fill:#B78349;" points="273.438,264.443 273.438,470.253 252.227,470.253 252.227,265.276 	"/>
</g>
<polygon style="fill:#CC9758;" points="164.858,264.443 164.858,470.253 121.142,470.253 121.142,265.276 "/>
<g>
	<path style="fill:#B78349;" d="M164.858,264.443v32.092c-4.715,3.106-10.364,4.917-16.429,4.917
		c-8.901,0-16.89-3.893-22.359-10.082c-1.384,1.924-3.049,3.646-4.929,5.086v-31.181L164.858,264.443z"/>
	<polyline style="fill:#B78349;" points="142.353,264.443 142.353,470.253 121.142,470.253 121.142,265.276 	"/>
</g>
<g>
	<path style="fill:#82B236;" d="M398.349,180.897c0-11.529-6.261-21.588-15.57-26.974c2.181-4.256,3.408-9.066,3.408-14.178
		c0-13.75-8.901-25.406-21.257-29.545c1.178-3.291,1.821-6.826,1.821-10.517c0-17.206-13.954-31.161-31.161-31.161
		c-2.366,0-4.674,0.272-6.884,0.77c-3.536-13.331-15.679-23.157-30.12-23.157c-7.839,0-14.996,2.902-20.468,7.673
		c-5.482-4.771-12.63-7.673-20.468-7.673c-14.442,0-26.594,9.826-30.119,23.157c-2.22-0.496-4.518-0.77-6.884-0.77
		c-17.216,0-31.161,13.954-31.161,31.161c0,3.691,0.643,7.225,1.821,10.517c-12.358,4.139-21.267,15.794-21.267,29.545
		c0,5.112,1.237,9.923,3.417,14.178c-9.309,5.385-15.58,15.444-15.58,26.974c0,16.359,12.611,29.759,28.629,31.054
		c-0.594,2.405-0.915,4.928-0.915,7.518c0,17.206,13.944,31.161,31.161,31.161c3.008,0,5.913-0.432,8.663-1.228
		c2.598,10.507,12.084,18.298,23.393,18.298c8.08,0,15.227-3.981,19.6-10.083c5.472,6.182,13.461,10.083,22.367,10.083
		c14.453,0,26.507-10.266,29.27-23.903c5.33,4.267,12.083,6.833,19.441,6.833c17.206,0,31.161-13.954,31.161-31.161
		c0-2.59-0.322-5.112-0.925-7.518C385.748,210.656,398.349,197.256,398.349,180.897z"/>
	<path style="fill:#82B236;" d="M269.882,184.544c0-12.939-7.027-24.229-17.475-30.272c2.449-4.776,3.825-10.175,3.825-15.912
		c0-15.432-9.989-28.513-23.858-33.158c1.322-3.694,2.043-7.661,2.043-11.803c0-19.311-15.66-34.972-34.972-34.972
		c-2.656,0-5.246,0.306-7.726,0.863c-3.968-14.961-17.596-25.988-33.803-25.988c-8.797,0-16.831,3.257-22.972,8.612
		c-6.153-5.355-14.175-8.612-22.972-8.612c-16.207,0-29.846,11.028-33.803,25.988c-2.491-0.557-5.07-0.863-7.726-0.863
		c-19.322,0-34.972,15.661-34.972,34.972c0,4.142,0.721,8.109,2.043,11.803c-13.869,4.645-23.868,17.726-23.868,33.158
		c0,5.738,1.387,11.137,3.836,15.912C7.039,160.316,0,171.605,0,184.544c0,18.36,14.152,33.398,32.131,34.852
		c-0.667,2.699-1.027,5.53-1.027,8.437c0,19.311,15.65,34.972,34.972,34.972c3.375,0,6.636-0.485,9.723-1.377
		c2.916,11.792,13.562,20.536,26.253,20.536c9.068,0,17.089-4.467,21.997-11.317c6.142,6.938,15.108,11.317,25.102,11.317
		c16.219,0,29.747-11.52,32.85-26.826c5.983,4.789,13.562,7.668,21.819,7.668c19.311,0,34.972-15.66,34.972-34.972
		c0-2.907-0.36-5.738-1.039-8.437C255.741,217.943,269.882,202.905,269.882,184.544z"/>
</g>
<path style="fill:#789E2E;" d="M111.405,261.428c-3.088,0.892-6.349,1.377-9.723,1.377c-19.322,0-34.972-15.66-34.972-34.972
	c0-2.907,0.36-5.738,1.027-8.437c-17.978-1.454-32.131-16.492-32.131-34.852c0-12.939,7.039-24.228,17.485-30.272
	c-2.449-4.776-3.836-10.175-3.836-15.912c0-15.432,10-28.513,23.868-33.158c-1.322-3.694-2.043-7.661-2.043-11.803
	c0-19.311,15.649-34.972,34.972-34.972c2.656,0,5.235,0.306,7.726,0.863c2.368-8.955,8.208-16.499,15.988-21.113
	c-5.214-3.091-11.291-4.875-17.794-4.875c-16.207,0-29.846,11.028-33.803,25.988c-2.491-0.557-5.072-0.863-7.726-0.863
	c-19.322,0-34.972,15.66-34.972,34.972c0,4.142,0.721,8.109,2.043,11.803c-13.869,4.645-23.868,17.726-23.868,33.158
	c0,5.738,1.387,11.136,3.836,15.912C7.039,160.316,0,171.605,0,184.544c0,18.36,14.152,33.398,32.13,34.852
	c-0.667,2.699-1.027,5.53-1.027,8.437c0,19.312,15.65,34.972,34.972,34.972c3.376,0,6.636-0.485,9.723-1.377
	c2.916,11.792,13.562,20.536,26.253,20.536c6.827,0,13.058-2.533,17.816-6.707C115.772,271.67,112.754,266.883,111.405,261.428z"/>
<rect x="189.696" y="372.225" style="fill:#FED159;" width="160.26" height="98.033"/>
<rect x="189.696" y="369.412" style="fill:#EAB94E;" width="160.26" height="20.067"/>
<polygon style="fill:#CEBE9B;" points="269.827,295.606 150.964,372.229 388.692,372.229 "/>
<rect x="279.064" y="404.678" style="fill:#B5A483;" width="38.259" height="65.58"/>
<rect x="36.098" y="461.818" style="fill:#4D4D4D;" width="467.455" height="16.879"/>
<path style="fill:#82B236;" d="M512,180.897c0-11.529-6.261-21.588-15.57-26.974c2.181-4.256,3.408-9.066,3.408-14.178
	c0-13.75-8.901-25.406-21.257-29.545c1.178-3.291,1.821-6.826,1.821-10.517c0-17.206-13.954-31.161-31.161-31.161
	c-2.366,0-4.674,0.272-6.884,0.77c-3.536-13.331-15.679-23.157-30.12-23.157c-7.839,0-14.996,2.902-20.468,7.673
	c-5.482-4.771-12.63-7.673-20.468-7.673c-14.442,0-26.594,9.826-30.119,23.157c-2.22-0.496-4.518-0.77-6.884-0.77
	c-17.216,0-31.161,13.954-31.161,31.161c0,3.691,0.643,7.225,1.821,10.517c-12.358,4.139-21.267,15.794-21.267,29.545
	c0,5.112,1.237,9.923,3.417,14.178c-9.309,5.385-15.58,15.444-15.58,26.974c0,16.359,12.611,29.759,28.629,31.054
	c-0.594,2.405-0.915,4.928-0.915,7.518c0,17.206,13.944,31.161,31.161,31.161c3.008,0,5.913-0.432,8.663-1.228
	c2.598,10.507,12.084,18.298,23.393,18.298c8.08,0,15.227-3.981,19.6-10.083c5.472,6.182,13.461,10.083,22.367,10.083
	c14.453,0,26.507-10.266,29.27-23.903c5.33,4.267,12.083,6.833,19.441,6.833c17.206,0,31.161-13.954,31.161-31.161
	c0-2.59-0.322-5.112-0.925-7.518C499.399,210.656,512,197.256,512,180.897z"/>
<g>
	<path style="fill:#789E2E;" d="M381.823,249.402c-2.751,0.796-5.657,1.228-8.663,1.228c-17.216,0-31.161-13.954-31.161-31.161
		c0-2.59,0.321-5.112,0.915-7.518c-16.018-1.295-28.629-14.695-28.629-31.054c0-11.529,6.271-21.588,15.58-26.974
		c-2.181-4.256-3.419-9.066-3.419-14.178c0-13.75,8.91-25.406,21.267-29.545c-1.178-3.291-1.821-6.826-1.821-10.517
		c0-17.206,13.944-31.161,31.161-31.161c2.366,0,4.664,0.272,6.884,0.77c3.45-13.047,15.172-22.712,29.208-23.117
		c-0.305-0.009-0.604-0.038-0.911-0.038c-7.839,0-14.996,2.902-20.468,7.673c-5.482-4.771-12.63-7.673-20.468-7.673
		c-14.442,0-26.594,9.826-30.119,23.157c-2.22-0.496-4.518-0.77-6.884-0.77c-17.216,0-31.161,13.954-31.161,31.161
		c0,3.691,0.643,7.225,1.821,10.517c-12.358,4.139-21.267,15.794-21.267,29.545c0,5.112,1.237,9.923,3.419,14.178
		c-9.309,5.385-15.58,15.444-15.58,26.974c0,16.359,12.611,29.759,28.629,31.054c-0.594,2.406-0.915,4.928-0.915,7.518
		c0,17.206,13.944,31.161,31.161,31.161c3.008,0,5.912-0.432,8.663-1.228c2.598,10.507,12.084,18.298,23.393,18.298
		c8.08,0,15.227-3.981,19.6-10.083c5.472,6.182,13.462,10.083,22.367,10.083c0.132,0,0.259-0.016,0.39-0.017
		C393.685,267.498,384.391,259.783,381.823,249.402z"/>
	<path style="fill:#789E2E;" d="M424.816,257.616c-3.093,4.318-7.579,7.564-12.798,9.1c5.321-1.395,10.051-4.229,13.775-8.05
		C425.461,258.323,425.133,257.974,424.816,257.616z"/>
	<path style="fill:#789E2E;" d="M268.172,249.402c-2.751,0.796-5.657,1.228-8.663,1.228c-17.216,0-31.161-13.954-31.161-31.161
		c0-2.59,0.321-5.112,0.915-7.518c-16.018-1.295-28.629-14.695-28.629-31.054c0-11.529,6.271-21.588,15.58-26.974
		c-2.181-4.256-3.419-9.066-3.419-14.178c0-13.75,8.91-25.406,21.267-29.545c-1.178-3.291-1.821-6.826-1.821-10.517
		c0-17.206,13.944-31.161,31.161-31.161c2.366,0,4.664,0.272,6.884,0.77c3.45-13.047,15.172-22.712,29.208-23.117
		c-0.305-0.009-0.604-0.038-0.911-0.038c-7.839,0-14.996,2.902-20.468,7.673c-5.482-4.771-12.63-7.673-20.468-7.673
		c-14.442,0-26.594,9.826-30.119,23.157c-2.22-0.496-4.518-0.77-6.884-0.77c-17.216,0-31.161,13.954-31.161,31.161
		c0,3.691,0.643,7.225,1.821,10.517c-12.358,4.139-21.267,15.794-21.267,29.545c0,5.112,1.237,9.923,3.419,14.178
		c-9.309,5.385-15.58,15.444-15.58,26.974c0,16.359,12.611,29.759,28.629,31.054c-0.594,2.406-0.915,4.928-0.915,7.518
		c0,17.206,13.944,31.161,31.161,31.161c3.008,0,5.912-0.432,8.663-1.228c2.598,10.507,12.084,18.298,23.393,18.298
		c8.08,0,15.227-3.981,19.6-10.083c5.472,6.182,13.461,10.083,22.367,10.083c0.132,0,0.259-0.016,0.39-0.017
		C280.033,267.498,270.74,259.783,268.172,249.402z"/>
	<path style="fill:#789E2E;" d="M311.165,257.616c-3.093,4.318-7.579,7.564-12.798,9.1c5.321-1.395,10.051-4.229,13.775-8.05
		C311.81,258.323,311.482,257.974,311.165,257.616z"/>
</g>
<g>
</g>
<g>
</g>
<g>
</g>
<g>
</g>
<g>
</g>
<g>
</g>
<g>
</g>
<g>
</g>
<g>
</g>
<g>
</g>
<g>
</g>
<g>
</g>
<g>
</g>
<g>
</g>
<g>
</g>
</svg>
