<?xml version="1.0" encoding="iso-8859-1"?>
<!-- Generator: Adobe Illustrator 19.0.0, SVG Export Plug-In . SVG Version: 6.00 Build 0)  -->
<svg version="1.1" id="Layer_1" xmlns="http://www.w3.org/2000/svg" xmlns:xlink="http://www.w3.org/1999/xlink" x="0px" y="0px"
	 viewBox="0 0 512 512" style="enable-background:new 0 0 512 512;" xml:space="preserve">
<path style="fill:#CEBE9B;" d="M91.833,308.277v59.193C91.833,447.292,156.541,512,236.362,512
	c33.925,0,65.561-11.799,90.544-31.872c24.983-20.085,43.312-48.444,50.609-81.578l61.319-278.497
	C452.415,58.401,405.479,0,342.342,0H190.639c-54.566,0-98.806,44.239-98.806,98.806v100.635h40.64V98.806
	c0-32.07,26.096-58.166,58.165-58.166h151.703c17.711,0,34.246,7.915,45.34,21.73c11.094,13.802,15.274,31.649,11.465,48.952
	l-61.319,278.497c-5.071,23.029-17.995,43.856-36.374,58.635c-18.391,14.779-41.506,22.917-65.091,22.917
	c-57.287,0-103.889-46.614-103.889-103.901v-59.193"/>
<path style="fill:#B5A483;" d="M135.861,339.482H89.243c-10.179,0-18.43-8.252-18.43-18.43V190.956
	c0-10.179,8.252-18.43,18.43-18.43h46.618c10.179,0,18.43,8.252,18.43,18.43v130.096C154.291,331.23,146.04,339.482,135.861,339.482
	z"/>
<path style="fill:#A39274;" d="M100.494,321.052V190.956c0-10.179,8.252-18.43,18.43-18.43H89.242
	c-10.179,0-18.429,8.252-18.429,18.43v130.096c0,10.179,8.252,18.429,18.429,18.429h29.681
	C108.746,339.482,100.494,331.23,100.494,321.052z"/>
<g>
</g>
<g>
</g>
<g>
</g>
<g>
</g>
<g>
</g>
<g>
</g>
<g>
</g>
<g>
</g>
<g>
</g>
<g>
</g>
<g>
</g>
<g>
</g>
<g>
</g>
<g>
</g>
<g>
</g>
</svg>
