<?xml version="1.0" encoding="iso-8859-1"?>
<!-- Generator: Adobe Illustrator 19.0.0, SVG Export Plug-In . SVG Version: 6.00 Build 0)  -->
<svg version="1.1" id="Layer_1" xmlns="http://www.w3.org/2000/svg" xmlns:xlink="http://www.w3.org/1999/xlink" x="0px" y="0px"
	 viewBox="0 0 511.999 511.999" style="enable-background:new 0 0 511.999 511.999;" xml:space="preserve">
<g>
	<path style="fill:#4D4D4D;" d="M252.636,43.783c-22.601,0-40.922,18.321-40.922,40.922v38.527h40.922V43.783z"/>
	<path style="fill:#4D4D4D;" d="M32.95,126.214c-2.95,0-5.836-1.458-7.543-4.126L5.781,91.389c-2.66-4.161-1.443-9.689,2.718-12.35
		c4.161-2.66,9.689-1.441,12.35,2.718l19.625,30.699c2.66,4.161,1.443,9.689-2.718,12.35
		C36.265,125.76,34.597,126.214,32.95,126.214z"/>
	<path style="fill:#4D4D4D;" d="M21.018,402.96L21.018,402.96C9.41,402.96,0,412.37,0,423.979v23.219
		c0,11.608,9.41,21.018,21.018,21.018h470.074c11.547,0,20.907-9.36,20.907-20.907l0,0c0-11.547-9.36-20.907-20.907-20.907h-0.541
		L127.389,338.83L21.018,402.96z"/>
</g>
<path style="fill:#333333;" d="M42.918,447.198v-23.219c0-11.609,9.41-21.018,21.018-21.018l94.109-56.738l-30.656-7.393
	l-106.37,64.13C9.41,402.96,0,412.37,0,423.979v23.219c0,11.608,9.41,21.018,21.018,21.018h42.918
	C52.328,468.216,42.918,458.805,42.918,447.198z"/>
<path style="fill:#FED159;" d="M410.207,283.109c-9.156,0-18.122-0.787-26.837-2.289c-2.17-0.37-4.304-0.787-6.438-1.252
	c-2.671-0.572-5.329-1.216-7.952-1.943c-15.177-4.077-29.46-10.384-42.455-18.551c-15.237-9.574-28.721-21.687-39.868-35.755
	c-9.419-11.875-17.168-25.156-22.867-39.451c-3.839-9.645-6.748-19.731-8.632-30.187c-1.657-9.132-2.516-18.551-2.516-28.16v-8.25
	H21.017v285.693h167.4c1.502,0,2.301,0,2.301,0c14.557,0,28.816,4.054,41.191,11.72c6.188,3.827,12.852,6.76,19.779,8.727
	c6.939,1.979,14.14,2.992,21.412,2.992h217.45v-62.961C490.549,319.079,454.58,283.109,410.207,283.109z"/>
<g>
	<path style="fill:#CEBE9B;" d="M233.944,230.315c11.978,0,21.673,9.694,21.673,21.673c0,11.965-9.694,21.659-21.673,21.659
		c-11.965,0-21.659-9.694-21.659-21.659C212.285,240.01,221.98,230.315,233.944,230.315z"/>
	<path style="fill:#CEBE9B;" d="M195.153,162.205c11.965,0,21.673,9.694,21.673,21.659c0,11.965-9.708,21.673-21.673,21.673
		s-21.673-9.708-21.673-21.673C173.48,171.899,183.189,162.205,195.153,162.205z"/>
</g>
<g>
	<rect x="21.018" y="117.398" style="fill:#EFBE52;" width="31.344" height="285.55"/>
	<path style="fill:#EFBE52;" d="M341.378,426.403H327.87c-0.751-2.229-1.443-4.495-2.074-6.748c-0.978-3.481,1.049-7.106,4.53-8.083
		c3.493-0.978,7.118,1.049,8.095,4.542c0.763,2.706,1.621,5.437,2.575,8.083C341.259,424.925,341.378,425.676,341.378,426.403z"/>
	<path style="fill:#EFBE52;" d="M334.429,394.869c-0.417-4.113-0.62-8.298-0.62-12.459c0-1.538,0.036-3.088,0.083-4.626
		c0.131-3.624-2.694-6.665-6.307-6.796c-3.648-0.119-6.665,2.694-6.796,6.319c-0.06,1.693-0.095,3.41-0.095,5.103
		c0,4.59,0.227,9.216,0.68,13.746c0.334,3.386,3.183,5.913,6.521,5.913c0.215,0,0.429-0.012,0.644-0.036
		C332.15,401.676,334.773,398.469,334.429,394.869z M337.313,331.502c-3.41-1.228-7.165,0.525-8.405,3.934
		c-2.134,5.902-3.887,12.006-5.198,18.146c-0.751,3.553,1.514,7.034,5.055,7.785c0.465,0.095,0.918,0.143,1.371,0.143
		c3.028,0,5.747-2.11,6.402-5.198c1.18-5.544,2.766-11.076,4.697-16.405C342.476,336.497,340.711,332.742,337.313,331.502z
		 M358.689,296.915c-2.861-2.218-6.975-1.693-9.192,1.168c-3.851,4.96-7.392,10.241-10.515,15.678
		c-1.8,3.136-0.727,7.141,2.408,8.954c1.037,0.596,2.158,0.87,3.267,0.87c2.277,0,4.483-1.18,5.699-3.291
		c2.826-4.912,6.021-9.681,9.502-14.176C362.075,303.246,361.563,299.133,358.689,296.915z"/>
	<path style="fill:#EFBE52;" d="M383.368,280.82c-0.286,1.478-1.085,2.873-2.361,3.887c-2.206,1.741-4.375,3.601-6.462,5.496
		c-1.264,1.145-2.838,1.717-4.411,1.717c-1.788,0-3.565-0.727-4.852-2.146c-2.444-2.671-2.253-6.82,0.429-9.264
		c1.073-0.978,2.158-1.943,3.267-2.885c2.623,0.727,5.282,1.371,7.952,1.943C379.064,280.033,381.199,280.451,383.368,280.82z"/>
	<path style="fill:#EFBE52;" d="M195.153,211.498c-15.238,0-27.635-12.397-27.635-27.635c0-15.229,12.397-27.62,27.635-27.62
		s27.635,12.391,27.635,27.62C222.788,199.102,210.391,211.498,195.153,211.498z M195.153,168.166
		c-8.664,0-15.712,7.042-15.712,15.698c0,8.664,7.048,15.712,15.712,15.712s15.712-7.048,15.712-15.712
		C210.865,175.208,203.817,168.166,195.153,168.166z"/>
	<path style="fill:#EFBE52;" d="M233.944,279.609c-15.229,0-27.62-12.391-27.62-27.62c0-15.237,12.391-27.633,27.62-27.633
		c15.238,0,27.635,12.397,27.635,27.633C261.579,267.218,249.182,279.609,233.944,279.609z M233.944,236.276
		c-8.656,0-15.698,7.048-15.698,15.711c0,8.656,7.042,15.698,15.698,15.698c8.664,0,15.712-7.042,15.712-15.698
		C249.657,243.325,242.608,236.276,233.944,236.276z"/>
</g>
<path style="fill:#CEBE9B;" d="M269.565,301.281c0,11.965,9.694,21.659,21.659,21.659c11.978,0,21.673-9.694,21.673-21.659
	c0-11.978-9.694-21.673-21.673-21.673C279.259,279.609,269.565,289.303,269.565,301.281z"/>
<path style="fill:#EFBE52;" d="M291.223,328.902c-15.229,0-27.62-12.391-27.62-27.62c0-15.237,12.391-27.633,27.62-27.633
	c15.238,0,27.635,12.397,27.635,27.633C318.857,316.512,306.46,328.902,291.223,328.902z M291.223,285.57
	c-8.656,0-15.698,7.048-15.698,15.711c0,8.656,7.042,15.698,15.698,15.698c8.664,0,15.712-7.042,15.712-15.698
	C306.935,292.619,299.886,285.57,291.223,285.57z"/>
<g>
	<path style="fill:#4D4D4D;" d="M263.794,192.805h-64.729c-4.938,0-8.942-4.003-8.942-8.942c0-4.938,4.003-8.942,8.942-8.942h64.729
		c4.938,0,8.942,4.003,8.942,8.942C272.736,188.802,268.732,192.805,263.794,192.805z"/>
	<path style="fill:#4D4D4D;" d="M237.577,258.879c-3.175,0-6.25-1.694-7.869-4.682c-2.353-4.341-0.743-9.769,3.599-12.123
		l49.082-26.612c4.342-2.353,9.769-0.743,12.123,3.599s0.743,9.769-3.599,12.123l-49.082,26.612
		C240.477,258.529,239.016,258.879,237.577,258.879z"/>
</g>
<g>
	<path style="fill:#EFBE52;" d="M36.49,241.405c-0.215,3.481-3.1,6.152-6.533,6.152c-0.143,0-0.286-0.012-0.417-0.024
		c-2.826-0.179-5.699-0.274-8.524-0.31v-13.114h0.06c3.088,0.036,6.211,0.143,9.287,0.346
		C33.975,234.681,36.729,237.793,36.49,241.405z"/>
	<path style="fill:#EFBE52;" d="M73.521,242.931c-6.116-2.063-12.435-3.791-18.766-5.138c-3.541-0.751-7.022,1.514-7.773,5.055
		s1.514,7.022,5.055,7.773c5.83,1.24,11.648,2.838,17.299,4.733c0.691,0.238,1.395,0.346,2.098,0.346
		c2.73,0,5.282-1.717,6.211-4.459C78.803,247.808,76.955,244.088,73.521,242.931z M112.996,262.317
		c-5.389-3.577-11.028-6.891-16.775-9.824c-3.231-1.645-7.177-0.37-8.822,2.861c-1.657,3.219-0.37,7.177,2.849,8.822
		c5.305,2.706,10.515,5.758,15.475,9.061c1.121,0.739,2.384,1.097,3.636,1.097c2.11,0,4.197-1.025,5.46-2.921
		C116.823,268.397,116.012,264.332,112.996,262.317z M146.116,291.217c-4.28-4.84-8.882-9.49-13.675-13.806
		c-2.694-2.42-6.843-2.206-9.264,0.489s-2.206,6.843,0.489,9.264c4.423,3.982,8.679,8.274,12.626,12.733
		c1.3,1.466,3.1,2.218,4.912,2.218c1.55,0,3.1-0.536,4.34-1.645C148.262,298.072,148.513,293.935,146.116,291.217z M170.699,327.639
		c-2.885-5.77-6.128-11.433-9.669-16.846c-1.979-3.028-6.045-3.887-9.073-1.908s-3.887,6.045-1.908,9.073
		c3.267,4.995,6.259,10.217,8.918,15.547c1.156,2.301,3.469,3.624,5.878,3.624c0.978,0,1.979-0.215,2.921-0.691
		C171.01,334.828,172.321,330.882,170.699,327.639z M185.03,369.212c-1.288-6.331-2.957-12.661-4.972-18.801
		c-1.121-3.446-4.829-5.317-8.274-4.185c-3.434,1.121-5.317,4.828-4.185,8.262c1.848,5.663,3.398,11.493,4.578,17.335
		c0.632,3.1,3.362,5.246,6.414,5.246c0.441,0,0.882-0.036,1.323-0.131C183.457,376.222,185.745,372.753,185.03,369.212z"/>
	<path style="fill:#EFBE52;" d="M188.416,402.952v0.012h-13.114c0-2.861-0.083-5.747-0.238-8.584
		c-0.191-3.624,2.575-6.712,6.2-6.915c3.601-0.203,6.7,2.575,6.903,6.188C188.332,396.74,188.416,399.864,188.416,402.952z"/>
</g>
<path style="fill:#4D4D4D;" d="M294.204,306.38c-1.649,0-3.316-0.455-4.808-1.409c-4.161-2.66-5.378-8.189-2.718-12.35l26.83-41.973
	c2.66-4.162,8.189-5.378,12.35-2.718c4.161,2.66,5.378,8.189,2.718,12.35l-26.83,41.974
	C300.04,304.922,297.153,306.38,294.204,306.38z"/>
<g>
</g>
<g>
</g>
<g>
</g>
<g>
</g>
<g>
</g>
<g>
</g>
<g>
</g>
<g>
</g>
<g>
</g>
<g>
</g>
<g>
</g>
<g>
</g>
<g>
</g>
<g>
</g>
<g>
</g>
</svg>
