<?xml version="1.0" encoding="iso-8859-1"?>
<!-- Generator: Adobe Illustrator 19.0.0, SVG Export Plug-In . SVG Version: 6.00 Build 0)  -->
<svg version="1.1" id="Layer_1" xmlns="http://www.w3.org/2000/svg" xmlns:xlink="http://www.w3.org/1999/xlink" x="0px" y="0px"
	 viewBox="0 0 512 512" style="enable-background:new 0 0 512 512;" xml:space="preserve">
<path style="fill:#EE4948;" d="M312.927,0H199.065c-42.718,0-77.349,34.631-77.349,77.349v408.206
	c0,14.605,11.84,26.445,26.445,26.445H363.83c14.605,0,26.445-11.84,26.445-26.445V77.349C390.274,34.631,355.645,0,312.927,0z"/>
<path style="fill:#CE3838;" d="M183.311,485.555V77.349C183.311,34.631,217.942,0,260.66,0h-61.595
	c-42.718,0-77.349,34.631-77.349,77.349v408.206c0,14.605,11.84,26.445,26.445,26.445h61.595
	C195.151,512,183.311,500.16,183.311,485.555z"/>
<polyline style="fill:#FED159;" points="390.274,148.126 121.717,148.126 121.717,186.768 390.274,186.768 "/>
<polyline style="fill:#EFBE52;" points="183.311,148.126 121.717,148.126 121.717,186.768 183.311,186.768 "/>
<g>
	<path style="fill:#CCCCCC;" d="M188.507,362.134v17.656h-14.031c-21.246,0-41.35-6.839-58.147-19.763
		c-23.671-18.233-37.242-45.8-37.242-75.638v-49.507c0-20.387,16.585-36.972,36.972-36.972h5.662v17.656h-5.662
		c-10.652,0-19.316,8.663-19.316,19.316v49.507c0,24.318,11.064,46.788,30.357,61.643c13.678,10.535,30.062,16.102,47.377,16.102
		L188.507,362.134L188.507,362.134z"/>
	<path style="fill:#CCCCCC;" d="M432.913,234.882v49.507c0,29.85-13.583,57.417-37.266,75.638
		c-16.773,12.924-36.878,19.763-58.124,19.763h-14.031v-17.656h14.031c17.315,0,33.688-5.568,47.353-16.102
		c19.304-14.855,30.38-37.325,30.38-61.643v-49.507c0-10.652-8.663-19.316-19.316-19.316h-5.673V197.91h5.673
		C416.329,197.91,432.913,214.495,432.913,234.882z"/>
</g>
<path style="fill:#FED159;" d="M312.661,347.773H199.33c-10.854,0-19.651,8.799-19.651,19.651v7.066
	c0,10.854,8.799,19.651,19.651,19.651h113.331c10.854,0,19.651-8.799,19.651-19.651v-7.066
	C332.312,356.572,323.514,347.773,312.661,347.773z"/>
<path style="fill:#EFBE52;" d="M197.923,374.491v-7.066c0-10.854,8.799-19.652,19.651-19.652H199.33
	c-10.854,0-19.651,8.799-19.651,19.652v7.066c0,10.854,8.799,19.652,19.651,19.652h18.245
	C206.721,394.144,197.923,385.344,197.923,374.491z"/>
<g>
</g>
<g>
</g>
<g>
</g>
<g>
</g>
<g>
</g>
<g>
</g>
<g>
</g>
<g>
</g>
<g>
</g>
<g>
</g>
<g>
</g>
<g>
</g>
<g>
</g>
<g>
</g>
<g>
</g>
</svg>
