<?xml version="1.0" encoding="iso-8859-1"?>
<!-- Generator: Adobe Illustrator 19.0.0, SVG Export Plug-In . SVG Version: 6.00 Build 0)  -->
<svg version="1.1" id="Layer_1" xmlns="http://www.w3.org/2000/svg" xmlns:xlink="http://www.w3.org/1999/xlink" x="0px" y="0px"
	 viewBox="0 0 512 512" style="enable-background:new 0 0 512 512;" xml:space="preserve">
<path style="fill:#666666;" d="M223.105,380.626c0,8.236-1.418,16.14-4.027,23.484c-9.655,27.225-35.644,46.728-66.186,46.728
	c-30.531,0-56.52-19.504-66.175-46.728c-2.608-7.344-4.027-15.248-4.027-23.484H223.105z"/>
<path style="fill:#4D4D4D;" d="M98.157,404.111c-2.608-7.344-4.027-15.248-4.027-23.484H82.691c0,8.236,1.418,16.14,4.027,23.484
	c9.655,27.225,35.644,46.728,66.175,46.728c1.926,0,3.833-0.079,5.721-0.231C130.588,448.348,107.203,429.618,98.157,404.111z"/>
<path style="fill:#CCCCCC;" d="M186.626,380.626c0,9.128-3.626,17.422-9.529,23.484c-6.12,6.326-14.711,10.249-24.205,10.249
	c-9.494,0-18.074-3.924-24.205-10.249c-5.891-6.063-9.517-14.356-9.517-23.484H186.626z"/>
<rect x="456.188" y="376.035" style="fill:#5E93CC;" width="19.92" height="74.8"/>
<path style="fill:#4D4D4D;" d="M223.105,380.626c0,8.236-1.418,16.14-4.027,23.484H86.718c-2.608-7.344-4.027-15.248-4.027-23.484
	H223.105z"/>
<path style="fill:#4E84AD;" d="M422.079,347.806h52.685c20.565,0,37.236,16.671,37.236,37.236l0,0H396.178"/>
<path style="fill:#B3B3B3;" d="M186.626,380.626c0,9.128-3.626,17.422-9.529,23.484h-48.41c-5.891-6.063-9.517-14.356-9.517-23.484
	H186.626z"/>
<path style="fill:#5E93CC;" d="M380.772,61.161H181.417c-95.455,0-172.838,77.383-172.838,172.838v151.042h387.596
	c14.304,0,25.9-11.596,25.9-25.9V102.466C422.077,79.654,403.583,61.161,380.772,61.161z"/>
<g>
	<path style="fill:#4E84AD;" d="M213.446,61.161h-32.029c-95.455,0-172.838,77.383-172.838,172.838v151.042h32.029V233.999
		C40.609,138.544,117.991,61.161,213.446,61.161z"/>
	<path style="fill:#4E84AD;" d="M171.934,303.289c-7.451-2.135-15.312-3.301-23.45-3.301c-46.972,0-85.041,38.082-85.041,85.054
		h46.9C110.343,346.207,136.375,313.475,171.934,303.289z"/>
</g>
<path style="fill:#72C5D5;" d="M366.884,163.925v54.953c0,18.657-15.122,33.779-33.791,33.779H122.089
	c-6.921,0-13.361-2.082-18.726-5.662c-9.083-6.051-15.065-16.381-15.065-28.117V202.6c0-40.025,32.452-72.466,72.478-72.466h172.317
	c7.367,0,14.184,2.356,19.732,6.372C361.347,142.625,366.884,152.624,366.884,163.925z"/>
<g>
	<path style="fill:#9CE6EF;" d="M276.836,130.135L154.324,252.658h-32.235c-6.921,0-13.361-2.082-18.726-5.662l116.85-116.861
		C220.212,130.135,276.836,130.135,276.836,130.135z"/>
	<path style="fill:#9CE6EF;" d="M352.825,136.506l-116.14,116.152h-35.266l122.523-122.523h9.151
		C340.459,130.135,347.277,132.491,352.825,136.506z"/>
</g>
<path style="fill:#6FA6D8;" d="M333.097,123.271H160.77c-43.743,0-79.331,35.588-79.331,79.331v16.271
	c0,22.414,18.235,40.649,40.649,40.649h211.01c22.414,0,40.649-18.235,40.649-40.649V163.92
	C373.746,141.506,355.511,123.271,333.097,123.271z M360.019,163.92v1.453H234.455v-28.374h98.641
	C347.942,136.998,360.019,149.076,360.019,163.92z M160.77,136.998h59.96v28.374H106.795
	C118.644,148.246,138.413,136.998,160.77,136.998z M333.097,245.795h-211.01c-14.844,0-26.922-12.077-26.922-26.922v-16.271
	c0-8.281,1.558-16.201,4.37-23.503h260.484v39.773C360.019,233.717,347.942,245.795,333.097,245.795z"/>
<path style="fill:#EE4948;" d="M30.973,298.809H8.579c-4.738,0-8.579-3.841-8.579-8.579s3.841-8.579,8.579-8.579h22.394
	c4.738,0,8.579,3.841,8.579,8.579S35.711,298.809,30.973,298.809z"/>
<path style="fill:#FED159;" d="M30.973,327.474H8.579c-4.738,0-8.579-3.841-8.579-8.579s3.841-8.579,8.579-8.579h22.394
	c4.738,0,8.579,3.841,8.579,8.579S35.711,327.474,30.973,327.474z"/>
<path style="fill:#5E93CC;" d="M42.412,389.572H8.579c-4.738,0-8.579-3.841-8.579-8.579s3.841-8.579,8.579-8.579h33.833
	c4.738,0,8.579,3.841,8.579,8.579S47.15,389.572,42.412,389.572z"/>
<path style="fill:#4E84AD;" d="M422.076,339.119h-20.26c-4.738,0-8.579-3.841-8.579-8.579s3.841-8.579,8.579-8.579h20.26
	c4.738,0,8.579,3.841,8.579,8.579S426.815,339.119,422.076,339.119z"/>
<g>
</g>
<g>
</g>
<g>
</g>
<g>
</g>
<g>
</g>
<g>
</g>
<g>
</g>
<g>
</g>
<g>
</g>
<g>
</g>
<g>
</g>
<g>
</g>
<g>
</g>
<g>
</g>
<g>
</g>
</svg>
