<?xml version="1.0" encoding="iso-8859-1"?>
<!-- Generator: Adobe Illustrator 19.0.0, SVG Export Plug-In . SVG Version: 6.00 Build 0)  -->
<svg version="1.1" id="Layer_1" xmlns="http://www.w3.org/2000/svg" xmlns:xlink="http://www.w3.org/1999/xlink" x="0px" y="0px"
	 viewBox="0 0 511.999 511.999" style="enable-background:new 0 0 511.999 511.999;" xml:space="preserve">
<polygon style="fill:#CCCCCC;" points="43.177,341.395 65.006,375.099 102.346,360.328 127.529,391.603 163.148,373.062 
	191.422,401.575 224.939,379.462 256.001,404.911 287.062,379.462 320.58,401.574 348.853,373.062 384.471,391.603 409.654,360.328 
	446.994,375.099 468.823,341.395 468.823,233.016 43.177,233.016 "/>
<polygon style="fill:#E6E6E6;" points="409.654,328.767 384.471,360.042 348.853,341.501 320.58,370.013 287.062,347.9 
	256.001,373.349 224.939,347.9 191.422,370.013 163.148,341.501 127.531,360.042 102.346,328.767 65.006,343.538 43.177,309.834 
	43.177,341.396 65.006,375.1 102.346,360.328 127.531,391.604 163.148,373.062 191.422,401.575 224.939,379.462 256.001,404.911 
	287.062,379.462 320.58,401.575 348.853,373.062 384.471,391.604 409.654,360.328 446.994,375.1 468.823,341.396 468.823,309.834 
	446.994,343.538 "/>
<g>
	<path style="fill:#CEBE9B;" d="M490.411,107.088L490.411,107.088c-11.923,0-21.589,9.665-21.589,21.589v212.719l0,0
		c23.847,0,43.177-19.332,43.177-43.177V128.677C512,116.754,502.335,107.088,490.411,107.088z"/>
	<path style="fill:#CEBE9B;" d="M21.589,107.088L21.589,107.088C9.665,107.088,0,116.754,0,128.676v169.541
		c0,23.847,19.332,43.177,43.177,43.177l0,0V128.676C43.177,116.754,33.512,107.088,21.589,107.088z"/>
</g>
<g>
</g>
<g>
</g>
<g>
</g>
<g>
</g>
<g>
</g>
<g>
</g>
<g>
</g>
<g>
</g>
<g>
</g>
<g>
</g>
<g>
</g>
<g>
</g>
<g>
</g>
<g>
</g>
<g>
</g>
</svg>
