<?xml version="1.0" encoding="iso-8859-1"?>
<!-- Generator: Adobe Illustrator 19.0.0, SVG Export Plug-In . SVG Version: 6.00 Build 0)  -->
<svg version="1.1" id="Layer_1" xmlns="http://www.w3.org/2000/svg" xmlns:xlink="http://www.w3.org/1999/xlink" x="0px" y="0px"
	 viewBox="0 0 512 512" style="enable-background:new 0 0 512 512;" xml:space="preserve">
<polygon style="fill:#CEBE9B;" points="466.189,462.782 45.807,462.782 91.614,128.795 420.382,128.795 "/>
<path style="fill:#D1C1A6;" d="M183.945,143.152c0,0-63.239,57.574-63.239,108.354s29.378,71.69,10.823,107.534
	s-53.345,69.449,57.984,87.371c111.329,17.923,178.59-44.806,166.22-66.462c-12.37-21.656-40.975-70.196-30.152-86.624
	c10.823-16.429,59.53-14.189,59.53-38.832c0-24.643-92.774,3.734-88.135-13.442s115.967,14.935,115.967-17.176
	s0-72.437-97.413-63.475c0,0-22.42-2.274-33.244,8.549c-10.824,10.823-52.185,8.891-37.883-5.412
	C258.708,149.234,183.945,143.152,183.945,143.152"/>
<g>
	<rect x="91.614" y="128.793" style="fill:#B5A483;" width="92.333" height="57.485"/>
	<polygon style="fill:#B5A483;" points="466.189,462.782 404.44,462.782 404.44,128.795 428.665,128.795 	"/>
	<polygon style="fill:#B5A483;" points="45.807,462.782 100.892,462.782 100.892,128.795 70.869,128.795 	"/>
</g>
<g>
	<path style="fill:#CEBE9B;" d="M91.614,111.98v304.995H0V111.98c0-21.5,14.809-39.545,34.79-44.474
		c3.525-0.87,7.213-1.334,11.017-1.334C71.111,66.173,91.614,86.676,91.614,111.98z"/>
	<path style="fill:#CEBE9B;" d="M511.997,416.974V111.98c0-25.298-20.509-45.807-45.807-45.807s-45.807,20.509-45.807,45.807
		v304.995"/>
</g>
<path style="fill:#C1B191;" d="M34.79,67.506v349.468H0V111.98C0,90.48,14.809,72.435,34.79,67.506z"/>
<circle style="fill:#A89778;" cx="45.807" cy="416.972" r="45.807"/>
<path style="fill:#C1B191;" d="M455.172,67.506v349.468h-34.79V111.98C420.382,90.48,435.191,72.435,455.172,67.506z"/>
<rect x="345.582" y="169.962" transform="matrix(-0.7071 -0.7071 0.7071 -0.7071 461.7918 584.5499)" style="fill:#EE4948;" width="12.756" height="53.345"/>
<path style="fill:#A89778;" d="M512,416.973c0,25.304-20.515,45.807-45.807,45.807c-1.392,0-2.76-0.058-4.117-0.186
	c-23.379-2.076-41.69-21.709-41.69-45.622c0-23.901,18.311-43.546,41.69-45.622c1.357-0.128,2.725-0.186,4.117-0.186
	C491.485,371.166,512,391.681,512,416.973z"/>
<rect x="325.288" y="190.257" transform="matrix(-0.7071 -0.7071 0.7071 -0.7071 461.7918 584.5499)" style="fill:#EE4948;" width="53.345" height="12.756"/>
<g>
	<g transform="matrix(0.7071 0.7071 -0.7071 0.7071 287.91 2.036)">
		<rect x="190.453" y="345.266" style="fill:#5E93CC;" width="12.756" height="53.345"/>
		<rect x="170.158" y="365.56" style="fill:#5E93CC;" width="53.345" height="12.756"/>
	</g>
	<path style="fill:#5E93CC;" d="M211.729,405.38c-0.442,0-0.687-0.002-0.719-0.002c-2.882-0.028-5.194-2.387-5.168-5.268
		c0.028-2.882,2.336-5.198,5.267-5.169c0.024,0,2.544,0.022,6.763-0.092c2.888-0.083,5.28,2.195,5.358,5.076
		c0.078,2.881-2.195,5.28-5.076,5.358C215.021,405.366,212.799,405.38,211.729,405.38z"/>
	<path style="fill:#5E93CC;" d="M246.068,403.37c-2.628,0-4.888-1.978-5.181-4.65c-0.314-2.864,1.755-5.442,4.619-5.755
		c4.705-0.516,9.317-1.128,13.71-1.822c2.848-0.451,5.519,1.495,5.968,4.341c0.45,2.847-1.494,5.519-4.341,5.969
		c-4.555,0.719-9.333,1.355-14.2,1.887C246.449,403.36,246.257,403.37,246.068,403.37z M287.488,395.407
		c-2.239,0-4.309-1.452-4.992-3.705c-0.836-2.758,0.721-5.672,3.479-6.508c4.587-1.39,8.849-2.933,12.672-4.584
		c2.645-1.143,5.717,0.075,6.861,2.721c1.143,2.645-0.074,5.717-2.721,6.861c-4.182,1.807-8.819,3.486-13.783,4.991
		C288.499,395.334,287.989,395.407,287.488,395.407z M323.586,374.718c-1.152,0-2.311-0.379-3.277-1.161
		c-2.242-1.813-2.59-5.098-0.777-7.34c2.58-3.191,4.312-6.669,5.147-10.336c0.639-2.81,3.436-4.57,6.246-3.931
		c2.81,0.639,4.57,3.436,3.931,6.246c-1.191,5.234-3.616,10.14-7.206,14.583C326.617,374.055,325.108,374.718,323.586,374.718z
		 M320.458,338.012c-1.047,0-2.104-0.314-3.021-0.967c-2.915-2.075-6.723-4.023-11.317-5.791c-2.689-1.034-4.031-4.054-2.995-6.745
		s4.053-4.031,6.745-2.997c5.486,2.111,9.942,4.41,13.62,7.029c2.348,1.671,2.897,4.93,1.226,7.278
		C323.697,337.25,322.089,338.012,320.458,338.012z M280.815,324.299c-0.336,0-0.676-0.032-1.018-0.101
		c-4.012-0.794-8.502-1.606-13.725-2.482c-2.842-0.477-4.759-3.167-4.283-6.009c0.477-2.842,3.165-4.76,6.011-4.284
		c5.323,0.893,9.911,1.723,14.024,2.537c2.827,0.559,4.665,3.305,4.106,6.132C285.437,322.578,283.255,324.299,280.815,324.299z
		 M239.09,317.34c-0.278,0-0.559-0.022-0.843-0.068c-5.432-0.883-9.882-1.647-14.004-2.406c-2.834-0.522-4.709-3.242-4.188-6.077
		s3.238-4.711,6.078-4.188c4.048,0.746,8.43,1.498,13.787,2.368c2.845,0.462,4.777,3.143,4.314,5.987
		C243.818,315.518,241.603,317.34,239.09,317.34z M197.747,308.574c-0.503,0-1.015-0.073-1.523-0.227
		c-5.221-1.59-9.746-3.262-13.833-5.114c-2.625-1.189-3.79-4.281-2.601-6.907c1.189-2.626,4.283-3.79,6.907-2.6
		c3.62,1.64,7.849,3.2,12.567,4.636c2.757,0.84,4.312,3.755,3.472,6.513C202.051,307.124,199.984,308.574,197.747,308.574z
		 M163.903,285.753c-2.006,0-3.919-1.163-4.779-3.117c-1.675-3.805-2.525-7.958-2.526-12.342c0-1.29,0.073-2.62,0.218-3.953
		c0.312-2.864,2.896-4.939,5.752-4.624c2.866,0.312,4.936,2.888,4.624,5.752c-0.104,0.96-0.158,1.91-0.158,2.824
		c0,2.969,0.537,5.631,1.641,8.139c1.161,2.638-0.036,5.717-2.674,6.879C165.319,285.61,164.605,285.753,163.903,285.753z
		 M172.666,246.509c-1.109,0-2.224-0.351-3.172-1.077c-2.287-1.755-2.718-5.03-0.965-7.316c2.951-3.848,6.476-7.523,10.474-10.922
		c2.195-1.867,5.488-1.6,7.356,0.596c1.866,2.196,1.599,5.49-0.596,7.356c-3.437,2.921-6.449,6.058-8.952,9.321
		C175.784,245.806,174.233,246.509,172.666,246.509z M206.278,221.713c-1.988,0-3.887-1.142-4.759-3.071
		c-1.186-2.627-0.02-5.717,2.607-6.905c4.224-1.909,8.775-3.709,13.53-5.352c2.728-0.943,5.696,0.503,6.637,3.227
		c0.942,2.724-0.503,5.695-3.227,6.637c-4.454,1.54-8.708,3.222-12.642,4.999C207.727,221.563,206.996,221.713,206.278,221.713z
		 M246.526,209.234c-2.43,0-4.604-1.705-5.108-4.178c-0.575-2.824,1.248-5.58,4.072-6.156c4.567-0.93,9.319-1.771,14.128-2.497
		c2.847-0.428,5.508,1.531,5.94,4.38c0.431,2.849-1.53,5.51-4.38,5.94c-4.634,0.7-9.21,1.51-13.603,2.404
		C247.222,209.199,246.872,209.234,246.526,209.234z"/>
	<path style="fill:#5E93CC;" d="M288.763,203.856c-2.753,0-5.055-2.155-5.206-4.937c-0.157-2.877,2.05-5.337,4.929-5.493
		c4.464-0.241,7.074-0.269,7.183-0.27c2.864-0.032,5.239,2.286,5.267,5.168c0.028,2.882-2.285,5.241-5.166,5.27
		c-0.024,0-2.513,0.028-6.718,0.255C288.954,203.854,288.858,203.856,288.763,203.856z"/>
</g>
<path style="fill:#EE4948;" d="M240.192,96.185v43.128c0,25.942-25.188,46.967-56.244,46.967c-4.418,0-8.721-0.429-12.849-1.229
	c-24.875-4.847-43.395-23.483-43.395-45.738V96.185H240.192z"/>
<path style="fill:#CE3838;" d="M171.098,103.282v81.769c-24.875-4.847-43.395-23.483-43.395-45.738v-36.031
	C127.703,103.282,171.098,103.282,171.098,103.282z"/>
<ellipse style="fill:#72C5D5;" cx="183.948" cy="96.185" rx="56.244" ry="46.967"/>
<path style="fill:#9CE6EF;" d="M183.945,49.218c-3.771,0-7.453,0.315-11.017,0.907c25.787,4.277,45.227,23.27,45.227,46.06
	s-19.441,41.783-45.227,46.06c3.564,0.591,7.246,0.907,11.017,0.907c31.063,0,56.244-21.028,56.244-46.967
	C240.19,70.246,215.008,49.218,183.945,49.218z"/>
<path style="fill:#CE3838;" d="M183.945,59.655c25.258,0,45.807,16.387,45.807,36.53s-20.549,36.53-45.807,36.53
	s-45.807-16.387-45.807-36.53S158.688,59.655,183.945,59.655 M183.945,49.218c-31.063,0-56.244,21.027-56.244,46.967
	s25.181,46.967,56.244,46.967s56.244-21.027,56.244-46.967S215.008,49.218,183.945,49.218L183.945,49.218z"/>
<path style="fill:#5E93CC;" d="M190.318,95.221c-0.012,4.731-0.417,9.451-1.368,14.171c-1.009,4.731-2.343,9.451-4.998,14.171
	c-2.667-4.72-4.001-9.44-5.01-14.171c-0.951-4.72-1.357-9.44-1.368-14.171c-0.012-4.72,0.406-9.44,1.345-14.171
	c1.009-4.72,2.343-9.44,5.033-14.171c2.679,4.731,4.012,9.451,5.021,14.171C189.912,85.782,190.329,90.502,190.318,95.221z"/>
<path style="fill:#EE4948;" d="M190.318,95.221h-12.745c-0.012-4.72,0.406-9.44,1.345-14.171c1.009-4.72,2.343-9.44,5.033-14.171
	c2.679,4.731,4.012,9.451,5.021,14.171C189.912,85.782,190.329,90.502,190.318,95.221z"/>
<g>
	<ellipse style="fill:#D1C1A6;" cx="370.423" cy="432.964" rx="20.874" ry="17.395"/>
	<ellipse style="fill:#D1C1A6;" cx="363.616" cy="308.496" rx="12.524" ry="10.437"/>
</g>
<g>
</g>
<g>
</g>
<g>
</g>
<g>
</g>
<g>
</g>
<g>
</g>
<g>
</g>
<g>
</g>
<g>
</g>
<g>
</g>
<g>
</g>
<g>
</g>
<g>
</g>
<g>
</g>
<g>
</g>
</svg>
