<?xml version="1.0" encoding="iso-8859-1"?>
<!-- Generator: Adobe Illustrator 19.0.0, SVG Export Plug-In . SVG Version: 6.00 Build 0)  -->
<svg version="1.1" id="Layer_1" xmlns="http://www.w3.org/2000/svg" xmlns:xlink="http://www.w3.org/1999/xlink" x="0px" y="0px"
	 viewBox="0 0 512 512" style="enable-background:new 0 0 512 512;" xml:space="preserve">
<path style="fill:#82B236;" d="M282.61,5.657h-53.222c-75.136,0-136.047,60.911-136.047,136.047v286.868
	c0,42.951,34.819,77.77,77.77,77.77h169.775c42.951,0,77.77-34.819,77.77-77.77V141.704C418.658,66.567,357.748,5.657,282.61,5.657z
	"/>
<g>
	<path style="fill:#6E9327;" d="M125.189,428.573V141.704c0-75.138,60.911-136.047,136.047-136.047H229.39
		c-75.136,0-136.047,60.911-136.047,136.047v286.868c0,42.951,34.819,77.77,77.77,77.77h31.846
		C160.007,506.341,125.189,471.523,125.189,428.573z"/>
	<path style="fill:#6E9327;" d="M178.623,401.907V141.704c0-28.037,22.73-50.767,50.767-50.767h53.22
		c28.037,0,50.767,22.73,50.767,50.767v260.202c0,10.872-8.814,19.687-19.687,19.687H198.308
		C187.436,421.594,178.623,412.779,178.623,401.907z"/>
</g>
<path style="fill:#638221;" d="M282.61,90.937h-23.59c28.037,0,50.767,22.73,50.767,50.767v260.202
	c0,10.872-8.814,19.687-19.687,19.687h23.59c10.872,0,19.687-8.814,19.687-19.687V141.704
	C333.377,113.666,310.649,90.937,282.61,90.937z"/>
<g>
	<rect x="178.62" y="178.183" style="fill:#FED159;" width="154.759" height="62.512"/>
	<rect x="178.62" y="294.952" style="fill:#FED159;" width="154.759" height="62.512"/>
</g>
<g>
	<rect x="299.717" y="178.183" style="fill:#EAB94E;" width="32.674" height="62.512"/>
	<rect x="299.717" y="294.952" style="fill:#EAB94E;" width="32.674" height="62.512"/>
</g>
<g>
	<rect x="249.507" y="5.657" style="fill:#6E9327;" width="12.974" height="85.276"/>
	<rect x="249.507" y="421.592" style="fill:#6E9327;" width="12.974" height="84.749"/>
</g>
<g>
	<path style="fill:#FED159;" d="M469.1,397.062c-3.544,0-6.888-2.144-8.249-5.646l-95.202-245.19
		c-1.769-4.554,0.49-9.68,5.043-11.449c4.555-1.769,9.68,0.491,11.449,5.045l95.202,245.19c1.769,4.554-0.489,9.68-5.043,11.449
		C471.247,396.868,470.164,397.062,469.1,397.062z"/>
	<polygon style="fill:#FED159;" points="512,444.94 475.717,459.028 444.576,397.734 493.619,378.691 	"/>
	<path style="fill:#FED159;" d="M42.9,397.062c-1.065,0-2.147-0.193-3.2-0.602c-4.554-1.769-6.813-6.894-5.043-11.449l95.202-245.19
		c1.768-4.554,6.892-6.813,11.449-5.045c4.554,1.769,6.813,6.894,5.043,11.449l-95.202,245.19
		C49.789,394.916,46.444,397.062,42.9,397.062z"/>
	<polygon style="fill:#FED159;" points="0,444.94 36.283,459.028 67.425,397.734 18.382,378.691 	"/>
</g>
<g>
	<path style="fill:#6E9327;" d="M143.057,181.14c-1.474,0-2.97-0.369-4.345-1.146l-27.128-15.333
		c-4.253-2.404-5.752-7.801-3.349-12.054c2.405-4.253,7.801-5.752,12.054-3.349l27.128,15.333c4.253,2.404,5.752,7.801,3.349,12.054
		C149.139,179.523,146.143,181.14,143.057,181.14z"/>
	<path style="fill:#6E9327;" d="M368.943,181.14c-3.086,0-6.083-1.617-7.709-4.495c-2.404-4.253-0.905-9.651,3.349-12.054
		l27.128-15.333c4.253-2.404,9.649-0.905,12.054,3.349c2.404,4.253,0.905,9.65-3.349,12.054l-27.128,15.333
		C371.913,180.77,370.418,181.14,368.943,181.14z"/>
	<path style="fill:#6E9327;" d="M313.692,428.67H198.308c-14.758,0-26.762-12.006-26.762-26.764V141.704
		c0-31.895,25.949-57.844,57.844-57.844h53.222c31.895,0,57.844,25.949,57.844,57.844v260.202
		C340.454,416.664,328.449,428.67,313.692,428.67z M229.39,98.014c-24.091,0-43.69,19.599-43.69,43.69v260.202
		c0,6.953,5.657,12.61,12.609,12.61h115.384c6.953,0,12.609-5.657,12.609-12.61V141.704c0-24.091-19.599-43.69-43.69-43.69H229.39z"
		/>
</g>
<g>
</g>
<g>
</g>
<g>
</g>
<g>
</g>
<g>
</g>
<g>
</g>
<g>
</g>
<g>
</g>
<g>
</g>
<g>
</g>
<g>
</g>
<g>
</g>
<g>
</g>
<g>
</g>
<g>
</g>
</svg>
