<?xml version="1.0" encoding="iso-8859-1"?>
<!-- Generator: Adobe Illustrator 19.0.0, SVG Export Plug-In . SVG Version: 6.00 Build 0)  -->
<svg version="1.1" id="Layer_1" xmlns="http://www.w3.org/2000/svg" xmlns:xlink="http://www.w3.org/1999/xlink" x="0px" y="0px"
	 viewBox="0 0 512.002 512.002" style="enable-background:new 0 0 512.002 512.002;" xml:space="preserve">
<g>
	<rect x="153.267" style="fill:#666666;" width="48.631" height="74.633"/>
	<rect x="310.107" style="fill:#666666;" width="48.631" height="74.633"/>
</g>
<g>
	<rect x="153.267" style="fill:#4D4D4D;" width="48.631" height="20.361"/>
	<rect x="310.107" style="fill:#4D4D4D;" width="48.631" height="20.361"/>
</g>
<g>
	<path style="fill:#666666;" d="M77.529,372.388h31.464V212.35l0,0c-22.713,0-41.981,16.677-45.239,39.156l-13.03,89.912
		C48.358,357.753,61.025,372.388,77.529,372.388z"/>
	<path style="fill:#666666;" d="M434.473,372.388h-31.464V212.35l0,0c22.713,0,41.981,16.677,45.239,39.156l13.03,89.912
		C463.644,357.753,450.977,372.388,434.473,372.388z"/>
</g>
<g>
	<path style="fill:#4D4D4D;" d="M108.994,283.134H60.453c-4.888,0-8.848-3.962-8.848-8.848c0-4.887,3.961-8.848,8.848-8.848h48.541
		c4.888,0,8.848,3.962,8.848,8.848C117.843,279.172,113.881,283.134,108.994,283.134z"/>
	<path style="fill:#4D4D4D;" d="M451.549,283.134h-48.541c-4.888,0-8.848-3.962-8.848-8.848c0-4.887,3.961-8.848,8.848-8.848h48.541
		c4.888,0,8.848,3.962,8.848,8.848C460.397,279.172,456.437,283.134,451.549,283.134z"/>
</g>
<path style="fill:#789E2E;" d="M355.727,60.221H156.275c-29.371,0-53.18,23.809-53.18,53.18v308.533h305.813V113.402
	C408.908,84.031,385.098,60.221,355.727,60.221z"/>
<path style="fill:#6F8C28;" d="M203.24,60.221h-46.965c-29.371,0-53.18,23.809-53.18,53.18v308.535h46.965V113.402
	C150.059,84.031,173.869,60.221,203.24,60.221z"/>
<path style="fill:#82B236;" d="M408.911,113.4v67.295c-35.641,45.174-90.891,74.185-152.912,74.185
	c-39.074,0-75.459-11.515-105.945-31.335c-17.897-11.633-33.765-26.12-46.955-42.838V113.4c0-29.365,23.808-53.173,53.173-53.173
	h199.454C385.103,60.227,408.911,84.035,408.911,113.4z"/>
<polyline style="fill:#CEBE9B;" points="125.055,502.563 63.529,502.563 63.529,421.937 125.055,421.937 163.988,421.937 
	348.022,421.937 386.955,421.937 448.48,421.937 448.48,502.563 386.955,502.563 "/>
<path style="fill:#789E2E;" d="M203.239,60.227c-29.365,0-53.185,23.808-53.185,53.173v110.145
	c-17.897-11.633-33.765-26.12-46.955-42.838V113.4c0-29.365,23.808-53.173,53.173-53.173
	C156.272,60.227,203.239,60.227,203.239,60.227z"/>
<polyline style="fill:#B5A483;" points="125.055,502.563 63.529,502.563 63.529,468.94 125.055,468.94 163.988,468.94 
	348.022,468.94 386.955,468.94 448.48,468.94 448.48,502.563 386.955,502.563 "/>
<g>
	<rect x="125.046" y="421.938" style="fill:#666666;" width="38.931" height="90.065"/>
	<rect x="348.025" y="421.938" style="fill:#666666;" width="38.93" height="90.065"/>
</g>
<g>
	<rect x="125.046" y="487.557" style="fill:#4D4D4D;" width="38.931" height="24.445"/>
	<rect x="348.025" y="487.557" style="fill:#4D4D4D;" width="38.93" height="24.445"/>
</g>
<polyline style="fill:#666666;" points="279.005,297.292 279.005,212.348 233.005,212.348 233.005,297.292 233.005,329.147 
	233.005,357.461 279.005,357.461 279.005,329.147 "/>
<rect x="205.567" y="297.294" style="fill:#4D4D4D;" width="100.871" height="31.853"/>
<g>
</g>
<g>
</g>
<g>
</g>
<g>
</g>
<g>
</g>
<g>
</g>
<g>
</g>
<g>
</g>
<g>
</g>
<g>
</g>
<g>
</g>
<g>
</g>
<g>
</g>
<g>
</g>
<g>
</g>
</svg>
