<?xml version="1.0" encoding="iso-8859-1"?>
<!-- Generator: Adobe Illustrator 19.0.0, SVG Export Plug-In . SVG Version: 6.00 Build 0)  -->
<svg version="1.1" id="Layer_1" xmlns="http://www.w3.org/2000/svg" xmlns:xlink="http://www.w3.org/1999/xlink" x="0px" y="0px"
	 viewBox="0 0 511.999 511.999" style="enable-background:new 0 0 511.999 511.999;" xml:space="preserve">
<circle style="fill:#EE4948;" cx="255.999" cy="283.93" r="228.069"/>
<circle style="fill:#72C5D5;" cx="255.999" cy="283.93" r="191.129"/>
<path style="fill:#9CE6EF;" d="M256.001,92.806c-6.833,0-13.58,0.365-20.229,1.065c96.046,10.105,170.899,91.339,170.899,190.064
	s-74.853,179.958-170.9,190.062c6.648,0.699,13.395,1.065,20.229,1.065c105.557,0,191.128-85.571,191.128-191.128
	S361.558,92.806,256.001,92.806z"/>
<circle style="fill:#5E93CC;" cx="255.999" cy="283.93" r="23.652"/>
<g>
	<path style="fill:#EE4948;" d="M256.001,64.432c-17.764,0-32.216-14.452-32.216-32.216S238.236,0,256.001,0
		c17.764,0,32.216,14.452,32.216,32.216C288.217,49.98,273.764,64.432,256.001,64.432z M256.001,17.128
		c-8.319,0-15.088,6.768-15.088,15.088s6.769,15.088,15.088,15.088c8.319,0,15.088-6.768,15.088-15.088
		S264.319,17.128,256.001,17.128z"/>
	<polygon style="fill:#EE4948;" points="245.332,261.154 207.392,223.214 228.756,201.849 173.915,201.849 173.915,256.69 
		195.28,235.326 233.219,273.266 	"/>
</g>
<polygon style="fill:#5E93CC;" points="268.07,308.115 306.011,346.055 284.645,367.42 339.487,367.42 339.487,312.58 
	318.123,333.943 280.182,296.004 "/>
<g>
	<path style="fill:#58A5AF;" d="M256.001,135.364c-2.838,0-5.139-2.301-5.139-5.138V96.661c0-2.838,2.301-5.138,5.139-5.138
		c2.838,0,5.138,2.301,5.138,5.138v33.565C261.139,133.063,258.838,135.364,256.001,135.364z"/>
	<path style="fill:#58A5AF;" d="M256.001,476.346c-2.838,0-5.139-2.301-5.139-5.138v-33.565c0-2.838,2.301-5.138,5.139-5.138
		c2.838,0,5.138,2.301,5.138,5.138v33.565C261.139,474.045,258.838,476.346,256.001,476.346z"/>
	<path style="fill:#58A5AF;" d="M443.273,289.073h-33.565c-2.838,0-5.138-2.301-5.138-5.138s2.301-5.138,5.138-5.138h33.565
		c2.838,0,5.138,2.301,5.138,5.138S446.111,289.073,443.273,289.073z"/>
	<path style="fill:#58A5AF;" d="M102.291,289.073H68.728c-2.838,0-5.138-2.301-5.138-5.138s2.301-5.138,5.138-5.138h33.565
		c2.838,0,5.138,2.301,5.138,5.138S105.13,289.073,102.291,289.073z"/>
	<path style="fill:#58A5AF;" d="M388.422,421.494c-1.314,0-2.63-0.501-3.633-1.505l-23.733-23.733c-2.007-2.006-2.007-5.26,0-7.267
		c2.005-2.006,5.258-2.007,7.266,0l23.733,23.733c2.007,2.006,2.007,5.259,0,7.267C391.053,420.993,389.737,421.494,388.422,421.494
		z"/>
	<path style="fill:#58A5AF;" d="M147.311,180.384c-1.314,0-2.63-0.501-3.633-1.505l-23.733-23.733c-2.007-2.006-2.007-5.26,0-7.267
		c2.005-2.006,5.258-2.007,7.266,0l23.733,23.733c2.007,2.006,2.007,5.26,0,7.267C149.942,179.882,148.626,180.384,147.311,180.384z
		"/>
	<path style="fill:#58A5AF;" d="M123.578,421.494c-1.314,0-2.631-0.501-3.633-1.505c-2.007-2.006-2.007-5.26,0-7.267l23.733-23.733
		c2.005-2.006,5.261-2.007,7.266,0c2.007,2.006,2.007,5.26,0,7.267l-23.733,23.733C126.209,420.993,124.893,421.494,123.578,421.494
		z"/>
	<path style="fill:#58A5AF;" d="M364.689,180.384c-1.314,0-2.631-0.501-3.633-1.505c-2.007-2.006-2.007-5.26,0-7.267l23.733-23.733
		c2.005-2.006,5.261-2.007,7.266,0c2.007,2.006,2.007,5.26,0,7.267l-23.733,23.733C367.32,179.882,366.004,180.384,364.689,180.384z
		"/>
</g>
<path style="fill:#FFFFFF;" d="M256.001,316.151c-17.764,0-32.216-14.452-32.216-32.216s14.452-32.216,32.216-32.216
	c17.764,0,32.216,14.452,32.216,32.216S273.764,316.151,256.001,316.151z M256.001,268.846c-8.319,0-15.088,6.768-15.088,15.088
	s6.769,15.088,15.088,15.088c8.319,0,15.088-6.768,15.088-15.088S264.319,268.846,256.001,268.846z"/>
<path style="fill:#CE3838;" d="M256.001,481.914c-109.167,0-197.98-88.814-197.98-197.979s88.814-197.979,197.98-197.979
	S453.98,174.768,453.98,283.935S365.166,481.914,256.001,481.914z M256.001,99.657c-101.611,0-184.278,82.667-184.278,184.276
	S154.39,468.21,256.001,468.21c101.61,0,184.276-82.667,184.276-184.276S357.61,99.657,256.001,99.657z"/>
<g>
</g>
<g>
</g>
<g>
</g>
<g>
</g>
<g>
</g>
<g>
</g>
<g>
</g>
<g>
</g>
<g>
</g>
<g>
</g>
<g>
</g>
<g>
</g>
<g>
</g>
<g>
</g>
<g>
</g>
</svg>
