<?xml version="1.0" encoding="iso-8859-1"?>
<!-- Generator: Adobe Illustrator 19.0.0, SVG Export Plug-In . SVG Version: 6.00 Build 0)  -->
<svg version="1.1" id="Layer_1" xmlns="http://www.w3.org/2000/svg" xmlns:xlink="http://www.w3.org/1999/xlink" x="0px" y="0px"
	 viewBox="0 0 512 512" style="enable-background:new 0 0 512 512;" xml:space="preserve">
<g>
	<polyline style="fill:#6E9327;" points="401.409,53.021 401.409,116.093 344.722,116.093 344.722,53.021 	"/>
	<polyline style="fill:#6E9327;" points="110.591,53.021 110.591,116.093 167.277,116.093 167.277,53.021 	"/>
</g>
<g>
	<path style="fill:#4D4D4D;" d="M401.409,100.217h10.875c3.917,0,7.093,3.176,7.093,7.093v35.194h-92.623v-35.193
		c0-3.917,3.176-7.093,7.093-7.093h10.875"/>
	<path style="fill:#4D4D4D;" d="M110.591,100.217H99.716c-3.917,0-7.093,3.176-7.093,7.093v35.194h92.623v-35.193
		c0-3.917-3.176-7.093-7.093-7.093h-10.875"/>
</g>
<g>
	<path style="fill:#333333;" d="M99.716,100.217L99.716,100.217c-3.917,0-7.093,3.176-7.093,7.093v35.194h36.565v-42.287h-7.093"/>
	<path style="fill:#333333;" d="M333.848,100.217L333.848,100.217c-3.917,0-7.093,3.176-7.093,7.093v35.194h36.565v-42.287h-7.093"
		/>
</g>
<polygon style="fill:#82B236;" points="325.736,164.125 325.736,141.323 186.261,141.323 186.261,203.099 186.264,203.099 
	186.264,359.919 325.739,359.919 325.739,164.125 "/>
<polygon style="fill:#6E9327;" points="325.738,164.125 325.738,141.323 290.281,141.323 290.281,203.099 290.281,203.099 
	290.281,359.919 325.739,359.919 325.739,164.125 "/>
<rect x="176.395" y="189.408" style="fill:#4D4D4D;" width="169.551" height="132.001"/>
<path style="fill:#6E9327;" d="M258.103,252.104h-4.204c-7.833,0-14.183-6.351-14.183-14.183v-46.275
	c0-7.833,6.351-14.183,14.183-14.183h4.204c7.833,0,14.183,6.351,14.183,14.183v46.275
	C272.287,245.753,265.936,252.104,258.103,252.104z"/>
<g>
	<path style="fill:#82B236;" d="M484.72,409.871H307.65V141.326h118.056c15.478,0,28.496,11.577,30.322,26.943L484.72,409.871z"/>
	<path style="fill:#82B236;" d="M204.354,141.323v268.552H27.278l28.693-241.609c1.825-15.364,14.852-26.936,30.324-26.936h6.328
		L204.354,141.323z"/>
</g>
<g>
	<path style="fill:#7EA534;" d="M124.803,141.33h-32.18h-6.328c-15.472,0-28.499,11.571-30.324,26.936L27.278,409.874h38.507
		l28.693-241.609C96.303,152.901,109.331,141.33,124.803,141.33z"/>
	<rect x="307.651" y="141.326" style="fill:#7EA534;" width="41.404" height="268.54"/>
</g>
<g>
	<path style="fill:#4D4D4D;" d="M484.722,408.692h15.512c6.498,0,11.766,5.268,11.766,11.766v33.534v15.871
		c0,6.498-5.268,11.766-11.766,11.766H307.646c-6.498,0-11.766-5.268-11.766-11.766v-15.871v-33.534
		c0-6.498,5.268-11.766,11.766-11.766l0,0H484.722z"/>
	<path style="fill:#4D4D4D;" d="M27.278,408.692H11.766C5.268,408.692,0,413.96,0,420.459v33.534v15.871
		c0,6.498,5.268,11.766,11.766,11.766h192.588c6.498,0,11.766-5.268,11.766-11.766v-15.871v-33.534
		c0-6.498-5.268-11.766-11.766-11.766l0,0H27.278z"/>
</g>
<g>
	<path style="fill:#333333;" d="M340.974,469.865v-15.871v-33.534c0-6.498,5.268-11.766,11.766-11.766h-45.094
		c-6.498,0-11.766,5.268-11.766,11.766v33.534v15.871c0,6.498,5.268,11.766,11.766,11.766h45.094
		C346.242,481.631,340.974,476.363,340.974,469.865z"/>
	<path style="fill:#333333;" d="M45.094,469.865v-15.871v-33.534c0-6.498,5.268-11.766,11.766-11.766H11.766
		C5.268,408.692,0,413.96,0,420.459v33.534v15.871c0,6.498,5.268,11.766,11.766,11.766H56.86
		C50.362,481.631,45.094,476.363,45.094,469.865z"/>
</g>
<g>
	<path style="fill:#B5A483;" d="M421.603,49.63c0-10.638-8.624-19.261-19.261-19.261h-0.933h-56.686h-0.933
		c-10.638,0-19.261,8.624-19.261,19.261l0,0c0,10.638,8.624,19.261,19.261,19.261h0.933h56.686h0.933
		C412.979,68.89,421.603,60.267,421.603,49.63L421.603,49.63z"/>
	<path style="fill:#B5A483;" d="M90.397,49.63c0-10.638,8.624-19.261,19.261-19.261h0.933h56.687h0.933
		c10.638,0,19.261,8.624,19.261,19.261l0,0c0,10.638-8.624,19.261-19.261,19.261h-0.933h-56.687h-0.933
		C99.021,68.89,90.397,60.267,90.397,49.63L90.397,49.63z"/>
</g>
<g>
	<path style="fill:#9B8B6F;" d="M126.421,49.63c0-10.638,8.624-19.261,19.261-19.261h-35.091h-0.933
		c-10.638,0-19.261,8.624-19.261,19.261s8.624,19.261,19.261,19.261h0.933h35.09C135.043,68.89,126.421,60.267,126.421,49.63z"/>
	<path style="fill:#9B8B6F;" d="M360.551,49.63c0-10.638,8.624-19.261,19.261-19.261h-35.09h-0.933
		c-10.638,0-19.261,8.624-19.261,19.261s8.624,19.261,19.261,19.261h0.933h35.09C369.175,68.89,360.551,60.267,360.551,49.63z"/>
</g>
<g>
</g>
<g>
</g>
<g>
</g>
<g>
</g>
<g>
</g>
<g>
</g>
<g>
</g>
<g>
</g>
<g>
</g>
<g>
</g>
<g>
</g>
<g>
</g>
<g>
</g>
<g>
</g>
<g>
</g>
</svg>
