<?xml version="1.0" encoding="iso-8859-1"?>
<!-- Generator: Adobe Illustrator 19.0.0, SVG Export Plug-In . SVG Version: 6.00 Build 0)  -->
<svg version="1.1" id="Layer_1" xmlns="http://www.w3.org/2000/svg" xmlns:xlink="http://www.w3.org/1999/xlink" x="0px" y="0px"
	 viewBox="0 0 512 512" style="enable-background:new 0 0 512 512;" xml:space="preserve">
<g>
	<path style="fill:#FED159;" d="M206.685,479.875c-3.192,0-6.435-0.674-9.518-2.099c-11.407-5.268-16.402-18.835-11.134-30.244
		c2.552-5.527,7.102-9.726,12.813-11.829c5.708-2.102,11.897-1.855,17.424,0.698c9.619,4.443,14.968,15.174,12.718,25.515l0,0
		c-0.355,1.629-0.887,3.219-1.584,4.729C223.56,474.966,215.299,479.875,206.685,479.875z M206.721,446.316
		c-1.254,0-2.511,0.222-3.724,0.668c-2.697,0.993-4.846,2.978-6.053,5.589c-2.489,5.391-0.129,11.802,5.262,14.293
		c5.388,2.488,11.796,0.129,14.285-5.26c0.329-0.715,0.583-1.47,0.751-2.244c1.061-4.881-1.468-9.948-6.013-12.047
		C209.792,446.65,208.259,446.316,206.721,446.316z M223.116,460.64h0.012H223.116z"/>
	<path style="fill:#FED159;" d="M153.734,466.352c-0.843,0-1.697-0.177-2.513-0.553l-8.163-3.763
		c-4.512-2.084-7.939-5.8-9.654-10.463c-1.718-4.66-1.517-9.712,0.566-14.219c2.082-4.509,5.796-7.937,10.458-9.653
		c4.66-1.718,9.712-1.517,14.222,0.567l35.358,16.33c3.013,1.392,4.328,4.962,2.935,7.976c-1.391,3.013-4.964,4.331-7.976,2.935
		l-35.358-16.33c-1.594-0.737-3.38-0.807-5.029-0.2c-1.649,0.607-2.964,1.82-3.7,3.412c-0.734,1.593-0.805,3.379-0.197,5.028
		c0.607,1.653,1.819,2.965,3.411,3.702l8.159,3.761c3.015,1.389,4.332,4.959,2.941,7.974
		C158.183,465.056,156.007,466.352,153.734,466.352z"/>
</g>
<path style="fill:#B3B3B3;" d="M335.167,509.88c-2.997,0-6.025-0.094-9.094-0.282c-36.379-2.241-76.165-17.496-118.257-45.339
	c-3.046-2.014-3.881-6.116-1.867-9.161c2.013-3.045,6.117-3.881,9.16-1.865c40.134,26.549,77.74,41.072,111.775,43.17
	c28.204,1.737,52.871-5.345,71.381-20.476c26.49-21.655,36.492-57.803,24.322-87.904c-6.691-16.55-19.493-29.988-37.021-38.863
	c-20.632-10.448-46.879-14.428-77.999-11.835c-9.171,0.764-18.188,1.132-26.999,1.133c-126.481,0.01-215.382-75.776-254.501-144.433
	C-4.167,140.962-8.417,87.564,14.973,54.67c17.961-25.256,39.762-39.78,64.799-43.172c42.95-5.822,79.355,23.346,80.884,24.591
	c0.275,0.224,0.53,0.469,0.766,0.732l145.838,163.893c2.428,2.728,2.184,6.907-0.543,9.333c-2.728,2.427-6.908,2.183-9.333-0.544
	L151.936,46.051c-3.771-2.904-35.399-26.243-70.481-21.438c-21.23,2.906-39.974,15.597-55.708,37.719
	C5.374,90.983,9.897,138.937,37.556,187.477c39.917,70.058,134.294,147.884,268.914,136.669
	c33.605-2.802,62.225,1.645,85.069,13.216c20.423,10.342,35.398,26.145,43.305,45.704c14.32,35.417,2.72,77.812-28.211,103.096
	C387.555,501.758,362.989,509.88,335.167,509.88z"/>
<rect x="292.934" y="176.905" transform="matrix(-0.7072 -0.707 0.707 -0.7072 370.2039 564.3004)" style="fill:#FED159;" width="18.029" height="57.178"/>
<path style="fill:#CC9758;" d="M235.044,205.109c-18.575,18.575-18.575,48.704,0,67.279c18.586,18.575,48.704,18.575,67.279,0
	c18.586-18.575,18.586-48.704,0-67.279C283.748,186.523,253.63,186.523,235.044,205.109z"/>
<g>
	
		<rect x="172.288" y="33.515" transform="matrix(0.7071 0.7071 -0.7071 0.7071 97.4664 -143.4055)" style="fill:#FED159;" width="99.101" height="24.868"/>
	<polygon style="fill:#FED159;" points="241.567,96.28 317.339,172.063 347.946,141.456 272.174,65.684 265.663,72.195 
		248.078,89.78 	"/>
</g>
<polygon style="fill:#EAB94E;" points="241.567,96.28 317.339,172.063 329.033,160.369 253.261,84.597 "/>
<polygon style="fill:#72C5D5;" points="310.12,179.282 457.941,327.092 502.986,282.058 355.165,134.237 347.946,141.456 
	317.339,172.063 "/>
<polygon style="fill:#5CB1BC;" points="310.12,179.282 457.941,327.092 472.188,312.856 324.367,165.035 "/>
<path style="fill:#B78349;" d="M268.688,263.76c-6.409,0-12.818-2.439-17.698-7.315c-0.001,0-0.001,0-0.001-0.001
	c-4.727-4.726-7.331-11.011-7.331-17.698s2.603-12.97,7.331-17.698s11.012-7.332,17.698-7.332c6.687,0,12.97,2.605,17.698,7.333
	c4.726,4.724,7.331,11.009,7.331,17.695s-2.603,12.972-7.334,17.699C281.504,261.321,275.096,263.76,268.688,263.76z
	 M260.337,247.092c4.607,4.604,12.095,4.604,16.698,0.001c2.231-2.23,3.459-5.195,3.459-8.348c0-3.153-1.227-6.117-3.458-8.346
	c-2.231-2.232-5.195-3.46-8.348-3.46s-6.118,1.228-8.348,3.459c-2.23,2.23-3.458,5.194-3.458,8.348
	C256.883,241.9,258.107,244.864,260.337,247.092L260.337,247.092z"/>
<g>
	<path style="fill:#FED159;" d="M457.941,336.107c-2.305,0-4.611-0.879-6.37-2.636c-3.523-3.518-3.527-9.226-0.008-12.748
		l45.045-45.034c3.518-3.522,9.225-3.527,12.749-0.007c3.522,3.518,3.525,9.226,0.007,12.748l-45.045,45.033
		C462.559,335.224,460.25,336.107,457.941,336.107z"/>
	<path style="fill:#FED159;" d="M155.515,63.233c-2.307,0-4.612-0.879-6.372-2.637c-3.523-3.519-3.525-9.228-0.006-12.749
		l34.508-34.518c3.523-3.522,9.23-3.521,12.749,0c3.521,3.521,3.521,9.229,0,12.748L161.892,60.59
		C160.131,62.352,157.822,63.233,155.515,63.233z"/>
	<path style="fill:#FED159;" d="M225.582,133.301c-2.307,0-4.614-0.88-6.375-2.641c-3.521-3.521-3.521-9.229,0-12.748l34.522-34.511
		c3.524-3.518,9.232-3.512,12.748,0.011c3.518,3.523,3.513,9.231-0.011,12.748l-34.51,34.5
		C230.196,132.42,227.889,133.301,225.582,133.301z"/>
</g>
<g>
</g>
<g>
</g>
<g>
</g>
<g>
</g>
<g>
</g>
<g>
</g>
<g>
</g>
<g>
</g>
<g>
</g>
<g>
</g>
<g>
</g>
<g>
</g>
<g>
</g>
<g>
</g>
<g>
</g>
</svg>
