<?xml version="1.0" encoding="iso-8859-1"?>
<!-- Generator: Adobe Illustrator 19.0.0, SVG Export Plug-In . SVG Version: 6.00 Build 0)  -->
<svg version="1.1" id="Layer_1" xmlns="http://www.w3.org/2000/svg" xmlns:xlink="http://www.w3.org/1999/xlink" x="0px" y="0px"
	 viewBox="0 0 512 512" style="enable-background:new 0 0 512 512;" xml:space="preserve">
<polyline style="fill:#789E2E;" points="317.829,122.294 317.829,57.402 194.17,57.402 194.17,122.294 "/>
<path style="fill:#82B236;" d="M299.637,108.872h-87.275c-59.902,0-108.462,48.56-108.462,108.462V359.9
	C103.899,443.903,171.997,512,255.999,512l0,0c84.002,0,152.101-68.097,152.101-152.1V217.335
	C408.1,157.432,359.54,108.872,299.637,108.872z"/>
<path style="fill:#789E2E;" d="M157.073,359.9V217.335c0-59.902,48.56-108.462,108.462-108.462h-53.173
	c-59.902,0-108.462,48.56-108.462,108.462v142.566C103.899,443.903,171.996,512,255.999,512l0,0c9.07,0,17.953-0.798,26.586-2.32
	C211.26,497.106,157.073,434.833,157.073,359.9z"/>
<path style="fill:#4D4D4D;" d="M313.875,0H198.122c-9.786,0-17.72,7.933-17.72,17.72v51.583h151.192V17.72
	C331.595,7.933,323.662,0,313.875,0z"/>
<path style="fill:#333333;" d="M236.115,0H199.02c-10.281,0-18.617,8.334-18.617,18.617v50.686h37.096V18.617
	C217.499,8.334,225.834,0,236.115,0z"/>
<path style="fill:#789E2E;" d="M255.999,366.149c-12.733,0-24.704-4.959-33.707-13.962c-18.586-18.586-18.586-48.828,0-67.413
	l27.464-27.466c1.655-1.656,3.901-2.586,6.242-2.586c2.341,0,4.587,0.93,6.242,2.586l27.466,27.466
	c9.003,9.003,13.962,20.974,13.962,33.707c0,12.733-4.959,24.703-13.962,33.707S268.733,366.149,255.999,366.149z M255.999,276.035
	l-21.223,21.223c-11.702,11.702-11.702,30.744,0,42.445c5.668,5.669,13.206,8.791,21.224,8.791c8.018,0,15.554-3.121,21.222-8.791
	c5.67-5.668,8.792-13.206,8.792-21.223c0-8.018-3.121-15.554-8.791-21.223c-0.001,0-0.001,0-0.001,0L255.999,276.035z"/>
<g>
</g>
<g>
</g>
<g>
</g>
<g>
</g>
<g>
</g>
<g>
</g>
<g>
</g>
<g>
</g>
<g>
</g>
<g>
</g>
<g>
</g>
<g>
</g>
<g>
</g>
<g>
</g>
<g>
</g>
</svg>
