<?xml version="1.0" encoding="iso-8859-1"?>
<!-- Generator: Adobe Illustrator 19.0.0, SVG Export Plug-In . SVG Version: 6.00 Build 0)  -->
<svg version="1.1" id="Layer_1" xmlns="http://www.w3.org/2000/svg" xmlns:xlink="http://www.w3.org/1999/xlink" x="0px" y="0px"
	 viewBox="0 0 511.999 511.999" style="enable-background:new 0 0 511.999 511.999;" xml:space="preserve">
<path style="fill:#666666;" d="M413.066,174.011h-16.957v-8.479c0-31.651-21.036-108.703-83.54-131.489l-7.966-2.904l5.808-15.932
	l7.965,2.904c38.855,14.165,61.586,45.46,73.811,69.219c15.395,29.917,20.88,60.012,20.88,78.203v8.477H413.066z"/>
<g>
	<path style="fill:#E6E6E6;" d="M464.292,202.315v217.06c0,29-93.258,92.624-208.286,92.624c-39.13,0-75.735-7.356-107.012-18.221
		c-60.675-21.046-101.287-55.261-101.287-74.403v-217.06H464.292z"/>
	<path style="fill:#E6E6E6;" d="M464.292,202.315c0,10.293-11.761,19.901-32.086,28.004c-23.872,9.521-59.554,16.976-101.871,21.046
		c-23.088,2.228-48.141,3.448-74.329,3.448c-74.179,0-139.309-9.783-176.212-24.494c-20.325-8.102-32.086-17.711-32.086-28.004
		c0-28.999,93.258-52.498,208.299-52.498c16.678,0,32.883,0.497,48.428,1.431C396.112,156.75,464.292,177.523,464.292,202.315z"/>
</g>
<path style="fill:#CCCCCC;" d="M464.292,202.315c0,10.293-11.761,19.901-32.086,28.004c-23.872,9.521-59.554,16.976-101.871,21.046
	c3.547-49.535-11.662-81.484-25.9-100.117C396.112,156.75,464.292,177.523,464.292,202.315z"/>
<path style="fill:#72C5D5;" d="M432.206,230.319c-36.903,14.711-102.021,24.494-176.2,24.494s-139.309-9.783-176.212-24.494
	c36.903-14.723,102.033-24.494,176.212-24.494S395.302,215.596,432.206,230.319z"/>
<g>
	<path style="fill:#CCCCCC;" d="M148.994,247.358v246.42c-60.675-21.046-101.287-55.261-101.287-74.403v-217.06
		C47.708,221.445,88.307,238.185,148.994,247.358z"/>
	<circle style="fill:#CCCCCC;" cx="109.17" cy="316.6" r="18.669"/>
</g>
<path style="fill:#FED159;" d="M317.196,17.717v0.407c0.056,3.516-0.916,6.794-2.623,9.586c-3.12,5.087-8.727,8.512-15.148,8.614
	c-31.585,0.497-62.052,5.946-90.359,15.578c-8.852,3.007-18.54-1.176-22.293-9.745c-0.045-0.102-0.09-0.215-0.147-0.328
	c-4.205-9.586,0.599-20.789,10.502-24.181C229.109,6.717,263.431,0.568,298.916,0.002C308.853-0.156,317.038,7.769,317.196,17.717z"
	/>
<path style="fill:#EAB94E;" d="M314.573,27.71c-3.12,5.087-8.727,8.512-15.148,8.614c-31.585,0.497-62.052,5.946-90.359,15.578
	c-8.852,3.007-18.54-1.176-22.293-9.745c-0.045-0.102-0.09-0.215-0.147-0.328c-4.205-9.586,0.599-20.789,10.502-24.181
	c0,0,14.029-0.249,17.805,19.715C214.933,37.364,269.072,20.328,314.573,27.71z"/>
<path style="fill:#666666;" d="M101.955,307.495l-1.179-8.393c-0.275-1.952-6.643-48.46-0.062-104.031
	c3.892-32.874,11.553-62.041,22.77-86.691c14.253-31.328,34.304-55.426,59.592-71.624l6.906-4.404
	c3.942-2.514,9.176-1.362,11.698,2.575l0,0c2.53,3.949,1.374,9.201-2.58,11.722l-6.877,4.386
	c-22.446,14.378-40.353,35.976-53.225,64.194c-10.492,22.999-17.692,50.411-21.401,81.473c-6.383,53.449-0.094,99.586-0.028,100.046
	l1.173,8.394L101.955,307.495z"/>
<path style="fill:#EAB94E;" d="M127.785,311.877c0,8.852-4.522,16.414-10.886,19.388c-1.865,0.882-3.9,1.368-6.025,1.368
	c-9.349,0-16.923-9.292-16.923-20.755s7.574-20.755,16.923-20.755c2.125,0,4.16,0.486,6.025,1.368
	C123.263,295.463,127.785,303.025,127.785,311.877z"/>
<path style="fill:#FED159;" d="M127.785,311.877c0,8.852-4.522,16.414-10.886,19.388c-6.376-2.973-10.898-10.536-10.898-19.388
	s4.522-16.414,10.898-19.388C123.263,295.463,127.785,303.025,127.785,311.877z"/>
<g>
</g>
<g>
</g>
<g>
</g>
<g>
</g>
<g>
</g>
<g>
</g>
<g>
</g>
<g>
</g>
<g>
</g>
<g>
</g>
<g>
</g>
<g>
</g>
<g>
</g>
<g>
</g>
<g>
</g>
</svg>
