<?xml version="1.0" encoding="iso-8859-1"?>
<!-- Generator: Adobe Illustrator 19.0.0, SVG Export Plug-In . SVG Version: 6.00 Build 0)  -->
<svg version="1.1" id="Layer_1" xmlns="http://www.w3.org/2000/svg" xmlns:xlink="http://www.w3.org/1999/xlink" x="0px" y="0px"
	 viewBox="0 0 512 512" style="enable-background:new 0 0 512 512;" xml:space="preserve">
<polygon style="fill:#B5A483;" points="384,91.832 255.999,69.278 128,91.832 0,69.278 0,431.878 128,454.432 255.999,431.878 
	384,454.432 512,431.878 512,69.278 "/>
<g>
	<polygon style="fill:#CEBE9B;" points="384,454.432 512,431.878 512,69.278 384,91.832 	"/>
	<polygon style="fill:#CEBE9B;" points="128,454.432 255.999,431.878 255.999,69.278 128,91.832 	"/>
</g>
<path style="fill:#EE4948;" d="M153.934,107.664c-9.007-66.795-106.859-66.795-115.866,0c-0.505,3.744-0.766,7.566-0.766,11.449
	c0,37.744,24.636,69.718,58.699,80.763c34.063-11.045,58.699-43.019,58.699-80.763C154.7,115.23,154.44,111.408,153.934,107.664z"/>
<g>
	<path style="fill:#FED159;" d="M412.673,285.01c-9.007-66.795-106.859-66.795-115.866,0c-0.505,3.744-0.766,7.566-0.766,11.449
		c0,37.744,24.636,69.718,58.699,80.763c34.063-11.045,58.699-43.019,58.699-80.763C413.438,292.576,413.178,288.754,412.673,285.01
		z"/>
	<circle style="fill:#FED159;" cx="96.002" cy="116.339" r="25.807"/>
</g>
<circle style="fill:#EE4948;" cx="354.742" cy="293.681" r="25.807"/>
<g>
</g>
<g>
</g>
<g>
</g>
<g>
</g>
<g>
</g>
<g>
</g>
<g>
</g>
<g>
</g>
<g>
</g>
<g>
</g>
<g>
</g>
<g>
</g>
<g>
</g>
<g>
</g>
<g>
</g>
</svg>
