<?xml version="1.0" encoding="iso-8859-1"?>
<!-- Generator: Adobe Illustrator 19.0.0, SVG Export Plug-In . SVG Version: 6.00 Build 0)  -->
<svg version="1.1" id="Layer_1" xmlns="http://www.w3.org/2000/svg" xmlns:xlink="http://www.w3.org/1999/xlink" x="0px" y="0px"
	 viewBox="0 0 512 512" style="enable-background:new 0 0 512 512;" xml:space="preserve">
<path style="fill:#FED159;" d="M294.168,0h-76.335c-47.3,0-85.644,38.343-85.644,85.644v393.367
	c0,18.219,14.77,32.989,32.989,32.989h181.642c18.219,0,32.989-14.77,32.989-32.989V85.644C379.812,38.343,341.468,0,294.168,0z"/>
<g>
	<path style="fill:#EAB94E;" d="M163.069,478.896V85.941C163.069,38.477,201.546,0,249.011,0h-30.88
		c-47.464,0-85.941,38.477-85.941,85.941v392.955c0,18.283,14.821,33.104,33.104,33.104h30.88
		C177.89,512,163.069,497.179,163.069,478.896z"/>
	<path style="fill:#EAB94E;" d="M349.805,424.274H238.776c-3.587,0-6.496-2.908-6.496-6.496c0-3.588,2.909-6.496,6.496-6.496
		h111.029c3.587,0,6.496,2.908,6.496,6.496C356.301,421.366,353.392,424.274,349.805,424.274z"/>
	<path style="fill:#EAB94E;" d="M209.146,424.274h-46.95c-3.587,0-6.496-2.908-6.496-6.496c0-3.588,2.909-6.496,6.496-6.496h46.949
		c3.587,0,6.496,2.908,6.496,6.496C215.641,421.366,212.733,424.274,209.146,424.274z"/>
	<path style="fill:#EAB94E;" d="M349.805,325.799H162.195c-3.587,0-6.496-2.908-6.496-6.496s2.909-6.496,6.496-6.496h187.609
		c3.587,0,6.496,2.908,6.496,6.496S353.392,325.799,349.805,325.799z"/>
	<path style="fill:#EAB94E;" d="M349.805,227.323h-38.14c-3.587,0-6.496-2.908-6.496-6.496c0-3.588,2.909-6.496,6.496-6.496h38.14
		c3.587,0,6.496,2.908,6.496,6.496C356.301,224.415,353.392,227.323,349.805,227.323z"/>
	<path style="fill:#EAB94E;" d="M282.033,227.323H162.195c-3.587,0-6.496-2.908-6.496-6.496c0-3.588,2.909-6.496,6.496-6.496
		h119.838c3.587,0,6.496,2.908,6.496,6.496C288.529,224.415,285.621,227.323,282.033,227.323z"/>
</g>
<path style="fill:#4D4D4D;" d="M256.001,37.767c-28.365,9.855-48.734,36.803-48.734,68.524c0,31.722,20.369,58.67,48.734,68.524
	c28.365-9.854,48.734-36.802,48.734-68.524S284.366,47.621,256.001,37.767z"/>
<g>
	<path style="fill:#EAB94E;" d="M256.001,180.129c-0.589,0-1.179-0.098-1.745-0.294c-31.286-10.869-52.306-40.425-52.306-73.545
		s21.02-62.675,52.306-73.545c1.128-0.392,2.36-0.392,3.488,0c31.285,10.87,52.305,40.426,52.305,73.545
		s-21.02,62.675-52.305,73.545C257.181,180.031,256.59,180.129,256.001,180.129z M256.001,43.42
		c-26.049,9.86-43.42,34.892-43.42,62.871s17.371,53.01,43.42,62.87c26.048-9.86,43.419-34.892,43.419-62.87
		S282.048,53.28,256.001,43.42z"/>
	<path style="fill:#EAB94E;" d="M298.325,130.05c-11.489-10.864-26.519-16.847-42.324-16.847c-15.805,0-30.835,5.982-42.324,16.847
		l-7.304-7.724c13.47-12.739,31.095-19.753,49.628-19.753s36.157,7.015,49.628,19.753L298.325,130.05z"/>
</g>
<g>
</g>
<g>
</g>
<g>
</g>
<g>
</g>
<g>
</g>
<g>
</g>
<g>
</g>
<g>
</g>
<g>
</g>
<g>
</g>
<g>
</g>
<g>
</g>
<g>
</g>
<g>
</g>
<g>
</g>
</svg>
