<?xml version="1.0" encoding="iso-8859-1"?>
<!-- Generator: Adobe Illustrator 19.0.0, SVG Export Plug-In . SVG Version: 6.00 Build 0)  -->
<svg version="1.1" id="Layer_1" xmlns="http://www.w3.org/2000/svg" xmlns:xlink="http://www.w3.org/1999/xlink" x="0px" y="0px"
	 viewBox="0 0 512 512" style="enable-background:new 0 0 512 512;" xml:space="preserve">
<path style="fill:#B3B3B3;" d="M399.7,333.374l-4.012,15.264l-14.356,54.676L121.83,383.068l-78.308-33.264l-8.663-3.681
	l16.761-22.295c19.264-25.632,51.596-37.829,82.983-31.313l201.292,41.792L399.7,333.374z"/>
<path style="fill:#CCCCCC;" d="M395.688,348.638l-14.356,54.676L121.83,383.068l-78.308-33.264l8.098-10.773
	c19.264-25.632,51.596-37.829,82.983-31.313l201.292,41.792L395.688,348.638z"/>
<path style="fill:#E6E6E6;" d="M344.37,351.129c-47.688-89.538-60.3-193.63-35.404-291.962l8.896-35.138l169.291,347.96"/>
<path style="fill:#CCCCCC;" d="M373.817,351.129c-46.921-88.098-59.859-190.283-36.548-287.21L317.863,24.03l-8.896,35.138
	C284.07,157.5,296.683,261.593,344.371,351.13l5.296,10.724l25.359,15.543l8.589-2.454L373.817,351.129z"/>
<path style="fill:#F2F2F2;" d="M438.734,272.469l-4.995,1.325c-17.714,4.701-36.316-3.54-44.737-19.819l0,0
	c-7.849-15.176-4.931-33.693,7.206-45.717l7.615-7.545"/>
<path style="fill:#82B236;" d="M511.996,423.057c0,35.853-29.056,64.909-64.909,64.909H77.265c-21.338,0-40.651-8.65-54.639-22.626
	C8.65,451.352,0,432.039,0,410.701c0-44.7,37.829-80.075,82.431-77.093l310.521,20.773l13.497,0.908l44.97,3.006
	c17.055,1.141,32.197,8.785,43.08,20.43C505.383,390.357,511.996,405.977,511.996,423.057z"/>
<path style="fill:#6E9327;" d="M469.306,465.754H99.486c-42.674,0-77.269-34.594-77.269-77.269l0,0
	c0-15.691,4.674-30.223,12.651-42.36c-20.923,13.77-34.867,37.445-34.867,64.577l0,0c0,42.674,34.594,77.269,77.269,77.269h369.821
	c23.62,0,44.289-12.62,55.644-31.482C492.97,462.368,481.534,465.754,469.306,465.754z"/>
<path style="fill:#CCCCCC;" d="M512,423.056c0,35.853-29.056,64.909-64.909,64.909h-47.387V354.834l51.731,3.46
	c17.043,1.141,32.185,8.798,43.068,20.43C505.374,390.356,512,405.976,512,423.056z"/>
<path style="fill:#D6D6D6;" d="M494.503,378.724c-10.884-11.632-26.025-19.289-43.068-20.43l-51.731-3.46v14.114l33.327,2.229
	c17.043,1.141,32.185,8.798,43.068,20.43c10.871,11.632,17.497,27.252,17.497,44.332c0,17.946-7.28,34.188-19.048,45.937
	C496.67,471.534,512,449.094,512,423.057C512,405.976,505.374,390.356,494.503,378.724z"/>
<g>
	<polygon style="fill:#F2F2F2;" points="406.449,355.289 406.449,487.966 392.951,487.966 392.951,354.381 	"/>
	<path style="fill:#F2F2F2;" d="M59.007,419.903c-3.893,0-7.433-2.544-8.698-6.216c-1.28-3.715,0.017-7.949,3.145-10.322
		c6.765-5.133,16.577,1.344,14.47,9.595C66.896,416.986,63.169,419.903,59.007,419.903z"/>
	<path style="fill:#F2F2F2;" d="M355.392,430.603c-8.39,0-12.33-10.805-5.942-16.224c2.966-2.517,7.315-2.864,10.654-0.882
		c3.283,1.949,5.034,5.863,4.328,9.61C363.62,427.408,359.772,430.603,355.392,430.603z"/>
	<path style="fill:#F2F2F2;" d="M213.378,459.107c-8.298,0-12.287-10.584-6.118-16.078c6.406-5.704,16.882,0.187,15.136,8.666
		C221.523,455.941,217.73,459.107,213.378,459.107z"/>
</g>
<g>
</g>
<g>
</g>
<g>
</g>
<g>
</g>
<g>
</g>
<g>
</g>
<g>
</g>
<g>
</g>
<g>
</g>
<g>
</g>
<g>
</g>
<g>
</g>
<g>
</g>
<g>
</g>
<g>
</g>
</svg>
