<?xml version="1.0" encoding="iso-8859-1"?>
<!-- Generator: Adobe Illustrator 19.0.0, SVG Export Plug-In . SVG Version: 6.00 Build 0)  -->
<svg version="1.1" id="Layer_1" xmlns="http://www.w3.org/2000/svg" xmlns:xlink="http://www.w3.org/1999/xlink" x="0px" y="0px"
	 viewBox="0 0 512 512" style="enable-background:new 0 0 512 512;" xml:space="preserve">
<path style="fill:#999999;" d="M420.662,38.656v434.688c0,21.346-17.31,38.656-38.656,38.656H130.004
	c-15.323,0-28.574-8.911-34.828-21.845c-2.462-5.083-3.84-10.789-3.84-16.811V38.656C91.336,17.31,108.646,0,130.004,0h252.002
	c10.033,0,19.188,3.828,26.063,10.106C415.81,17.176,420.662,27.355,420.662,38.656z"/>
<path style="fill:#B3B3B3;" d="M420.662,38.656v434.688c0,21.346-17.31,38.656-38.656,38.656H130.004
	c-15.323,0-28.574-8.911-34.828-21.845L408.069,10.106C415.81,17.176,420.662,27.355,420.662,38.656z"/>
<rect x="91.336" y="68.267" style="fill:#72C5D5;" width="329.326" height="371.493"/>
<polygon style="fill:#9CE6EF;" points="420.662,68.267 420.662,439.759 128.029,439.759 370.157,68.267 "/>
<g>
	<rect x="91.338" y="60.952" style="fill:#808080;" width="329.326" height="14.629"/>
	<rect x="91.338" y="432.445" style="fill:#808080;" width="329.326" height="14.629"/>
</g>
<path style="fill:#EE4948;" d="M257.654,170.885c-9.815-72.781-116.437-72.781-126.252,0c-0.55,4.08-0.834,8.244-0.834,12.476
	c0,41.127,26.845,75.966,63.96,88.002c37.116-12.036,63.96-46.875,63.96-88.002C258.488,179.129,258.204,174.965,257.654,170.885z"
	/>
<circle style="fill:#FFFFFF;" cx="194.523" cy="180.334" r="28.123"/>
<path style="fill:#999999;" d="M256.004,491.677c-6.162,0-11.763-3.986-13.8-9.796c-1.981-5.65-0.232-12.134,4.354-16.001
	c4.746-4.002,11.742-4.563,17.046-1.317c5.179,3.17,7.94,9.387,6.735,15.35C268.976,486.667,262.905,491.677,256.004,491.677z"/>
<rect x="323.852" y="362.789" style="fill:#CEBE9B;" width="27.002" height="30.61"/>
<polygon style="fill:#82B236;" points="391.469,369.033 353.905,327.979 385.085,327.979 350.041,289.679 379.031,289.679 
	342.396,249.639 366.246,249.639 337.348,218.056 308.451,249.639 332.3,249.639 295.665,289.679 324.656,289.679 289.612,327.979 
	320.791,327.979 283.227,369.033 "/>
<g>
</g>
<g>
</g>
<g>
</g>
<g>
</g>
<g>
</g>
<g>
</g>
<g>
</g>
<g>
</g>
<g>
</g>
<g>
</g>
<g>
</g>
<g>
</g>
<g>
</g>
<g>
</g>
<g>
</g>
</svg>
