<?xml version="1.0" encoding="iso-8859-1"?>
<!-- Generator: Adobe Illustrator 19.0.0, SVG Export Plug-In . SVG Version: 6.00 Build 0)  -->
<svg version="1.1" id="Capa_1" xmlns="http://www.w3.org/2000/svg" xmlns:xlink="http://www.w3.org/1999/xlink" x="0px" y="0px"
	 viewBox="0 0 511.999 511.999" style="enable-background:new 0 0 511.999 511.999;" xml:space="preserve">
<path style="fill:#14AAB2;" d="M231.823,451.604L6.627,166.372c-8.082-10.237-8.841-24.454-1.895-35.493l42.665-67.802
	c5.639-8.961,15.484-14.398,26.071-14.398H438.53c10.587,0,20.433,5.437,26.071,14.398l42.665,67.802
	c6.947,11.039,6.188,25.257-1.895,35.493L280.177,451.604C267.844,467.225,244.156,467.225,231.823,451.604z"/>
<path style="fill:#99EBFF;" d="M231.823,451.604L6.627,166.372c-8.082-10.237-8.841-24.454-1.895-35.493l42.665-67.802
	c5.639-8.961,15.484-14.398,26.071-14.398H438.53L256,463.32C246.995,463.32,237.99,459.415,231.823,451.604z"/>
<path style="fill:#0FBBCF;" d="M507.268,130.878l-42.666-67.802c-5.638-8.961-15.484-14.398-26.071-14.398H73.469
	c-10.587,0-20.433,5.437-26.071,14.398L4.732,130.878H507.268z"/>
<path style="fill:#4ECFDE;" d="M464.602,63.076c-5.638-8.961-15.484-14.398-26.071-14.398H256l146.346,82.2L464.602,63.076z"/>
<path style="fill:#DBF9FF;" d="M231.823,451.604L6.627,166.372c-8.082-10.237-8.841-24.454-1.895-35.493l42.665-67.802
	c5.639-8.961,15.484-14.398,26.071-14.398H256V463.32C246.995,463.32,237.99,459.415,231.823,451.604z"/>
<g>
	<polygon style="fill:#4ECFDE;" points="73.469,48.678 256,48.678 256,463.32 	"/>
	<path style="fill:#4ECFDE;" d="M4.732,130.878l42.665-67.802c5.639-8.961,15.484-14.398,26.071-14.398H256l0.001,82.2H4.732z"/>
</g>
<path style="fill:#DBF9FF;" d="M109.654,130.878L47.397,63.076c5.639-8.961,15.484-14.398,26.071-14.398H256l0.001,82.2H109.654z"/>
<path style="fill:#99EBFF;" d="M109.654,130.878L47.397,63.076c5.639-8.961,15.484-14.398,26.071-14.398H256L109.654,130.878z"/>
<g>
</g>
<g>
</g>
<g>
</g>
<g>
</g>
<g>
</g>
<g>
</g>
<g>
</g>
<g>
</g>
<g>
</g>
<g>
</g>
<g>
</g>
<g>
</g>
<g>
</g>
<g>
</g>
<g>
</g>
</svg>
