<?xml version="1.0" encoding="iso-8859-1"?>
<!-- Generator: Adobe Illustrator 18.0.0, SVG Export Plug-In . SVG Version: 6.00 Build 0)  -->
<!DOCTYPE svg PUBLIC "-//W3C//DTD SVG 1.1//EN" "http://www.w3.org/Graphics/SVG/1.1/DTD/svg11.dtd">
<svg version="1.1" id="Capa_1" xmlns="http://www.w3.org/2000/svg" xmlns:xlink="http://www.w3.org/1999/xlink" x="0px" y="0px"
	 viewBox="0 0 154 154" style="enable-background:new 0 0 154 154;" xml:space="preserve">
<g>
	<circle style="fill:#F4A0DC;" cx="77" cy="77" r="77"/>
	<g>
		<path style="fill:#FFFFFF;" d="M76.115,77.015c0.03,0,0.058,0.002,0.088,0.002l-0.007-33.523l-3.738-0.001l-0.002,0.184
			l0.002,30.608v2.938C73.56,77.096,74.769,77.015,76.115,77.015z"/>
		<path style="fill:#E0E6EB;" d="M76.203,77.017c0.017,0,0.031,0.001,0.048,0.001c0.029,0,0.059-0.003,0.089-0.003
			c0.144,0,0.284,0.012,0.427,0.014c0.377,0.007,0.749,0.018,1.107,0.035c0.204,0.012,0.408,0.023,0.611,0.039
			c0.508,0.036,0.998,0.08,1.467,0.135l-0.001-2.993l-0.002-30.566l0.005-0.184l-3.758-0.001L76.203,77.017z"/>
		<path style="fill:#6E4B36;" d="M78.271,23.775l-0.098-0.179c-0.565,0.364-1.247,0.571-1.972,0.566
			c-0.724,0.004-1.396-0.202-1.973-0.56l-0.097,0.179L72.46,38.326l7.485,0.003L78.271,23.775z"/>
		<path style="fill:#FCD222;" d="M78.174,23.597c1.065-0.657,1.771-1.836,1.771-3.174c0-2.068-1.68-3.753-3.749-3.749
			c-2.069,0.002-3.745,1.679-3.742,3.748c0,1.345,0.706,2.53,1.775,3.182c0.576,0.357,1.249,0.563,1.973,0.56
			C76.927,24.168,77.608,23.961,78.174,23.597z"/>
		<path style="fill:#FCD222;" d="M79.954,43.494l4.348-0.002c0.285-0.004,0.562-0.05,0.817-0.135
			c1.029-0.344,1.763-1.303,1.767-2.449c0-1.428-1.155-2.584-2.584-2.583l-4.356,0.004l-7.485-0.003l-4.358,0.005
			c-1.429,0-2.584,1.153-2.584,2.582s1.155,2.583,2.583,2.583l4.357-0.004l3.738,0.001L79.954,43.494z"/>
		<path style="fill:#CACED6;" d="M40.669,119.021c0.157-0.521,0.372-1.087,0.659-1.697c0,0,0.693,1.438,1.372,3.031
			c0.138-0.457,0.325-0.952,0.575-1.487c0,0,0.398,0.824,0.863,1.875c0.158-0.83,0.448-1.775,0.957-2.861
			c0,0,0.948,1.964,1.758,3.925c0.294-0.893,0.554-1.61,0.554-1.61c0.239,0.677,0.362,1.254,0.439,1.775
			c0.46-1.438,0.931-2.741,0.931-2.741c0.233,0.657,0.387,1.25,0.496,1.794c0.123-0.234,0.261-0.474,0.418-0.721
			c0,0,0.466,1.363,0.896,2.848h0.003c0.077-1.011,0.375-2.245,1.072-3.736c0,0,0.896,1.851,1.686,3.749l0.83,0.006
			c0.268-0.797,0.49-1.411,0.49-1.411c0.184,0.524,0.296,0.985,0.381,1.414l0.094,0.002c0.466-1.461,0.948-2.795,0.948-2.795
			c0.179,0.51,0.314,0.98,0.416,1.422c0.175-0.637,0.42-1.331,0.778-2.096c0,0,0.807,1.667,1.565,3.463
			c0.353-1.104,0.712-2.098,0.712-2.098c0.29,0.827,0.436,1.529,0.495,2.125l0.306,0.001c0.268-0.811,0.497-1.438,0.497-1.438
			c0.164,0.47,0.275,0.891,0.359,1.284c0.104-0.738,0.348-1.605,0.823-2.621c0,0,0.648,1.345,1.258,2.79h0.061
			c0.093-0.99,0.394-2.183,1.063-3.616c0,0,0.855,1.772,1.634,3.629l0.222,0.001c0.251-0.75,0.456-1.315,0.456-1.315
			c0.169,0.484,0.281,0.915,0.364,1.317l0.224,0.002c0.406-1.244,0.782-2.283,0.782-2.283c0.23,0.657,0.387,1.248,0.496,1.792
			c0.124-0.233,0.262-0.472,0.418-0.72c0,0,0.17,0.499,0.399,1.221h0.003c0.382-1.216,0.81-2.397,0.81-2.397
			c0.338,0.965,0.473,1.75,0.511,2.403h0.079c0.352-1.095,0.707-2.078,0.707-2.078c0.164,0.469,0.277,0.892,0.36,1.284
			c0.103-0.737,0.348-1.605,0.823-2.619c0,0,0.533,1.104,1.087,2.388c0.365-1.151,0.751-2.216,0.751-2.216
			c0.322,0.916,0.462,1.675,0.508,2.31c0.355-1.111,0.72-2.117,0.72-2.117c0.464,1.319,0.564,2.327,0.52,3.074h0.024
			c-0.007-0.715,0.112-1.626,0.521-2.789c0,0,0.305,0.846,0.629,1.841c0.075-0.537,0.202-1.136,0.45-1.841
			c0,0,0.347,0.956,0.693,2.036c0.595-1.396,1.207-2.666,1.207-2.666c0.476,1.017,0.72,1.883,0.824,2.621
			c0.083-0.395,0.195-0.816,0.358-1.285c0,0,0.362,0.999,0.717,2.109h0.069c0.034-0.66,0.168-1.454,0.512-2.434
			c0,0,0.429,1.181,0.811,2.401c0.23-0.724,0.402-1.226,0.402-1.226c0.155,0.247,0.293,0.487,0.417,0.72
			c0.109-0.543,0.265-1.134,0.496-1.792c0,0,0.388,1.072,0.804,2.345l0.191,0.001c0.084-0.421,0.195-0.871,0.375-1.38
			c0,0,0.217,0.6,0.479,1.383l0.166,0.001c0.787-1.882,1.667-3.699,1.667-3.699c0.693,1.479,0.989,2.704,1.07,3.713h0.012
			c0.621-1.482,1.3-2.887,1.3-2.887c0.476,1.015,0.72,1.881,0.823,2.62c0.084-0.395,0.195-0.816,0.359-1.283
			c0,0,0.251,0.693,0.54,1.563l0.251,0.001c0.051-0.623,0.195-1.365,0.507-2.253c0,0,0.359,0.992,0.712,2.097
			c0.759-1.795,1.565-3.464,1.565-3.464c0.358,0.768,0.604,1.461,0.778,2.099c0.104-0.441,0.237-0.914,0.416-1.423
			c0,0,0.521,1.441,1.004,2.968h0.01c0.082-0.477,0.2-0.991,0.41-1.588c0,0,0.256,0.707,0.549,1.594l0.691,0.002
			c0.811-1.966,1.765-3.941,1.765-3.941c0.699,1.496,0.996,2.73,1.073,3.746c0.431-1.488,0.897-2.855,0.897-2.855
			c0.157,0.247,0.295,0.487,0.419,0.719c0.108-0.543,0.264-1.136,0.495-1.791c0,0,0.472,1.3,0.931,2.737
			c0.078-0.52,0.201-1.096,0.439-1.774c0,0,0.26,0.717,0.554,1.608c0.809-1.959,1.758-3.923,1.758-3.923
			c0.509,1.086,0.8,2.03,0.957,2.86c0.465-1.05,0.863-1.874,0.863-1.874c0.251,0.537,0.438,1.03,0.575,1.488
			c0.68-1.595,1.373-3.032,1.373-3.032c0.286,0.61,0.501,1.176,0.659,1.696c0.12-0.282,0.24-0.558,0.358-0.827
			c-0.537-22.996-14.49-41.716-32.277-43.969l0.001,2.993c5.547,0.651,8.375,2.527,8.375,2.527s-7.54-1.904-11.952-1.904
			c-4.412,0-11.952,1.904-11.952,1.904s2.518-1.906,8.035-2.542v-2.938C54.727,76.702,40.869,95.49,40.444,118.5
			C40.519,118.672,40.594,118.845,40.669,119.021z"/>
		<path style="fill:#CACED6;" d="M77.874,77.063c0.208,0.011,0.41,0.025,0.611,0.039C78.282,77.087,78.078,77.075,77.874,77.063z"/>
		<path style="fill:#CACED6;" d="M76.34,77.015c-0.03,0-0.06,0.003-0.089,0.003c0.177,0.001,0.343,0.008,0.516,0.011
			C76.624,77.026,76.483,77.015,76.34,77.015z"/>
		<path style="fill:#8C9095;" d="M77.874,77.063c-0.358-0.018-0.73-0.028-1.107-0.035c-0.173-0.003-0.339-0.01-0.516-0.011
			c-0.017,0-0.031-0.001-0.048-0.001c-0.03,0-0.058-0.002-0.088-0.002c-1.346,0-2.556,0.081-3.657,0.208
			c-5.518,0.636-8.035,2.542-8.035,2.542s7.54-1.904,11.952-1.904c4.412,0,11.952,1.904,11.952,1.904s-2.828-1.876-8.375-2.527
			c-0.469-0.055-0.959-0.099-1.467-0.135C78.284,77.089,78.082,77.074,77.874,77.063z"/>
		<path style="fill:#82CE41;" d="M113.477,115.491c0,0-0.588,1.218-1.249,2.722c-0.118,0.27-0.238,0.545-0.358,0.827
			c-0.158-0.521-0.373-1.086-0.659-1.696c0,0-0.693,1.438-1.373,3.032c-0.138-0.458-0.324-0.951-0.575-1.488
			c0,0-0.398,0.824-0.863,1.874c-0.157-0.83-0.448-1.774-0.957-2.86c0,0-0.948,1.964-1.758,3.923
			c-0.294-0.892-0.554-1.608-0.554-1.608c-0.238,0.678-0.361,1.254-0.439,1.774c-0.459-1.438-0.931-2.737-0.931-2.737
			c-0.231,0.655-0.387,1.248-0.495,1.791c-0.124-0.231-0.262-0.472-0.419-0.719c0,0-0.467,1.367-0.897,2.855
			c-0.077-1.016-0.374-2.25-1.073-3.746c0,0-0.954,1.976-1.765,3.941l-0.691-0.002c-0.293-0.887-0.549-1.594-0.549-1.594
			c-0.21,0.597-0.328,1.111-0.41,1.588h-0.01c-0.482-1.526-1.004-2.968-1.004-2.968c-0.179,0.509-0.313,0.981-0.416,1.423
			c-0.175-0.638-0.42-1.331-0.778-2.099c0,0-0.807,1.669-1.565,3.464c-0.352-1.104-0.712-2.097-0.712-2.097
			c-0.312,0.888-0.456,1.63-0.507,2.253l-0.251-0.001c-0.289-0.87-0.54-1.563-0.54-1.563c-0.164,0.467-0.275,0.889-0.359,1.283
			c-0.104-0.739-0.348-1.605-0.823-2.62c0,0-0.679,1.404-1.3,2.887h-0.012c-0.081-1.009-0.377-2.233-1.07-3.713
			c0,0-0.88,1.817-1.667,3.699l-0.166-0.001c-0.263-0.783-0.479-1.383-0.479-1.383c-0.18,0.509-0.291,0.959-0.375,1.38l-0.191-0.001
			c-0.416-1.272-0.804-2.345-0.804-2.345c-0.231,0.658-0.387,1.249-0.496,1.792c-0.124-0.232-0.262-0.473-0.417-0.72
			c0,0-0.172,0.502-0.402,1.226c-0.382-1.221-0.811-2.401-0.811-2.401c-0.344,0.979-0.478,1.773-0.512,2.434h-0.069
			c-0.354-1.11-0.717-2.109-0.717-2.109c-0.163,0.469-0.275,0.891-0.358,1.285c-0.104-0.738-0.349-1.604-0.824-2.621
			c0,0-0.612,1.27-1.207,2.666c-0.347-1.08-0.693-2.036-0.693-2.036c-0.248,0.705-0.375,1.304-0.45,1.841
			c-0.324-0.995-0.629-1.841-0.629-1.841c-0.409,1.163-0.528,2.074-0.521,2.789h-0.024c0.045-0.747-0.056-1.755-0.52-3.074
			c0,0-0.364,1.006-0.72,2.117c-0.046-0.635-0.186-1.394-0.508-2.31c0,0-0.386,1.064-0.751,2.216
			c-0.554-1.283-1.087-2.388-1.087-2.388c-0.476,1.014-0.72,1.882-0.823,2.619c-0.083-0.393-0.196-0.815-0.36-1.284
			c0,0-0.355,0.983-0.707,2.078h-0.079c-0.038-0.653-0.173-1.438-0.511-2.403c0,0-0.428,1.182-0.81,2.397h-0.003
			c-0.229-0.722-0.399-1.221-0.399-1.221c-0.156,0.248-0.294,0.486-0.418,0.72c-0.109-0.544-0.266-1.135-0.496-1.792
			c0,0-0.376,1.039-0.782,2.283l-0.224-0.002c-0.083-0.402-0.195-0.833-0.364-1.317c0,0-0.205,0.565-0.456,1.315l-0.222-0.001
			c-0.778-1.856-1.634-3.629-1.634-3.629c-0.67,1.434-0.971,2.626-1.063,3.616h-0.061c-0.609-1.445-1.258-2.79-1.258-2.79
			c-0.476,1.016-0.72,1.883-0.823,2.621c-0.084-0.394-0.195-0.814-0.359-1.284c0,0-0.229,0.628-0.497,1.438l-0.306-0.001
			c-0.06-0.596-0.205-1.298-0.495-2.125c0,0-0.359,0.993-0.712,2.098c-0.759-1.796-1.565-3.463-1.565-3.463
			c-0.358,0.765-0.604,1.459-0.778,2.096c-0.102-0.441-0.237-0.912-0.416-1.422c0,0-0.482,1.334-0.948,2.795l-0.094-0.002
			c-0.085-0.429-0.197-0.89-0.381-1.414c0,0-0.223,0.614-0.49,1.411l-0.83-0.006c-0.79-1.898-1.686-3.749-1.686-3.749
			c-0.697,1.491-0.995,2.726-1.072,3.736h-0.003c-0.43-1.484-0.896-2.848-0.896-2.848c-0.157,0.247-0.295,0.486-0.418,0.721
			c-0.109-0.544-0.264-1.137-0.496-1.794c0,0-0.471,1.303-0.931,2.741c-0.077-0.521-0.2-1.099-0.439-1.775
			c0,0-0.26,0.718-0.554,1.61c-0.81-1.961-1.758-3.925-1.758-3.925c-0.509,1.086-0.799,2.031-0.957,2.861
			c-0.465-1.051-0.863-1.875-0.863-1.875c-0.25,0.535-0.438,1.03-0.575,1.487c-0.679-1.594-1.372-3.031-1.372-3.031
			c-0.287,0.61-0.502,1.176-0.659,1.697c-0.075-0.176-0.149-0.349-0.225-0.521c-0.714-1.644-1.384-3.031-1.384-3.031
			c-2.089,4.46-0.899,6.826-0.304,7.629c0.159,0.214,0.277,0.323,0.277,0.323s0.175,0.094,0.435,0.215
			c2.013,1.422,8.342,5.276,19.365,6.513c10.971,1.229,46.549,1.849,54.67-6.708C113.504,123.44,116.124,121.14,113.477,115.491z"/>
	</g>
</g>
<g>
</g>
<g>
</g>
<g>
</g>
<g>
</g>
<g>
</g>
<g>
</g>
<g>
</g>
<g>
</g>
<g>
</g>
<g>
</g>
<g>
</g>
<g>
</g>
<g>
</g>
<g>
</g>
<g>
</g>
</svg>
