<?xml version="1.0" encoding="iso-8859-1"?>
<!-- Generator: Adobe Illustrator 19.0.0, SVG Export Plug-In . SVG Version: 6.00 Build 0)  -->
<svg version="1.1" id="Layer_1" xmlns="http://www.w3.org/2000/svg" xmlns:xlink="http://www.w3.org/1999/xlink" x="0px" y="0px"
	 viewBox="0 0 511.996 511.996" style="enable-background:new 0 0 511.996 511.996;" xml:space="preserve">
<polygon style="fill:#FFCE54;" points="286.671,194.014 222.014,198.014 222.014,347.34 252.67,330.013 297.343,347.34 "/>
<polygon style="fill:#ED5564;" points="166.015,158.014 180.671,194.014 331.343,194.014 352.67,158.014 "/>
<polygon style="fill:#CCD1D9;" points="330.999,417.871 259.686,332.731 145.999,382.996 79,502.996 352.67,502.996 "/>
<rect x="238.018" y="72.668" style="fill:#965353;" width="36.657" height="80"/>
<path style="fill:#ED5564;" d="M282.999,43.171c0,16.156-13.094,29.25-29.25,29.25c-16.141,0-29.234-13.094-29.234-29.25
	c0-16.155,13.094-29.249,29.234-29.249C269.905,13.922,282.999,27.016,282.999,43.171z"/>
<polygon style="fill:#AAB2BC;" points="389.998,390.496 284.108,342.215 334.499,417.871 360.498,507.996 438.997,499.496 "/>
<path d="M447.044,496.934l-49.952-110.469c-1.062-2.344-2.938-4.234-5.281-5.312l-93.14-42.671V202.654h32
	c3.562,0,6.891-1.781,8.875-4.75l21.327-32c2.188-3.266,2.391-7.469,0.531-10.937c-1.859-3.469-5.469-5.625-9.406-5.625h-69.327
	V75.936c9.734-7.828,16-19.828,16-33.281C298.671,19.14,279.53,0,255.999,0s-42.671,19.141-42.671,42.655
	c0,13.453,6.265,25.453,16,33.281v73.406H160c-3.938,0-7.546,2.156-9.406,5.625c-1.859,3.468-1.656,7.671,0.531,10.937l21.328,32
	c1.984,2.969,5.312,4.75,8.875,4.75h32v138.28l-71.078,37.155c-1.641,0.875-3.047,2.156-4.047,3.719L65.672,495.59
	c-2.094,3.281-2.234,7.453-0.359,10.875c1.875,3.406,5.453,5.531,9.359,5.531h277.264c0.016,0,0.031,0,0.047,0
	c0.031,0,0.062,0,0.094,0h85.249c3.625,0,7-1.844,8.969-4.875C448.263,504.059,448.544,500.23,447.044,496.934z M235.608,36.374
	c1.672,3.719,5.391,6.281,9.719,6.281c5.891,0,10.672-4.766,10.672-10.656c0-4.327-2.578-8.046-6.281-9.718
	c1.984-0.625,4.094-0.938,6.281-0.938c11.766,0,21.329,9.562,21.329,21.312c0,11.781-9.562,21.344-21.329,21.344
	c-11.766,0-21.328-9.562-21.328-21.344C234.67,40.468,234.998,38.374,235.608,36.374z M255.998,85.343
	c1.813,0,3.579-0.125,5.329-0.359v21.672H250.67V84.983C252.42,85.218,254.186,85.343,255.998,85.343z M250.67,127.999h10.657
	v21.344H250.67L250.67,127.999L250.67,127.999z M179.936,170.654h60.062h32h60.062l-7.109,10.688h-36.953h-64h-36.953
	L179.936,170.654z M234.67,202.654h42.657V328.7l-10.656-4.891v-57.155c0-5.875-4.781-10.656-10.672-10.656
	c-5.891,0-10.672,4.781-10.672,10.656V324.2l-10.656,5.578V202.654H234.67z M154.656,395.684l98.796-51.656l67.485,78.078
	l17.359,68.547H94.124L154.656,395.684z M360.295,490.652l-19.296-76.219c-0.406-1.625-1.172-3.109-2.266-4.375l-42.594-49.281
	l83.155,38.109l41.499,91.766H360.295z"/>
<g>
</g>
<g>
</g>
<g>
</g>
<g>
</g>
<g>
</g>
<g>
</g>
<g>
</g>
<g>
</g>
<g>
</g>
<g>
</g>
<g>
</g>
<g>
</g>
<g>
</g>
<g>
</g>
<g>
</g>
</svg>
